<?xml version="1.0" encoding="UTF-8"?>
<svg id="Ebene_1" data-name="Ebene 1" xmlns="http://www.w3.org/2000/svg" version="1.1" xmlns:xlink="http://www.w3.org/1999/xlink" viewBox="0 0 595.28 841.89">
  <defs>
    <style>
      .cls-1 {
        clip-path: url(#clippath-2);
      }

      .cls-2 {
        fill: #e7392c;
      }

      .cls-2, .cls-3, .cls-4, .cls-5, .cls-6, .cls-7, .cls-8 {
        stroke-width: 0px;
      }

      .cls-9 {
        opacity: .7;
      }

      .cls-3, .cls-10, .cls-11 {
        fill: none;
      }

      .cls-4 {
        fill: #1e1e1c;
      }

      .cls-5 {
        fill: #646363;
      }

      .cls-12 {
        clip-path: url(#clippath-1);
      }

      .cls-10 {
        stroke-width: .63px;
      }

      .cls-10, .cls-11 {
        stroke: #646363;
      }

      .cls-6 {
        fill: #e3e3e3;
      }

      .cls-11 {
        stroke-width: 1.27px;
      }

      .cls-13 {
        clip-path: url(#clippath);
      }

      .cls-7 {
        fill: #1d1d1b;
      }

      .cls-8 {
        fill: #fff;
      }
    </style>
    <clipPath id="clippath">
      <rect class="cls-3" x="139.45" y="632.63" width="49.99" height="39.99"/>
    </clipPath>
    <clipPath id="clippath-1">
      <rect class="cls-3" x="222.95" y="611.14" width="49.99" height="39.99"/>
    </clipPath>
    <clipPath id="clippath-2">
      <rect class="cls-3" x="336.24" y="605.04" width="49.99" height="39.99"/>
    </clipPath>
  </defs>
  <g>
    <path class="cls-4" d="M388.23,147.84c-1.07-1.02-2.51-2.08-4.82-2.08-2.82,0-4.42,1.5-4.42,3.66,0,1.92,1.57,2.82,3.49,3.08l1.25.17c.98.12,1.91.34,1.91,1.12,0,.91-1.21,1.27-2.01,1.27-1.18,0-2.43-.5-3.16-1.38l-2.08,1.32c1.12,1.3,2.43,2.22,4.99,2.22,3.13,0,4.98-1.5,4.98-3.81,0-1.88-1.18-2.74-4.03-3.15l-1.21-.17c-.93-.14-1.39-.42-1.39-1.01,0-.51.51-1.16,1.63-1.16,1.18,0,2.08.54,2.87,1.36l2.02-1.44ZM390.28,151.45c0,3.01,1.83,5.84,5.44,5.84s5.52-2.79,5.52-5.72c0-2.6-1.57-5.89-5.55-5.89s-5.41,3.27-5.41,5.76M392.98,151.42c0-1.47.64-3.44,2.71-3.44,1.94,0,2.8,1.58,2.8,3.56,0,1.53-.73,3.42-2.76,3.42s-2.76-1.8-2.76-3.55M403.33,146.03v10.94h2.73v-4.42h5.22v-2.12h-5.22v-2.29h5.67v-2.11h-8.4ZM420.92,148.18v-2.15h-8.45v2.15h2.85v8.79h2.76v-8.79h2.84ZM436.6,146.03h-2.73l-1.6,7.53-2.04-7.53h-2.43l-1.98,7.53-1.61-7.53h-2.74l2.77,10.94h2.82l1.98-7,1.97,7h2.82l2.77-10.94ZM447.31,156.97l-4.03-10.94h-2.85l-4.06,10.94h2.91l.54-1.75h4.03l.54,1.75h2.91ZM443.23,153.25h-2.77l1.35-4.62,1.43,4.62ZM448.78,146.03v10.94h2.76v-3.9h1.7l2.18,3.9h3.01l-2.53-4.37c1.19-.42,2.25-1.16,2.25-3.02,0-3.13-2.57-3.55-4.2-3.55h-5.18ZM451.52,148.06h2.28c.48,0,1.63.03,1.63,1.46,0,.34-.08,1.52-1.64,1.52h-2.26v-2.98ZM460.8,156.97h8.57v-2.15h-5.84v-2.6h5v-2.08h-5v-1.98h5.36v-2.12h-8.09v10.94Z"/>
    <path class="cls-4" d="M512.78,127.3h-30.87v-58.82c0-.39-.32-.71-.71-.71h-5.45c-.39,0-.71.32-.71.71v64.98c0,.39.32.71.71.71h37.03c.39,0,.71-.32.71-.71v-5.45c0-.39-.32-.71-.71-.71"/>
    <path class="cls-4" d="M468.67,127.32h-33.96c-1.61,0-2.95-1.32-2.93-2.93,0-.59.15-1.12.4-1.46l.04-.06,32.88-47.9c.08-.12.12-.26.12-.4v-6.1c0-.39-.32-.71-.71-.71h-36.46c-.39,0-.71.32-.71.71v5.45c0,.39.31.71.7.71h28.94s-30.36,44.25-30.36,44.25c-1.42,1.94-1.73,4.06-1.73,5.52,0,5.38,4.38,9.76,9.76,9.76h33.99c.39,0,.71-.32.71-.71v-5.43c0-.39-.32-.71-.71-.71"/>
    <path class="cls-4" d="M405.04,106.87c9.88-.99,17.62-9.36,17.62-19.51,0-10.77-8.99-19.59-19.77-19.59h-23.8c-.39,0-.71.32-.71.71v14.97c0,.39.32.71.71.71h5.45c.39,0,.71-.32.71-.71v-8.81h17.81c7.05,0,12.77,5.75,12.73,12.81-.04,7.03-5.85,12.66-12.87,12.66h-14.77c-5.39,0-9.76,4.37-9.76,9.76v23.59c0,.39.32.71.71.71h5.45c.39,0,.71-.32.71-.71v-23.59c0-1.6,1.3-2.9,2.9-2.9h8.63l18.47,26.89c.13.19.35.31.58.31h6.61c.57,0,.9-.64.58-1.11l-17.99-26.19Z"/>
    <path class="cls-2" d="M521.22,67.34c-6.15,0-11.16,4.97-11.16,11.07v2.34s3.42,3.21,3.42,3.21l3.45-3.23v-2.31c0-2.32,1.93-4.21,4.29-4.21s4.29,1.89,4.29,4.21c.05,1.18-1.06,2.7-2.09,3.68l-9.93,9.32s-.02,0-.02,0l-9.94-9.33c-1.41-1.39-2.09-2.59-2.09-3.68-.03-3.23,3.69-5.28,6.47-3.63,0,0,.02,0,.02-.01.62-2.25,1.82-4.27,3.41-5.9,0,0,0-.02,0-.03-7.29-4.3-16.83,1.11-16.76,9.57-.03,3.1,1.54,6.12,4.41,8.84l.03.02,13.98,13.12c.27.26.7.26.97,0l14.05-13.18.19-.18c1.99-1.95,3.25-3.92,3.82-5.98,1.87-6.83-3.72-13.79-10.8-13.7"/>
  </g>
  <g>
    <path class="cls-7" d="M89.86,441.31h-5.59l-1.1,3.36c-.1.26-.14.62-.6.62h-3c-.38,0-.5-.34-.38-.67l5.59-14.79c.38-.98.74-1.34,1.63-1.34h1.51c.91,0,1.3.36,1.63,1.34l5.42,14.79c.12.31,0,.67-.38.67h-3c-.46,0-.5-.34-.6-.65l-1.13-3.34ZM85.22,438.43h3.7l-1.85-5.47-1.85,5.47Z"/>
    <path class="cls-7" d="M108.26,444.6c0,.34-.24.82-1.58.82-1.42,0-2.28-.55-2.54-1.7v-.07c-.34.65-1.18,1.8-3.41,1.8s-4.66-1.82-4.66-5.9c0-4.32,2.54-5.95,5.06-5.95,1.99,0,2.54.94,2.57.98v-6.14c0-.36.14-.55.53-.55h2.54c.36,0,.55.19.55.58v13.03c0,.67.22.89.53.98.19.07.41.12.41.53v1.61ZM103.7,438.57c-.05-.6-.58-1.8-1.97-1.8-1.18,0-2.09.89-2.09,2.71,0,1.97,1.1,2.76,2.09,2.76,1.61,0,1.94-1.61,1.97-1.78v-1.9Z"/>
    <path class="cls-7" d="M128.26,441.5c0,.7.34.98.65.98.24,0,.29.14.29.53v1.58c0,.34-.22.82-1.58.82-1.97,0-3-1.03-3-3.26v-3.53c0-1.13-.62-1.8-1.58-1.8-1.01,0-1.46.72-1.61,1.37v3.31c0,.7.34.98.65.98.24,0,.29.14.29.53v1.58c0,.34-.22.82-1.58.82-1.97,0-2.98-1.03-2.98-3.26v-3.53c0-1.13-.62-1.8-1.58-1.8-1.3,0-1.7,1.08-1.75,1.85v6.07c0,.36-.19.55-.53.55h-2.54c-.38,0-.55-.19-.55-.58v-7.22c0-.77-.43-.94-.67-.96-.19,0-.26-.17-.26-.53v-1.61c0-.34.22-.79,1.58-.79s2.21.55,2.5,1.61v.17c.34-.86,1.2-1.8,3.31-1.8,1.75,0,2.88.77,3.48,1.87.36-.86,1.13-1.87,3.36-1.87,2.95,0,4.13,2.09,4.13,4.61v3.31Z"/>
    <path class="cls-7" d="M132.84,431.76c-1.25,0-2.21-.86-2.21-2.11s.96-2.14,2.21-2.14,2.26.91,2.26,2.14-1.01,2.11-2.26,2.11ZM135.6,444.6c0,.34-.19.82-1.58.82-1.94.02-2.98-1.03-2.98-3.26v-7.87c0-.38.14-.58.53-.58h2.54c.36,0,.55.19.55.58v7.22c0,.82.41.96.67.98.19.02.26.14.26.5v1.61Z"/>
    <path class="cls-7" d="M138.19,437.49c0-.6-.19-.82-.5-.91-.22-.07-.43-.14-.43-.6v-1.58c0-.34.22-.79,1.58-.79s2.21.53,2.5,1.61v.17c.34-.86,1.2-1.8,3.31-1.8,2.95,0,4.13,2.09,4.13,4.61v3.31c0,.62.19.84.48.94.22.1.46.14.46.58v1.58c0,.34-.22.82-1.58.82-1.97,0-2.98-1.03-2.98-3.26v-3.53c0-1.13-.62-1.8-1.58-1.8-1.3,0-1.7,1.08-1.75,1.85v6.07c0,.36-.19.55-.53.55h-2.54c-.38,0-.55-.19-.55-.58v-7.22Z"/>
  </g>
  <g>
    <path class="cls-7" d="M94.06,474.74c0,.36-.22.55-.55.55h-2.78c-.34,0-.53-.19-.53-.55v-5.86h-5.83v5.86c0,.36-.19.55-.53.55h-2.78c-.36,0-.55-.19-.55-.55v-15.7c0-.36.19-.55.55-.55h2.78c.34,0,.53.19.53.55v6.72h5.83v-6.72c0-.36.19-.55.53-.55h2.78c.34,0,.55.19.55.55v15.7Z"/>
    <path class="cls-7" d="M107.71,474.57c0,.36-.19.84-1.58.84s-2.38-.65-2.54-1.73c-.41.74-1.37,1.75-3.55,1.75-2.4,0-3.79-1.37-3.79-3.12,0-2.06,1.27-3.24,4.54-3.24h2.35v-1.32c0-1.08-.53-1.51-1.46-1.51s-1.39.46-1.39,1.25c0,.6.1.72-.53.72h-2.04c-.67,0-.77-.58-.77-1.32,0-1.97,1.66-3.31,4.85-3.31,3.53,0,4.97,1.63,4.97,4.34v3.58c0,.65.31.89.58.98.07.02.38.1.38.5v1.58ZM103.13,470.81h-1.92c-.89,0-1.32.36-1.32.96s.5.94,1.18.94c1.68,0,2.06-1.42,2.06-1.42v-.48Z"/>
    <path class="cls-7" d="M110.04,467.49c0-.6-.19-.82-.5-.91-.22-.07-.43-.14-.43-.6v-1.58c0-.34.22-.79,1.58-.79s2.21.53,2.5,1.61v.17c.34-.86,1.2-1.8,3.31-1.8,2.95,0,4.13,2.09,4.13,4.61v3.31c0,.62.19.84.48.94.22.1.46.14.46.58v1.58c0,.34-.22.82-1.58.82-1.97,0-2.98-1.03-2.98-3.26v-3.53c0-1.13-.62-1.8-1.58-1.8-1.3,0-1.7,1.08-1.75,1.85v6.07c0,.36-.19.55-.53.55h-2.54c-.38,0-.55-.19-.55-.58v-7.22Z"/>
    <path class="cls-7" d="M135.12,474.6c0,.34-.24.82-1.58.82-1.42,0-2.28-.55-2.54-1.7v-.07c-.34.65-1.18,1.8-3.41,1.8s-4.66-1.82-4.66-5.9c0-4.32,2.54-5.95,5.06-5.95,1.99,0,2.54.94,2.57.98v-6.14c0-.36.14-.55.53-.55h2.54c.36,0,.55.19.55.58v13.03c0,.67.22.89.53.98.19.07.41.12.41.53v1.61ZM130.56,468.57c-.05-.6-.58-1.8-1.97-1.8-1.18,0-2.09.89-2.09,2.71,0,1.97,1.1,2.76,2.09,2.76,1.61,0,1.94-1.61,1.97-1.78v-1.9Z"/>
    <path class="cls-7" d="M137.81,475.29c-.38,0-.53-.22-.53-.55v-16.32c0-.36.14-.55.53-.55h2.54c.36,0,.55.19.55.58v6.34s.77-1.2,2.95-1.2,4.66,1.82,4.66,5.9c0,4.32-2.35,5.95-4.87,5.95-1.78,0-2.78-.91-3.22-1.27v.58c0,.31-.12.55-.53.55h-2.09ZM140.9,470.35c0,.58.48,1.9,1.94,1.9,1.2,0,2.09-.89,2.09-2.74,0-1.99-1.13-2.74-2.11-2.74-1.66,0-1.92,1.78-1.92,1.78v1.8Z"/>
    <path class="cls-7" d="M162.1,474.6c0,.34-.22.82-1.58.82-1.44,0-2.26-.6-2.57-1.85v-.02c-.41.84-1.42,1.9-3.7,1.9-2.76,0-3.67-1.78-3.67-4.18v-6.98c0-.36.17-.55.55-.55h2.54c.34,0,.53.19.53.58v6.05c0,1.27.55,1.85,1.37,1.85,1.78,0,1.97-1.85,1.97-2.14v-5.78c0-.36.14-.55.53-.55h2.54c.36,0,.55.19.55.58v7.2c0,.6.22.84.55.96.19.07.38.14.38.55v1.58Z"/>
    <path class="cls-7" d="M169.44,463.58c3.14,0,4.8,1.78,4.8,3.89,0,.5,0,1.46-.77,1.46h-1.78c-.6,0-.62-.14-.62-.7,0-.7-.29-1.46-1.63-1.46-1.42,0-2.14.86-2.14,2.71,0,2.09,1.34,2.76,2.64,2.76,1.1,0,1.82-.46,2.23-.79.31-.24.53-.38.84-.07l.98,1.03c.41.41.41.74.22.98-.6.67-2.04,2.04-4.8,2.04-3.36,0-5.69-2.23-5.69-5.9s1.78-5.95,5.71-5.95Z"/>
    <path class="cls-7" d="M176.49,458.42c0-.36.14-.55.53-.55h2.54c.36,0,.55.19.55.58v6.31c.48-.67,1.34-1.18,2.83-1.18,2.93,0,4.1,2.09,4.1,4.61v3.31c0,.72.26.86.58.98.17.07.38.14.38.5v1.61c0,.43-.34.82-1.61.82-1.97,0-2.98-1.03-2.98-3.26v-3.58c0-1.08-.65-1.75-1.58-1.75-1.27,0-1.73,1.08-1.73,1.85v6.05c0,.38-.19.58-.55.58h-2.54c-.38,0-.53-.19-.53-.55v-16.32Z"/>
  </g>
  <g>
    <path class="cls-6" d="M35.26,724.08c2.22-2.14,5.66-2.22,7.97-.27l34.61-36.28c-1.31-1.38-1.26-3.56.11-4.89,1.38-1.33,3.58-1.3,4.92.09,1.33,1.37,1.29,3.56-.07,4.89l18.68,17.86s.07-.1.12-.14c2.24-2.16,5.81-2.1,7.97.14.25.26.47.55.67.84l23.29-14.22c-1.51-2.74-1.07-6.26,1.29-8.53.2-.2.41-.37.63-.54l-14.03-19.94c-2.08,1.46-4.96,1.24-6.78-.64-2.02-2.09-1.96-5.41.13-7.43,2.09-2.02,5.41-1.96,7.43.13,2.01,2.09,1.96,5.41-.13,7.43-.07.07-.15.11-.22.17l14.04,19.96c1.91-1.24,4.28-1.46,6.36-.68l17.03-39.24c-.84-.41-1.62-.97-2.31-1.68-1.16-1.2-1.88-2.66-2.18-4.19l-3.88.67c.05.81-.22,1.64-.85,2.25-1.14,1.1-2.95,1.07-4.04-.07-1.1-1.14-1.07-2.95.07-4.04,1.14-1.1,2.95-1.07,4.04.07.35.36.57.8.69,1.25l3.89-.67c-.24-1.89.16-3.84,1.2-5.5l-20.63-13.36c-.21.36-.45.71-.76,1.01-1.78,1.72-4.62,1.67-6.34-.11-1.72-1.78-1.67-4.62.11-6.34,1.78-1.72,4.62-1.67,6.34.11,1.28,1.33,1.58,3.24.91,4.84l20.67,13.39c.29-.39.6-.77.96-1.12,2.58-2.5,6.36-2.98,9.42-1.51l8.32-15.46c-.29-.19-.57-.4-.82-.66-1.72-1.78-1.67-4.62.11-6.34,1.78-1.72,4.62-1.67,6.34.11,1.72,1.78,1.67,4.62-.11,6.34-1.38,1.34-3.4,1.59-5.04.81l-8.32,15.45c.68.39,1.32.87,1.9,1.46,2.48,2.57,2.98,6.33,1.52,9.38l46.27,23.88c.21-.35.46-.69.77-1,1.14-1.1,2.68-1.51,4.13-1.29l4.57-16.15c-.82-.31-1.59-.79-2.25-1.47-2.34-2.43-2.27-6.29.15-8.63,2.43-2.34,6.29-2.27,8.63.15,2.34,2.42,2.27,6.29-.15,8.63-1.61,1.56-3.86,2.04-5.87,1.49l-4.55,16.09c.82.22,1.59.64,2.22,1.3.66.68,1.06,1.5,1.24,2.36l56.39-13.29c-.17-1.34.23-2.73,1.18-3.8l-32.22-36.12c-2.43,1.95-5.99,1.76-8.2-.52-2.34-2.43-2.28-6.29.15-8.63,1.74-1.68,4.21-2.11,6.34-1.33l8.35-21.1c-.53-.17-1.03-.46-1.44-.89-1.36-1.41-1.32-3.66.09-5.03,1.41-1.36,3.66-1.32,5.02.09.07.07.12.15.18.23l21.49-15.23c-.55-.88-.44-2.05.34-2.8.89-.86,2.31-.83,3.17.06.86.89.83,2.31-.05,3.17-.87.84-2.24.83-3.1,0l-21.52,15.25c.65,1.11.65,2.48,0,3.59l6.9,4.77c.08-.11.17-.22.27-.31.89-.86,2.31-.84,3.17.05.86.89.83,2.31-.06,3.17-.89.86-2.31.83-3.17-.05-.63-.65-.78-1.58-.47-2.37l-6.95-4.81c-.09.11-.17.22-.27.32-.84.81-1.98,1.12-3.05.94l-8.38,21.17c.65.31,1.26.73,1.79,1.28,2.28,2.36,2.27,6.09.02,8.45l32.21,36.1c1.02-.82,2.27-1.17,3.5-1.06l6.61-43.33c-.68-.07-1.34-.36-1.85-.89-1.16-1.2-1.13-3.12.07-4.29,1.2-1.16,3.12-1.13,4.28.07,1.16,1.2,1.13,3.12-.07,4.29-.53.51-1.2.78-1.88.83l-6.61,43.38c.56.12,1.11.35,1.61.67l64.93-78.49s-.1-.07-.14-.12c-.88-.91-1.32-2.07-1.35-3.24l-10.83-1.2c-.09.55-.35,1.07-.78,1.49-1.07,1.04-2.79,1.01-3.82-.07-1.04-1.07-1.01-2.79.07-3.82,1.07-1.04,2.79-1.01,3.82.07.48.5.73,1.14.75,1.79l10.81,1.2c.1-1.13.57-2.24,1.45-3.09.08-.07.16-.12.24-.19l-16.87-22.76c-2.17,1.5-5.16,1.27-7.06-.69-2.1-2.18-2.04-5.65.14-7.76,2.18-2.1,5.65-2.04,7.76.14,2.1,2.18,2.04,5.65-.14,7.76-.02.02-.04.03-.06.05l16.88,22.78c1.9-1.13,4.38-.86,5.98.79.05.05.08.11.13.16l12.51-11.29c-1.67-2.12-1.52-5.2.47-7.11,2.12-2.05,5.49-1.99,7.54.13,2.05,2.12,1.99,5.49-.13,7.54-2.12,2.04-5.49,1.99-7.53-.13l-12.51,11.29c1.13,1.6,1.17,3.71.15,5.35l60.97,37.17c.42-.62.9-1.21,1.46-1.75,2.22-2.14,5.12-3.14,7.98-3.02l1.45-30.73c-1.35-.08-2.67-.63-3.68-1.67-1.69-1.75-1.98-4.31-.94-6.36l-9.6-4.81c-.12.17-.26.34-.42.49-1.41,1.36-3.66,1.32-5.03-.09-1.36-1.41-1.32-3.66.09-5.03,1.41-1.36,3.66-1.32,5.03.09,1.08,1.12,1.26,2.75.6,4.06l9.59,4.8c.23-.36.49-.71.82-1.02,2.21-2.13,5.73-2.07,7.87.14.57.59.97,1.27,1.22,1.99l4.9-1.35c-.35-.99-.12-2.14.69-2.92,1.11-1.07,2.87-1.04,3.93.07,1.07,1.1,1.04,2.87-.07,3.93-1.11,1.07-2.86,1.04-3.93-.07-.15-.16-.28-.33-.38-.51l-4.99,1.38c.47,1.87-.02,3.92-1.51,5.35-1.02.99-2.32,1.48-3.64,1.54l-1.45,30.76c2.48.23,4.9,1.31,6.77,3.25,4.15,4.3,4.03,11.15-.27,15.29-.71.68-1.49,1.24-2.31,1.69l11.64,21.33c2.97-1.33,6.58-.75,8.98,1.73,3.05,3.16,2.96,8.2-.2,11.25-3.16,3.05-8.2,2.96-11.25-.2-3.05-3.16-2.96-8.2.2-11.25.55-.53,1.15-.95,1.79-1.29l-11.64-21.31c-3.61,1.75-7.97,1.37-11.24-1.11l-21.13,26.84c.07.06.14.12.2.19,2.28,2.36,2.22,6.13-.15,8.41-2.36,2.28-6.13,2.22-8.41-.15-1.1-1.14-1.65-2.61-1.66-4.08l-17.6-1.24c-.15,1.59-.85,3.15-2.09,4.34-1.27,1.23-2.89,1.87-4.52,1.94l.76,10.76c1.28.01,2.55.51,3.51,1.51,1.9,1.96,1.84,5.09-.12,6.99-1.96,1.9-5.1,1.84-6.99-.12-1.9-1.96-1.84-5.1.12-6.99.83-.8,1.87-1.23,2.94-1.34l-.76-10.8c-1.74-.06-3.46-.76-4.76-2.11-.82-.85-1.38-1.85-1.68-2.92l-18.8,4.44c.09.82-.18,1.68-.82,2.3-.46.44-1.04.69-1.63.75-.84.16-1.74-.09-2.38-.75-.64-.66-.86-1.57-.67-2.4.09-.59.35-1.15.81-1.6,1.11-1.07,2.87-1.04,3.93.07.29.3.49.64.62,1.01l18.77-4.6c-.36-2.18.32-4.49,2.03-6.13,2.12-2.05,5.2-2.47,7.73-1.32l3.2-5.7c-.14-.1-.28-.21-.41-.35-1.01-1.04-.98-2.71.06-3.71,1.04-1.01,2.71-.98,3.71.07,1.01,1.04.98,2.71-.06,3.71-.78.75-1.89.92-2.82.54l-3.19,5.68c.58.33,1.13.74,1.62,1.24,1.33,1.38,1.98,3.17,1.95,4.94l17.58,1.24c.12-1.39.71-2.74,1.79-3.79,2.16-2.09,5.5-2.21,7.8-.4l21.11-26.81c-.29-.24-.56-.5-.83-.77-1.67-1.73-2.63-3.86-2.93-6.07l-5.91.4c.02,1.04-.36,2.09-1.17,2.87-1.53,1.48-3.98,1.44-5.46-.1-1.48-1.53-1.44-3.98.1-5.46,1.54-1.48,3.98-1.44,5.46.1.56.58.9,1.3,1.03,2.05l5.88-.4c-.18-2.14.28-4.32,1.37-6.24l-61.04-37.22c-.08.09-.15.19-.24.28-.87.83-1.96,1.26-3.07,1.33l-1.59,18.95c1.35.17,2.65.78,3.67,1.84,1.95,2.02,2.25,5.03.92,7.35l12.19,7.58c.12-.17.25-.34.41-.49,1.23-1.19,3.18-1.15,4.37.08s1.15,3.18-.08,4.37c-1.23,1.19-3.18,1.15-4.37-.08-.9-.93-1.09-2.29-.6-3.4l-12.21-7.6c-.23.33-.49.64-.78.92-1.57,1.52-3.74,2.03-5.72,1.56l-7.18,24.06c.29.13.57.31.81.56.98,1.01.95,2.63-.06,3.61-1.01.98-2.63.95-3.61-.06-.98-1.01-.95-2.63.06-3.61.63-.61,1.49-.82,2.28-.66l7.17-24.04c-.92-.3-1.77-.82-2.49-1.57-2.37-2.46-2.3-6.37.15-8.74,1.26-1.22,2.9-1.79,4.52-1.73l1.58-18.89c-.87-.04-1.74-.31-2.49-.82l-64.91,78.47c.08.07.17.13.25.21,1.87,1.93,1.81,5.01-.12,6.88-1.14,1.1-2.66,1.51-4.11,1.29l-4.58,22.59c1.23.31,2.39.95,3.33,1.92,2.7,2.79,2.62,7.24-.17,9.94-2.24,2.17-5.56,2.54-8.18,1.15l-9.67,15.23c.08.06.16.12.23.2.95.98.92,2.55-.06,3.5-.98.95-2.55.92-3.5-.06-.95-.98-.92-2.55.06-3.5.77-.74,1.89-.88,2.8-.43l9.66-15.21c-.46-.29-.9-.64-1.3-1.05-2.7-2.79-2.62-7.24.17-9.94,1.68-1.62,3.95-2.23,6.08-1.86l4.58-22.59c-.82-.22-1.6-.64-2.23-1.3-.56-.58-.92-1.26-1.14-1.98l-56.46,13.31c.04.98-.21,1.97-.76,2.83l9.3,6.81c.95-.87,2.43-.84,3.34.1.92.95.89,2.47-.06,3.39-.95.92-2.47.89-3.39-.06-.8-.83-.88-2.1-.25-3.02l-9.26-6.78c-.12.15-.23.31-.38.45-.8.77-1.79,1.19-2.81,1.31l11.57,55.31c1.82-.25,3.72.34,5.09,1.75,2.28,2.36,2.22,6.13-.15,8.41-2.36,2.28-6.13,2.22-8.41-.15-2.28-2.36-2.22-6.13.15-8.41.8-.78,1.77-1.27,2.79-1.51l-11.58-55.37c-.78,0-1.55-.19-2.26-.56l-20.35,36.43c.39.24.77.51,1.1.86,2.13,2.21,2.07,5.73-.14,7.87-1.3,1.25-3.05,1.73-4.71,1.48l-4.14,29.29c.42.09.82.3,1.14.63.86.89.84,2.31-.05,3.17-.89.86-2.31.83-3.17-.06-.86-.89-.84-2.31.05-3.17.42-.4.95-.6,1.49-.62l4.15-29.35c-.97-.25-1.88-.74-2.62-1.51-2.13-2.21-2.07-5.73.14-7.87,1.73-1.67,4.25-1.98,6.29-.99l20.35-36.43c-.28-.19-.54-.4-.78-.65-1.43-1.48-1.72-3.64-.91-5.41l-46.25-23.88c-.39.7-.88,1.35-1.49,1.93-.78.76-1.68,1.32-2.63,1.71l5.88,15.86c1.56-.36,3.26.07,4.45,1.3,1.81,1.87,1.76,4.86-.12,6.66-1.87,1.81-4.86,1.76-6.67-.12-1.81-1.87-1.76-4.86.12-6.67.5-.48,1.08-.82,1.69-1.04l-5.86-15.82c-1.91.64-4,.58-5.86-.2l-17.02,39.22c.77.36,1.49.85,2.11,1.5,2,2.07,2.48,5.04,1.49,7.55l11.11,5.06c.22-.38.47-.74.8-1.06,1.87-1.81,4.86-1.76,6.67.12,1.81,1.87,1.76,4.86-.12,6.66-1.87,1.81-4.86,1.76-6.66-.12-1.36-1.4-1.66-3.43-.95-5.12l-11.07-5.04c-.35.73-.83,1.41-1.45,2-1.34,1.29-3.06,1.95-4.79,1.99l-1.72,36.5c.91.08,1.8.46,2.49,1.17,1.22,1.27,1.41,3.13.62,4.6l12.25,9.53s.07-.09.11-.13c1.07-1.04,2.79-1.01,3.82.07,1.04,1.08,1.01,2.79-.07,3.82-1.07,1.04-2.79,1.01-3.82-.07-.86-.9-.98-2.23-.37-3.25l-12.21-9.5c-.13.17-.26.35-.43.5-1.56,1.51-4.06,1.47-5.57-.1-1.51-1.57-1.47-4.06.1-5.57.71-.69,1.62-1.04,2.54-1.08l1.72-36.5c-1.73-.1-3.42-.81-4.72-2.15-.32-.33-.59-.68-.83-1.05l-23.31,14.23c1.12,2.16.78,4.87-1.06,6.65-1.22,1.18-2.84,1.68-4.41,1.54l-4.39,28.9c.84.14,1.65.54,2.29,1.2,1.6,1.66,1.55,4.3-.1,5.9-1.66,1.6-4.3,1.56-5.9-.1-1.6-1.66-1.55-4.3.1-5.9.85-.82,1.97-1.2,3.07-1.16l4.39-28.9c-1.11-.21-2.18-.74-3.02-1.61-1.99-2.06-2.07-5.24-.33-7.42l-18.76-17.94c-1.24.88-2.91.85-4.12-.08l-34.63,36.3s.03.03.05.04c2.28,2.36,2.22,6.13-.15,8.41-2.36,2.28-6.13,2.22-8.41-.15-2.28-2.36-2.22-6.13.15-8.41"/>
    <path class="cls-5" d="M563.88,528.05c-3.59,0-6.54,2.73-6.9,6.23l-58.41-2.4c-.02-2.22-1.83-4.01-4.05-4.01s-4.05,1.82-4.05,4.05,1.8,4.03,4.02,4.05l-1.2,30.11c-.07,0-.14-.02-.21-.02-3.63,0-6.57,2.94-6.57,6.58,0,.43.05.84.13,1.24l-31.05,6.94c-.96-3.52-4.17-6.11-7.99-6.11-.33,0-.65.02-.96.06l-4.38-28.08c2.92-.46,5.17-2.97,5.17-6.03,0-3.38-2.74-6.12-6.12-6.12s-6.12,2.74-6.12,6.12,2.74,6.12,6.12,6.12c.11,0,.22-.03.33-.03l4.39,28.11c-2.61.51-4.77,2.24-5.89,4.58l-46.06-19.11c.37-1.02.58-2.12.58-3.27,0-1.95-.58-3.76-1.57-5.28l3.8-2.58c.61.72,1.51,1.19,2.54,1.19,1.84,0,3.33-1.49,3.33-3.33s-1.49-3.33-3.33-3.33-3.33,1.49-3.33,3.33c0,.59.17,1.13.43,1.61l-3.81,2.58c-1.33-1.78-3.24-3.09-5.46-3.63l6.48-27.91c.47.14.95.23,1.46.23,2.89,0,5.22-2.34,5.22-5.22s-2.34-5.22-5.22-5.22-5.22,2.34-5.22,5.22c0,2.15,1.3,4,3.16,4.8l-6.49,27.97c-.56-.1-1.13-.16-1.71-.16-4.19,0-7.75,2.65-9.12,6.36l-19.5-6.22c.1-.39.16-.8.16-1.22,0-2.88-2.34-5.22-5.22-5.22s-5.22,2.34-5.22,5.22,2.34,5.22,5.22,5.22c2.24,0,4.14-1.42,4.88-3.4l19.48,6.22c-.26.88-.4,1.8-.4,2.76,0,4.17,2.63,7.72,6.32,9.1l-19.46,57.49c-.47-.12-.95-.21-1.45-.21-1.85,0-3.47.9-4.51,2.26l-16.9-9.84c.44-.93.69-1.96.69-3.05,0-3.93-3.18-7.12-7.12-7.12s-7.11,3.19-7.11,7.12,3.18,7.12,7.11,7.12c2.61,0,4.89-1.41,6.12-3.51l16.85,9.81c-.5.85-.81,1.82-.81,2.88s.33,2.12.87,2.99l-58.05,34.52c-.95-1.26-2.4-2.1-4.07-2.24l-2.23-56.38c3.62-.33,6.45-3.38,6.45-7.08,0-3.93-3.18-7.12-7.12-7.12-2.82,0-5.24,1.64-6.4,4.01l-24.09-10.93c.3-.57.49-1.22.49-1.91,0-2.29-1.86-4.14-4.14-4.14s-4.14,1.86-4.14,4.14c0,.11.02.22.03.33l-30.35,4.62c-.25-1.18-1.3-2.07-2.56-2.07-1.44,0-2.61,1.17-2.61,2.61s1.17,2.61,2.61,2.61,2.55-1.12,2.6-2.51l30.4-4.63c.35,1.46,1.47,2.61,2.9,3.01l-1.92,9.59c-.15-.03-.31-.05-.48-.05-1.44,0-2.61,1.17-2.61,2.61s1.17,2.61,2.61,2.61,2.61-1.17,2.61-2.61c0-1.05-.63-1.96-1.53-2.37l1.93-9.66c.16.02.32.05.49.05,1.36,0,2.56-.67,3.32-1.68l24.17,10.96c-.3.78-.47,1.63-.47,2.52,0,3.83,3.03,6.95,6.83,7.1l2.22,56.36c-1.52.13-2.86.86-3.79,1.95l-40.63-30.99c.51-.61.83-1.39.83-2.25,0-1.95-1.58-3.53-3.53-3.53s-3.53,1.58-3.53,3.53,1.58,3.53,3.53,3.53c.86,0,1.64-.32,2.25-.83l40.68,31.02c-.38.56-.65,1.19-.81,1.86l-118.01-13.24c0-.07.02-.14.02-.22,0-1.47-.58-2.8-1.5-3.81l8.11-9.77c.52.38,1.16.62,1.86.62,1.74,0,3.15-1.41,3.15-3.15s-1.41-3.15-3.15-3.15-3.15,1.41-3.15,3.15c0,.82.32,1.55.82,2.11l-8.1,9.76c-1-.87-2.29-1.42-3.72-1.42-.12,0-.23.03-.35.04l-4.29-32.74c3.04-.5,5.36-3.11,5.36-6.29,0-3.53-2.86-6.4-6.4-6.4s-6.39,2.86-6.39,6.4,2.86,6.39,6.39,6.39c.03,0,.06,0,.09,0l4.29,32.77c-2.51.59-4.38,2.82-4.38,5.51,0,.08.02.16.02.24l-19.63.67c-.32-3.13-2.93-5.59-6.15-5.59-3.43,0-6.22,2.78-6.22,6.21s2.78,6.21,6.22,6.21,6.21-2.78,6.21-6.21l19.63-.67c.35,2.26,2.02,4.07,4.21,4.61l-21.03,80.55c-.85-.18-1.73-.28-2.64-.28-3.6,0-6.84,1.52-9.14,3.94l-26.1-24.59c1.07-1.15,1.73-2.69,1.73-4.38,0-2.83-1.83-5.22-4.36-6.1l4.15-11.81c.24.04.49.07.75.07,2.29,0,4.14-1.85,4.14-4.14s-1.86-4.14-4.14-4.14-4.14,1.86-4.14,4.14c0,1.81,1.17,3.33,2.78,3.9l-4.15,11.79c-.49-.12-.99-.2-1.52-.2-3.58,0-6.48,2.9-6.48,6.49,0,.95.21,1.84.58,2.66l-5.21,2.84c-.51-1.11-1.63-1.89-2.94-1.89-1.79,0-3.24,1.45-3.24,3.24s1.45,3.24,3.24,3.24,3.24-1.45,3.24-3.24c0-.26-.04-.5-.09-.74l5.3-2.89c1.12,1.94,3.2,3.27,5.6,3.27,1.66,0,3.15-.64,4.3-1.66l26.13,24.62c-1.9,2.21-3.05,5.07-3.05,8.21,0,6.96,5.65,12.61,12.61,12.61,1.14,0,2.25-.17,3.3-.45l7.51,27.32c-3.57,1.29-6.13,4.7-6.13,8.72,0,5.12,4.15,9.28,9.28,9.28s9.28-4.15,9.28-9.28-4.15-9.28-9.28-9.28c-.88,0-1.74.13-2.55.36l-7.5-27.29c4.45-1.45,7.79-5.31,8.53-10.03l39.45,5.39c0,.1-.02.21-.02.32,0,3.83,3.1,6.93,6.94,6.93s6.93-3.1,6.93-6.93c0-1.85-.73-3.52-1.91-4.77l13.75-15.29c1.42,1.21,3.26,1.95,5.27,1.95s3.93-.77,5.36-2.04l8.08,9.64c-1.06,1.05-1.73,2.5-1.73,4.11,0,3.18,2.58,5.76,5.76,5.76s5.76-2.58,5.76-5.76-2.58-5.77-5.76-5.77c-1.35,0-2.57.48-3.55,1.25l-8.1-9.67c1.41-1.46,2.28-3.44,2.28-5.63,0-1.38-.35-2.67-.95-3.81l19.37-11.5c.59.76,1.51,1.26,2.55,1.26.75,0,1.43-.26,1.97-.69.83-.55,1.38-1.49,1.38-2.56s-.55-2.01-1.38-2.56c-.55-.42-1.22-.68-1.97-.68-1.79,0-3.24,1.45-3.24,3.24,0,.48.11.93.3,1.35l-19.46,11.34c-1.46-2.11-3.9-3.5-6.67-3.5-3.43,0-6.36,2.14-7.54,5.15l-7.29-2.19c.04-.2.06-.41.06-.62,0-1.69-1.37-3.06-3.06-3.06s-3.06,1.37-3.06,3.06,1.37,3.06,3.06,3.06c1.26,0,2.33-.76,2.8-1.84l7.28,2.18c-.23.74-.35,1.54-.35,2.35,0,2.24.9,4.26,2.37,5.72l-13.74,15.28c-1.22-1.07-2.82-1.73-4.57-1.73-3.51,0-6.4,2.6-6.86,5.98l-39.41-5.39c.04-.43.07-.87.07-1.32,0-2.8-.92-5.37-2.46-7.46l5.28-4.45c.82.89,1.99,1.46,3.3,1.46,2.49,0,4.5-2.02,4.5-4.5s-2.02-4.51-4.5-4.51-4.5,2.02-4.5,4.51c0,.95.3,1.82.8,2.55l-5.26,4.43c-1.58-1.94-3.74-3.39-6.2-4.12l21.05-80.64c.14,0,.28.04.43.04,1.4,0,2.67-.53,3.66-1.37l16.67,14.6c-.99,1.24-1.59,2.81-1.59,4.51,0,3.28,2.19,6.04,5.18,6.91l-4.08,16.22c-.24-.05-.49-.08-.74-.08-1.99,0-3.6,1.61-3.6,3.6s1.61,3.6,3.6,3.6,3.6-1.61,3.6-3.6c0-1.51-.93-2.8-2.26-3.34l4.09-16.26c.45.09.92.14,1.41.14,2.55,0,4.78-1.33,6.06-3.32l25.5,14.36c-.14.35-.22.72-.22,1.12,0,1.64,1.33,2.97,2.97,2.97s2.97-1.33,2.97-2.97-1.33-2.97-2.97-2.97c-1.02,0-1.91.51-2.45,1.29l-25.48-14.35c.52-1,.82-2.13.82-3.33,0-3.98-3.23-7.21-7.21-7.21-2.04,0-3.88.85-5.19,2.21l-16.62-14.56c.7-.74,1.21-1.67,1.42-2.7l117.98,13.23c0,.13-.04.25-.04.37,0,3.13,2.54,5.67,5.67,5.67,1.84,0,3.46-.89,4.5-2.25l22.14,15.23c-.78,1.25-1.23,2.73-1.23,4.31,0,4.53,3.67,8.2,8.2,8.2,3.64,0,6.72-2.37,7.79-5.65l20.44,4.94c-.01.12-.04.23-.04.35,0,1.59,1.29,2.88,2.88,2.88s2.88-1.29,2.88-2.88-1.29-2.88-2.88-2.88c-1.25,0-2.3.8-2.7,1.91l-20.41-4.93c.15-.62.24-1.26.24-1.93,0-4.53-3.67-8.2-8.2-8.2-2.72,0-5.12,1.33-6.61,3.36l-22.14-15.23c.51-.85.82-1.83.82-2.9,0-.93-.25-1.8-.65-2.58l58.12-34.56c.76.86,1.77,1.49,2.92,1.76l-2.28,13.23c-1.51.04-2.72,1.27-2.72,2.78s1.25,2.79,2.79,2.79,2.79-1.25,2.79-2.79c0-1.35-.96-2.47-2.23-2.74l2.27-13.19c.23.03.45.07.68.07,1.29,0,2.47-.45,3.42-1.18l35.09,55.75c-1.72,1.26-2.85,3.29-2.85,5.59,0,3.83,3.11,6.94,6.94,6.94s6.94-3.11,6.94-6.94-3.11-6.93-6.94-6.93c-1.3,0-2.52.37-3.56.99l-35.13-55.81c.66-.63,1.15-1.42,1.44-2.3l46.57,14.07c-.13.52-.23,1.05-.23,1.61,0,3.58,2.9,6.48,6.48,6.48,2.11,0,3.96-1.02,5.14-2.57l27.19,21.21c-.28.41-.44.91-.44,1.45,0,1.44,1.17,2.61,2.61,2.61s2.61-1.17,2.61-2.61-1.17-2.61-2.61-2.61c-.68,0-1.29.26-1.75.68l-27.24-21.25c.61-.99.98-2.14.98-3.39,0-3.58-2.9-6.49-6.49-6.49-2.8,0-5.16,1.78-6.07,4.26l-46.57-14.07c.08-.38.13-.78.13-1.18,0-2.4-1.5-4.45-3.61-5.27l19.45-57.47c.89.27,1.83.42,2.81.42,1.27,0,2.48-.25,3.59-.69l7.92,18.06c-1.6.96-2.68,2.69-2.68,4.7,0,3.04,2.46,5.49,5.5,5.49s5.49-2.46,5.49-5.49-2.46-5.49-5.49-5.49c-.81,0-1.57.18-2.26.49l-7.89-18.02c2.12-1.01,3.82-2.75,4.75-4.91l46.04,19.1c-.35.92-.56,1.92-.56,2.97,0,3.35,2,6.24,4.86,7.54l-5.22,13.24c-.49-.14-1-.24-1.53-.24-3.03,0-5.49,2.46-5.49,5.49s2.46,5.49,5.49,5.49,5.5-2.46,5.5-5.49c0-2.27-1.38-4.23-3.35-5.06l5.2-13.19c.89.32,1.84.51,2.83.51,2.17,0,4.14-.84,5.62-2.21l31,29.21c-.7.81-1.14,1.85-1.14,3,0,2.05,1.35,3.77,3.21,4.36l-2.56,17.91c-.07,0-.13-.02-.2-.02-1.74,0-3.15,1.41-3.15,3.15s1.41,3.15,3.15,3.15,3.15-1.41,3.15-3.15c0-1.45-.99-2.66-2.32-3.03l2.55-17.85c.25.04.5.08.76.08,2.54,0,4.59-2.06,4.59-4.59s-2.06-4.59-4.59-4.59c-1.16,0-2.2.44-3.01,1.15l-31-29.21c1.37-1.48,2.21-3.45,2.21-5.63,0-.53-.05-1.05-.15-1.55l31.07-6.95c.81,2.72,3.3,4.72,6.28,4.72,1.98,0,3.74-.9,4.95-2.28l27.08,20.68c-.59.81-.95,1.79-.95,2.87,0,2.69,2.18,4.86,4.86,4.86s4.86-2.18,4.86-4.86-2.18-4.87-4.86-4.87c-1.38,0-2.62.58-3.51,1.51l-27.08-20.68c.77-1.08,1.23-2.38,1.23-3.8,0-3.34-2.5-6.07-5.73-6.49l1.2-30.23c1.76-.27,3.13-1.65,3.39-3.4l58.43,2.4s0,.05,0,.08c0,3.83,3.1,6.94,6.94,6.94s6.94-3.1,6.94-6.94-3.1-6.94-6.94-6.94"/>
    <path class="cls-8" d="M164.5,669.53c7.68,0,13.91-6.23,13.91-13.91s-6.23-13.91-13.91-13.91-13.91,6.23-13.91,13.91,6.23,13.91,13.91,13.91"/>
    <path class="cls-10" d="M164.5,669.53c7.68,0,13.91-6.23,13.91-13.91s-6.23-13.91-13.91-13.91-13.91,6.23-13.91,13.91,6.23,13.91,13.91,13.91Z"/>
    <g class="cls-9">
      <g class="cls-13">
        <path class="cls-8" d="M164.45,671.63c8.83,0,16-7.16,16-16s-7.16-16-16-16-16,7.16-16,16,7.16,16,16,16"/>
      </g>
    </g>
    <path class="cls-10" d="M164.5,671.71c8.89,0,16.09-7.21,16.09-16.09s-7.21-16.1-16.09-16.1-16.1,7.21-16.1,16.1,7.21,16.09,16.1,16.09Z"/>
    <path class="cls-2" d="M156.83,647.51c.35,0,.7.09,1.04.28,0,0,0,0,0,0-.3.31-.52.69-.64,1.11,0,0,0,0,0,0s0,0,0,0c-.13-.07-.26-.11-.4-.11-.42,0-.82.33-.82.79,0,.2.13.43.39.69l1.87,1.76h0l1.87-1.75c.19-.18.4-.47.39-.69,0-.44-.36-.79-.81-.79s-.81.35-.81.79v.43l-.65.61-.64-.6v-.44c0-1.15.94-2.08,2.1-2.08h.03c1.32,0,2.35,1.3,2,2.58-.11.39-.35.76-.72,1.13l-.04.03-2.64,2.48s-.06.04-.09.04-.07-.01-.09-.04l-2.63-2.47h0c-.54-.51-.83-1.08-.83-1.66-.01-1.21,1.02-2.09,2.12-2.09"/>
    <path class="cls-5" d="M172.3,647.51h-10.55c.11.11.22.22.31.34.22.28.37.6.47.92h9.76c.4,0,.72.32.72.72v12.25c0,.4-.32.72-.72.72h-15.6c-.4,0-.72-.32-.72-.72v-8.96l-.93-.87h0s-.05-.05-.05-.05c-.1-.1-.19-.19-.28-.29v10.18c0,1.09.89,1.98,1.99,1.98h15.6c1.09,0,1.99-.89,1.99-1.98v-12.25c0-1.09-.89-1.98-1.99-1.98"/>
    <path class="cls-5" d="M165.08,656.04h0c-.36-.09-.62-.41-.62-.79,0-.44.35-.85.79-.82,0,0,.01,0,.02,0,0,0,.02,0,.03,0,.81.09,3.04.67,3.04.67.36.09.62.41.62.79,0,.44-.34.79-.77.81-.01,0-.06,0-.07,0-.07-.01-.1-.02-.1-.02l-2.94-.64ZM170.25,655.89c0-1.08-.82-1.85-1.88-2.1l-3.16-.7h0c-.35-.09-.61-.41-.61-.79,0-.45.37-.82.82-.82.04,0,.08,0,.12.01l4.28.92.27-1.26s-4.07-.97-4.68-.97c-1.16,0-2.11.95-2.11,2.11,0,.53.2,1.02.53,1.39-.42.39-.68.93-.68,1.54,0,1.08.82,1.98,1.87,2.1l3.16.7h0c.35.09.61.41.61.79,0,.43-.34.78-.76.81-.02,0-.06,0-.1,0-.02,0-.06-.01-.11-.02-.78-.16-4.25-.9-4.25-.9l-.27,1.26s4.13.99,4.68.97c1.16-.03,2.11-.95,2.11-2.11,0-.53-.2-1.02-.53-1.39.42-.39.68-.93.68-1.54"/>
    <circle class="cls-10" cx="164.53" cy="655.65" r="13.95" transform="translate(-146.24 55.34) rotate(-13.28)"/>
    <path class="cls-8" d="M248,648.03c7.68,0,13.91-6.23,13.91-13.91s-6.23-13.91-13.91-13.91-13.91,6.23-13.91,13.91,6.23,13.91,13.91,13.91"/>
    <path class="cls-10" d="M248,648.03c7.68,0,13.91-6.23,13.91-13.91s-6.23-13.91-13.91-13.91-13.91,6.23-13.91,13.91,6.23,13.91,13.91,13.91Z"/>
    <g class="cls-9">
      <g class="cls-12">
        <path class="cls-8" d="M247.95,650.13c8.83,0,16-7.16,16-16s-7.16-16-16-16-16,7.16-16,16,7.16,16,16,16"/>
      </g>
    </g>
    <path class="cls-8" d="M248.24,648.05c7.68,0,13.91-6.23,13.91-13.91s-6.23-13.91-13.91-13.91-13.91,6.23-13.91,13.91,6.23,13.91,13.91,13.91"/>
    <path class="cls-10" d="M248.24,648.05c7.68,0,13.91-6.23,13.91-13.91s-6.23-13.91-13.91-13.91-13.91,6.23-13.91,13.91,6.23,13.91,13.91,13.91Z"/>
    <circle class="cls-10" cx="248.24" cy="634.13" r="16.09" transform="translate(-139.05 74) rotate(-13.28)"/>
    <path class="cls-5" d="M256.04,625.73h-10.55c.11.11.22.22.31.34.22.28.37.6.47.92h9.76c.4,0,.72.32.72.72v12.25c0,.4-.32.72-.72.72h-15.6c-.4,0-.72-.32-.72-.72v-8.96l-.93-.87h0s-.05-.05-.05-.05c-.1-.09-.19-.19-.28-.29v10.18c0,1.09.89,1.98,1.99,1.98h15.6c1.09,0,1.99-.89,1.99-1.98v-12.25c0-1.09-.89-1.98-1.99-1.98"/>
    <path class="cls-2" d="M240.58,625.73c.35,0,.71.09,1.04.29,0,0,0,0,0,0-.3.31-.53.69-.64,1.11,0,0,0,0,0,0h0c-.13-.07-.26-.11-.4-.11-.42,0-.82.33-.82.79,0,.21.13.43.39.69l1.87,1.76s0,0,0,0,0,0,0,0l1.87-1.76c.19-.18.4-.47.39-.69,0-.44-.36-.79-.81-.79s-.81.36-.81.79v.44l-.65.61-.64-.6v-.44c0-1.15.94-2.09,2.1-2.09h.03c1.32,0,2.36,1.3,2.01,2.58-.11.39-.35.76-.72,1.13l-.04.04-2.65,2.48s-.06.04-.09.04-.06-.01-.09-.04l-2.63-2.47h0c-.54-.51-.84-1.08-.83-1.67-.01-1.21,1.02-2.09,2.12-2.09"/>
  </g>
  <rect class="cls-5" x="242.43" y="633.52" width="1.73" height="1.32"/>
  <rect class="cls-5" x="244.93" y="633.52" width="1.73" height="1.32"/>
  <rect class="cls-5" x="242.43" y="635.41" width="1.73" height="1.32"/>
  <rect class="cls-5" x="244.93" y="635.41" width="1.73" height="1.32"/>
  <rect class="cls-5" x="242.43" y="637.3" width="1.73" height="1.32"/>
  <rect class="cls-5" x="244.93" y="637.3" width="1.73" height="1.32"/>
  <g>
    <path class="cls-5" d="M247.44,634.84h1.73v-1.32h-1.73v1.32Z"/>
    <path class="cls-5" d="M247.44,636.73h1.73v-1.32h-1.73v1.32Z"/>
    <path class="cls-5" d="M247.44,638.62h1.73v-1.32h-1.73v1.32Z"/>
    <path class="cls-5" d="M244.43,630.86c1.68,0,9.5,0,9.5,0,.36-.04.64-.35.64-.72,0-.39-.31-.71-.7-.72h0s-8.03,0-8.03,0c.28-.4.45-.83.5-1.26h7.65c1.03.08,1.84.94,1.84,1.99s-.79,1.88-1.8,1.98h-10.96s1.36-1.26,1.36-1.26Z"/>
    <path class="cls-5" d="M249.95,634.84h1.73s0-1.31,0-1.32h-1.73v1.32Z"/>
    <path class="cls-5" d="M249.95,636.73h1.73s0-1.31,0-1.32h-1.73v1.32Z"/>
    <path class="cls-5" d="M249.95,638.62h1.73s0-1.31,0-1.32h-1.73v1.32Z"/>
  </g>
  <rect class="cls-5" x="252.47" y="633.52" width="1.73" height="1.32"/>
  <rect class="cls-5" x="252.47" y="635.41" width="1.73" height="1.32"/>
  <rect class="cls-5" x="252.47" y="637.3" width="1.73" height="1.32"/>
  <g>
    <circle class="cls-10" cx="248.04" cy="634.16" r="13.95" transform="translate(-115.45 58.35) rotate(-10.9)"/>
    <path class="cls-8" d="M361.53,641.95c7.68,0,13.91-6.23,13.91-13.91s-6.23-13.91-13.91-13.91-13.91,6.23-13.91,13.91,6.23,13.91,13.91,13.91"/>
    <path class="cls-10" d="M361.53,641.95c7.68,0,13.91-6.23,13.91-13.91s-6.23-13.91-13.91-13.91-13.91,6.23-13.91,13.91,6.23,13.91,13.91,13.91Z"/>
    <circle class="cls-10" cx="361.53" cy="628.03" r="16.09" transform="translate(-276.18 283.86) rotate(-31.72)"/>
    <path class="cls-8" d="M361.28,641.93c7.68,0,13.91-6.23,13.91-13.91s-6.23-13.91-13.91-13.91-13.91,6.23-13.91,13.91,6.23,13.91,13.91,13.91"/>
    <path class="cls-10" d="M361.28,641.93c7.68,0,13.91-6.23,13.91-13.91s-6.23-13.91-13.91-13.91-13.91,6.23-13.91,13.91,6.23,13.91,13.91,13.91Z"/>
    <g class="cls-9">
      <g class="cls-1">
        <path class="cls-8" d="M361.23,644.03c8.83,0,16-7.16,16-16s-7.16-16-16-16-16,7.16-16,16,7.16,16,16,16"/>
      </g>
    </g>
    <circle class="cls-10" cx="361.53" cy="628.03" r="16.09" transform="translate(-276.18 283.86) rotate(-31.72)"/>
    <circle class="cls-10" cx="361.32" cy="628.06" r="13.95" transform="translate(-276.23 283.76) rotate(-31.72)"/>
    <path class="cls-5" d="M369.33,620.22h-4.31c.11.11.21.22.3.33.22.29.38.6.47.93h3.54c.4,0,.72.32.72.72v12.25c0,.4-.32.72-.72.72h-15.6c-.4,0-.72-.32-.72-.72v-12.25c0-.4.32-.72.72-.72h3.57c.13-.45.37-.86.71-1.2.02-.02.05-.04.07-.06h-4.35c-1.1,0-1.99.89-1.99,1.98v12.25c0,1.09.89,1.98,1.99,1.98h15.6c1.09,0,1.99-.89,1.99-1.98v-12.25c0-1.09-.89-1.98-1.99-1.98"/>
    <path class="cls-2" d="M360.1,620.22c.35,0,.7.09,1.03.28,0,0,0,0,0,0-.3.31-.52.69-.64,1.11,0,0,0,0,0,0,0,0,0,0,0,0-.13-.07-.26-.11-.4-.11-.42,0-.82.33-.82.79,0,.2.13.43.39.69l1.87,1.75s0,0,0,0,0,0,0,0l1.86-1.75c.19-.18.4-.47.39-.69,0-.44-.36-.79-.81-.79s-.81.36-.81.79v.43l-.65.61-.64-.6v-.44c0-1.15.94-2.08,2.09-2.08h.03c1.32,0,2.35,1.3,2,2.57-.11.39-.35.76-.72,1.12l-.04.03-2.64,2.48s-.06.04-.09.04-.07-.01-.09-.04l-2.62-2.46h0c-.54-.51-.83-1.08-.83-1.66-.01-1.21,1.02-2.08,2.11-2.08"/>
    <path class="cls-5" d="M368.93,633.15v2.04h-2.86v-2.06s0-.03,0-.04h.24c.32.24.72.39,1.15.39s.83-.15,1.15-.39h.31s.01.02.01.02v.03ZM366.05,633.1s0,0,0,0h0s0,0,0,0M367.47,630.88c.38,0,.69.31.69.69s-.31.69-.69.69-.69-.31-.69-.69.31-.69.69-.69M362.25,631.57c0,.38-.31.69-.69.69s-.69-.31-.69-.69.31-.69.69-.69.69.31.69.69M362.97,633.09h0s0,0,0,0c0,0,0,0-.01,0M362.96,635.19h-2.86v-2.04s0-.03,0-.03c0,0,0-.01,0-.02h.31c.32.24.72.39,1.15.39s.83-.15,1.15-.39h.24s0,.03,0,.04v2.06ZM356.28,631.57c0,.38-.31.69-.69.69s-.69-.31-.69-.69.31-.69.69-.69.69.31.69.69M356.99,633.09h0s0,0,0,0c0,0,0,0,0,0M356.98,635.19h-2.86v-2.04s0-.03,0-.03c0,0,0-.01,0-.02h.31c.32.24.72.39,1.15.39s.83-.15,1.15-.39h.24s0,.03,0,.04v2.06ZM370.16,635.77v-2.61c0-.12,0-.51-.28-.86-.15-.18-.34-.3-.53-.36.02-.12.04-.25.04-.37,0-.86-.57-1.59-1.35-1.83v-.63h0c-.02-.93-.78-1.69-1.72-1.69-.03,0-.06,0-.09,0h-.27v-.94c0-.83-.6-1.53-1.39-1.69l-1.27,1.19c.52,0,.93,0,.94,0,.25,0,.46.19.49.43h0s0,.04,0,.06c0,.01,0-.09,0,.93h-6.4c0-1.02,0-.91,0-.93,0-.02,0-.04,0-.06h0c.03-.24.24-.43.49-.43,0,0,.44,0,.98,0l-1.28-1.2c-.81.14-1.43.85-1.43,1.7v.94h-.25s-.06,0-.09,0c-.94,0-1.7.75-1.72,1.69h0v.63c-.78.24-1.35.97-1.35,1.83,0,.13.01.25.04.37-.19.06-.38.18-.53.36-.28.35-.29.74-.29.86v2.5s2.66.56,2.66.56h2.65v-3.06c0-.12,0-.51-.28-.86-.13-.16-.29-.27-.46-.34.03-.13.04-.26.04-.4,0-.82-.52-1.52-1.25-1.79v-.63c0-.27.22-.49.49-.49.02,0,.46,0,.46,0h0s3.71,0,3.71,0v1.11c-.74.26-1.28.97-1.28,1.8,0,.13.01.25.04.37-.19.06-.38.18-.53.36-.28.35-.29.74-.29.86v3.06h5.31v-3.06c0-.12,0-.51-.28-.86-.13-.16-.29-.27-.46-.34.03-.13.04-.26.04-.4,0-.85-.56-1.57-1.33-1.82v-1.09h3.69s.45,0,.46,0c.27,0,.49.22.5.49v.63c-.73.27-1.25.97-1.25,1.79,0,.14.02.27.04.4-.17.07-.33.18-.46.34-.28.35-.29.74-.29.86v3.06h2.66l2.66-.45Z"/>
    <path class="cls-8" d="M294.29,697.44c16.41,0,29.71-13.3,29.71-29.71s-13.3-29.71-29.71-29.71-29.71,13.3-29.71,29.71,13.3,29.71,29.71,29.71"/>
    <circle class="cls-11" cx="294.29" cy="667.73" r="29.71" transform="translate(-435.23 684.09) rotate(-67.5)"/>
    <path class="cls-2" d="M294.29,691.66c13.22,0,23.93-10.71,23.93-23.93s-10.71-23.93-23.93-23.93-23.93,10.71-23.93,23.93,10.71,23.93,23.93,23.93"/>
    <path class="cls-8" d="M301.81,653.39c-5.98,0-10.84,4.83-10.84,10.76v2.27s3.32,3.11,3.32,3.11l3.35-3.14v-2.24c0-2.26,1.87-4.09,4.17-4.09s4.17,1.84,4.17,4.09c.05,1.15-1.03,2.62-2.03,3.57l-9.65,9.06s-.02,0-.02,0l-9.66-9.06c-1.36-1.35-2.03-2.51-2.03-3.57-.03-3.14,3.58-5.13,6.28-3.53.01,0,.02,0,.02,0,.61-2.19,1.77-4.15,3.32-5.74,0,0,0-.02,0-.03-7.08-4.18-16.36,1.07-16.29,9.3-.03,3.01,1.49,5.94,4.28,8.58l.03.02,13.58,12.75c.26.25.67.25.94,0l13.65-12.81.19-.18c1.93-1.89,3.16-3.81,3.71-5.81,1.82-6.64-3.61-13.4-10.49-13.31"/>
    <path class="cls-2" d="M218.02,730.32c.19,0,.39.05.57.16,0,0,0,0,0,0-.17.17-.29.38-.36.62h0c-.07-.04-.15-.06-.22-.06-.23,0-.46.18-.45.44,0,.11.07.24.22.38l1.04.97h0s0,0,0,0l1.04-.97c.11-.1.22-.26.22-.39,0-.24-.2-.44-.45-.44s-.45.2-.45.44v.24l-.36.34-.36-.34v-.24c0-.64.52-1.16,1.16-1.16h.01c.73,0,1.31.72,1.11,1.43-.06.22-.19.42-.4.63l-.02.02-1.47,1.38s-.03.02-.05.02c-.02,0-.04,0-.05-.02l-1.46-1.37h0c-.3-.29-.46-.6-.46-.93,0-.67.57-1.16,1.18-1.16"/>
    <path class="cls-8" d="M225.08,733.51h-5.29l-.62.58c-.06.06-.14.1-.22.12h6.12v-.71"/>
    <path class="cls-8" d="M225.08,732.11h-3.98c-.1.2-.24.4-.43.59h0s0,0,0,0l-.02.02h0s-.1.1-.1.1h4.54v-.71"/>
    <path class="cls-8" d="M221.15,731.02h4.38c.22,0,.4.18.4.4v3.17c.26.08.49.2.71.36v-3.53c0-.61-.5-1.11-1.11-1.11h-4.81c.06.06.12.12.17.19.12.16.21.34.26.52"/>
    <path class="cls-8" d="M223.57,738.62h-5.62c-.22,0-.4-.18-.4-.4v-5l-.55-.52h0s-.03-.03-.03-.03c-.04-.04-.08-.08-.12-.12v5.67c0,.61.5,1.11,1.11,1.11h7.11c-.58-.06-1.1-.32-1.48-.71"/>
    <path class="cls-8" d="M223.03,734.92h-4.63v.71h4.13c.13-.26.3-.5.5-.71"/>
    <path class="cls-8" d="M225.26,735.1c-.98,0-1.77.79-1.77,1.77s.79,1.77,1.77,1.77,1.77-.79,1.77-1.77-.79-1.77-1.77-1.77M225.26,739.32c-1.35,0-2.45-1.1-2.45-2.45s1.1-2.45,2.45-2.45,2.45,1.1,2.45,2.45-1.1,2.45-2.45,2.45"/>
    <path class="cls-8" d="M225.71,737.32c0,.11-.04.18-.09.23-.05.05-.13.07-.23.07-.12,0-.22-.06-.28-.19-.03-.05-.05-.12-.06-.19h.37l.07-.24h-.47s0-.07,0-.12c0-.03,0-.05,0-.07h.52l.08-.24h-.58s.01-.07.02-.1c.03-.11.08-.19.14-.25.06-.06.13-.08.22-.08s.15.02.19.07c.05.05.07.12.08.22l.53-.25c-.05-.19-.13-.33-.26-.42-.13-.09-.31-.13-.55-.13-.21,0-.39.05-.54.15-.15.1-.26.24-.34.42-.04.11-.07.23-.09.36h-.28v.24h.26s0,.05,0,.07c0,.04,0,.08,0,.12h-.26v.24h.29c.02.11.05.22.09.31.08.18.18.33.33.42.14.1.32.15.53.15.15,0,.29-.03.41-.08.12-.05.22-.13.3-.23s.13-.22.15-.35l-.54-.14Z"/>
    <path class="cls-8" d="M331.09,688.38h-5.86c.06.06.12.12.17.19.12.16.21.33.26.51h5.43c.22,0,.4.18.4.4v6.8c0,.22-.18.4-.4.4h-8.67c-.22,0-.4-.18-.4-.4v-4.98l-.52-.48h0s-.03-.03-.03-.03c-.06-.05-.11-.11-.15-.16v5.65c0,.61.5,1.1,1.1,1.1h8.67c.61,0,1.1-.49,1.1-1.1v-6.8c0-.61-.49-1.1-1.1-1.1"/>
    <path class="cls-2" d="M322.5,688.38c.19,0,.39.05.58.16,0,0,0,0,0,0-.17.17-.29.38-.36.62t0,0h0c-.07-.04-.15-.06-.22-.06-.24,0-.46.18-.46.44,0,.11.07.24.22.39l1.04.98h0l1.04-.98c.11-.1.23-.26.22-.39,0-.24-.2-.44-.45-.44s-.45.2-.45.44v.24l-.36.34-.36-.33v-.25c0-.64.52-1.16,1.17-1.16h.01c.73,0,1.31.72,1.12,1.43-.06.22-.19.42-.4.63l-.02.02-1.47,1.38s-.03.02-.05.02-.04,0-.05-.02l-1.46-1.37h0c-.3-.29-.46-.6-.46-.93,0-.67.57-1.16,1.18-1.16"/>
    <path class="cls-8" d="M323.61,693.4c.3.09.6.16.9.23-.12.47-.19.98-.22,1.53h-1.31c.06-.65.28-1.24.63-1.75M325.18,692.07c-.17.26-.32.55-.45.88-.21-.04-.41-.09-.62-.15.31-.3.67-.55,1.07-.73M326.4,693.86v1.3h-1.39c.02-.51.1-.99.21-1.4.39.05.78.09,1.18.1M326.4,691.86v1.28c-.32-.01-.64-.04-.95-.08.26-.61.6-1.03.95-1.21M327.12,693.86c.4-.01.79-.05,1.18-.1.11.42.18.89.21,1.4h-1.39v-1.3ZM327.12,691.86c.35.18.69.6.95,1.21-.31.04-.63.07-.95.08v-1.28ZM329.41,692.8c-.2.05-.41.1-.62.15-.13-.33-.28-.62-.45-.88.4.18.76.43,1.07.73M330.53,695.16h-1.31c-.02-.54-.1-1.06-.22-1.53.31-.06.61-.14.9-.23.34.51.57,1.11.63,1.75M323.38,697.23c-.21-.42-.35-.88-.4-1.36h1.31c.02.48.08.94.17,1.36h.73c-.1-.41-.17-.87-.19-1.36h1.4v1.26c-.41.01-.81.05-1.21.1h3.12c-.4-.06-.8-.09-1.2-.1v-1.26h1.39c-.02.5-.09.95-.19,1.36h.73c.09-.42.15-.88.17-1.36h1.31c-.05.49-.18.95-.4,1.36h.79c.22-.53.34-1.11.34-1.72,0-2.49-2.02-4.51-4.51-4.51s-4.51,2.02-4.51,4.51c0,.61.12,1.19.34,1.72h.79Z"/>
    <path class="cls-2" d="M403.69,693.72c-.52,0-.94.42-.94.93v.2s.29.27.29.27l.29-.27v-.19c0-.2.16-.35.36-.35s.36.16.36.35c0,.1-.09.23-.18.31l-.84.78h0l-.84-.79c-.12-.12-.18-.22-.18-.31,0-.27.31-.44.54-.31,0,0,0,0,0,0,.05-.19.15-.36.29-.5,0,0,0,0,0,0-.61-.36-1.41.09-1.41.81,0,.26.13.51.37.74h0s1.17,1.1,1.17,1.1c.02.02.06.02.08,0l1.18-1.11h.02c.17-.18.27-.35.32-.52.16-.57-.31-1.16-.91-1.15"/>
    <path class="cls-8" d="M400.71,696.6h0v1.29h-1.36v-.38h0v-.93h0c0-.05.04-.09.09-.09,0,0,0,0,0,0h.04c.16.1.34.15.54.15s.39-.06.54-.15h.04s0,0,0,0c.05,0,.08.04.09.08v.03ZM400.03,695.1c.27,0,.49.22.49.49s-.22.48-.49.48-.48-.22-.48-.48.22-.49.48-.49M400.99,696.03c.06-.13.1-.28.1-.44,0-.58-.47-1.06-1.06-1.06s-1.05.47-1.05,1.06c0,.16.04.31.1.44-.18.12-.29.32-.29.55,0,0,0,.02,0,.03v1.85h2.5v-1.82s0-.04,0-.06c0-.23-.12-.43-.3-.55"/>
    <path class="cls-8" d="M406.91,693.33h0v1.29h-1.36v-.38h0v-.93h0c0-.05.04-.09.09-.09,0,0,0,0,0,0h.04c.16.1.34.15.54.15s.39-.06.54-.15h.04s0,0,0,0c.05,0,.08.04.09.08v.03ZM406.23,691.83c.27,0,.49.22.49.49s-.22.48-.49.48-.48-.22-.48-.48.22-.49.48-.49M407.19,692.76c.06-.13.1-.28.1-.44,0-.58-.47-1.06-1.06-1.06s-1.05.47-1.05,1.06c0,.16.04.31.1.44-.18.12-.29.32-.29.55,0,0,0,.02,0,.03v1.85h2.5v-1.82s0-.04,0-.06c0-.23-.12-.43-.3-.55"/>
    <path class="cls-8" d="M407.47,696.73h0s-1.17-1.1-1.17-1.1c-.02-.02-.06-.02-.08,0l-1.18,1.11h-.02s.95,0,.95,0v.79h0c0,.21-.16.37-.36.37,0,0,0,0-.02,0h-3.94v.57h3.92s.02,0,.04,0c.51,0,.93-.42.93-.93h0v-.8h.93Z"/>
    <path class="cls-8" d="M404.88,691.84c.1-.24.27-.43.49-.57h-4.63s-.02,0-.04,0c-.51,0-.93.42-.93.93h0v.8h-.93s0,0,0,0l1.17,1.1s.06.02.08,0l1.18-1.11h.02s-.94,0-.94,0v-.79h0c0-.21.16-.37.36-.37,0,0,.01,0,.02,0h4.17Z"/>
    <path class="cls-7" d="M530.22,783.16v-1.4c0-.16-.09-.26-.25-.26h-1.16c-.18,0-.24.09-.24.26v1.4h-.54c-.15,0-.24.1-.24.25v.8c0,.15.09.25.24.25h.54v1.6c0,1.57.62,2.46,2.27,2.46.59,0,1.04-.25,1.28-.41.09-.06.15-.14.08-.33l-.33-.82c-.07-.14-.16-.11-.24-.07-.12.07-.33.15-.59.15-.54,0-.79-.33-.79-1.06v-1.53h1.49c.16,0,.25-.1.25-.25v-.8c0-.15-.09-.25-.25-.25h-1.49ZM525.24,786.62s-.18.65-.95.65c-.31,0-.54-.15-.54-.43s.2-.44.6-.44h.88v.22ZM527.34,787.4c0-.19-.14-.22-.18-.23-.12-.04-.26-.15-.26-.45v-1.64c0-1.24-.66-1.99-2.28-1.99-1.46,0-2.22.62-2.22,1.52,0,.34.04.6.35.6h.93c.29,0,.24-.06.24-.33,0-.36.23-.57.64-.57.43,0,.67.2.67.69v.6h-1.08c-1.49,0-2.08.54-2.08,1.49,0,.8.64,1.43,1.74,1.43,1,0,1.44-.46,1.63-.8.08.49.53.79,1.17.79s.73-.22.73-.39v-.72ZM519.38,787.58c0,.53.42.94.96.94s.96-.42.96-.94-.43-.97-.96-.97-.96.43-.96.97M515.31,785.19c.11-.57.41-.82.82-.82.51,0,.77.3.77.82h-1.59ZM518.2,786.06c.21,0,.26-.08.26-.44,0-1.55-.67-2.53-2.25-2.53-1.8,0-2.62,1.11-2.62,2.73s1.07,2.71,2.62,2.71c1.32,0,2-.68,2.24-1.02.04-.08.05-.15-.03-.24l-.58-.62c-.11-.1-.2-.04-.26.02-.19.2-.56.51-1.12.51-.37,0-1.17-.26-1.19-1.08v-.03h2.94ZM509.56,788.2c0,.17.09.25.25.25h1.16c.15,0,.24-.09.24-.25v-2.78c0-.34.21-.83.79-.83.3,0,.48.07.6.11.1.04.13.06.2-.09l.48-1.07c.09-.2.05-.28-.08-.33-.19-.09-.46-.13-.7-.13-1.01,0-1.4.47-1.54.87v-.07c-.14-.53-.55-.79-1.16-.79-.51,0-.68.09-.68.29v.81c0,.15.02.24.13.24.07.01.3.07.3.45v3.31ZM506.4,786.62s-.18.65-.95.65c-.31,0-.54-.15-.54-.43s.2-.44.61-.44h.88v.22ZM508.5,787.4c0-.19-.14-.22-.18-.23-.12-.04-.26-.15-.26-.45v-1.64c0-1.24-.66-1.99-2.28-1.99-1.46,0-2.22.62-2.22,1.52,0,.34.04.6.35.6h.93c.29,0,.24-.06.24-.33,0-.36.23-.57.64-.57.43,0,.67.2.67.69v.6h-1.08c-1.49,0-2.08.54-2.08,1.49,0,.8.64,1.43,1.74,1.43,1,0,1.44-.46,1.63-.8.08.49.53.79,1.17.79s.73-.22.73-.39v-.72ZM500.6,788.46c.42,0,.58-.13.75-.59l1.5-4.41c.04-.14-.02-.3-.21-.3h-1.25c-.2,0-.23.14-.26.29l-.82,3.1-.76-3.06c-.04-.19-.08-.33-.24-.33h-1.22c-.16,0-.22.14-.26.31l-.97,3.08-.84-3.11c-.03-.13-.03-.28-.25-.28h-1.31c-.16,0-.23.15-.16.32l1.51,4.39c.18.47.27.59.69.59h.67c.4,0,.57-.12.74-.59l.74-2.22.66,2.22c.14.47.25.59.67.59h.65ZM491.85,783.16v-1.4c0-.16-.09-.26-.25-.26h-1.17c-.17,0-.24.09-.24.26v1.4h-.54c-.15,0-.24.1-.24.25v.8c0,.15.09.25.24.25h.54v1.6c0,1.57.62,2.46,2.26,2.46.59,0,1.05-.25,1.28-.41.09-.06.15-.14.08-.33l-.33-.82c-.07-.14-.17-.11-.24-.07-.12.07-.33.15-.59.15-.54,0-.79-.33-.79-1.06v-1.53h1.49c.17,0,.25-.1.25-.25v-.8c0-.15-.09-.25-.25-.25h-1.49ZM485.66,784.46v3.74c0,.17.08.25.25.25h1.17c.15,0,.24-.09.24-.26v-3.73h1.34c.15,0,.24-.1.24-.24v-.81c0-.15-.09-.25-.24-.25h-1.34v-.32c0-.6.23-.95.74-.95.25,0,.43.07.54.13.08.04.15.06.2-.07l.35-.85c.08-.18.03-.3-.07-.36-.21-.13-.62-.33-1.2-.33-1.57,0-2.22.96-2.22,2.34v.4h-.52c-.17,0-.25.1-.25.25v.81c0,.14.09.24.25.24h.52ZM481.82,787.06c-.68,0-.89-.48-.89-1.25s.23-1.25.89-1.25.88.48.88,1.25-.21,1.25-.88,1.25M481.82,788.52c1.63,0,2.52-1.14,2.52-2.73s-.9-2.71-2.52-2.71-2.53,1.12-2.53,2.71.89,2.73,2.53,2.73M478.29,782.33c.18-.11.14-.24.1-.32-.24-.41-1-1.32-2.85-1.32s-2.83,1.02-2.83,2.21c0,3,3.98,1.78,3.98,3.43,0,.46-.4.76-1.07.76-1.08,0-1.75-.68-2.01-1-.1-.13-.26-.09-.35,0l-.68.64c-.1.08-.13.23-.05.34.25.43,1.11,1.45,3.1,1.45,2.11,0,2.93-1.14,2.93-2.23,0-2.94-3.92-1.94-3.93-3.41.01-.43.4-.73,1.05-.72.87-.01,1.34.47,1.51.72.06.08.15.1.34-.02l.77-.53ZM471.81,787.4c0-.22-.14-.22-.25-.28-.12-.04-.19-.15-.19-.41v-5.98c0-.17-.09-.26-.25-.26h-1.15c-.19,0-.25.09-.25.26v6.28c0,1.02.47,1.51,1.36,1.5.64,0,.74-.22.74-.37v-.74ZM468.46,788.46c.17,0,.25-.09.25-.25v-.8c0-.17-.09-.25-.25-.25h-2.22l2.04-2.23c.27-.3.44-.43.44-.76v-.75c0-.18-.09-.25-.25-.25h-4.01c-.17,0-.25.09-.25.25v.81c0,.15.09.24.24.24h2.31l-2.16,2.29c-.24.25-.4.38-.4.64v.81c0,.17.09.25.24.25h4.03ZM459.88,788.2c0,.17.09.25.25.25h1.17c.15,0,.24-.09.24-.25v-2.78c0-.34.21-.83.79-.83.3,0,.48.07.6.11.1.04.13.06.2-.09l.48-1.07c.09-.2.05-.28-.08-.33-.19-.09-.46-.13-.7-.13-1.01,0-1.4.47-1.54.87v-.07c-.14-.53-.55-.79-1.17-.79-.51,0-.68.09-.68.29v.81c0,.15.02.24.13.24.07.01.3.07.3.45v3.31Z"/>
  </g>
</svg>