<?xml version="1.0" encoding="UTF-8"?>
<svg id="a" data-name="Ebene 1" xmlns="http://www.w3.org/2000/svg" viewBox="0 0 413 343">
  <defs>
    <style>
      .b {
        fill: #fff;
      }

      .c {
        fill: #e7392d;
      }
    </style>
  </defs>
  <g>
    <path class="b" d="M260.94,117.34l-12.86-3.27c-.35-6.86-2.3-13.31-5.46-18.99l9.17-9.57-18.74-17.95-9.16,9.56c-5.77-2.9-12.26-4.57-19.12-4.65l-3.75-12.68-24.89,7.36,3.76,12.7c-5.43,3.63-10.01,8.45-13.37,14.07l-12.79-3.06-6.05,25.24,12.74,3.05c.42,6.7,2.35,13,5.46,18.55l-9.28,9.6,18.66,18.04,9.38-9.7c5.61,2.81,11.91,4.45,18.56,4.6l3.61,12.73,24.97-7.08-3.62-12.75c5.47-3.57,10.1-8.32,13.52-13.9l12.85,3.27,6.4-25.15ZM187.27,116.35c0-9.36,7.61-16.97,16.97-16.97s16.97,7.61,16.97,16.97-7.61,16.97-16.97,16.97-16.97-7.61-16.97-16.97Z"/>
    <path class="b" d="M357.39,178.3l-12.86-3.27c-.35-6.86-2.3-13.31-5.46-18.99l9.17-9.57-18.74-17.95-9.16,9.56c-5.77-2.9-12.26-4.57-19.12-4.65l-3.75-12.68-24.89,7.36,3.76,12.7c-5.43,3.63-10.01,8.45-13.37,14.07l-12.79-3.06-6.05,25.24,12.74,3.05c.42,6.7,2.35,13,5.46,18.55l-9.28,9.6,18.66,18.04,9.38-9.7c5.61,2.81,11.91,4.45,18.56,4.6l3.61,12.73,24.97-7.08-3.62-12.75c5.47-3.57,10.1-8.32,13.52-13.9l12.85,3.27,6.4-25.15ZM283.72,177.31c0-9.36,7.61-16.97,16.97-16.97s16.97,7.61,16.97,16.97-7.61,16.97-16.97,16.97-16.97-7.61-16.97-16.97Z"/>
    <path class="b" d="M254.07,232.82l-12.86-3.27c-.35-6.86-2.3-13.31-5.46-18.99l9.17-9.57-18.74-17.95-9.16,9.56c-5.77-2.9-12.26-4.57-19.12-4.65l-3.75-12.68-24.89,7.36,3.76,12.7c-5.43,3.63-10.01,8.45-13.37,14.07l-12.79-3.06-6.05,25.24,12.74,3.05c.42,6.7,2.35,13,5.46,18.55l-9.28,9.6,18.66,18.04,9.38-9.7c5.61,2.81,11.91,4.45,18.56,4.6l3.61,12.73,24.97-7.08-3.62-12.75c5.47-3.57,10.1-8.32,13.52-13.9l12.85,3.27,6.4-25.15ZM180.4,231.83c0-9.36,7.61-16.97,16.97-16.97s16.97,7.61,16.97,16.97-7.61,16.97-16.97,16.97-16.97-7.61-16.97-16.97Z"/>
  </g>
  <g>
    <path class="b" d="M371.08,0h-222.49c2.33,2.24,4.55,4.6,6.5,7.17,4.57,6.01,7.88,12.62,9.97,19.51h206.02c8.4,0,15.24,6.84,15.24,15.24v259.17c0,8.4-6.84,15.24-15.24,15.24H41.92c-8.4,0-15.24-6.84-15.24-15.24V111.43l-19.6-18.45-.15-.1-1.06-1.01C3.76,89.88,1.83,87.83,0,85.76v215.33C0,324.2,18.81,343,41.92,343h329.17c23.11,0,41.92-18.8,41.92-41.91V41.91c0-23.11-18.8-41.91-41.92-41.91Z"/>
    <path class="c" d="M44.76,0c7.38,0,14.9,1.88,21.89,6.01.04.02.05.07.01.11-6.34,6.48-11.08,14.51-13.56,23.47,0,.03-.04.05-.06.05-.01,0-.02,0-.03,0-2.69-1.59-5.59-2.32-8.45-2.32-8.9,0-17.35,7.02-17.26,16.76,0,4.33,2.72,9.11,8.3,14.62l39.52,37.08s.03.02.05.02.03,0,.05-.02l39.48-37.07c4.1-3.88,8.53-9.94,8.31-14.63,0-9.23-7.66-16.74-17.07-16.74s-17.07,7.51-17.07,16.74v9.18l-13.7,12.85-13.56-12.74-.03-9.29C61.57,19.79,81.46.04,105.92.04c.19,0,.38,0,.57,0,27.88,0,49.76,27.49,42.36,54.47-2.27,8.2-7.3,16.05-15.19,23.79l-.77.72-55.84,52.42c-.54.51-1.23.76-1.92.76s-1.38-.25-1.92-.76l-55.56-52.16-.12-.08C6.1,68.39-.12,56.37,0,44.07-.21,18.54,21.58,0,44.76,0"/>
  </g>
</svg>