<?xml version="1.0" encoding="UTF-8"?>
<svg xmlns="http://www.w3.org/2000/svg" xmlns:xlink="http://www.w3.org/1999/xlink" version="1.1" id="Ebene_1" x="0px" y="0px" viewBox="0 0 413 343" style="enable-background:new 0 0 413 343;" xml:space="preserve">
<style type="text/css">
	.st0{fill:none;stroke:#020203;stroke-width:39;stroke-miterlimit:10;}
	.st1{fill:#1E1E1C;}
	.st2{fill:#E7392D;}
	.st3{fill:#FFFFFF;}
	.st4{fill:#E73A2D;}
</style>
<g>
	<path class="st1" d="M260.9,117.3l-12.9-3.3c-0.4-6.9-2.3-13.3-5.5-19l9.2-9.6l-18.7-18l-9.2,9.6c-5.8-2.9-12.3-4.6-19.1-4.7   L201,59.8l-24.9,7.4l3.8,12.7c-5.4,3.6-10,8.4-13.4,14.1l-12.8-3.1l-6,25.2l12.7,3.1c0.4,6.7,2.4,13,5.5,18.6l-9.3,9.6l18.7,18   l9.4-9.7c5.6,2.8,11.9,4.4,18.6,4.6l3.6,12.7l25-7.1l-3.6-12.8c5.5-3.6,10.1-8.3,13.5-13.9l12.8,3.3L260.9,117.3z M187.3,116.3   c0-9.4,7.6-17,17-17c9.4,0,17,7.6,17,17c0,9.4-7.6,17-17,17C194.9,133.3,187.3,125.7,187.3,116.3z"></path>
	<path class="st1" d="M357.4,178.3l-12.9-3.3c-0.4-6.9-2.3-13.3-5.5-19l9.2-9.6l-18.7-18l-9.2,9.6c-5.8-2.9-12.3-4.6-19.1-4.7   l-3.8-12.7l-24.9,7.4l3.8,12.7c-5.4,3.6-10,8.4-13.4,14.1l-12.8-3.1l-6,25.2l12.7,3.1c0.4,6.7,2.4,13,5.5,18.6l-9.3,9.6l18.7,18   l9.4-9.7c5.6,2.8,11.9,4.4,18.6,4.6l3.6,12.7l25-7.1l-3.6-12.8c5.5-3.6,10.1-8.3,13.5-13.9l12.8,3.3L357.4,178.3z M283.7,177.3   c0-9.4,7.6-17,17-17c9.4,0,17,7.6,17,17c0,9.4-7.6,17-17,17C291.3,194.3,283.7,186.7,283.7,177.3z"></path>
	<path class="st1" d="M254.1,232.8l-12.9-3.3c-0.4-6.9-2.3-13.3-5.5-19l9.2-9.6l-18.7-18l-9.2,9.6c-5.8-2.9-12.3-4.6-19.1-4.7   l-3.8-12.7l-24.9,7.4l3.8,12.7c-5.4,3.6-10,8.4-13.4,14.1l-12.8-3.1l-6,25.2l12.7,3.1c0.4,6.7,2.4,13,5.5,18.6l-9.3,9.6l18.7,18   l9.4-9.7c5.6,2.8,11.9,4.4,18.6,4.6l3.6,12.7l25-7.1l-3.6-12.8c5.5-3.6,10.1-8.3,13.5-13.9l12.8,3.3L254.1,232.8z M180.4,231.8   c0-9.4,7.6-17,17-17c9.4,0,17,7.6,17,17c0,9.4-7.6,17-17,17C188,248.8,180.4,241.2,180.4,231.8z"></path>
</g>
<g>
	<path class="st1" d="M371.1,0H148.6c2.3,2.2,4.5,4.6,6.5,7.2c4.6,6,7.9,12.6,10,19.5h206c8.4,0,15.2,6.8,15.2,15.2v259.2   c0,8.4-6.8,15.2-15.2,15.2H41.9c-8.4,0-15.2-6.8-15.2-15.2V111.4L7.1,93l-0.1-0.1l-1.1-1c-2.1-2-4-4-5.9-6.1v215.3   C0,324.2,18.8,343,41.9,343h329.2c23.1,0,41.9-18.8,41.9-41.9V41.9C413,18.8,394.2,0,371.1,0z"></path>
	<g>
		<g>
			<path class="st2" d="M44.8,0c7.4,0,14.9,1.9,21.9,6c0,0,0,0.1,0,0.1c-6.3,6.5-11.1,14.5-13.6,23.5c0,0,0,0-0.1,0c0,0,0,0,0,0     c-2.7-1.6-5.6-2.3-8.5-2.3c-8.9,0-17.4,7-17.3,16.8c0,4.3,2.7,9.1,8.3,14.6l39.5,37.1c0,0,0,0,0,0c0,0,0,0,0,0l39.5-37.1     c4.1-3.9,8.5-9.9,8.3-14.6c0-9.2-7.7-16.7-17.1-16.7c-9.4,0-17.1,7.5-17.1,16.7v9.2L75.2,66.1L61.6,53.4l0-9.3     c0-24.3,19.9-44,44.4-44c0.2,0,0.4,0,0.6,0c27.9,0,49.8,27.5,42.4,54.5c-2.3,8.2-7.3,16.1-15.2,23.8l-0.8,0.7l-55.8,52.4     c-0.5,0.5-1.2,0.8-1.9,0.8c-0.7,0-1.4-0.3-1.9-0.8L17.7,79.3l-0.1-0.1C6.1,68.4-0.1,56.4,0,44.1C-0.2,18.5,21.6,0,44.8,0"></path>
		</g>
	</g>
</g>
</svg>
