<svg viewBox="0 0 595.28 841.89" xmlns="http://www.w3.org/2000/svg" xmlns:xlink="http://www.w3.org/1999/xlink" id="a" overflow="hidden"><defs><clipPath id="b"><rect x="0" y="0" width="595.28" height="841.89" fill="none"/></clipPath><clipPath id="c"><rect x="0" y="0" width="595.28" height="841.89" fill="none"/></clipPath><clipPath id="d"><rect x="0" y="0" width="595.28" height="841.89" fill="none"/></clipPath><clipPath id="e"><rect x="190.18" y="606.17" width="38.03" height="38.03" fill="none"/></clipPath><clipPath id="f"><rect x="284.23" y="581.95" width="38.03" height="38.03" fill="none"/></clipPath><clipPath id="g"><rect x="0" y="0" width="595.28" height="841.89" fill="none"/></clipPath><clipPath id="h"><rect x="0" y="0" width="595.28" height="841.89" fill="none"/></clipPath><clipPath id="i"><rect x="411.82" y="575.08" width="38.03" height="38.03" fill="none"/></clipPath><clipPath id="j"><rect x="0" y="0" width="595.28" height="841.89" fill="none"/></clipPath></defs><g clip-path="url(#b)"><g clip-path="url(#c)"><path d="M413.39 125C412.44 124.1 411.17 123.17 409.13 123.17 406.64 123.17 405.23 124.5 405.23 126.4 405.23 128.1 406.61 128.89 408.31 129.12L409.42 129.27C410.28 129.38 411.1 129.57 411.1 130.26 411.1 131.07 410.03 131.38 409.32 131.38 408.28 131.38 407.17 130.94 406.53 130.16L404.7 131.32C405.69 132.47 406.85 133.28 409.11 133.28 411.88 133.28 413.5 131.95 413.5 129.91 413.5 128.25 412.46 127.49 409.94 127.13L408.87 126.98C408.05 126.86 407.64 126.61 407.64 126.09 407.64 125.64 408.09 125.06 409.08 125.06 410.12 125.06 410.91 125.54 411.61 126.27L413.39 125ZM415.19 128.19C415.19 130.85 416.81 133.35 420 133.35 423.19 133.35 424.87 130.89 424.87 128.3 424.87 126 423.49 123.1 419.97 123.1 416.45 123.1 415.19 125.99 415.19 128.19M417.58 128.16C417.58 126.86 418.14 125.12 419.98 125.12 421.69 125.12 422.46 126.52 422.46 128.27 422.46 129.63 421.82 131.3 420.02 131.3 418.22 131.3 417.58 129.71 417.58 128.16M426.72 123.39 426.72 133.06 429.13 133.06 429.13 129.16 433.74 129.16 433.74 127.28 429.13 127.28 429.13 125.25 434.14 125.25 434.14 123.39 426.72 123.39ZM442.26 125.3 442.26 123.4 434.8 123.4 434.8 125.3 437.32 125.3 437.32 133.06 439.76 133.06 439.76 125.3 442.27 125.3ZM456.12 123.39 453.71 123.39 452.3 130.04 450.49 123.39 448.34 123.39 446.59 130.04 445.17 123.39 442.75 123.39 445.2 133.06 447.69 133.06 449.44 126.87 451.18 133.06 453.67 133.06 456.12 123.39ZM465.58 133.06 462.02 123.39 459.5 123.39 455.91 133.06 458.48 133.06 458.96 131.51 462.52 131.51 463 133.06 465.57 133.06ZM461.98 129.77 459.53 129.77 460.72 125.69 461.98 129.77ZM466.88 123.39 466.88 133.06 469.32 133.06 469.32 129.61 470.83 129.61 472.76 133.06 475.41 133.06 473.18 129.2C474.23 128.83 475.17 128.17 475.17 126.53 475.17 123.76 472.9 123.39 471.46 123.39L466.89 123.39ZM469.3 125.19 471.31 125.19C471.73 125.19 472.75 125.22 472.75 126.48 472.75 126.78 472.68 127.82 471.3 127.82L469.3 127.82 469.3 125.19ZM477.5 133.06 485.07 133.06 485.07 131.16 479.91 131.16 479.91 128.86 484.33 128.86 484.33 127.02 479.91 127.02 479.91 125.27 484.65 125.27 484.65 123.39 477.5 123.39 477.5 133.06Z" fill="#1E1E1C"/><path d="M523.43 106.85 496.16 106.85 496.16 54.88C496.16 54.54 495.88 54.26 495.54 54.26L490.72 54.26C490.37 54.26 490.1 54.54 490.1 54.88L490.1 112.29C490.1 112.64 490.38 112.91 490.72 112.91L523.43 112.91C523.77 112.91 524.05 112.63 524.05 112.29L524.05 107.47C524.05 107.13 523.77 106.85 523.43 106.85" fill="#1E1E1C"/><path d="M484.45 106.87 454.45 106.87C453.03 106.87 451.85 105.71 451.86 104.28 451.86 103.76 451.99 103.29 452.22 102.99L452.26 102.94 481.31 60.62C481.38 60.52 481.42 60.39 481.42 60.27L481.42 54.88C481.42 54.54 481.14 54.26 480.8 54.26L448.59 54.26C448.24 54.26 447.97 54.54 447.97 54.88L447.97 59.7C447.97 60.04 448.25 60.32 448.59 60.32L474.16 60.32C474.16 60.32 447.33 99.41 447.33 99.41 446.07 101.13 445.81 103 445.81 104.29 445.81 109.05 449.68 112.91 454.43 112.91L484.46 112.91C484.8 112.91 485.08 112.63 485.08 112.29L485.08 107.5C485.08 107.16 484.8 106.88 484.46 106.88" fill="#1E1E1C"/><path d="M428.24 88.79C436.97 87.91 443.81 80.52 443.81 71.56 443.81 62.04 435.86 54.26 426.35 54.26L405.32 54.26C404.98 54.26 404.7 54.54 404.7 54.88L404.7 68.1C404.7 68.45 404.98 68.72 405.32 68.72L410.14 68.72C410.48 68.72 410.76 68.44 410.76 68.1L410.76 60.32 426.5 60.32C432.73 60.32 437.79 65.4 437.75 71.64 437.71 77.85 432.58 82.82 426.38 82.82L413.33 82.82C408.57 82.82 404.71 86.68 404.71 91.44L404.71 112.29C404.71 112.64 404.99 112.91 405.33 112.91L410.15 112.91C410.49 112.91 410.77 112.63 410.77 112.29L410.77 91.44C410.77 90.03 411.92 88.88 413.33 88.88L420.96 88.88 437.28 112.64C437.4 112.81 437.59 112.91 437.8 112.91L443.64 112.91C444.14 112.91 444.44 112.35 444.15 111.93L428.25 88.79Z" fill="#1E1E1C"/><path d="M530.89 53.87C525.45 53.87 521.03 58.26 521.03 63.66L521.03 65.72C521.03 65.72 524.05 68.55 524.05 68.55L527.09 65.7 527.09 63.66C527.09 61.61 528.79 59.94 530.88 59.94 532.97 59.94 534.67 61.61 534.67 63.66 534.72 64.7 533.73 66.05 532.82 66.91L524.05 75.15C524.05 75.15 524.03 75.15 524.03 75.15L515.25 66.91C514.01 65.69 513.4 64.62 513.4 63.66 513.37 60.8 516.66 59 519.11 60.45 519.11 60.45 519.13 60.45 519.13 60.45 519.68 58.46 520.73 56.67 522.14 55.23 522.14 55.23 522.14 55.21 522.14 55.21 515.7 51.41 507.27 56.19 507.33 63.67 507.3 66.4 508.69 69.08 511.22 71.47L511.25 71.49 523.6 83.08C523.84 83.31 524.21 83.31 524.45 83.08L536.86 71.43 537.03 71.27C538.78 69.55 539.9 67.81 540.41 65.98 542.07 59.94 537.12 53.79 530.87 53.88" fill="#E7392C"/></g><g><path d="M87.54 379.48C90.48 379.51 92.53 377.05 92.6 370.74 92.6 370.26 92.86 370 93.34 370L96.96 370C97.34 370 97.7 370.03 97.7 370.74 97.7 376.47 95.46 379.96 93.12 381.3 96.35 383.48 95.52 388.37 98.72 388.37L99.23 388.37C99.55 388.37 99.68 388.47 99.68 389.11L99.68 391.67C99.68 392.05 99.46 392.25 98.94 392.41 98.52 392.54 97.92 392.57 97.08 392.57 89.94 392.57 92.12 383.58 87.48 383.58L85.75 383.58 85.75 391.68C85.75 392.16 85.49 392.42 85.05 392.42L81.34 392.42C80.86 392.42 80.6 392.16 80.6 391.68L80.6 370.75C80.6 370.27 80.86 370.01 81.34 370.01L85.05 370.01C85.5 370.01 85.75 370.27 85.75 370.75L85.75 379.49 87.54 379.49Z" fill="#1D1D1B"/><path d="M107.93 391.48C107.93 391.93 107.64 392.57 105.79 392.57 103.2 392.6 101.82 391.19 101.82 388.22L101.82 369.95C101.82 369.44 102.01 369.18 102.56 369.18L105.92 369.18C106.4 369.18 106.66 369.47 106.66 369.95L106.66 387.36C106.66 388.1 106.85 388.42 107.2 388.54 107.52 388.7 107.94 388.7 107.94 389.34L107.94 391.48Z" fill="#1D1D1B"/><path d="M113.11 374.36C111.45 374.36 110.17 373.21 110.17 371.54 110.17 369.87 111.45 368.69 113.11 368.69 114.77 368.69 116.12 369.91 116.12 371.54 116.12 373.17 114.78 374.36 113.11 374.36ZM116.79 391.48C116.79 391.93 116.53 392.57 114.68 392.57 112.09 392.6 110.71 391.19 110.71 388.22L110.71 377.72C110.71 377.21 110.9 376.95 111.41 376.95L114.8 376.95C115.28 376.95 115.54 377.21 115.54 377.72L115.54 387.35C115.54 388.44 116.08 388.63 116.44 388.66 116.7 388.69 116.79 388.85 116.79 389.33L116.79 391.47Z" fill="#1D1D1B"/><path d="M123.8 385.43 123.8 385.53C123.86 387.9 126.17 388.67 127.26 388.67 128.89 388.67 129.98 387.77 130.52 387.2 130.71 387.01 130.97 386.85 131.29 387.14L132.99 388.93C133.25 389.19 133.21 389.41 133.09 389.63 132.39 390.62 130.4 392.61 126.56 392.61 122.05 392.61 118.94 389.63 118.94 384.74 118.94 379.85 121.31 376.8 126.56 376.8 131.17 376.8 133.12 379.65 133.12 384.16 133.12 385.22 132.96 385.44 132.35 385.44L123.81 385.44ZM128.54 382.9C128.54 381.4 127.77 380.53 126.3 380.53 125.12 380.53 124.25 381.23 123.93 382.9L128.54 382.9Z" fill="#1D1D1B"/><path d="M136.7 382.01C136.7 381.21 136.44 380.92 136.03 380.79 135.74 380.69 135.45 380.6 135.45 379.99L135.45 377.88C135.45 377.43 135.74 376.82 137.56 376.82 139.38 376.82 140.5 377.52 140.89 378.96L140.89 379.18C141.34 378.03 142.49 376.78 145.31 376.78 149.25 376.78 150.81 379.56 150.81 382.92L150.81 387.34C150.81 388.17 151.07 388.46 151.45 388.59 151.74 388.72 152.06 388.78 152.06 389.36L152.06 391.47C152.06 391.92 151.77 392.56 149.95 392.56 147.33 392.56 145.98 391.18 145.98 388.21L145.98 383.51C145.98 382.01 145.15 381.11 143.87 381.11 142.14 381.11 141.6 382.55 141.53 383.57L141.53 391.67C141.53 392.15 141.27 392.41 140.83 392.41L137.44 392.41C136.93 392.41 136.7 392.15 136.7 391.64L136.7 382.01Z" fill="#1D1D1B"/><path d="M164.76 376.98C165.24 376.98 165.5 377.27 165.5 377.72L165.5 380.06C165.5 380.51 165.24 380.8 164.76 380.8L160.44 380.8 160.44 385.25C160.44 387.36 161.18 388.32 162.74 388.32 163.51 388.32 164.12 388.06 164.47 387.87 164.69 387.74 164.98 387.65 165.17 388.06L166.13 390.46C166.35 391 166.16 391.26 165.91 391.42 165.24 391.87 163.93 392.6 162.2 392.6 157.4 392.6 155.61 390.01 155.61 385.43L155.61 380.79 154.04 380.79C153.59 380.79 153.34 380.5 153.34 380.05L153.34 377.71C153.34 377.26 153.6 376.97 154.04 376.97L155.61 376.97 155.61 372.91C155.61 372.4 155.8 372.14 156.31 372.14L159.7 372.14C160.18 372.14 160.44 372.43 160.44 372.91L160.44 376.97 164.76 376.97Z" fill="#1D1D1B"/><path d="M172.63 385.43 172.63 385.53C172.69 387.9 175 388.67 176.09 388.67 177.72 388.67 178.81 387.77 179.35 387.2 179.54 387.01 179.8 386.85 180.12 387.14L181.82 388.93C182.08 389.19 182.04 389.41 181.92 389.63 181.22 390.62 179.23 392.61 175.39 392.61 170.88 392.61 167.77 389.63 167.77 384.74 167.77 379.85 170.14 376.8 175.39 376.8 180 376.8 181.95 379.65 181.95 384.16 181.95 385.22 181.79 385.44 181.18 385.44L172.64 385.44ZM177.37 382.9C177.37 381.4 176.6 380.53 175.13 380.53 173.95 380.53 173.08 381.23 172.76 382.9L177.37 382.9Z" fill="#1D1D1B"/><path d="M185.53 382.01C185.53 381.21 185.27 380.92 184.86 380.79 184.57 380.69 184.28 380.6 184.28 379.99L184.28 377.88C184.28 377.43 184.57 376.82 186.39 376.82 188.21 376.82 189.33 377.52 189.72 378.96L189.72 379.18C190.17 378.03 191.32 376.78 194.14 376.78 198.08 376.78 199.64 379.56 199.64 382.92L199.64 387.34C199.64 388.17 199.9 388.46 200.28 388.59 200.57 388.72 200.89 388.78 200.89 389.36L200.89 391.47C200.89 391.92 200.6 392.56 198.78 392.56 196.16 392.56 194.81 391.18 194.81 388.21L194.81 383.51C194.81 382.01 193.98 381.11 192.7 381.11 190.97 381.11 190.43 382.55 190.36 383.57L190.36 391.67C190.36 392.15 190.1 392.41 189.66 392.41L186.27 392.41C185.76 392.41 185.53 392.15 185.53 391.64L185.53 382.01Z" fill="#1D1D1B"/><path d="M202.74 377.91C202.74 377.46 203.03 376.82 204.85 376.82 206.67 376.82 207.86 377.56 208.24 379.09L208.24 379.19C208.69 378.33 209.81 376.79 212.78 376.79 215.75 376.79 218.99 379.22 218.99 384.66 218.99 390.42 215.6 392.6 212.24 392.6 209.74 392.6 208.91 391.48 208.82 391.35L208.82 399.48C208.82 399.96 208.63 400.22 208.12 400.22L204.73 400.22C204.25 400.22 203.99 399.96 203.99 399.45L203.99 382.01C203.99 381.11 203.64 380.89 203.19 380.73 202.97 380.63 202.74 380.51 202.74 380.03L202.74 377.92ZM208.82 385.91C208.88 386.71 209.56 388.34 211.44 388.34 213.04 388.34 214.22 387.16 214.22 384.69 214.22 382.03 212.72 381.04 211.44 381.04 209.33 381.04 208.85 383.18 208.82 383.38L208.82 385.91Z" fill="#1D1D1B"/><path d="M221.11 384.66C221.11 380.05 223.73 376.79 228.47 376.79 233.21 376.79 235.8 380.05 235.8 384.66 235.8 389.27 233.21 392.6 228.47 392.6 223.73 392.6 221.11 389.34 221.11 384.66ZM231.03 384.7C231.03 382.46 230.36 381.05 228.47 381.05 226.58 381.05 225.88 382.46 225.88 384.7 225.88 386.94 226.49 388.35 228.47 388.35 230.45 388.35 231.03 386.94 231.03 384.7Z" fill="#1D1D1B"/><path d="M239.19 382.04C239.19 380.92 238.52 380.76 238.33 380.73 238.01 380.73 237.95 380.47 237.95 380.03L237.95 377.66C237.95 377.08 238.46 376.83 239.93 376.83 241.72 376.83 242.91 377.6 243.32 379.13L243.32 379.32C243.74 378.17 244.86 376.79 247.8 376.79 248.5 376.79 249.3 376.92 249.85 377.17 250.23 377.33 250.33 377.55 250.07 378.13L248.66 381.23C248.47 381.65 248.37 381.61 248.08 381.49 247.73 381.36 247.18 381.17 246.32 381.17 244.62 381.17 244.02 382.58 244.02 383.57L244.02 391.67C244.02 392.15 243.76 392.41 243.32 392.41L239.93 392.41C239.45 392.41 239.19 392.15 239.19 391.67L239.19 382.04Z" fill="#1D1D1B"/><path d="M262.68 376.98C263.16 376.98 263.42 377.27 263.42 377.72L263.42 380.06C263.42 380.51 263.16 380.8 262.68 380.8L258.36 380.8 258.36 385.25C258.36 387.36 259.1 388.32 260.66 388.32 261.43 388.32 262.04 388.06 262.39 387.87 262.61 387.74 262.9 387.65 263.09 388.06L264.05 390.46C264.27 391 264.08 391.26 263.83 391.42 263.16 391.87 261.85 392.6 260.12 392.6 255.32 392.6 253.53 390.01 253.53 385.43L253.53 380.79 251.96 380.79C251.51 380.79 251.26 380.5 251.26 380.05L251.26 377.71C251.26 377.26 251.52 376.97 251.96 376.97L253.53 376.97 253.53 372.91C253.53 372.4 253.72 372.14 254.23 372.14L257.62 372.14C258.1 372.14 258.36 372.43 258.36 372.91L258.36 376.97 262.68 376.97Z" fill="#1D1D1B"/><path d="M280.85 391.45C280.85 391.93 280.59 392.57 278.74 392.57 276.89 392.57 275.57 391.71 275.35 390.27 274.81 391.26 273.53 392.61 270.61 392.61 267.41 392.61 265.55 390.79 265.55 388.45 265.55 385.7 267.25 384.13 271.6 384.13L274.74 384.13 274.74 382.37C274.74 380.93 274.04 380.35 272.79 380.35 271.54 380.35 270.93 380.96 270.93 382.01 270.93 382.81 271.06 382.97 270.23 382.97L267.51 382.97C266.61 382.97 266.49 382.2 266.49 381.21 266.49 378.59 268.7 376.79 272.95 376.79 277.65 376.79 279.57 378.97 279.57 382.58L279.57 387.35C279.57 388.21 279.99 388.53 280.34 388.66 280.44 388.69 280.85 388.79 280.85 389.33L280.85 391.44ZM274.74 386.42 272.18 386.42C271 386.42 270.42 386.9 270.42 387.7 270.42 388.5 271.09 388.95 271.99 388.95 274.23 388.95 274.74 387.06 274.74 387.06L274.74 386.42Z" fill="#1D1D1B"/><path d="M289.43 391.48C289.43 391.93 289.14 392.57 287.29 392.57 284.7 392.6 283.32 391.19 283.32 388.22L283.32 369.95C283.32 369.44 283.51 369.18 284.06 369.18L287.42 369.18C287.9 369.18 288.16 369.47 288.16 369.95L288.16 387.36C288.16 388.1 288.35 388.42 288.7 388.54 289.02 388.7 289.44 388.7 289.44 389.34L289.44 391.48Z" fill="#1D1D1B"/></g><g><path d="M87.54 416.49C90.48 416.52 92.53 414.06 92.6 407.75 92.6 407.27 92.86 407.01 93.34 407.01L96.96 407.01C97.34 407.01 97.7 407.04 97.7 407.75 97.7 413.48 95.46 416.97 93.12 418.31 96.35 420.49 95.52 425.38 98.72 425.38L99.23 425.38C99.55 425.38 99.68 425.48 99.68 426.12L99.68 428.68C99.68 429.06 99.46 429.26 98.94 429.42 98.52 429.55 97.92 429.58 97.08 429.58 89.94 429.58 92.12 420.59 87.48 420.59L85.75 420.59 85.75 428.69C85.75 429.17 85.49 429.43 85.05 429.43L81.34 429.43C80.86 429.43 80.6 429.17 80.6 428.69L80.6 407.76C80.6 407.28 80.86 407.02 81.34 407.02L85.05 407.02C85.5 407.02 85.75 407.28 85.75 407.76L85.75 416.5 87.54 416.5Z" fill="#1D1D1B"/><path d="M116.41 428.46C116.41 428.94 116.15 429.58 114.3 429.58 112.45 429.58 111.13 428.72 110.91 427.28 110.37 428.27 109.09 429.62 106.17 429.62 102.97 429.62 101.11 427.8 101.11 425.46 101.11 422.71 102.81 421.14 107.16 421.14L110.3 421.14 110.3 419.38C110.3 417.94 109.6 417.36 108.35 417.36 107.1 417.36 106.49 417.97 106.49 419.02 106.49 419.82 106.62 419.98 105.79 419.98L103.07 419.98C102.17 419.98 102.05 419.21 102.05 418.22 102.05 415.6 104.26 413.8 108.51 413.8 113.21 413.8 115.13 415.98 115.13 419.59L115.13 424.36C115.13 425.22 115.55 425.54 115.9 425.67 116 425.7 116.41 425.8 116.41 426.34L116.41 428.45ZM110.3 423.43 107.74 423.43C106.56 423.43 105.98 423.91 105.98 424.71 105.98 425.51 106.65 425.96 107.55 425.96 109.79 425.96 110.3 424.07 110.3 424.07L110.3 423.43Z" fill="#1D1D1B"/><path d="M119.51 419.02C119.51 418.22 119.25 417.93 118.84 417.8 118.55 417.7 118.26 417.61 118.26 417L118.26 414.89C118.26 414.44 118.55 413.83 120.37 413.83 122.19 413.83 123.31 414.53 123.7 415.97L123.7 416.19C124.15 415.04 125.3 413.79 128.12 413.79 132.06 413.79 133.62 416.57 133.62 419.93L133.62 424.35C133.62 425.18 133.88 425.47 134.26 425.6 134.55 425.73 134.87 425.79 134.87 426.37L134.87 428.48C134.87 428.93 134.58 429.57 132.76 429.57 130.14 429.57 128.79 428.19 128.79 425.22L128.79 420.52C128.79 419.02 127.96 418.12 126.68 418.12 124.95 418.12 124.41 419.56 124.34 420.58L124.34 428.68C124.34 429.16 124.08 429.42 123.64 429.42L120.25 429.42C119.74 429.42 119.51 429.16 119.51 428.65L119.51 419.02Z" fill="#1D1D1B"/><path d="M137.59 429.42C137.14 429.42 136.89 429.16 136.89 428.68L136.89 426.31C136.89 425.57 137.34 425.19 138.04 424.45L144.31 417.79 137.59 417.79C137.14 417.79 136.89 417.53 136.89 417.09L136.89 414.72C136.89 414.24 137.15 413.98 137.63 413.98L149.31 413.98C149.79 413.98 150.05 414.2 150.05 414.72L150.05 416.9C150.05 417.86 149.57 418.24 148.77 419.11L142.85 425.61 149.31 425.61C149.79 425.61 150.05 425.87 150.05 426.35L150.05 428.69C150.05 429.17 149.79 429.43 149.31 429.43L137.6 429.43Z" fill="#1D1D1B"/><path d="M159.06 428.49C159.06 428.94 158.77 429.58 156.92 429.58 154.33 429.61 152.95 428.2 152.95 425.23L152.95 406.96C152.95 406.45 153.14 406.19 153.69 406.19L157.05 406.19C157.53 406.19 157.79 406.48 157.79 406.96L157.79 424.37C157.79 425.11 157.98 425.43 158.33 425.55 158.65 425.71 159.07 425.71 159.07 426.35L159.07 428.49Z" fill="#1D1D1B"/><path d="M166.04 422.44 166.04 422.54C166.1 424.91 168.41 425.68 169.5 425.68 171.13 425.68 172.22 424.78 172.76 424.21 172.95 424.02 173.21 423.86 173.53 424.15L175.23 425.94C175.49 426.2 175.45 426.42 175.33 426.64 174.63 427.63 172.64 429.62 168.8 429.62 164.29 429.62 161.18 426.64 161.18 421.75 161.18 416.86 163.55 413.81 168.8 413.81 173.41 413.81 175.36 416.66 175.36 421.17 175.36 422.23 175.2 422.45 174.59 422.45L166.05 422.45ZM170.78 419.91C170.78 418.41 170.01 417.54 168.54 417.54 167.36 417.54 166.49 418.24 166.17 419.91L170.78 419.91Z" fill="#1D1D1B"/><path d="M180.7 411.37C179.04 411.37 177.76 410.22 177.76 408.55 177.76 406.88 179.04 405.7 180.7 405.7 182.36 405.7 183.71 406.92 183.71 408.55 183.71 410.18 182.37 411.37 180.7 411.37ZM184.38 428.49C184.38 428.94 184.12 429.58 182.27 429.58 179.68 429.61 178.3 428.2 178.3 425.23L178.3 414.73C178.3 414.22 178.49 413.96 179 413.96L182.39 413.96C182.87 413.96 183.13 414.22 183.13 414.73L183.13 424.36C183.13 425.45 183.67 425.64 184.03 425.67 184.29 425.7 184.38 425.86 184.38 426.34L184.38 428.48Z" fill="#1D1D1B"/></g><g><path d="M91.09 456.99C91.09 457.29 90.91 457.45 90.63 457.45L88.31 457.45C88.03 457.45 87.87 457.29 87.87 456.99L87.87 452.11 83.01 452.11 83.01 456.99C83.01 457.29 82.85 457.45 82.57 457.45L80.25 457.45C79.95 457.45 79.79 457.29 79.79 456.99L79.79 443.91C79.79 443.61 79.95 443.45 80.25 443.45L82.57 443.45C82.85 443.45 83.01 443.61 83.01 443.91L83.01 449.51 87.87 449.51 87.87 443.91C87.87 443.61 88.03 443.45 88.31 443.45L90.63 443.45C90.91 443.45 91.09 443.61 91.09 443.91L91.09 456.99Z" fill="#1D1D1B"/><path d="M102.47 456.85C102.47 457.15 102.31 457.55 101.15 457.55 99.99 457.55 99.17 457.01 99.03 456.11 98.69 456.73 97.89 457.57 96.07 457.57 94.07 457.57 92.91 456.43 92.91 454.97 92.91 453.25 93.97 452.27 96.69 452.27L98.65 452.27 98.65 451.17C98.65 450.27 98.21 449.91 97.43 449.91 96.65 449.91 96.27 450.29 96.27 450.95 96.27 451.45 96.35 451.55 95.83 451.55L94.13 451.55C93.57 451.55 93.49 451.07 93.49 450.45 93.49 448.81 94.87 447.69 97.53 447.69 100.47 447.69 101.67 449.05 101.67 451.31L101.67 454.29C101.67 454.83 101.93 455.03 102.15 455.11 102.21 455.13 102.47 455.19 102.47 455.53L102.47 456.85ZM98.65 453.71 97.05 453.71C96.31 453.71 95.95 454.01 95.95 454.51 95.95 455.01 96.37 455.29 96.93 455.29 98.33 455.29 98.65 454.11 98.65 454.11L98.65 453.71Z" fill="#1D1D1B"/><path d="M104.41 450.95C104.41 450.45 104.25 450.27 103.99 450.19 103.81 450.13 103.63 450.07 103.63 449.69L103.63 448.37C103.63 448.09 103.81 447.71 104.95 447.71 106.09 447.71 106.79 448.15 107.03 449.05L107.03 449.19C107.31 448.47 108.03 447.69 109.79 447.69 112.25 447.69 113.23 449.43 113.23 451.53L113.23 454.29C113.23 454.81 113.39 454.99 113.63 455.07 113.81 455.15 114.01 455.19 114.01 455.55L114.01 456.87C114.01 457.15 113.83 457.55 112.69 457.55 111.05 457.55 110.21 456.69 110.21 454.83L110.21 451.89C110.21 450.95 109.69 450.39 108.89 450.39 107.81 450.39 107.47 451.29 107.43 451.93L107.43 456.99C107.43 457.29 107.27 457.45 106.99 457.45L104.87 457.45C104.55 457.45 104.41 457.29 104.41 456.97L104.41 450.95Z" fill="#1D1D1B"/><path d="M125.31 456.87C125.31 457.15 125.11 457.55 123.99 457.55 122.81 457.55 122.09 457.09 121.87 456.13L121.87 456.07C121.59 456.61 120.89 457.57 119.03 457.57 117.17 457.57 115.15 456.05 115.15 452.65 115.15 449.05 117.27 447.69 119.37 447.69 121.03 447.69 121.49 448.47 121.51 448.51L121.51 443.39C121.51 443.09 121.63 442.93 121.95 442.93L124.07 442.93C124.37 442.93 124.53 443.09 124.53 443.41L124.53 454.27C124.53 454.83 124.71 455.01 124.97 455.09 125.13 455.15 125.31 455.19 125.31 455.53L125.31 456.87ZM121.51 451.85C121.47 451.35 121.03 450.35 119.87 450.35 118.89 450.35 118.13 451.09 118.13 452.61 118.13 454.25 119.05 454.91 119.87 454.91 121.21 454.91 121.49 453.57 121.51 453.43L121.51 451.85Z" fill="#1D1D1B"/><path d="M127.55 457.45C127.23 457.45 127.11 457.27 127.11 456.99L127.11 443.39C127.11 443.09 127.23 442.93 127.55 442.93L129.67 442.93C129.97 442.93 130.13 443.09 130.13 443.41L130.13 448.69C130.13 448.69 130.77 447.69 132.59 447.69 134.41 447.69 136.47 449.21 136.47 452.61 136.47 456.21 134.51 457.57 132.41 457.57 130.93 457.57 130.09 456.81 129.73 456.51L129.73 456.99C129.73 457.25 129.63 457.45 129.29 457.45L127.55 457.45ZM130.13 453.33C130.13 453.81 130.53 454.91 131.75 454.91 132.75 454.91 133.49 454.17 133.49 452.63 133.49 450.97 132.55 450.35 131.73 450.35 130.35 450.35 130.13 451.83 130.13 451.83L130.13 453.33Z" fill="#1D1D1B"/><path d="M147.79 456.87C147.79 457.15 147.61 457.55 146.47 457.55 145.27 457.55 144.59 457.05 144.33 456.01L144.33 455.99C143.99 456.69 143.15 457.57 141.25 457.57 138.95 457.57 138.19 456.09 138.19 454.09L138.19 448.27C138.19 447.97 138.33 447.81 138.65 447.81L140.77 447.81C141.05 447.81 141.21 447.97 141.21 448.29L141.21 453.33C141.21 454.39 141.67 454.87 142.35 454.87 143.83 454.87 143.99 453.33 143.99 453.09L143.99 448.27C143.99 447.97 144.11 447.81 144.43 447.81L146.55 447.81C146.85 447.81 147.01 447.97 147.01 448.29L147.01 454.29C147.01 454.79 147.19 454.99 147.47 455.09 147.63 455.15 147.79 455.21 147.79 455.55L147.79 456.87Z" fill="#1D1D1B"/><path d="M153.91 447.69C156.53 447.69 157.91 449.17 157.91 450.93 157.91 451.35 157.91 452.15 157.27 452.15L155.79 452.15C155.29 452.15 155.27 452.03 155.27 451.57 155.27 450.99 155.03 450.35 153.91 450.35 152.73 450.35 152.13 451.07 152.13 452.61 152.13 454.35 153.25 454.91 154.33 454.91 155.25 454.91 155.85 454.53 156.19 454.25 156.45 454.05 156.63 453.93 156.89 454.19L157.71 455.05C158.05 455.39 158.05 455.67 157.89 455.87 157.39 456.43 156.19 457.57 153.89 457.57 151.09 457.57 149.15 455.71 149.15 452.65 149.15 449.59 150.63 447.69 153.91 447.69Z" fill="#1D1D1B"/><path d="M159.78 443.39C159.78 443.09 159.9 442.93 160.22 442.93L162.34 442.93C162.64 442.93 162.8 443.09 162.8 443.41L162.8 448.67C163.2 448.11 163.92 447.69 165.16 447.69 167.6 447.69 168.58 449.43 168.58 451.53L168.58 454.29C168.58 454.89 168.8 455.01 169.06 455.11 169.2 455.17 169.38 455.23 169.38 455.53L169.38 456.87C169.38 457.23 169.1 457.55 168.04 457.55 166.4 457.55 165.56 456.69 165.56 454.83L165.56 451.85C165.56 450.95 165.02 450.39 164.24 450.39 163.18 450.39 162.8 451.29 162.8 451.93L162.8 456.97C162.8 457.29 162.64 457.45 162.34 457.45L160.22 457.45C159.9 457.45 159.78 457.29 159.78 456.99L159.78 443.39Z" fill="#1D1D1B"/></g><g clip-path="url(#d)"><path d="M63.7 702.28C66.2 699.87 70.08 699.78 72.67 701.98L111.65 661.12C110.18 659.56 110.23 657.11 111.77 655.62 113.33 654.12 115.8 654.16 117.31 655.72 118.81 657.27 118.77 659.73 117.23 661.23L138.27 681.35C138.27 681.35 138.35 681.24 138.4 681.2 140.92 678.76 144.95 678.83 147.38 681.36 147.67 681.66 147.91 681.98 148.13 682.31L174.37 666.3C172.67 663.21 173.16 659.26 175.82 656.69 176.05 656.47 176.29 656.27 176.53 656.09L160.73 633.63C158.39 635.27 155.14 635.03 153.09 632.91 150.82 630.56 150.89 626.81 153.24 624.54 155.59 622.27 159.34 622.33 161.61 624.69 163.88 627.04 163.81 630.79 161.46 633.06 161.38 633.13 161.29 633.19 161.21 633.26L177.03 655.74C179.18 654.34 181.85 654.09 184.19 654.97L203.37 610.77C202.43 610.3 201.54 609.68 200.77 608.88 199.46 607.53 198.65 605.88 198.31 604.16L193.94 604.92C194 605.83 193.69 606.77 192.98 607.45 191.7 608.69 189.66 608.65 188.43 607.37 187.19 606.09 187.23 604.05 188.51 602.82 189.79 601.58 191.83 601.62 193.06 602.9 193.46 603.31 193.71 603.8 193.84 604.31L198.22 603.55C197.95 601.42 198.4 599.23 199.58 597.36L176.35 582.31C176.12 582.72 175.85 583.11 175.49 583.45 173.48 585.39 170.29 585.33 168.35 583.33 166.41 581.32 166.47 578.13 168.47 576.19 170.48 574.25 173.67 574.31 175.61 576.31 177.05 577.8 177.39 579.96 176.63 581.76L199.91 596.84C200.23 596.4 200.59 595.97 200.99 595.58 203.9 592.77 208.15 592.22 211.6 593.88L220.98 576.47C220.65 576.26 220.34 576.02 220.05 575.73 218.11 573.72 218.17 570.53 220.17 568.59 222.17 566.65 225.37 566.71 227.31 568.71 229.25 570.72 229.19 573.91 227.19 575.85 225.63 577.35 223.36 577.64 221.52 576.76L212.15 594.16C212.92 594.59 213.64 595.14 214.29 595.81 217.09 598.71 217.64 602.94 216.01 606.37L268.12 633.27C268.36 632.87 268.64 632.49 268.99 632.15 270.27 630.91 272 630.44 273.64 630.7L278.78 612.52C277.85 612.17 276.98 611.63 276.25 610.87 273.61 608.14 273.69 603.79 276.42 601.15 279.15 598.51 283.5 598.59 286.14 601.32 288.78 604.05 288.7 608.4 285.97 611.04 284.15 612.79 281.63 613.34 279.36 612.71L274.24 630.83C275.16 631.08 276.03 631.55 276.74 632.29 277.48 633.05 277.93 633.98 278.14 634.95L341.65 619.98C341.46 618.47 341.91 616.91 342.97 615.7L306.68 575.02C303.94 577.22 299.93 577 297.44 574.43 294.8 571.7 294.88 567.35 297.61 564.71 299.57 562.82 302.35 562.33 304.75 563.21L314.16 539.45C313.56 539.25 313 538.93 312.54 538.45 311 536.86 311.05 534.33 312.64 532.79 314.23 531.25 316.76 531.3 318.3 532.89 318.38 532.97 318.43 533.06 318.5 533.15L342.7 515.99C342.08 515 342.21 513.68 343.08 512.83 344.08 511.86 345.68 511.89 346.65 512.89 347.62 513.89 347.59 515.49 346.59 516.46 345.61 517.41 344.07 517.39 343.1 516.46L318.87 533.64C319.61 534.89 319.6 536.43 318.87 537.68L326.64 543.06C326.73 542.94 326.83 542.82 326.94 542.71 327.94 541.74 329.54 541.77 330.51 542.77 331.48 543.77 331.45 545.37 330.45 546.34 329.45 547.31 327.85 547.28 326.88 546.28 326.17 545.55 326 544.5 326.35 543.61L318.52 538.19C318.42 538.31 318.33 538.44 318.21 538.56 317.26 539.48 315.98 539.82 314.77 539.62L305.33 563.46C306.06 563.81 306.75 564.28 307.35 564.9 309.92 567.56 309.91 571.76 307.37 574.41L343.65 615.07C344.8 614.14 346.21 613.75 347.6 613.88L355.04 565.08C354.28 565 353.53 564.67 352.95 564.07 351.64 562.71 351.68 560.55 353.03 559.24 354.39 557.93 356.55 557.97 357.86 559.32 359.17 560.68 359.13 562.84 357.78 564.15 357.18 564.73 356.43 565.03 355.66 565.08L348.21 613.94C348.85 614.07 349.46 614.33 350.02 614.69L423.15 526.29C423.1 526.24 423.04 526.21 422.99 526.15 422 525.13 421.51 523.82 421.47 522.5L409.28 521.15C409.17 521.77 408.89 522.36 408.4 522.83 407.19 524 405.26 523.96 404.09 522.75 402.92 521.54 402.95 519.61 404.16 518.44 405.37 517.27 407.3 517.31 408.47 518.52 409.02 519.09 409.29 519.81 409.31 520.54L421.48 521.89C421.59 520.61 422.12 519.37 423.11 518.41 423.19 518.33 423.29 518.27 423.38 518.2L404.39 492.57C401.95 494.26 398.57 494 396.44 491.8 394.07 489.34 394.14 485.43 396.59 483.06 399.04 480.69 402.96 480.76 405.33 483.21 407.7 485.66 407.63 489.58 405.18 491.95 405.16 491.97 405.14 491.98 405.11 492L424.12 517.66C426.26 516.39 429.06 516.69 430.86 518.55 430.91 518.61 430.95 518.67 431 518.73L445.09 506.02C443.21 503.63 443.38 500.17 445.61 498.01 448 495.71 451.8 495.77 454.1 498.16 456.4 500.55 456.34 504.35 453.95 506.65 451.57 508.95 447.77 508.89 445.47 506.51L431.37 519.22C432.64 521.02 432.69 523.4 431.54 525.25L500.21 567.12C500.68 566.42 501.23 565.76 501.86 565.15 504.36 562.73 507.63 561.61 510.85 561.75L512.49 527.14C510.97 527.05 509.48 526.43 508.35 525.26 506.45 523.29 506.12 520.41 507.29 518.09L496.48 512.67C496.34 512.86 496.19 513.05 496.01 513.22 494.42 514.76 491.89 514.71 490.35 513.12 488.81 511.53 488.86 509 490.45 507.46 492.04 505.92 494.57 505.97 496.11 507.56 497.32 508.82 497.53 510.66 496.79 512.14L507.59 517.55C507.85 517.14 508.15 516.75 508.51 516.4 511 514 514.97 514.07 517.37 516.55 518.01 517.21 518.46 517.98 518.75 518.79L524.28 517.27C523.89 516.15 524.14 514.86 525.05 513.98 526.29 512.78 528.28 512.81 529.48 514.06 530.68 515.3 530.65 517.29 529.4 518.49 528.16 519.69 526.17 519.66 524.97 518.41 524.8 518.23 524.66 518.03 524.54 517.83L518.92 519.38C519.45 521.48 518.89 523.8 517.22 525.41 516.07 526.52 514.6 527.08 513.12 527.14L511.48 561.79C514.28 562.05 517 563.27 519.1 565.45 523.77 570.29 523.64 578 518.8 582.68 518 583.45 517.13 584.07 516.2 584.58L529.32 608.6C532.67 607.1 536.73 607.75 539.43 610.55 542.87 614.11 542.77 619.79 539.21 623.22 535.65 626.66 529.98 626.56 526.54 623 523.1 619.44 523.2 613.76 526.76 610.33 527.37 609.74 528.05 609.26 528.77 608.87L515.67 584.87C511.6 586.84 506.69 586.41 503.01 583.62L479.21 613.84C479.28 613.91 479.36 613.98 479.43 614.05 482 616.71 481.93 620.95 479.26 623.52 476.6 626.09 472.36 626.02 469.78 623.36 468.54 622.07 467.92 620.42 467.91 618.77L448.09 617.37C447.92 619.17 447.14 620.91 445.74 622.26 444.31 623.64 442.49 624.36 440.65 624.44L441.51 636.56C442.95 636.57 444.39 637.14 445.47 638.26 447.61 640.47 447.55 644 445.33 646.14 443.12 648.28 439.59 648.21 437.46 646 435.32 643.79 435.38 640.26 437.6 638.12 438.53 637.22 439.71 636.73 440.91 636.61L440.05 624.45C438.09 624.38 436.15 623.59 434.68 622.07 433.76 621.11 433.13 619.98 432.79 618.79L411.61 623.79C411.71 624.72 411.41 625.68 410.68 626.38 410.16 626.88 409.51 627.15 408.85 627.23 407.9 627.41 406.89 627.12 406.18 626.38 405.46 625.64 405.21 624.61 405.42 623.67 405.52 623.01 405.81 622.37 406.33 621.87 407.57 620.67 409.56 620.7 410.76 621.95 411.08 622.28 411.31 622.67 411.46 623.09L432.6 617.91C432.2 615.46 432.96 612.86 434.89 611 437.28 608.7 440.75 608.22 443.59 609.52L447.19 603.1C447.03 602.99 446.87 602.86 446.73 602.71 445.59 601.53 445.63 599.66 446.8 598.53 447.97 597.4 449.85 597.43 450.98 598.6 452.12 599.78 452.08 601.65 450.91 602.78 450.04 603.62 448.78 603.82 447.73 603.39L444.14 609.79C444.8 610.16 445.41 610.62 445.96 611.19 447.46 612.74 448.19 614.76 448.16 616.76L467.96 618.16C468.09 616.59 468.76 615.07 469.98 613.89 472.42 611.54 476.18 611.41 478.77 613.44L502.55 583.24C502.23 582.97 501.92 582.68 501.62 582.37 499.74 580.43 498.66 578.02 498.32 575.53L491.66 575.99C491.69 577.16 491.26 578.34 490.35 579.22 488.62 580.89 485.87 580.84 484.2 579.11 482.53 577.38 482.58 574.63 484.31 572.96 486.04 571.29 488.79 571.34 490.46 573.07 491.1 573.73 491.48 574.54 491.62 575.38L498.25 574.93C498.05 572.52 498.57 570.06 499.8 567.9L431.05 525.98C430.96 526.08 430.88 526.2 430.78 526.3 429.81 527.24 428.57 527.72 427.32 527.8L425.53 549.14C427.05 549.33 428.52 550.02 429.67 551.21 431.87 553.49 432.2 556.88 430.71 559.49L444.44 568.03C444.57 567.83 444.73 567.65 444.9 567.48 446.28 566.14 448.49 566.18 449.82 567.56 451.16 568.94 451.12 571.15 449.73 572.48 448.34 573.81 446.14 573.78 444.81 572.39 443.8 571.34 443.58 569.82 444.14 568.56L430.38 560.01C430.12 560.38 429.83 560.73 429.5 561.05 427.73 562.76 425.29 563.34 423.05 562.81L414.96 589.91C415.29 590.06 415.6 590.26 415.87 590.54 416.97 591.68 416.94 593.5 415.8 594.6 414.66 595.7 412.84 595.67 411.74 594.53 410.64 593.39 410.67 591.57 411.81 590.47 412.52 589.79 413.48 589.54 414.38 589.72L422.46 562.64C421.43 562.3 420.46 561.71 419.65 560.87 416.98 558.1 417.05 553.7 419.82 551.03 421.24 549.66 423.09 549.02 424.91 549.09L426.69 527.82C425.71 527.77 424.73 527.47 423.89 526.89L350.78 615.27C350.87 615.35 350.97 615.42 351.06 615.51 353.16 617.69 353.1 621.16 350.92 623.26 349.64 624.5 347.92 624.96 346.29 624.71L341.13 650.16C342.51 650.51 343.82 651.23 344.88 652.33 347.92 655.48 347.83 660.49 344.68 663.53 342.15 665.97 338.42 666.39 335.47 664.83L324.58 681.98C324.67 682.05 324.76 682.12 324.84 682.2 325.91 683.31 325.88 685.07 324.77 686.14 323.66 687.21 321.9 687.18 320.83 686.07 319.76 684.96 319.79 683.2 320.9 682.13 321.77 681.29 323.03 681.14 324.06 681.64L334.94 664.51C334.42 664.18 333.93 663.79 333.48 663.33 330.44 660.18 330.53 655.17 333.68 652.13 335.57 650.31 338.13 649.62 340.53 650.03L345.69 624.59C344.77 624.34 343.89 623.87 343.17 623.13 342.54 622.48 342.13 621.71 341.89 620.9L278.3 635.89C278.35 637 278.07 638.11 277.45 639.07L287.92 646.74C288.99 645.76 290.66 645.8 291.68 646.85 292.72 647.92 292.69 649.63 291.61 650.67 290.54 651.7 288.83 651.67 287.79 650.6 286.88 649.66 286.79 648.24 287.5 647.2L277.07 639.56C276.93 639.73 276.81 639.91 276.65 640.06 275.75 640.93 274.63 641.41 273.48 641.54L286.51 703.84C288.56 703.56 290.7 704.22 292.24 705.82 294.81 708.48 294.74 712.72 292.08 715.29 289.42 717.86 285.18 717.79 282.6 715.12 280.03 712.46 280.1 708.22 282.77 705.65 283.67 704.77 284.77 704.21 285.91 703.95L272.87 641.59C271.99 641.59 271.12 641.37 270.32 640.96L247.4 682C247.84 682.27 248.27 682.58 248.64 682.97 251.04 685.46 250.98 689.43 248.49 691.83 247.03 693.24 245.06 693.78 243.19 693.49L238.53 726.47C239 726.57 239.45 726.81 239.81 727.18 240.78 728.18 240.75 729.78 239.75 730.75 238.75 731.72 237.15 731.69 236.18 730.69 235.21 729.69 235.24 728.09 236.24 727.12 236.71 726.67 237.31 726.44 237.91 726.42L242.58 693.37C241.49 693.09 240.46 692.54 239.62 691.67 237.22 689.18 237.28 685.21 239.77 682.81 241.72 680.93 244.55 680.58 246.85 681.7L269.77 640.66C269.46 640.45 269.16 640.21 268.89 639.92 267.28 638.25 266.95 635.82 267.86 633.83L215.77 606.94C215.33 607.73 214.78 608.46 214.1 609.12 213.22 609.97 212.21 610.61 211.14 611.05L217.76 628.92C219.52 628.52 221.43 628.99 222.77 630.38 224.81 632.49 224.75 635.85 222.64 637.89 220.53 639.93 217.17 639.87 215.13 637.76 213.09 635.65 213.15 632.29 215.26 630.25 215.82 629.71 216.47 629.33 217.16 629.08L210.55 611.26C208.4 611.98 206.05 611.91 203.95 611.04L184.78 655.21C185.65 655.61 186.46 656.17 187.16 656.9 189.41 659.23 189.96 662.58 188.84 665.41L201.36 671.11C201.6 670.68 201.89 670.27 202.26 669.91 204.37 667.87 207.73 667.93 209.77 670.04 211.81 672.15 211.75 675.51 209.64 677.55 207.53 679.59 204.17 679.53 202.13 677.42 200.6 675.84 200.25 673.55 201.06 671.65L188.59 665.98C188.19 666.8 187.65 667.56 186.96 668.23 185.45 669.69 183.51 670.42 181.57 670.47L179.63 711.58C180.66 711.67 181.66 712.1 182.43 712.9 183.81 714.33 184.02 716.43 183.12 718.09L196.92 728.82C196.92 728.82 197 728.72 197.05 728.67 198.26 727.5 200.19 727.54 201.36 728.75 202.53 729.96 202.49 731.89 201.28 733.06 200.07 734.23 198.14 734.19 196.97 732.98 196 731.97 195.87 730.47 196.55 729.32L182.79 718.62C182.64 718.82 182.49 719.01 182.31 719.19 180.55 720.89 177.74 720.84 176.04 719.08 174.34 717.32 174.39 714.51 176.15 712.81 176.95 712.03 177.97 711.64 179.01 711.59L180.95 670.48C179.01 670.37 177.09 669.57 175.63 668.06 175.27 667.69 174.96 667.29 174.69 666.88L148.43 682.91C149.69 685.34 149.31 688.4 147.23 690.4 145.85 691.73 144.03 692.29 142.26 692.13L137.32 724.67C138.27 724.83 139.18 725.28 139.9 726.02 141.7 727.89 141.65 730.86 139.78 732.66 137.91 734.46 134.94 734.41 133.13 732.54 131.33 730.67 131.38 727.7 133.25 725.89 134.21 724.96 135.47 724.54 136.7 724.58L141.64 692.04C140.39 691.81 139.19 691.21 138.24 690.22 136 687.9 135.91 684.32 137.87 681.86L116.74 661.66C115.34 662.65 113.46 662.62 112.1 661.57L73.1 702.45C73.1 702.45 73.14 702.48 73.15 702.5 75.72 705.16 75.65 709.4 72.98 711.98 70.32 714.55 66.08 714.48 63.51 711.81 60.94 709.15 61.01 704.91 63.68 702.33" fill="#E3E3E3"/><path d="M659.07 481.49C655.02 481.49 651.7 484.56 651.3 488.5L585.52 485.8C585.49 483.3 583.46 481.29 580.96 481.29 578.46 481.29 576.39 483.33 576.39 485.86 576.39 488.39 578.41 490.4 580.92 490.42L579.57 524.33C579.49 524.33 579.42 524.31 579.34 524.31 575.25 524.31 571.93 527.63 571.93 531.71 571.93 532.19 571.98 532.66 572.07 533.11L537.1 540.93C536.02 536.97 532.41 534.04 528.1 534.04 527.73 534.04 527.37 534.07 527.02 534.11L522.08 502.48C525.37 501.96 527.9 499.13 527.9 495.69 527.9 491.88 524.81 488.79 521 488.79 517.19 488.79 514.1 491.88 514.1 495.69 514.1 499.5 517.19 502.59 521 502.59 521.13 502.59 521.24 502.56 521.37 502.55L526.31 534.21C523.37 534.78 520.93 536.73 519.68 539.36L467.8 517.83C468.21 516.68 468.45 515.44 468.45 514.14 468.45 511.95 467.8 509.91 466.69 508.19L470.97 505.28C471.66 506.1 472.68 506.63 473.83 506.63 475.9 506.63 477.58 504.95 477.58 502.88 477.58 500.81 475.9 499.13 473.83 499.13 471.76 499.13 470.08 500.81 470.08 502.88 470.08 503.54 470.27 504.16 470.57 504.7L466.28 507.61C464.79 505.61 462.63 504.13 460.13 503.52L467.42 472.09C467.94 472.24 468.49 472.35 469.06 472.35 472.31 472.35 474.94 469.72 474.94 466.47 474.94 463.22 472.31 460.59 469.06 460.59 465.81 460.59 463.18 463.22 463.18 466.47 463.18 468.89 464.65 470.97 466.74 471.87L459.43 503.37C458.8 503.26 458.16 503.19 457.5 503.19 452.78 503.19 448.77 506.18 447.23 510.36L425.27 503.35C425.38 502.91 425.45 502.45 425.45 501.98 425.45 498.73 422.82 496.1 419.57 496.1 416.32 496.1 413.69 498.73 413.69 501.98 413.69 505.23 416.32 507.86 419.57 507.86 422.09 507.86 424.23 506.26 425.06 504.03L447.01 511.03C446.72 512.02 446.55 513.06 446.55 514.14 446.55 518.84 449.51 522.83 453.66 524.39L431.75 589.14C431.22 589 430.68 588.9 430.11 588.9 428.03 588.9 426.2 589.91 425.04 591.45L406 580.36C406.49 579.32 406.78 578.16 406.78 576.93 406.78 572.5 403.19 568.91 398.77 568.91 394.35 568.91 390.76 572.5 390.76 576.93 390.76 581.36 394.35 584.94 398.77 584.94 401.71 584.94 404.27 583.35 405.67 580.99L424.65 592.04C424.08 592.99 423.73 594.1 423.73 595.29 423.73 596.48 424.1 597.67 424.71 598.65L359.33 637.53C358.26 636.11 356.63 635.16 354.75 635.01L352.24 571.51C356.32 571.13 359.51 567.71 359.51 563.53 359.51 559.1 355.92 555.52 351.5 555.52 348.33 555.52 345.6 557.37 344.3 560.04L317.17 547.73C317.51 547.08 317.72 546.36 317.72 545.57 317.72 542.99 315.63 540.9 313.05 540.9 310.47 540.9 308.38 542.99 308.38 545.57 308.38 545.7 308.41 545.82 308.42 545.95L274.23 551.16C273.95 549.82 272.77 548.82 271.35 548.82 269.73 548.82 268.41 550.14 268.41 551.76 268.41 553.38 269.73 554.7 271.35 554.7 272.97 554.7 274.22 553.44 274.28 551.87L308.52 546.65C308.91 548.29 310.17 549.58 311.79 550.04L309.63 560.84C309.46 560.81 309.28 560.79 309.09 560.79 307.47 560.79 306.15 562.11 306.15 563.73 306.15 565.35 307.47 566.67 309.09 566.67 310.71 566.67 312.03 565.35 312.03 563.73 312.03 562.54 311.32 561.53 310.31 561.06L312.49 550.18C312.67 550.2 312.86 550.24 313.05 550.24 314.59 550.24 315.94 549.49 316.79 548.34L344.01 560.69C343.68 561.57 343.48 562.53 343.48 563.53 343.48 567.84 346.89 571.35 351.17 571.53L353.68 635.01C351.97 635.16 350.46 635.97 349.41 637.21L303.65 602.31C304.22 601.62 304.58 600.74 304.58 599.78 304.58 597.58 302.8 595.8 300.6 595.8 298.4 595.8 296.62 597.58 296.62 599.78 296.62 601.98 298.4 603.76 300.6 603.76 301.57 603.76 302.44 603.4 303.13 602.83L348.95 637.77C348.52 638.4 348.22 639.11 348.04 639.87L215.13 624.96C215.13 624.88 215.15 624.8 215.15 624.72 215.15 623.06 214.5 621.56 213.46 620.43L222.59 609.42C223.18 609.85 223.9 610.11 224.68 610.11 226.64 610.11 228.23 608.52 228.23 606.56 228.23 604.6 226.64 603.01 224.68 603.01 222.72 603.01 221.13 604.6 221.13 606.56 221.13 607.48 221.49 608.3 222.06 608.94L212.94 619.93C211.82 618.95 210.36 618.33 208.75 618.33 208.61 618.33 208.49 618.36 208.35 618.37L203.52 581.49C206.94 580.93 209.56 577.98 209.56 574.41 209.56 570.43 206.33 567.21 202.36 567.21 198.39 567.21 195.16 570.44 195.16 574.41 195.16 578.38 198.38 581.61 202.36 581.61 202.39 581.61 202.42 581.61 202.46 581.61L207.29 618.52C204.47 619.18 202.36 621.7 202.36 624.73 202.36 624.82 202.38 624.91 202.39 625L180.28 625.75C179.92 622.22 176.98 619.46 173.35 619.46 169.48 619.46 166.35 622.6 166.35 626.46 166.35 630.32 169.48 633.46 173.35 633.46 177.22 633.46 180.34 630.33 180.35 626.47L202.47 625.72C202.86 628.26 204.75 630.3 207.21 630.92L183.53 721.64C182.57 721.43 181.58 721.32 180.56 721.32 176.51 721.32 172.86 723.03 170.27 725.75L140.87 698.05C142.07 696.75 142.82 695.03 142.82 693.12 142.82 689.93 140.76 687.24 137.91 686.25L142.59 672.95C142.86 673 143.14 673.04 143.43 673.04 146.01 673.04 148.1 670.95 148.1 668.37 148.1 665.79 146.01 663.7 143.43 663.7 140.85 663.7 138.76 665.79 138.76 668.37 138.76 670.41 140.07 672.12 141.9 672.76L137.23 686.04C136.68 685.91 136.11 685.82 135.52 685.82 131.49 685.82 128.22 689.09 128.22 693.12 128.22 694.19 128.46 695.2 128.87 696.11L123 699.3C122.42 698.05 121.16 697.17 119.69 697.17 117.67 697.17 116.04 698.81 116.04 700.82 116.04 702.83 117.68 704.47 119.69 704.47 121.7 704.47 123.34 702.83 123.34 700.82 123.34 700.53 123.3 700.25 123.23 699.99L129.2 696.74C130.46 698.93 132.8 700.42 135.51 700.42 137.37 700.42 139.06 699.7 140.35 698.55L169.78 726.28C167.65 728.77 166.35 731.99 166.35 735.52 166.35 743.36 172.71 749.72 180.55 749.72 181.84 749.72 183.08 749.53 184.27 749.21L192.73 779.97C188.71 781.42 185.83 785.26 185.83 789.79 185.83 795.56 190.51 800.24 196.28 800.24 202.05 800.24 206.73 795.56 206.73 789.79 206.73 784.02 202.05 779.34 196.28 779.34 195.28 779.34 194.33 779.49 193.41 779.75L184.96 749.01C189.97 747.37 193.74 743.03 194.57 737.71L239 743.78C239 743.9 238.98 744.02 238.98 744.14 238.98 748.46 242.48 751.95 246.79 751.95 251.1 751.95 254.6 748.45 254.6 744.14 254.6 742.06 253.78 740.17 252.45 738.77L267.94 721.55C269.54 722.92 271.61 723.75 273.87 723.75 276.13 723.75 278.3 722.88 279.91 721.46L289.01 732.31C287.81 733.49 287.06 735.13 287.06 736.94 287.06 740.52 289.97 743.43 293.55 743.43 297.13 743.43 300.04 740.52 300.04 736.94 300.04 733.36 297.13 730.45 293.55 730.45 292.04 730.45 290.66 730.99 289.56 731.86L280.43 720.97C282.02 719.33 283 717.09 283 714.63 283 713.08 282.61 711.62 281.93 710.34L303.74 697.38C304.41 698.24 305.44 698.8 306.61 698.8 307.45 698.8 308.22 698.51 308.83 698.03 309.77 697.41 310.38 696.36 310.38 695.15 310.38 693.94 309.76 692.89 308.82 692.27 308.2 691.79 307.44 691.5 306.6 691.5 304.58 691.5 302.95 693.13 302.95 695.15 302.95 695.69 303.08 696.2 303.29 696.66L281.37 709.43C279.72 707.05 276.98 705.49 273.86 705.49 269.99 705.49 266.7 707.9 265.36 711.29L257.15 708.83C257.2 708.6 257.22 708.37 257.22 708.13 257.22 706.23 255.68 704.68 253.77 704.68 251.86 704.68 250.32 706.23 250.32 708.13 250.32 710.03 251.86 711.58 253.77 711.58 255.18 711.58 256.39 710.73 256.93 709.51L265.12 711.97C264.86 712.81 264.72 713.7 264.72 714.62 264.72 717.14 265.74 719.42 267.39 721.07L251.91 738.28C250.53 737.07 248.74 736.33 246.76 736.33 242.81 736.33 239.55 739.26 239.03 743.07L194.64 737C194.69 736.51 194.72 736.02 194.72 735.51 194.72 732.36 193.68 729.46 191.95 727.11L197.9 722.1C198.83 723.11 200.14 723.75 201.62 723.75 204.42 723.75 206.69 721.48 206.69 718.68 206.69 715.88 204.42 713.61 201.62 713.61 198.82 713.61 196.55 715.88 196.55 718.68 196.55 719.75 196.88 720.74 197.45 721.55L191.52 726.54C189.74 724.35 187.31 722.72 184.53 721.9L208.24 631.08C208.4 631.09 208.56 631.13 208.72 631.13 210.3 631.13 211.72 630.54 212.84 629.59L231.62 646.04C230.5 647.43 229.82 649.2 229.82 651.13 229.82 654.82 232.28 657.93 235.66 658.91L231.06 677.18C230.79 677.12 230.51 677.09 230.23 677.09 227.99 677.09 226.17 678.91 226.17 681.15 226.17 683.39 227.99 685.21 230.23 685.21 232.47 685.21 234.29 683.39 234.29 681.15 234.29 679.45 233.24 677.99 231.75 677.39L236.36 659.08C236.87 659.18 237.4 659.24 237.94 659.24 240.81 659.24 243.33 657.75 244.77 655.5L273.49 671.68C273.33 672.07 273.24 672.5 273.24 672.94 273.24 674.79 274.74 676.29 276.59 676.29 278.44 676.29 279.94 674.79 279.94 672.94 279.94 671.09 278.44 669.59 276.59 669.59 275.44 669.59 274.44 670.17 273.83 671.04L245.13 654.88C245.72 653.76 246.05 652.48 246.05 651.13 246.05 646.65 242.42 643.01 237.93 643.01 235.63 643.01 233.56 643.97 232.08 645.5L213.36 629.1C214.15 628.26 214.72 627.22 214.96 626.05L347.84 640.96C347.84 641.1 347.8 641.24 347.8 641.38 347.8 644.91 350.66 647.77 354.19 647.77 356.26 647.77 358.09 646.77 359.25 645.24L384.18 662.4C383.3 663.81 382.79 665.47 382.79 667.25 382.79 672.35 386.92 676.48 392.02 676.48 396.12 676.48 399.59 673.81 400.79 670.11L423.81 675.67C423.79 675.8 423.77 675.93 423.77 676.07 423.77 677.86 425.22 679.32 427.02 679.32 428.82 679.32 430.27 677.87 430.27 676.07 430.27 674.27 428.82 672.82 427.02 672.82 425.61 672.82 424.43 673.72 423.98 674.97L400.99 669.42C401.16 668.72 401.26 668 401.26 667.24 401.26 662.14 397.13 658.01 392.03 658.01 388.97 658.01 386.27 659.5 384.59 661.79L359.66 644.63C360.23 643.67 360.58 642.56 360.58 641.37 360.58 640.32 360.3 639.34 359.85 638.46L425.31 599.53C426.17 600.5 427.3 601.2 428.6 601.51L426.03 616.42C424.33 616.47 422.97 617.85 422.97 619.56 422.97 621.27 424.38 622.71 426.11 622.71 427.84 622.71 429.25 621.3 429.25 619.56 429.25 618.04 428.17 616.77 426.74 616.48L429.3 601.63C429.55 601.66 429.8 601.71 430.06 601.71 431.52 601.71 432.84 601.2 433.91 600.39L473.43 663.18C471.49 664.6 470.22 666.89 470.22 669.48 470.22 673.8 473.72 677.29 478.03 677.29 482.34 677.29 485.84 673.79 485.84 669.48 485.84 665.17 482.34 661.67 478.03 661.67 476.56 661.67 475.19 662.08 474.02 662.79L434.46 599.93C435.2 599.22 435.75 598.33 436.08 597.34L488.53 613.19C488.38 613.77 488.27 614.38 488.27 615.01 488.27 619.04 491.54 622.31 495.57 622.31 497.94 622.31 500.03 621.16 501.36 619.41L531.98 643.3C531.67 643.77 531.48 644.33 531.48 644.93 531.48 646.55 532.8 647.87 534.42 647.87 536.04 647.87 537.36 646.55 537.36 644.93 537.36 643.31 536.04 641.99 534.42 641.99 533.66 641.99 532.97 642.29 532.45 642.76L501.77 618.82C502.46 617.71 502.87 616.41 502.87 615 502.87 610.97 499.6 607.69 495.57 607.69 492.42 607.69 489.76 609.7 488.73 612.49L436.28 596.64C436.37 596.21 436.42 595.77 436.42 595.31 436.42 592.6 434.73 590.3 432.35 589.37L454.25 524.64C455.25 524.94 456.32 525.11 457.42 525.11 458.85 525.11 460.21 524.83 461.46 524.33L470.38 544.68C468.58 545.76 467.36 547.72 467.36 549.97 467.36 553.39 470.13 556.16 473.55 556.16 476.97 556.16 479.74 553.39 479.74 549.97 479.74 546.55 476.97 543.78 473.55 543.78 472.64 543.78 471.79 543.99 471.01 544.34L462.12 524.05C464.51 522.91 466.42 520.95 467.48 518.52L519.33 540.04C518.93 541.08 518.7 542.2 518.7 543.38 518.7 547.16 520.95 550.4 524.18 551.87L518.3 566.78C517.75 566.62 517.18 566.51 516.57 566.51 513.15 566.51 510.38 569.28 510.38 572.7 510.38 576.12 513.15 578.89 516.57 578.89 519.99 578.89 522.76 576.12 522.76 572.7 522.76 570.14 521.2 567.94 518.98 567L524.84 552.14C525.84 552.5 526.91 552.71 528.03 552.71 530.48 552.71 532.7 551.76 534.36 550.22L569.28 583.12C568.49 584.03 568 585.2 568 586.49 568 588.8 569.53 590.74 571.62 591.4L568.74 611.57C568.66 611.57 568.59 611.55 568.51 611.55 566.55 611.55 564.96 613.14 564.96 615.1 564.96 617.06 566.55 618.65 568.51 618.65 570.47 618.65 572.06 617.06 572.06 615.1 572.06 613.46 570.95 612.1 569.44 611.69L572.31 591.58C572.59 591.63 572.88 591.67 573.17 591.67 576.03 591.67 578.34 589.35 578.34 586.5 578.34 583.65 576.02 581.33 573.17 581.33 571.87 581.33 570.69 581.83 569.78 582.62L534.86 549.72C536.4 548.05 537.35 545.83 537.35 543.38 537.35 542.78 537.29 542.2 537.18 541.63L572.18 533.81C573.09 536.87 575.89 539.12 579.25 539.12 581.48 539.12 583.46 538.11 584.82 536.55L615.32 559.84C614.66 560.75 614.25 561.86 614.25 563.07 614.25 566.1 616.7 568.55 619.73 568.55 622.76 568.55 625.21 566.1 625.21 563.07 625.21 560.04 622.76 557.59 619.73 557.59 618.17 557.59 616.77 558.25 615.78 559.29L585.28 536C586.14 534.79 586.66 533.32 586.66 531.72 586.66 527.96 583.84 524.88 580.2 524.41L581.56 490.36C583.54 490.06 585.09 488.51 585.38 486.53L651.19 489.23C651.19 489.23 651.19 489.29 651.19 489.31 651.19 493.62 654.69 497.12 659 497.12 663.31 497.12 666.81 493.62 666.81 489.31 666.81 485 663.31 481.5 659 481.5" fill="#646363"/><path d="M209.25 640.84C217.9 640.84 224.92 633.82 224.92 625.17 224.92 616.52 217.91 609.5 209.25 609.5 200.59 609.5 193.58 616.52 193.58 625.17 193.58 633.82 200.6 640.84 209.25 640.84" fill="#FFFFFF"/><path d="M209.25 640.84C217.9 640.84 224.92 633.82 224.92 625.17 224.92 616.52 217.91 609.5 209.25 609.5 200.59 609.5 193.58 616.52 193.58 625.17 193.58 633.82 200.6 640.84 209.25 640.84Z" stroke="#646363" stroke-width="0.72" fill="none"/><g opacity="0.7"><g clip-path="url(#e)"><path d="M209.2 643.2C219.15 643.2 227.22 635.13 227.22 625.18 227.22 615.23 219.15 607.16 209.2 607.16 199.25 607.16 191.18 615.23 191.18 625.18 191.18 635.13 199.25 643.2 209.2 643.2" fill="#FFFFFF"/></g></g><circle cx="209.25" cy="625.17" r="18.13" stroke="#646363" stroke-width="0.72" fill="none" transform="matrix(0.973259 -0.22971 0.22971 0.973259 -138.04 64.8)"/><path d="M200.61 616.04C201 616.04 201.4 616.14 201.78 616.36 201.78 616.36 201.78 616.36 201.78 616.36 201.44 616.71 201.19 617.13 201.06 617.61 201.06 617.61 201.06 617.61 201.06 617.61 201.06 617.61 201.06 617.61 201.06 617.61 200.92 617.53 200.76 617.49 200.61 617.49 200.14 617.49 199.68 617.86 199.69 618.38 199.69 618.61 199.84 618.87 200.13 619.16L202.23 621.14C202.23 621.14 202.23 621.14 202.23 621.14 202.23 621.14 202.23 621.14 202.23 621.14L204.33 619.16C204.55 618.95 204.78 618.63 204.77 618.38 204.77 617.89 204.36 617.49 203.86 617.49 203.36 617.49 202.95 617.89 202.95 618.38L202.95 618.87 202.22 619.55 201.5 618.87 201.5 618.38C201.5 617.09 202.56 616.03 203.86 616.03L203.89 616.03C205.38 616.03 206.54 617.49 206.15 618.93 206.03 619.37 205.76 619.78 205.34 620.2L205.3 620.24 202.32 623.03C202.32 623.03 202.25 623.07 202.22 623.07 202.19 623.07 202.15 623.06 202.12 623.03L199.16 620.25 199.16 620.25C198.55 619.67 198.22 619.03 198.23 618.37 198.22 617.01 199.38 616.02 200.62 616.02" fill="#E7392C"/><path d="M218.04 616.04 206.16 616.04C206.28 616.16 206.4 616.29 206.51 616.42 206.75 616.74 206.93 617.09 207.04 617.46L218.04 617.46C218.49 617.46 218.85 617.82 218.85 618.27L218.85 632.07C218.85 632.52 218.49 632.88 218.04 632.88L200.47 632.88C200.02 632.88 199.66 632.52 199.66 632.07L199.66 621.97 198.61 620.99 198.61 620.99C198.61 620.99 198.55 620.93 198.55 620.93 198.44 620.82 198.33 620.72 198.24 620.6L198.24 632.06C198.24 633.29 199.24 634.29 200.48 634.29L218.05 634.29C219.28 634.29 220.29 633.29 220.29 632.06L220.29 618.26C220.29 617.03 219.29 616.03 218.05 616.03" fill="#646363"/><path d="M209.91 625.64 209.91 625.64C209.51 625.54 209.21 625.18 209.21 624.75 209.21 624.25 209.61 623.79 210.1 623.83 210.1 623.83 210.11 623.83 210.12 623.83 210.12 623.83 210.14 623.83 210.15 623.83 211.06 623.93 213.57 624.59 213.57 624.59 213.97 624.69 214.27 625.05 214.27 625.48 214.27 625.97 213.88 626.37 213.4 626.4 213.39 626.4 213.33 626.4 213.32 626.4 213.25 626.39 213.21 626.38 213.21 626.38L209.91 625.66ZM215.73 625.48C215.73 624.26 214.81 623.4 213.62 623.12L210.06 622.34 210.06 622.34C209.67 622.23 209.37 621.88 209.37 621.45 209.37 620.94 209.78 620.53 210.29 620.53 210.34 620.53 210.38 620.53 210.43 620.54L215.25 621.58 215.55 620.17C215.55 620.17 210.96 619.08 210.28 619.07 208.97 619.07 207.9 620.14 207.9 621.45 207.9 622.05 208.12 622.6 208.49 623.02 208.02 623.45 207.73 624.07 207.73 624.76 207.73 625.98 208.65 626.99 209.84 627.12L213.4 627.9 213.4 627.9C213.79 628.01 214.09 628.36 214.09 628.79 214.09 629.28 213.71 629.67 213.24 629.71 213.22 629.71 213.17 629.71 213.12 629.71 213.1 629.71 213.05 629.7 213 629.69 212.12 629.51 208.21 628.67 208.21 628.67L207.91 630.09C207.91 630.09 212.56 631.2 213.18 631.18 214.49 631.15 215.56 630.11 215.56 628.8 215.56 628.2 215.34 627.65 214.97 627.24 215.44 626.81 215.73 626.19 215.73 625.5" fill="#646363"/><circle cx="209.29" cy="625.21" r="15.71" stroke="#646363" stroke-width="0.72" fill="none"/><path d="M303.3 616.62C311.95 616.62 318.97 609.6 318.97 600.95 318.97 592.3 311.96 585.28 303.3 585.28 294.64 585.28 287.63 592.3 287.63 600.95 287.63 609.6 294.64 616.62 303.3 616.62" fill="#FFFFFF"/><path d="M303.3 616.62C311.95 616.62 318.97 609.6 318.97 600.95 318.97 592.3 311.96 585.28 303.3 585.28 294.64 585.28 287.63 592.3 287.63 600.95 287.63 609.6 294.64 616.62 303.3 616.62Z" stroke="#646363" stroke-width="0.72" fill="none"/><g opacity="0.7"><g clip-path="url(#f)"><path d="M303.24 618.99C313.19 618.99 321.26 610.92 321.26 600.97 321.26 591.02 313.19 582.95 303.24 582.95 293.29 582.95 285.22 591.02 285.22 600.97 285.22 610.92 293.29 618.99 303.24 618.99" fill="#FFFFFF"/></g></g><path d="M303.58 616.64C312.23 616.64 319.25 609.62 319.25 600.97 319.25 592.32 312.24 585.3 303.58 585.3 294.92 585.3 287.91 592.32 287.91 600.97 287.91 609.62 294.92 616.64 303.58 616.64" fill="#FFFFFF"/><path d="M303.58 616.64C312.23 616.64 319.25 609.62 319.25 600.97 319.25 592.32 312.24 585.3 303.58 585.3 294.92 585.3 287.91 592.32 287.91 600.97 287.91 609.62 294.92 616.64 303.58 616.64Z" stroke="#646363" stroke-width="0.72" fill="none"/><path d="M303.58 619.09C313.59 619.09 321.71 610.98 321.71 600.97 321.71 590.96 313.59 582.84 303.58 582.84 293.57 582.84 285.45 590.95 285.45 600.97 285.45 610.99 293.57 619.09 303.58 619.09Z" stroke="#646363" stroke-width="0.72" fill="none"/><path d="M312.36 591.51 300.48 591.51C300.6 591.63 300.72 591.76 300.83 591.89 301.07 592.21 301.25 592.56 301.36 592.93L312.36 592.93C312.81 592.93 313.17 593.29 313.17 593.74L313.17 607.54C313.17 607.99 312.81 608.35 312.36 608.35L294.79 608.35C294.34 608.35 293.98 607.99 293.98 607.54L293.98 597.44 292.93 596.46 292.93 596.46C292.93 596.46 292.87 596.4 292.87 596.4 292.76 596.29 292.65 596.19 292.56 596.07L292.56 607.53C292.56 608.76 293.56 609.76 294.8 609.76L312.37 609.76C313.6 609.76 314.61 608.76 314.61 607.53L314.61 593.73C314.61 592.5 313.61 591.5 312.37 591.5" fill="#646363"/><path d="M294.94 591.51C295.33 591.51 295.73 591.61 296.11 591.83 296.11 591.83 296.11 591.83 296.11 591.83 295.77 592.18 295.52 592.61 295.39 593.08 295.39 593.08 295.39 593.08 295.39 593.08 295.39 593.08 295.39 593.08 295.39 593.08 295.25 592.99 295.09 592.96 294.94 592.96 294.46 592.96 294.01 593.34 294.02 593.85 294.02 594.08 294.16 594.34 294.46 594.63L296.57 596.61C296.57 596.61 296.57 596.61 296.57 596.61 296.57 596.61 296.57 596.61 296.57 596.61L298.68 594.63C298.9 594.42 299.13 594.1 299.12 593.85 299.12 593.36 298.71 592.96 298.21 592.96 297.71 592.96 297.3 593.36 297.3 593.85L297.3 594.34 296.57 595.03 295.85 594.35 295.85 593.85C295.85 592.55 296.91 591.5 298.22 591.5L298.25 591.5C299.74 591.5 300.91 592.97 300.51 594.41 300.39 594.85 300.12 595.27 299.7 595.68L299.66 595.72 296.68 598.52C296.68 598.52 296.61 598.56 296.58 598.56 296.55 598.56 296.51 598.55 296.48 598.52L293.51 595.73 293.51 595.73C292.9 595.15 292.57 594.51 292.57 593.85 292.56 592.49 293.72 591.5 294.96 591.5" fill="#E7392C"/></g><rect x="297.02" y="600.28" width="1.95" height="1.49" fill="#646363"/><rect x="299.84" y="600.28" width="1.95" height="1.49" fill="#646363"/><rect x="297.02" y="602.41" width="1.95" height="1.49" fill="#646363"/><rect x="299.84" y="602.41" width="1.95" height="1.49" fill="#646363"/><rect x="297.02" y="604.54" width="1.95" height="1.49" fill="#646363"/><rect x="299.84" y="604.54" width="1.95" height="1.49" fill="#646363"/><rect x="302.67" y="600.28" width="1.95" height="1.49" fill="#646363"/><rect x="302.67" y="602.41" width="1.95" height="1.49" fill="#646363"/><rect x="302.67" y="604.54" width="1.95" height="1.49" fill="#646363"/><g clip-path="url(#g)"><path d="M299.28 597.29C301.18 597.29 309.97 597.29 309.97 597.29 310.37 597.24 310.69 596.9 310.69 596.48 310.69 596.04 310.34 595.68 309.91 595.66L309.91 595.66C309.91 595.66 300.87 595.66 300.87 595.66 301.18 595.21 301.38 594.73 301.44 594.24L310.05 594.24C311.21 594.33 312.13 595.3 312.13 596.48 312.13 597.66 311.24 598.6 310.11 598.71L297.76 598.71C297.76 598.71 299.29 597.29 299.29 597.29Z" fill="#646363"/></g><rect x="305.5" y="600.28" width="1.95" height="1.49" fill="#646363"/><rect x="305.5" y="602.41" width="1.95" height="1.49" fill="#646363"/><rect x="305.5" y="604.54" width="1.95" height="1.49" fill="#646363"/><rect x="308.33" y="600.28" width="1.95" height="1.49" fill="#646363"/><rect x="308.33" y="602.41" width="1.95" height="1.49" fill="#646363"/><rect x="308.33" y="604.54" width="1.95" height="1.49" fill="#646363"/><g clip-path="url(#h)"><circle cx="303.34" cy="601" r="15.71" stroke="#646363" stroke-width="0.72" fill="none" transform="matrix(0.525769 -0.850628 0.850628 0.525769 -367.37 543.07)"/><path d="M431.17 609.77C439.82 609.77 446.84 602.75 446.84 594.1 446.84 585.45 439.83 578.43 431.17 578.43 422.51 578.43 415.5 585.45 415.5 594.1 415.5 602.75 422.52 609.77 431.17 609.77" fill="#FFFFFF"/><path d="M431.17 609.77C439.82 609.77 446.84 602.75 446.84 594.1 446.84 585.45 439.83 578.43 431.17 578.43 422.51 578.43 415.5 585.45 415.5 594.1 415.5 602.75 422.52 609.77 431.17 609.77Z" stroke="#646363" stroke-width="0.72" fill="none"/><path d="M431.17 612.22C441.18 612.22 449.3 604.11 449.3 594.1 449.3 584.09 441.18 575.97 431.17 575.97 421.16 575.97 413.04 584.08 413.04 594.1 413.04 604.12 421.16 612.22 431.17 612.22Z" stroke="#646363" stroke-width="0.72" fill="none"/><path d="M430.89 609.75C439.54 609.75 446.56 602.73 446.56 594.08 446.56 585.43 439.55 578.41 430.89 578.41 422.23 578.41 415.22 585.43 415.22 594.08 415.22 602.73 422.24 609.75 430.89 609.75" fill="#FFFFFF"/><path d="M430.89 609.75C439.54 609.75 446.56 602.73 446.56 594.08 446.56 585.43 439.55 578.41 430.89 578.41 422.23 578.41 415.22 585.43 415.22 594.08 415.22 602.73 422.24 609.75 430.89 609.75Z" stroke="#646363" stroke-width="0.72" fill="none"/><g opacity="0.7"><g clip-path="url(#i)"><path d="M430.83 612.12C440.78 612.12 448.85 604.05 448.85 594.1 448.85 584.15 440.78 576.08 430.83 576.08 420.88 576.08 412.81 584.15 412.81 594.1 412.81 604.05 420.88 612.12 430.83 612.12" fill="#FFFFFF"/></g></g><path d="M431.17 612.22C441.18 612.22 449.3 604.11 449.3 594.1 449.3 584.09 441.18 575.97 431.17 575.97 421.16 575.97 413.04 584.08 413.04 594.1 413.04 604.12 421.16 612.22 431.17 612.22Z" stroke="#646363" stroke-width="0.72" fill="none"/><circle cx="430.93" cy="594.13" r="15.71" stroke="#646363" stroke-width="0.72" fill="none" transform="matrix(0.525769 -0.850628 0.850628 0.525769 -301.02 648.35)"/><path d="M439.95 585.3 435.09 585.3C435.21 585.42 435.33 585.54 435.43 585.68 435.67 586 435.85 586.35 435.96 586.72L439.94 586.72C440.39 586.72 440.75 587.08 440.75 587.53L440.75 601.33C440.75 601.78 440.39 602.14 439.94 602.14L422.37 602.14C421.92 602.14 421.56 601.78 421.56 601.33L421.56 587.53C421.56 587.08 421.92 586.72 422.37 586.72L426.39 586.72C426.54 586.22 426.81 585.76 427.19 585.37 427.21 585.35 427.24 585.32 427.27 585.3L422.37 585.3C421.14 585.3 420.13 586.3 420.13 587.53L420.13 601.33C420.13 602.56 421.13 603.56 422.37 603.56L439.94 603.56C441.17 603.56 442.18 602.56 442.18 601.33L442.18 587.53C442.18 586.3 441.18 585.3 439.94 585.3" fill="#646363"/><path d="M429.56 585.3C429.95 585.3 430.35 585.4 430.72 585.62 430.72 585.62 430.72 585.62 430.72 585.62 430.38 585.97 430.13 586.39 430 586.87 430 586.87 430 586.87 430 586.87 430 586.87 430 586.87 430 586.87 429.86 586.79 429.7 586.75 429.55 586.75 429.08 586.75 428.63 587.12 428.63 587.64 428.63 587.87 428.77 588.12 429.07 588.42L431.17 590.39C431.17 590.39 431.17 590.39 431.17 590.39 431.17 590.39 431.17 590.39 431.17 590.39L433.27 588.42C433.49 588.21 433.72 587.89 433.71 587.64 433.71 587.15 433.3 586.75 432.8 586.75 432.3 586.75 431.89 587.15 431.89 587.64L431.89 588.13 431.16 588.81 430.44 588.13 430.44 587.64C430.44 586.35 431.5 585.3 432.8 585.3L432.83 585.3C434.31 585.3 435.48 586.76 435.08 588.2 434.96 588.64 434.69 589.05 434.27 589.46L434.23 589.5 431.26 592.29C431.26 592.29 431.19 592.33 431.16 592.33 431.13 592.33 431.09 592.32 431.06 592.29L428.1 589.51 428.1 589.51C427.49 588.93 427.16 588.29 427.17 587.64 427.16 586.28 428.32 585.29 429.55 585.29" fill="#E7392C"/><path d="M439.51 599.87 439.51 602.17 436.29 602.17 436.29 599.85C436.29 599.85 436.29 599.82 436.29 599.81L436.56 599.81C436.92 600.08 437.37 600.25 437.85 600.25 438.33 600.25 438.78 600.09 439.14 599.81L439.49 599.81C439.49 599.81 439.5 599.84 439.5 599.84L439.5 599.88ZM436.26 599.81C436.26 599.81 436.26 599.81 436.26 599.81L436.26 599.81C436.26 599.81 436.26 599.81 436.25 599.81M437.85 597.31C438.28 597.31 438.63 597.66 438.63 598.08 438.63 598.5 438.28 598.85 437.85 598.85 437.42 598.85 437.08 598.5 437.08 598.08 437.08 597.66 437.43 597.31 437.85 597.31M431.98 598.08C431.98 598.51 431.63 598.85 431.2 598.85 430.77 598.85 430.43 598.5 430.43 598.08 430.43 597.66 430.78 597.31 431.2 597.31 431.62 597.31 431.98 597.66 431.98 598.08M432.79 599.8 432.79 599.8C432.79 599.8 432.79 599.8 432.79 599.8 432.79 599.8 432.79 599.8 432.78 599.8M432.78 602.16 429.56 602.16 429.56 599.86C429.56 599.86 429.56 599.82 429.56 599.82 429.56 599.82 429.56 599.81 429.57 599.79L429.92 599.79C430.28 600.06 430.73 600.23 431.21 600.23 431.69 600.23 432.14 600.07 432.51 599.79L432.78 599.79C432.78 599.79 432.78 599.82 432.78 599.83L432.78 602.15ZM425.25 598.08C425.25 598.51 424.9 598.85 424.47 598.85 424.04 598.85 423.7 598.5 423.7 598.08 423.7 597.66 424.05 597.31 424.47 597.31 424.89 597.31 425.25 597.66 425.25 598.08M426.06 599.8 426.06 599.8C426.06 599.8 426.06 599.8 426.06 599.8 426.06 599.8 426.06 599.8 426.05 599.8M426.05 602.16 422.83 602.16 422.83 599.86C422.83 599.86 422.83 599.82 422.83 599.82 422.83 599.82 422.83 599.81 422.84 599.79L423.19 599.79C423.55 600.06 424 600.23 424.48 600.23 424.96 600.23 425.41 600.07 425.78 599.79L426.05 599.79C426.05 599.79 426.05 599.82 426.05 599.83L426.05 602.15ZM440.88 602.81 440.88 599.87C440.88 599.73 440.88 599.29 440.56 598.9 440.39 598.69 440.18 598.56 439.96 598.49 439.99 598.35 440 598.21 440 598.07 440 597.1 439.36 596.28 438.48 596.01L438.48 595.3 438.48 595.3C438.46 594.25 437.6 593.4 436.54 593.4 436.51 593.4 436.47 593.4 436.44 593.4L436.13 593.4 436.13 592.35C436.13 591.41 435.46 590.62 434.57 590.45L433.14 591.8 434.19 591.8C434.47 591.8 434.71 592.01 434.74 592.29 434.74 592.31 434.74 592.34 434.74 592.36 434.74 592.37 434.74 592.26 434.74 593.4L427.54 593.4C427.54 592.26 427.54 592.37 427.54 592.36 427.54 592.34 427.54 592.31 427.54 592.29 427.58 592.01 427.81 591.8 428.09 591.8L429.2 591.8 427.76 590.45C426.85 590.61 426.15 591.4 426.15 592.36L426.15 592.36 426.15 593.41 425.86 593.41C425.86 593.41 425.79 593.41 425.76 593.41 424.7 593.41 423.84 594.26 423.82 595.31L423.82 595.31 423.82 596.02C422.94 596.29 422.3 597.11 422.3 598.08 422.3 598.22 422.31 598.36 422.34 598.5 422.13 598.57 421.91 598.7 421.74 598.91 421.43 599.3 421.41 599.74 421.42 599.88L421.42 602.69C421.42 602.69 424.41 603.32 424.41 603.32L427.4 603.32 427.4 599.88C427.4 599.74 427.4 599.3 427.08 598.91 426.93 598.73 426.75 598.6 426.56 598.53 426.59 598.38 426.61 598.24 426.61 598.08 426.61 597.15 426.02 596.36 425.2 596.06L425.2 595.35 425.2 595.35C425.2 595.04 425.45 594.79 425.76 594.79 425.78 594.79 426.28 594.79 426.28 594.79L426.28 594.79C426.28 594.79 430.46 594.79 430.46 594.79L430.46 596.04C429.62 596.34 429.02 597.13 429.02 598.07 429.02 598.21 429.03 598.35 429.06 598.49 428.85 598.56 428.63 598.69 428.46 598.9 428.15 599.29 428.13 599.73 428.14 599.87L428.14 603.31 434.12 603.31 434.12 599.87C434.12 599.73 434.12 599.29 433.8 598.9 433.65 598.72 433.47 598.59 433.28 598.52 433.31 598.37 433.33 598.23 433.33 598.07 433.33 597.11 432.7 596.3 431.84 596.02L431.84 594.79 435.99 594.79C435.99 594.79 436.49 594.79 436.51 594.79 436.82 594.79 437.07 595.04 437.07 595.35L437.07 596.06C436.25 596.37 435.66 597.16 435.66 598.08 435.66 598.23 435.68 598.38 435.71 598.53 435.52 598.61 435.34 598.73 435.19 598.91 434.88 599.3 434.86 599.74 434.87 599.88L434.87 603.32 437.86 603.32 440.85 602.81Z" fill="#646363"/><path d="M355.44 672.27C373.92 672.27 388.9 657.29 388.9 638.81 388.9 620.33 373.92 605.35 355.44 605.35 336.96 605.35 321.98 620.33 321.98 638.81 321.98 657.29 336.96 672.27 355.44 672.27" fill="#FFFFFF"/><circle cx="355.44" cy="638.81" r="33.46" stroke="#646363" stroke-width="1.43" fill="none" transform="matrix(0.92388 -0.382683 0.382683 0.92388 -217.4 184.65)"/><path d="M355.44 665.76C370.32 665.76 382.39 653.69 382.39 638.81 382.39 623.93 370.32 611.86 355.44 611.86 340.56 611.86 328.49 623.93 328.49 638.81 328.49 653.69 340.56 665.76 355.44 665.76" fill="#E7392C"/><path d="M363.91 622.65C357.18 622.65 351.7 628.09 351.7 634.77L351.7 637.33C351.7 637.33 355.44 640.84 355.44 640.84L359.21 637.3 359.21 634.77C359.21 632.23 361.32 630.16 363.91 630.16 366.5 630.16 368.61 632.23 368.61 634.77 368.67 636.06 367.45 637.73 366.32 638.8L355.45 649C355.45 649 355.43 649 355.43 649L344.55 638.79C343.01 637.27 342.26 635.96 342.26 634.77 342.23 631.23 346.3 628.99 349.34 630.8 349.35 630.8 349.36 630.8 349.37 630.79 350.05 628.33 351.36 626.11 353.1 624.33 353.1 624.33 353.1 624.31 353.1 624.3 345.13 619.59 334.68 625.51 334.76 634.77 334.73 638.16 336.44 641.47 339.58 644.44L339.62 644.46 354.91 658.82C355.21 659.1 355.67 659.1 355.97 658.82L371.34 644.39 371.55 644.19C373.72 642.06 375.1 639.9 375.73 637.64 377.78 630.16 371.66 622.54 363.91 622.65" fill="#FFFFFF"/><path d="M269.53 709.3C269.75 709.3 269.97 709.36 270.18 709.48 270.18 709.48 270.18 709.48 270.18 709.48 269.99 709.67 269.85 709.91 269.78 710.17 269.78 710.17 269.78 710.17 269.78 710.17L269.78 710.17C269.7 710.12 269.61 710.1 269.53 710.1 269.27 710.1 269.02 710.31 269.02 710.6 269.02 710.73 269.1 710.87 269.27 711.03L270.44 712.13 270.44 712.13 271.61 711.03C271.73 710.91 271.86 710.74 271.86 710.6 271.86 710.33 271.63 710.11 271.35 710.11 271.07 710.11 270.84 710.33 270.84 710.6L270.84 710.87 270.44 711.25 270.04 710.87 270.04 710.59C270.04 709.87 270.63 709.29 271.35 709.29L271.37 709.29C272.2 709.29 272.84 710.1 272.62 710.9 272.55 711.14 272.4 711.38 272.17 711.61L272.15 711.63 270.5 713.18C270.5 713.18 270.46 713.2 270.44 713.2 270.42 713.2 270.4 713.2 270.38 713.18L268.74 711.64 268.74 711.64C268.4 711.32 268.22 710.96 268.22 710.6 268.22 709.85 268.86 709.3 269.55 709.3" fill="#E7392C"/><path d="M277.49 712.9 271.54 712.9 270.84 713.56C270.77 713.63 270.69 713.67 270.6 713.7L277.5 713.7 277.5 712.91Z" fill="#FFFFFF"/><path d="M277.49 711.32 273 711.32C272.89 711.55 272.73 711.77 272.52 711.98L272.52 711.98C272.52 711.98 272.52 711.98 272.52 711.98L272.5 712 272.5 712C272.5 712 272.5 712 272.5 712L272.39 712.11 277.5 712.11 277.5 711.32Z" fill="#FFFFFF"/><path d="M273.06 710.09 277.99 710.09C278.24 710.09 278.44 710.29 278.44 710.54L278.44 714.12C278.73 714.21 278.99 714.35 279.23 714.52L279.23 710.54C279.23 709.85 278.67 709.29 277.98 709.29L272.56 709.29C272.63 709.36 272.69 709.42 272.75 709.5 272.89 709.68 272.99 709.88 273.05 710.08" fill="#FFFFFF"/><path d="M275.78 718.65 269.45 718.65C269.2 718.65 269 718.45 269 718.2L269 712.57 268.38 711.99 268.38 711.99C268.38 711.99 268.35 711.96 268.35 711.96 268.3 711.91 268.26 711.87 268.21 711.82L268.21 718.21C268.21 718.9 268.77 719.46 269.46 719.46L277.46 719.46C276.81 719.39 276.23 719.1 275.79 718.67" fill="#FFFFFF"/><path d="M275.18 714.49 269.97 714.49 269.97 715.28 274.62 715.28C274.77 714.99 274.96 714.72 275.18 714.49" fill="#FFFFFF"/><path d="M277.69 714.69C276.59 714.69 275.7 715.58 275.7 716.68 275.7 717.78 276.59 718.67 277.69 718.67 278.79 718.67 279.68 717.78 279.68 716.68 279.68 715.58 278.79 714.69 277.69 714.69M277.69 719.44C276.17 719.44 274.93 718.2 274.93 716.68 274.93 715.16 276.17 713.92 277.69 713.92 279.21 713.92 280.45 715.16 280.45 716.68 280.45 718.2 279.21 719.44 277.69 719.44" fill="#FFFFFF"/><path d="M278.2 717.19C278.2 717.31 278.16 717.39 278.1 717.45 278.04 717.5 277.96 717.53 277.84 717.53 277.7 717.53 277.6 717.46 277.52 717.32 277.49 717.26 277.47 717.19 277.45 717.11L277.87 717.11 277.95 716.84 277.42 716.84C277.42 716.84 277.42 716.75 277.42 716.71 277.42 716.68 277.42 716.65 277.42 716.63L278.01 716.63 278.1 716.36 277.45 716.36C277.45 716.36 277.47 716.28 277.48 716.25 277.52 716.13 277.57 716.03 277.64 715.97 277.71 715.91 277.79 715.88 277.89 715.88 277.99 715.88 278.05 715.91 278.11 715.96 278.16 716.01 278.19 716.1 278.21 716.2L278.81 715.92C278.76 715.7 278.66 715.55 278.51 715.45 278.36 715.35 278.16 715.31 277.89 715.31 277.65 715.31 277.45 715.37 277.28 715.47 277.11 715.58 276.98 715.74 276.9 715.95 276.85 716.07 276.82 716.21 276.79 716.36L276.47 716.36 276.47 716.63 276.76 716.63C276.76 716.63 276.76 716.68 276.76 716.71 276.76 716.76 276.76 716.8 276.76 716.84L276.46 716.84 276.46 717.11 276.78 717.11C276.8 717.24 276.83 717.35 276.88 717.46 276.96 717.67 277.09 717.83 277.25 717.94 277.41 718.05 277.61 718.11 277.84 718.11 278.01 718.11 278.17 718.08 278.3 718.02 278.44 717.96 278.55 717.87 278.64 717.76 278.73 717.65 278.79 717.52 278.81 717.36L278.21 717.2Z" fill="#FFFFFF"/><path d="M396.89 662.07 390.29 662.07C390.36 662.14 390.43 662.21 390.48 662.28 390.62 662.46 390.71 662.65 390.78 662.86L396.89 662.86C397.14 662.86 397.34 663.06 397.34 663.31L397.34 670.98C397.34 671.23 397.14 671.43 396.89 671.43L387.13 671.43C386.88 671.43 386.68 671.23 386.68 670.98L386.68 665.37 386.1 664.82 386.1 664.82C386.1 664.82 386.07 664.79 386.07 664.79 386.01 664.73 385.95 664.67 385.9 664.61L385.9 670.98C385.9 671.66 386.46 672.22 387.14 672.22L396.9 672.22C397.58 672.22 398.14 671.66 398.14 670.98L398.14 663.31C398.14 662.63 397.58 662.07 396.9 662.07" fill="#FFFFFF"/><path d="M387.21 662.07C387.43 662.07 387.65 662.13 387.86 662.25 387.86 662.25 387.86 662.25 387.86 662.25 387.67 662.44 387.53 662.68 387.46 662.95 387.46 662.95 387.46 662.95 387.46 662.95L387.46 662.95C387.38 662.9 387.29 662.88 387.21 662.88 386.95 662.88 386.69 663.09 386.7 663.38 386.7 663.51 386.78 663.65 386.95 663.81L388.12 664.91 388.12 664.91 389.29 663.81C389.41 663.69 389.54 663.52 389.54 663.38 389.54 663.11 389.31 662.88 389.03 662.88 388.75 662.88 388.52 663.1 388.52 663.38L388.52 663.65 388.11 664.03 387.71 663.65 387.71 663.38C387.71 662.66 388.3 662.07 389.03 662.07L389.05 662.07C389.88 662.07 390.53 662.89 390.31 663.69 390.24 663.93 390.09 664.17 389.86 664.4L389.84 664.42 388.18 665.98C388.18 665.98 388.14 666 388.12 666 388.1 666 388.08 666 388.06 665.98L386.41 664.43 386.41 664.43C386.07 664.11 385.89 663.75 385.89 663.39 385.89 662.63 386.53 662.08 387.22 662.08" fill="#E7392C"/><path d="M388.46 667.72C388.79 667.82 389.13 667.9 389.48 667.98 389.35 668.51 389.26 669.09 389.24 669.7L387.76 669.7C387.83 668.97 388.08 668.3 388.47 667.72M390.22 666.22C390.03 666.51 389.86 666.84 389.71 667.21 389.48 667.16 389.24 667.11 389.01 667.05 389.36 666.71 389.76 666.43 390.21 666.22M391.6 668.23 391.6 669.7 390.03 669.7C390.06 669.12 390.14 668.59 390.27 668.12 390.71 668.18 391.15 668.22 391.6 668.23M391.6 665.99 391.6 667.43C391.24 667.42 390.88 667.39 390.53 667.34 390.82 666.66 391.2 666.18 391.6 665.98M392.41 668.23C392.86 668.22 393.3 668.18 393.74 668.12 393.86 668.59 393.95 669.12 393.98 669.7L392.41 669.7 392.41 668.23ZM392.41 665.99C392.8 666.19 393.19 666.66 393.48 667.35 393.13 667.39 392.77 667.42 392.41 667.44L392.41 666ZM394.99 667.05C394.76 667.11 394.53 667.17 394.29 667.21 394.15 666.84 393.98 666.51 393.78 666.22 394.23 666.43 394.63 666.71 394.98 667.05M396.26 669.7 394.78 669.7C394.75 669.09 394.67 668.51 394.53 667.98 394.87 667.91 395.21 667.82 395.55 667.72 395.94 668.29 396.19 668.97 396.26 669.7M388.2 672.04C387.96 671.57 387.8 671.05 387.75 670.5L389.22 670.5C389.24 671.04 389.31 671.56 389.42 672.04L390.24 672.04C390.13 671.58 390.05 671.06 390.03 670.5L391.6 670.5 391.6 671.92C391.14 671.93 390.69 671.98 390.24 672.04L393.76 672.04C393.31 671.98 392.86 671.94 392.4 671.92L392.4 670.5 393.97 670.5C393.95 671.06 393.87 671.57 393.76 672.04L394.58 672.04C394.69 671.56 394.75 671.05 394.77 670.5L396.25 670.5C396.2 671.05 396.04 671.57 395.8 672.04L396.69 672.04C396.94 671.44 397.07 670.79 397.07 670.1 397.07 667.3 394.8 665.02 391.99 665.02 389.18 665.02 386.91 667.29 386.91 670.1 386.91 670.79 387.05 671.44 387.29 672.04L388.18 672.04Z" fill="#FFFFFF"/><path d="M478.66 668.08C478.08 668.08 477.6 668.55 477.6 669.13L477.6 669.35C477.6 669.35 477.92 669.65 477.92 669.65L478.25 669.34 478.25 669.12C478.25 668.9 478.43 668.72 478.66 668.72 478.89 668.72 479.07 668.9 479.07 669.12 479.07 669.23 478.97 669.38 478.87 669.47L477.93 670.35C477.93 670.35 477.93 670.35 477.93 670.35L476.99 669.47C476.86 669.34 476.79 669.23 476.79 669.12 476.79 668.81 477.14 668.62 477.4 668.78 477.4 668.78 477.4 668.78 477.4 668.78 477.46 668.57 477.57 668.38 477.72 668.22 477.72 668.22 477.72 668.22 477.72 668.22 477.03 667.81 476.13 668.32 476.13 669.13 476.13 669.42 476.27 669.71 476.55 669.97L476.55 669.97C476.55 669.97 477.87 671.21 477.87 671.21 477.9 671.23 477.94 671.23 477.96 671.21L479.29 669.96 479.31 669.94C479.5 669.76 479.62 669.57 479.67 669.37 479.85 668.72 479.32 668.06 478.65 668.07" fill="#E7392C"/><path d="M475.3 671.32 475.3 671.32 475.3 672.78 473.77 672.78 473.77 672.35 473.77 672.35 473.77 671.3 473.77 671.3C473.77 671.24 473.82 671.2 473.88 671.2 473.88 671.2 473.88 671.2 473.88 671.2L473.92 671.2C474.1 671.31 474.31 671.37 474.53 671.37 474.75 671.37 474.96 671.31 475.14 671.2L475.18 671.2C475.18 671.2 475.18 671.2 475.18 671.2 475.23 671.2 475.28 671.24 475.28 671.29L475.28 671.32ZM474.53 669.64C474.83 669.64 475.08 669.89 475.08 670.19 475.08 670.49 474.84 670.74 474.53 670.74 474.22 670.74 473.98 670.49 473.98 670.19 473.98 669.89 474.22 669.64 474.53 669.64M475.61 670.68C475.68 670.53 475.72 670.36 475.72 670.18 475.72 669.52 475.19 668.99 474.53 668.99 473.87 668.99 473.34 669.52 473.34 670.18 473.34 670.36 473.38 670.53 473.45 670.68 473.25 670.81 473.12 671.04 473.12 671.3 473.12 671.31 473.12 671.32 473.12 671.33L473.12 673.42 475.93 673.42 475.93 671.37C475.93 671.37 475.93 671.33 475.93 671.3 475.93 671.04 475.8 670.81 475.6 670.68" fill="#FFFFFF"/><path d="M482.28 667.64 482.28 667.64 482.28 669.1 480.75 669.1 480.75 668.67 480.75 668.67 480.75 667.62 480.75 667.62C480.75 667.56 480.8 667.52 480.86 667.52 480.86 667.52 480.86 667.52 480.86 667.52L480.9 667.52C481.08 667.63 481.29 667.69 481.51 667.69 481.73 667.69 481.94 667.63 482.12 667.52L482.16 667.52C482.16 667.52 482.16 667.52 482.16 667.52 482.21 667.52 482.26 667.56 482.26 667.61L482.26 667.64ZM481.51 665.96C481.81 665.96 482.06 666.21 482.06 666.51 482.06 666.81 481.82 667.06 481.51 667.06 481.2 667.06 480.96 666.81 480.96 666.51 480.96 666.21 481.2 665.96 481.51 665.96M482.59 667C482.66 666.85 482.7 666.68 482.7 666.5 482.7 665.84 482.17 665.31 481.51 665.31 480.85 665.31 480.32 665.84 480.32 666.5 480.32 666.68 480.36 666.85 480.43 667 480.23 667.13 480.1 667.36 480.1 667.62 480.1 667.63 480.1 667.64 480.1 667.65L480.1 669.74 482.91 669.74 482.91 667.69C482.91 667.69 482.91 667.65 482.91 667.62 482.91 667.36 482.78 667.13 482.58 667" fill="#FFFFFF"/><path d="M482.91 671.47 482.91 671.47C482.91 671.47 481.59 670.23 481.59 670.23 481.56 670.21 481.52 670.21 481.5 670.23L480.17 671.48 480.15 671.5 481.22 671.5C481.22 671.5 481.22 672.38 481.22 672.38L481.22 672.38C481.22 672.61 481.04 672.79 480.81 672.79 480.81 672.79 480.8 672.79 480.79 672.79L476.35 672.79 476.35 673.43 480.76 673.43C480.76 673.43 480.79 673.43 480.8 673.43 481.38 673.43 481.85 672.96 481.85 672.39L481.85 672.39 481.85 671.49 482.9 671.49Z" fill="#FFFFFF"/><path d="M479.99 665.97C480.1 665.7 480.3 665.48 480.54 665.33L475.32 665.33C475.32 665.33 475.29 665.33 475.28 665.33 474.7 665.33 474.23 665.8 474.23 666.38L474.23 666.38 474.23 667.28 473.18 667.28C473.18 667.28 473.18 667.29 473.18 667.29L474.5 668.53C474.5 668.53 474.57 668.55 474.59 668.53L475.92 667.28 475.94 667.26 474.87 667.26C474.87 667.26 474.87 666.38 474.87 666.38L474.87 666.38C474.87 666.15 475.05 665.97 475.28 665.97 475.28 665.97 475.29 665.97 475.3 665.97L479.99 665.97Z" fill="#FFFFFF"/></g><g><path d="M461.65 775.64C461.65 775.22 461.4 775.16 461.33 775.15 461.21 775.15 461.19 775.05 461.19 774.89L461.19 774C461.19 773.78 461.38 773.69 461.93 773.69 462.6 773.69 463.05 773.98 463.2 774.55L463.2 774.62C463.36 774.19 463.78 773.67 464.88 773.67 465.14 773.67 465.44 773.72 465.65 773.81 465.79 773.87 465.83 773.95 465.73 774.17L465.2 775.33C465.13 775.49 465.09 775.47 464.98 775.43 464.85 775.38 464.64 775.31 464.32 775.31 463.68 775.31 463.46 775.84 463.46 776.21L463.46 779.25C463.46 779.43 463.36 779.53 463.2 779.53L461.93 779.53C461.75 779.53 461.65 779.43 461.65 779.25L461.65 775.64Z" fill="#1D1D1B"/><path d="M466.62 779.53C466.45 779.53 466.36 779.43 466.36 779.25L466.36 778.36C466.36 778.08 466.53 777.94 466.79 777.66L469.14 775.17 466.62 775.17C466.45 775.17 466.36 775.07 466.36 774.91L466.36 774.02C466.36 773.84 466.46 773.74 466.64 773.74L471.02 773.74C471.2 773.74 471.3 773.82 471.3 774.02L471.3 774.84C471.3 775.2 471.12 775.34 470.82 775.67L468.6 778.11 471.02 778.11C471.2 778.11 471.3 778.21 471.3 778.39L471.3 779.27C471.3 779.45 471.2 779.55 471.02 779.55L466.63 779.55Z" fill="#1D1D1B"/><path d="M474.67 779.18C474.67 779.35 474.56 779.59 473.87 779.59 472.9 779.6 472.38 779.07 472.38 777.96L472.38 771.11C472.38 770.92 472.45 770.82 472.66 770.82L473.92 770.82C474.1 770.82 474.2 770.93 474.2 771.11L474.2 777.63C474.2 777.91 474.27 778.03 474.4 778.07 474.52 778.13 474.68 778.13 474.68 778.37L474.68 779.17Z" fill="#1D1D1B"/><path d="M480.89 773.42C480.69 773.55 480.58 773.53 480.52 773.44 480.34 773.18 479.82 772.65 478.88 772.66 478.17 772.65 477.75 772.97 477.74 773.44 477.75 775.05 482.02 773.96 482.02 777.16 482.02 778.35 481.13 779.59 478.83 779.59 476.66 779.59 475.72 778.47 475.45 778.01 475.37 777.89 475.4 777.72 475.51 777.64L476.25 776.94C476.35 776.84 476.53 776.8 476.63 776.94 476.92 777.29 477.65 778.03 478.82 778.03 479.55 778.03 479.98 777.71 479.98 777.2 479.98 775.4 475.64 776.73 475.64 773.46 475.64 772.17 476.74 771.05 478.72 771.05 480.7 771.05 481.56 772.05 481.83 772.49 481.88 772.57 481.91 772.72 481.72 772.84L480.88 773.42Z" fill="#1D1D1B"/><path d="M482.83 776.63C482.83 774.9 483.81 773.68 485.59 773.68 487.37 773.68 488.34 774.9 488.34 776.63 488.34 778.36 487.37 779.6 485.59 779.6 483.81 779.6 482.83 778.38 482.83 776.63ZM486.55 776.64C486.55 775.8 486.3 775.27 485.59 775.27 484.88 775.27 484.62 775.8 484.62 776.64 484.62 777.48 484.85 778.01 485.59 778.01 486.33 778.01 486.55 777.48 486.55 776.64Z" fill="#1D1D1B"/><path d="M489.23 775.17C489.05 775.17 488.95 775.06 488.95 774.91L488.95 774.02C488.95 773.85 489.05 773.74 489.23 773.74L489.79 773.74 489.79 773.31C489.79 771.8 490.5 770.76 492.21 770.76 492.85 770.76 493.29 770.98 493.52 771.12 493.63 771.19 493.68 771.32 493.59 771.52L493.21 772.44C493.16 772.57 493.08 772.56 492.99 772.51 492.87 772.44 492.68 772.37 492.4 772.37 491.85 772.37 491.6 772.75 491.6 773.4L491.6 773.75 493.06 773.75C493.23 773.75 493.32 773.86 493.32 774.03L493.32 774.92C493.32 775.08 493.22 775.18 493.06 775.18L491.6 775.18 491.6 779.25C491.6 779.44 491.5 779.54 491.34 779.54L490.07 779.54C489.88 779.54 489.79 779.44 489.79 779.26L489.79 775.18 489.23 775.18Z" fill="#1D1D1B"/><path d="M498.16 773.75C498.34 773.75 498.44 773.86 498.44 774.03L498.44 774.91C498.44 775.08 498.34 775.19 498.16 775.19L496.54 775.19 496.54 776.86C496.54 777.65 496.82 778.01 497.4 778.01 497.69 778.01 497.92 777.91 498.05 777.84 498.13 777.79 498.24 777.76 498.31 777.91L498.67 778.81C498.75 779.01 498.68 779.11 498.59 779.17 498.34 779.34 497.85 779.61 497.2 779.61 495.4 779.61 494.73 778.64 494.73 776.92L494.73 775.18 494.14 775.18C493.97 775.18 493.88 775.07 493.88 774.9L493.88 774.02C493.88 773.85 493.98 773.74 494.14 773.74L494.73 773.74 494.73 772.22C494.73 772.03 494.8 771.93 494.99 771.93L496.26 771.93C496.44 771.93 496.54 772.04 496.54 772.22L496.54 773.74 498.16 773.74Z" fill="#1D1D1B"/><path d="M505.38 779.53C504.92 779.53 504.8 779.4 504.65 778.88L503.93 776.46 503.13 778.88C502.95 779.4 502.76 779.53 502.33 779.53L501.6 779.53C501.14 779.53 501.04 779.4 500.84 778.88L499.2 774.09C499.13 773.91 499.2 773.74 499.38 773.74L500.81 773.74C501.05 773.74 501.05 773.9 501.09 774.05L502 777.43 503.06 774.08C503.11 773.9 503.17 773.74 503.35 773.74L504.68 773.74C504.86 773.74 504.9 773.9 504.94 774.09L505.77 777.42 506.67 774.04C506.71 773.88 506.74 773.73 506.96 773.73L508.33 773.73C508.53 773.73 508.61 773.9 508.56 774.05L506.93 778.86C506.75 779.36 506.57 779.51 506.11 779.51L505.4 779.51Z" fill="#1D1D1B"/><path d="M514.7 779.17C514.7 779.35 514.6 779.59 513.91 779.59 513.22 779.59 512.72 779.27 512.64 778.73 512.44 779.1 511.96 779.61 510.86 779.61 509.66 779.61 508.97 778.93 508.97 778.05 508.97 777.02 509.61 776.43 511.24 776.43L512.42 776.43 512.42 775.77C512.42 775.23 512.16 775.01 511.69 775.01 511.25 775.01 510.99 775.24 510.99 775.63 510.99 775.93 511.04 775.99 510.73 775.99L509.71 775.99C509.37 775.99 509.33 775.7 509.33 775.33 509.33 774.35 510.16 773.67 511.75 773.67 513.51 773.67 514.23 774.49 514.23 775.84L514.23 777.63C514.23 777.95 514.39 778.07 514.52 778.12 514.56 778.13 514.71 778.17 514.71 778.37L514.71 779.16ZM512.41 777.28 511.45 777.28C511.01 777.28 510.79 777.46 510.79 777.76 510.79 778.06 511.04 778.23 511.38 778.23 512.22 778.23 512.41 777.52 512.41 777.52L512.41 777.28Z" fill="#1D1D1B"/><path d="M515.87 775.64C515.87 775.22 515.62 775.16 515.55 775.15 515.43 775.15 515.41 775.05 515.41 774.89L515.41 774C515.41 773.78 515.6 773.69 516.15 773.69 516.82 773.69 517.27 773.98 517.42 774.55L517.42 774.62C517.58 774.19 518 773.67 519.1 773.67 519.36 773.67 519.66 773.72 519.87 773.81 520.01 773.87 520.05 773.95 519.95 774.17L519.42 775.33C519.35 775.49 519.31 775.47 519.2 775.43 519.07 775.38 518.86 775.31 518.54 775.31 517.9 775.31 517.68 775.84 517.68 776.21L517.68 779.25C517.68 779.43 517.58 779.53 517.42 779.53L516.15 779.53C515.97 779.53 515.87 779.43 515.87 779.25L515.87 775.64Z" fill="#1D1D1B"/><path d="M522.08 776.91 522.08 776.95C522.1 777.84 522.97 778.12 523.37 778.12 523.98 778.12 524.39 777.78 524.59 777.57 524.66 777.5 524.76 777.44 524.88 777.55L525.51 778.22C525.61 778.32 525.59 778.4 525.55 778.48 525.29 778.85 524.54 779.6 523.1 779.6 521.41 779.6 520.25 778.48 520.25 776.65 520.25 774.82 521.14 773.68 523.1 773.68 524.83 773.68 525.56 774.75 525.56 776.44 525.56 776.84 525.5 776.92 525.27 776.92L522.07 776.92ZM523.86 775.97C523.86 775.41 523.57 775.08 523.02 775.08 522.58 775.08 522.25 775.34 522.13 775.97L523.86 775.97Z" fill="#1D1D1B"/><path d="M527.61 777.51C528.19 777.51 528.65 777.98 528.65 778.56 528.65 779.14 528.18 779.59 527.61 779.59 527.04 779.59 526.57 779.13 526.57 778.56 526.57 777.99 527.03 777.51 527.61 777.51Z" fill="#1D1D1B"/><path d="M535.25 779.17C535.25 779.35 535.15 779.59 534.46 779.59 533.77 779.59 533.27 779.27 533.19 778.73 532.99 779.1 532.51 779.61 531.41 779.61 530.21 779.61 529.52 778.93 529.52 778.05 529.52 777.02 530.16 776.43 531.79 776.43L532.97 776.43 532.97 775.77C532.97 775.23 532.71 775.01 532.24 775.01 531.8 775.01 531.54 775.24 531.54 775.63 531.54 775.93 531.59 775.99 531.28 775.99L530.26 775.99C529.92 775.99 529.88 775.7 529.88 775.33 529.88 774.35 530.71 773.67 532.3 773.67 534.06 773.67 534.78 774.49 534.78 775.84L534.78 777.63C534.78 777.95 534.94 778.07 535.07 778.12 535.11 778.13 535.26 778.17 535.26 778.37L535.26 779.16ZM532.96 777.28 532 777.28C531.56 777.28 531.34 777.46 531.34 777.76 531.34 778.06 531.59 778.23 531.93 778.23 532.77 778.23 532.96 777.52 532.96 777.52L532.96 777.28Z" fill="#1D1D1B"/><path d="M540.02 773.75C540.2 773.75 540.3 773.86 540.3 774.03L540.3 774.91C540.3 775.08 540.2 775.19 540.02 775.19L538.4 775.19 538.4 776.86C538.4 777.65 538.68 778.01 539.26 778.01 539.55 778.01 539.78 777.91 539.91 777.84 539.99 777.79 540.1 777.76 540.17 777.91L540.53 778.81C540.61 779.01 540.54 779.11 540.45 779.17 540.2 779.34 539.71 779.61 539.06 779.61 537.26 779.61 536.59 778.64 536.59 776.92L536.59 775.18 536 775.18C535.83 775.18 535.74 775.07 535.74 774.9L535.74 774.02C535.74 773.85 535.84 773.74 536 773.74L536.59 773.74 536.59 772.22C536.59 772.03 536.66 771.93 536.85 771.93L538.12 771.93C538.3 771.93 538.4 772.04 538.4 772.22L538.4 773.74 540.02 773.74Z" fill="#1D1D1B"/></g><g clip-path="url(#j)"><path d="M457.51 525.26C463.77 525.26 468.85 520.18 468.85 513.92 468.85 507.66 463.77 502.58 457.51 502.58 451.25 502.58 446.17 507.66 446.17 513.92 446.17 520.18 451.25 525.26 457.51 525.26" fill="#E7392C"/><path d="M237.97 659.34C242.59 659.34 246.33 655.6 246.33 650.98 246.33 646.36 242.59 642.62 237.97 642.62 233.35 642.62 229.61 646.36 229.61 650.98 229.61 655.6 233.35 659.34 237.97 659.34" fill="#E7392C"/></g></g></svg>