<?xml version="1.0" encoding="UTF-8"?>
<svg id="a" xmlns="http://www.w3.org/2000/svg" version="1.1" xmlns:xlink="http://www.w3.org/1999/xlink" viewBox="0 0 841.9 595.3">
  <!-- Generator: Adobe Illustrator 29.6.1, SVG Export Plug-In . SVG Version: 2.1.1 Build 9)  -->
  <defs>
    <clipPath id="clippath">
      <rect y="0" width="841.9" height="595.3" fill="none"/>
    </clipPath>
    <clipPath id="clippath-1">
      <rect y="0" width="841.9" height="595.3" fill="none"/>
    </clipPath>
    <clipPath id="clippath-2">
      <rect x="390.2" y="389.9" width="34" height="34" fill="none"/>
    </clipPath>
    <clipPath id="clippath-3">
      <rect x="473.7" y="368.4" width="34" height="34" fill="none"/>
    </clipPath>
    <clipPath id="clippath-4">
      <rect y="0" width="841.9" height="595.3" fill="none"/>
    </clipPath>
    <clipPath id="clippath-5">
      <rect y="0" width="841.9" height="595.3" fill="none"/>
    </clipPath>
    <clipPath id="clippath-6">
      <rect x="587" y="362.3" width="34" height="34" fill="none"/>
    </clipPath>
  </defs>
  <g clip-path="url(#clippath)">
    <g>
      <rect y="0" width="841.9" height="595.3" fill="none"/>
      <g clip-path="url(#clippath-1)">
        <g>
          <path d="M635.7,140.5c-1.1-1-2.5-2.1-4.9-2.1s-4.5,1.5-4.5,3.7,1.6,2.9,3.5,3.1l1.3.2c1,.1,1.9.4,1.9,1.1s-1.2,1.3-2,1.3c-1.2,0-2.5-.5-3.2-1.4l-2.1,1.3c1.1,1.3,2.5,2.2,5.1,2.2s5.1-1.5,5.1-3.9-1.2-2.8-4.1-3.2l-1.2-.2c-1-.1-1.4-.4-1.4-1s.5-1.2,1.7-1.2,2.1.6,2.9,1.4l2-1.5h0ZM637.8,144.2c0,3.1,1.9,5.9,5.5,5.9s5.6-2.8,5.6-5.8-1.6-6-5.6-6-5.5,3.3-5.5,5.9M640.5,144.1c0-1.5.7-3.5,2.8-3.5s2.8,1.6,2.8,3.6-.7,3.5-2.8,3.5-2.8-1.8-2.8-3.6M651,138.7v11.1h2.8v-4.5h5.3v-2.2h-5.3v-2.3h5.8v-2.1h-8.6ZM668.9,140.9v-2.2h-8.6v2.2h2.9v8.9h2.8v-8.9h2.9,0ZM684.9,138.7h-2.8l-1.6,7.7-2.1-7.7h-2.5l-2,7.7-1.6-7.7h-2.8l2.8,11.1h2.9l2-7.1,2,7.1h2.9l2.8-11.1h0ZM695.8,149.8l-4.1-11.1h-2.9l-4.1,11.1h3l.5-1.8h4.1l.5,1.8h3ZM691.6,146h-2.8l1.4-4.7,1.5,4.7ZM697.3,138.7v11.1h2.8v-4h1.7l2.2,4h3.1l-2.6-4.4c1.2-.4,2.3-1.2,2.3-3.1,0-3.2-2.6-3.6-4.3-3.6h-5.3,0ZM700.1,140.7h2.3c.5,0,1.7,0,1.7,1.5s0,1.6-1.7,1.6h-2.3v-3h0ZM709.5,149.8h8.7v-2.2h-5.9v-2.6h5.1v-2.1h-5.1v-2h5.5v-2.2h-8.2v11.1h0Z" fill="#fff"/>
          <path d="M762.4,119.6h-31.4v-59.8c0-.4-.3-.7-.7-.7h-5.5c-.4,0-.7.3-.7.7v66.1c0,.4.3.7.7.7h37.7c.4,0,.7-.3.7-.7v-5.6c0-.4-.3-.7-.7-.7" fill="#fff"/>
          <path d="M717.5,119.6h-34.5c-1.6,0-3-1.3-3-3,0-.6.2-1.1.4-1.5h0c0,0,33.5-48.8,33.5-48.8,0-.1.1-.3.1-.4v-6.2c0-.4-.3-.7-.7-.7h-37.1c-.4,0-.7.3-.7.7v5.5c0,.4.3.7.7.7h29.5l-30.9,45c-1.5,2-1.8,4.1-1.8,5.6,0,5.5,4.5,9.9,9.9,9.9h34.6c.4,0,.7-.3.7-.7v-5.5c0-.4-.3-.7-.7-.7" fill="#fff"/>
          <path d="M652.8,98.8c10.1-1,17.9-9.5,17.9-19.8s-9.2-19.9-20.1-19.9h-24.2c-.4,0-.7.3-.7.7v15.2c0,.4.3.7.7.7h5.5c.4,0,.7-.3.7-.7v-9h18.1c7.2,0,13,5.8,13,13,0,7.2-6,12.9-13.1,12.9h-15c-5.5,0-9.9,4.4-9.9,9.9v24c0,.4.3.7.7.7h5.5c.4,0,.7-.3.7-.7v-24c0-1.6,1.3-2.9,3-2.9h8.8l18.8,27.4c.1.2.4.3.6.3h6.7c.6,0,.9-.7.6-1.1l-18.3-26.7h0Z" fill="#fff"/>
          <path d="M771,58.6c-6.3,0-11.3,5.1-11.3,11.3v2.4l3.5,3.3,3.5-3.3v-2.3c0-2.4,2-4.3,4.4-4.3s4.4,1.9,4.4,4.3c0,1.2-1.1,2.8-2.1,3.7l-10.1,9.5h0l-10.1-9.5c-1.4-1.4-2.1-2.6-2.1-3.7,0-3.3,3.8-5.4,6.6-3.7,0,0,0,0,0,0,.6-2.3,1.8-4.3,3.5-6h0c-7.4-4.4-17.1,1.1-17.1,9.7,0,3.2,1.6,6.2,4.5,9h0s14.2,13.4,14.2,13.4c.3.3.7.3,1,0l14.3-13.4.2-.2c2-2,3.3-4,3.9-6.1,1.9-6.9-3.8-14-11-13.9" fill="#e7392c"/>
          <path d="M278,475.4c2.2-2.1,5.7-2.2,8-.3l34.6-36.3c-1.3-1.4-1.3-3.6.1-4.9,1.4-1.3,3.6-1.3,4.9,0,1.3,1.4,1.3,3.6,0,4.9l18.7,17.9s0-.1.1-.1c2.2-2.2,5.8-2.1,8,.1.2.3.5.5.7.8l23.3-14.2c-1.5-2.7-1.1-6.3,1.3-8.5.2-.2.4-.4.6-.5l-14-19.9c-2.1,1.5-5,1.2-6.8-.6-2-2.1-2-5.4.1-7.4s5.4-2,7.4.1,2,5.4-.1,7.4c0,0-.1.1-.2.2l14,20c1.9-1.2,4.3-1.5,6.4-.7l17-39.2c-.8-.4-1.6-1-2.3-1.7-1.2-1.2-1.9-2.7-2.2-4.2l-3.9.7c0,.8-.2,1.6-.9,2.2-1.1,1.1-3,1.1-4,0-1.1-1.1-1.1-3,0-4,1.1-1.1,3-1.1,4,0,.4.4.6.8.7,1.2l3.9-.7c-.2-1.9.2-3.8,1.2-5.5l-20.6-13.4c-.2.4-.5.7-.8,1-1.8,1.7-4.6,1.7-6.3-.1s-1.7-4.6.1-6.3,4.6-1.7,6.3.1c1.3,1.3,1.6,3.2.9,4.8l20.7,13.4c.3-.4.6-.8,1-1.1,2.6-2.5,6.4-3,9.4-1.5l8.3-15.5c-.3-.2-.6-.4-.8-.7-1.7-1.8-1.7-4.6.1-6.3s4.6-1.7,6.3.1,1.7,4.6-.1,6.3c-1.4,1.3-3.4,1.6-5,.8l-8.3,15.5c.7.4,1.3.9,1.9,1.5,2.5,2.6,3,6.3,1.5,9.4l46.3,23.9c.2-.4.5-.7.8-1,1.1-1.1,2.7-1.5,4.1-1.3l4.6-16.1c-.8-.3-1.6-.8-2.2-1.5-2.3-2.4-2.3-6.3.1-8.6,2.4-2.3,6.3-2.3,8.6.1,2.3,2.4,2.3,6.3-.1,8.6-1.6,1.6-3.9,2-5.9,1.5l-4.5,16.1c.8.2,1.6.6,2.2,1.3.7.7,1.1,1.5,1.2,2.4l56.4-13.3c-.2-1.3.2-2.7,1.2-3.8l-32.2-36.1c-2.4,2-6,1.8-8.2-.5-2.3-2.4-2.3-6.3.1-8.6,1.7-1.7,4.2-2.1,6.3-1.3l8.4-21.1c-.5-.2-1-.5-1.4-.9-1.4-1.4-1.3-3.7,0-5,1.4-1.4,3.7-1.3,5,0,0,0,.1.1.2.2l21.5-15.2c-.5-.9-.4-2,.3-2.8.9-.9,2.3-.8,3.2,0,.9.9.8,2.3,0,3.2-.9.8-2.2.8-3.1,0l-21.5,15.2c.6,1.1.6,2.5,0,3.6l6.9,4.8c0-.1.2-.2.3-.3.9-.9,2.3-.8,3.2,0,.9.9.8,2.3,0,3.2-.9.9-2.3.8-3.2,0-.6-.6-.8-1.6-.5-2.4l-7-4.8c0,.1-.2.2-.3.3-.8.8-2,1.1-3,.9l-8.4,21.2c.6.3,1.3.7,1.8,1.3,2.3,2.4,2.3,6.1,0,8.5l32.2,36.1c1-.8,2.3-1.2,3.5-1.1l6.6-43.3c-.7,0-1.3-.4-1.8-.9-1.2-1.2-1.1-3.1,0-4.3,1.2-1.2,3.1-1.1,4.3,0,1.2,1.2,1.1,3.1,0,4.3-.5.5-1.2.8-1.9.8l-6.6,43.4c.6.1,1.1.4,1.6.7l64.9-78.5s0,0-.1-.1c-.9-.9-1.3-2.1-1.3-3.2l-10.8-1.2c0,.5-.3,1.1-.8,1.5-1.1,1-2.8,1-3.8,0-1-1.1-1-2.8,0-3.8,1.1-1,2.8-1,3.8,0,.5.5.7,1.1.8,1.8l10.8,1.2c0-1.1.6-2.2,1.5-3.1,0,0,.2-.1.2-.2l-16.9-22.8c-2.2,1.5-5.2,1.3-7.1-.7-2.1-2.2-2-5.6.1-7.8,2.2-2.1,5.7-2,7.8.1,2.1,2.2,2,5.6-.1,7.8,0,0,0,0,0,0l16.9,22.8c1.9-1.1,4.4-.9,6,.8,0,0,0,.1.1.2l12.5-11.3c-1.7-2.1-1.5-5.2.5-7.1,2.1-2,5.5-2,7.5.1s2,5.5-.1,7.5c-2.1,2-5.5,2-7.5-.1l-12.5,11.3c1.1,1.6,1.2,3.7.2,5.4l61,37.2c.4-.6.9-1.2,1.5-1.8,2.2-2.1,5.1-3.1,8-3l1.5-30.7c-1.3,0-2.7-.6-3.7-1.7-1.7-1.8-2-4.3-.9-6.4l-9.6-4.8c-.1.2-.3.3-.4.5-1.4,1.4-3.7,1.3-5,0-1.4-1.4-1.3-3.7,0-5,1.4-1.4,3.7-1.3,5,0,1.1,1.1,1.3,2.8.6,4.1l9.6,4.8c.2-.4.5-.7.8-1,2.2-2.1,5.7-2.1,7.9.1.6.6,1,1.3,1.2,2l4.9-1.4c-.3-1-.1-2.1.7-2.9,1.1-1.1,2.9-1,3.9,0,1.1,1.1,1,2.9,0,3.9-1.1,1.1-2.9,1-3.9,0-.2-.2-.3-.3-.4-.5l-5,1.4c.5,1.9,0,3.9-1.5,5.4-1,1-2.3,1.5-3.6,1.5l-1.5,30.8c2.5.2,4.9,1.3,6.8,3.2,4.2,4.3,4,11.1-.3,15.3-.7.7-1.5,1.2-2.3,1.7l11.6,21.3c3-1.3,6.6-.8,9,1.7,3,3.2,3,8.2-.2,11.2-3.2,3-8.2,3-11.2-.2s-3-8.2.2-11.2c.5-.5,1.2-1,1.8-1.3l-11.6-21.3c-3.6,1.8-8,1.4-11.2-1.1l-21.1,26.8c0,0,.1.1.2.2,2.3,2.4,2.2,6.1-.2,8.4-2.4,2.3-6.1,2.2-8.4-.1-1.1-1.1-1.7-2.6-1.7-4.1l-17.6-1.2c-.2,1.6-.8,3.1-2.1,4.3-1.3,1.2-2.9,1.9-4.5,1.9l.8,10.8c1.3,0,2.5.5,3.5,1.5,1.9,2,1.8,5.1-.1,7s-5.1,1.8-7-.1c-1.9-2-1.8-5.1.1-7,.8-.8,1.9-1.2,2.9-1.3l-.8-10.8c-1.7,0-3.5-.8-4.8-2.1-.8-.9-1.4-1.9-1.7-2.9l-18.8,4.4c0,.8-.2,1.7-.8,2.3-.5.4-1,.7-1.6.8-.8.2-1.7,0-2.4-.8s-.9-1.6-.7-2.4c0-.6.3-1.1.8-1.6,1.1-1.1,2.9-1,3.9,0,.3.3.5.6.6,1l18.8-4.6c-.4-2.2.3-4.5,2-6.1,2.1-2,5.2-2.5,7.7-1.3l3.2-5.7c-.2-.1-.3-.2-.4-.4-1-1-1-2.7,0-3.7,1-1,2.7-1,3.7,0,1,1,1,2.7,0,3.7-.8.8-1.9.9-2.8.5l-3.2,5.7c.6.3,1.1.7,1.6,1.2,1.3,1.4,2,3.2,2,4.9l17.6,1.2c.1-1.4.7-2.7,1.8-3.8,2.2-2.1,5.5-2.2,7.8-.4l21.1-26.8c-.3-.2-.6-.5-.8-.8-1.7-1.7-2.6-3.9-2.9-6.1l-5.9.4c0,1-.4,2.1-1.2,2.9-1.5,1.5-4,1.4-5.5-.1-1.5-1.5-1.4-4,0-5.5,1.5-1.5,4-1.4,5.5.1.6.6.9,1.3,1,2l5.9-.4c-.2-2.1.3-4.3,1.4-6.2l-61-37.2c0,0-.2.2-.2.3-.9.8-2,1.3-3.1,1.3l-1.6,19c1.3.2,2.7.8,3.7,1.8,2,2,2.2,5,.9,7.4l12.2,7.6c.1-.2.2-.3.4-.5,1.2-1.2,3.2-1.1,4.4,0,1.2,1.2,1.2,3.2,0,4.4-1.2,1.2-3.2,1.1-4.4,0-.9-.9-1.1-2.3-.6-3.4l-12.2-7.6c-.2.3-.5.6-.8.9-1.6,1.5-3.7,2-5.7,1.6l-7.2,24.1c.3.1.6.3.8.6,1,1,1,2.6,0,3.6-1,1-2.6,1-3.6,0s-1-2.6,0-3.6c.6-.6,1.5-.8,2.3-.7l7.2-24c-.9-.3-1.8-.8-2.5-1.6-2.4-2.5-2.3-6.4.2-8.7,1.3-1.2,2.9-1.8,4.5-1.7l1.6-18.9c-.9,0-1.7-.3-2.5-.8l-64.9,78.5c0,0,.2.1.2.2,1.9,1.9,1.8,5-.1,6.9-1.1,1.1-2.7,1.5-4.1,1.3l-4.6,22.6c1.2.3,2.4,1,3.3,1.9,2.7,2.8,2.6,7.2-.2,9.9-2.2,2.2-5.6,2.5-8.2,1.1l-9.7,15.2c0,0,.2.1.2.2,1,1,.9,2.5,0,3.5s-2.5.9-3.5,0-.9-2.5,0-3.5c.8-.7,1.9-.9,2.8-.4l9.7-15.2c-.5-.3-.9-.6-1.3-1-2.7-2.8-2.6-7.2.2-9.9,1.7-1.6,4-2.2,6.1-1.9l4.6-22.6c-.8-.2-1.6-.6-2.2-1.3-.6-.6-.9-1.3-1.1-2l-56.5,13.3c0,1-.2,2-.8,2.8l9.3,6.8c1-.9,2.4-.8,3.3.1.9,1,.9,2.5,0,3.4s-2.5.9-3.4,0c-.8-.8-.9-2.1-.2-3l-9.3-6.8c-.1.1-.2.3-.4.5-.8.8-1.8,1.2-2.8,1.3l11.6,55.3c1.8-.2,3.7.3,5.1,1.8,2.3,2.4,2.2,6.1-.1,8.4-2.4,2.3-6.1,2.2-8.4-.1-2.3-2.4-2.2-6.1.1-8.4.8-.8,1.8-1.3,2.8-1.5l-11.6-55.4c-.8,0-1.5-.2-2.3-.6l-20.4,36.4c.4.2.8.5,1.1.9,2.1,2.2,2.1,5.7-.1,7.9-1.3,1.2-3,1.7-4.7,1.5l-4.1,29.3c.4,0,.8.3,1.1.6.9.9.8,2.3,0,3.2-.9.9-2.3.8-3.2,0-.9-.9-.8-2.3,0-3.2.4-.4,1-.6,1.5-.6l4.1-29.4c-1-.2-1.9-.7-2.6-1.5-2.1-2.2-2.1-5.7.1-7.9,1.7-1.7,4.2-2,6.3-1l20.4-36.4c-.3-.2-.5-.4-.8-.6-1.4-1.5-1.7-3.6-.9-5.4l-46.2-23.9c-.4.7-.9,1.4-1.5,1.9-.8.8-1.7,1.3-2.6,1.7l5.9,15.9c1.6-.4,3.3,0,4.5,1.3,1.8,1.9,1.8,4.9-.1,6.7-1.9,1.8-4.9,1.8-6.7-.1-1.8-1.9-1.8-4.9.1-6.7.5-.5,1.1-.8,1.7-1l-5.9-15.8c-1.9.6-4,.6-5.9-.2l-17,39.2c.8.4,1.5.9,2.1,1.5,2,2.1,2.5,5,1.5,7.5l11.1,5.1c.2-.4.5-.7.8-1.1,1.9-1.8,4.9-1.8,6.7.1,1.8,1.9,1.8,4.9-.1,6.7-1.9,1.8-4.9,1.8-6.7-.1-1.4-1.4-1.7-3.4-1-5.1l-11.1-5c-.4.7-.8,1.4-1.5,2-1.3,1.3-3.1,2-4.8,2l-1.7,36.5c.9,0,1.8.5,2.5,1.2,1.2,1.3,1.4,3.1.6,4.6l12.2,9.5s0,0,.1-.1c1.1-1,2.8-1,3.8,0,1,1.1,1,2.8,0,3.8-1.1,1-2.8,1-3.8,0-.9-.9-1-2.2-.4-3.2l-12.2-9.5c-.1.2-.3.4-.4.5-1.6,1.5-4.1,1.5-5.6-.1s-1.5-4.1.1-5.6c.7-.7,1.6-1,2.5-1.1l1.7-36.5c-1.7-.1-3.4-.8-4.7-2.1-.3-.3-.6-.7-.8-1l-23.3,14.2c1.1,2.2.8,4.9-1.1,6.6-1.2,1.2-2.8,1.7-4.4,1.5l-4.4,28.9c.8.1,1.6.5,2.3,1.2,1.6,1.7,1.5,4.3-.1,5.9-1.7,1.6-4.3,1.6-5.9-.1s-1.5-4.3.1-5.9c.9-.8,2-1.2,3.1-1.2l4.4-28.9c-1.1-.2-2.2-.7-3-1.6-2-2.1-2.1-5.2-.3-7.4l-18.8-17.9c-1.2.9-2.9.9-4.1,0l-34.6,36.3s0,0,0,0c2.3,2.4,2.2,6.1-.1,8.4-2.4,2.3-6.1,2.2-8.4-.1-2.3-2.4-2.2-6.1.1-8.4" fill="#e3e3e3"/>
          <path d="M806.6,279.3c-3.6,0-6.5,2.7-6.9,6.2l-58.4-2.4c0-2.2-1.8-4-4-4s-4,1.8-4,4,1.8,4,4,4l-1.2,30.1c0,0-.1,0-.2,0-3.6,0-6.6,2.9-6.6,6.6s0,.8.1,1.2l-31,6.9c-1-3.5-4.2-6.1-8-6.1s-.7,0-1,0l-4.4-28.1c2.9-.5,5.2-3,5.2-6s-2.7-6.1-6.1-6.1-6.1,2.7-6.1,6.1,2.7,6.1,6.1,6.1.2,0,.3,0l4.4,28.1c-2.6.5-4.8,2.2-5.9,4.6l-46.1-19.1c.4-1,.6-2.1.6-3.3,0-2-.6-3.8-1.6-5.3l3.8-2.6c.6.7,1.5,1.2,2.5,1.2,1.8,0,3.3-1.5,3.3-3.3s-1.5-3.3-3.3-3.3-3.3,1.5-3.3,3.3.2,1.1.4,1.6l-3.8,2.6c-1.3-1.8-3.2-3.1-5.5-3.6l6.5-27.9c.5.1,1,.2,1.5.2,2.9,0,5.2-2.3,5.2-5.2s-2.3-5.2-5.2-5.2-5.2,2.3-5.2,5.2,1.3,4,3.2,4.8l-6.5,28c-.6-.1-1.1-.2-1.7-.2-4.2,0-7.8,2.6-9.1,6.4l-19.5-6.2c0-.4.2-.8.2-1.2,0-2.9-2.3-5.2-5.2-5.2s-5.2,2.3-5.2,5.2,2.3,5.2,5.2,5.2,4.1-1.4,4.9-3.4l19.5,6.2c-.3.9-.4,1.8-.4,2.8,0,4.2,2.6,7.7,6.3,9.1l-19.5,57.5c-.5-.1-1-.2-1.5-.2-1.8,0-3.5.9-4.5,2.3l-16.9-9.8c.4-.9.7-2,.7-3,0-3.9-3.2-7.1-7.1-7.1s-7.1,3.2-7.1,7.1,3.2,7.1,7.1,7.1,4.9-1.4,6.1-3.5l16.8,9.8c-.5.9-.8,1.8-.8,2.9s.3,2.1.9,3l-58,34.5c-1-1.3-2.4-2.1-4.1-2.2l-2.2-56.4c3.6-.3,6.5-3.4,6.5-7.1s-3.2-7.1-7.1-7.1-5.2,1.6-6.4,4l-24.1-10.9c.3-.6.5-1.2.5-1.9,0-2.3-1.9-4.1-4.1-4.1s-4.1,1.9-4.1,4.1,0,.2,0,.3l-30.4,4.6c-.2-1.2-1.3-2.1-2.6-2.1s-2.6,1.2-2.6,2.6,1.2,2.6,2.6,2.6,2.5-1.1,2.6-2.5l30.4-4.6c.4,1.5,1.5,2.6,2.9,3l-1.9,9.6c-.1,0-.3,0-.5,0-1.4,0-2.6,1.2-2.6,2.6s1.2,2.6,2.6,2.6,2.6-1.2,2.6-2.6-.6-2-1.5-2.4l1.9-9.7c.2,0,.3,0,.5,0,1.4,0,2.6-.7,3.3-1.7l24.2,11c-.3.8-.5,1.6-.5,2.5,0,3.8,3,7,6.8,7.1l2.2,56.4c-1.5.1-2.9.9-3.8,2l-40.6-31c.5-.6.8-1.4.8-2.2,0-2-1.6-3.5-3.5-3.5s-3.5,1.6-3.5,3.5,1.6,3.5,3.5,3.5,1.6-.3,2.2-.8l40.7,31c-.4.6-.7,1.2-.8,1.9l-118-13.2c0,0,0-.1,0-.2,0-1.5-.6-2.8-1.5-3.8l8.1-9.8c.5.4,1.2.6,1.9.6,1.7,0,3.1-1.4,3.1-3.1s-1.4-3.1-3.1-3.1-3.1,1.4-3.1,3.1.3,1.5.8,2.1l-8.1,9.8c-1-.9-2.3-1.4-3.7-1.4s-.2,0-.4,0l-4.3-32.7c3-.5,5.4-3.1,5.4-6.3s-2.9-6.4-6.4-6.4-6.4,2.9-6.4,6.4,2.9,6.4,6.4,6.4h0l4.3,32.8c-2.5.6-4.4,2.8-4.4,5.5s0,.2,0,.2l-19.6.7c-.3-3.1-2.9-5.6-6.1-5.6s-6.2,2.8-6.2,6.2,2.8,6.2,6.2,6.2,6.2-2.8,6.2-6.2l19.6-.7c.4,2.3,2,4.1,4.2,4.6l-21,80.5c-.9-.2-1.7-.3-2.6-.3-3.6,0-6.8,1.5-9.1,3.9l-26.1-24.6c1.1-1.1,1.7-2.7,1.7-4.4,0-2.8-1.8-5.2-4.4-6.1l4.1-11.8c.2,0,.5,0,.8,0,2.3,0,4.1-1.9,4.1-4.1s-1.9-4.1-4.1-4.1-4.1,1.9-4.1,4.1,1.2,3.3,2.8,3.9l-4.1,11.8c-.5-.1-1-.2-1.5-.2-3.6,0-6.5,2.9-6.5,6.5s.2,1.8.6,2.7l-5.2,2.8c-.5-1.1-1.6-1.9-2.9-1.9s-3.2,1.5-3.2,3.2,1.5,3.2,3.2,3.2,3.2-1.5,3.2-3.2,0-.5,0-.7l5.3-2.9c1.1,1.9,3.2,3.3,5.6,3.3s3.1-.6,4.3-1.7l26.1,24.6c-1.9,2.2-3,5.1-3,8.2,0,7,5.6,12.6,12.6,12.6s2.2-.2,3.3-.5l7.5,27.3c-3.6,1.3-6.1,4.7-6.1,8.7s4.1,9.3,9.3,9.3,9.3-4.2,9.3-9.3-4.1-9.3-9.3-9.3-1.7.1-2.5.4l-7.5-27.3c4.5-1.5,7.8-5.3,8.5-10l39.5,5.4c0,0,0,.2,0,.3,0,3.8,3.1,6.9,6.9,6.9s6.9-3.1,6.9-6.9-.7-3.5-1.9-4.8l13.8-15.3c1.4,1.2,3.3,2,5.3,2s3.9-.8,5.4-2l8.1,9.6c-1.1,1-1.7,2.5-1.7,4.1,0,3.2,2.6,5.8,5.8,5.8s5.8-2.6,5.8-5.8-2.6-5.8-5.8-5.8-2.6.5-3.5,1.2l-8.1-9.7c1.4-1.5,2.3-3.4,2.3-5.6s-.4-2.7-1-3.8l19.4-11.5c.6.8,1.5,1.3,2.5,1.3s1.4-.3,2-.7c.8-.5,1.4-1.5,1.4-2.6s-.5-2-1.4-2.6c-.5-.4-1.2-.7-2-.7-1.8,0-3.2,1.5-3.2,3.2s.1.9.3,1.4l-19.5,11.3c-1.5-2.1-3.9-3.5-6.7-3.5s-6.4,2.1-7.5,5.1l-7.3-2.2c0-.2,0-.4,0-.6,0-1.7-1.4-3.1-3.1-3.1s-3.1,1.4-3.1,3.1,1.4,3.1,3.1,3.1,2.3-.8,2.8-1.8l7.3,2.2c-.2.7-.4,1.5-.4,2.4,0,2.2.9,4.3,2.4,5.7l-13.7,15.3c-1.2-1.1-2.8-1.7-4.6-1.7-3.5,0-6.4,2.6-6.9,6l-39.4-5.4c0-.4,0-.9,0-1.3,0-2.8-.9-5.4-2.5-7.5l5.3-4.5c.8.9,2,1.5,3.3,1.5,2.5,0,4.5-2,4.5-4.5s-2-4.5-4.5-4.5-4.5,2-4.5,4.5.3,1.8.8,2.5l-5.3,4.4c-1.6-1.9-3.7-3.4-6.2-4.1l21-80.6c.1,0,.3,0,.4,0,1.4,0,2.7-.5,3.7-1.4l16.7,14.6c-1,1.2-1.6,2.8-1.6,4.5,0,3.3,2.2,6,5.2,6.9l-4.1,16.2c-.2,0-.5,0-.7,0-2,0-3.6,1.6-3.6,3.6s1.6,3.6,3.6,3.6,3.6-1.6,3.6-3.6-.9-2.8-2.3-3.3l4.1-16.3c.5,0,.9.1,1.4.1,2.5,0,4.8-1.3,6.1-3.3l25.5,14.4c-.1.4-.2.7-.2,1.1,0,1.6,1.3,3,3,3s3-1.3,3-3-1.3-3-3-3-1.9.5-2.5,1.3l-25.5-14.4c.5-1,.8-2.1.8-3.3,0-4-3.2-7.2-7.2-7.2s-3.9.9-5.2,2.2l-16.6-14.6c.7-.7,1.2-1.7,1.4-2.7l118,13.2c0,.1,0,.2,0,.4,0,3.1,2.5,5.7,5.7,5.7s3.5-.9,4.5-2.2l22.1,15.2c-.8,1.2-1.2,2.7-1.2,4.3,0,4.5,3.7,8.2,8.2,8.2s6.7-2.4,7.8-5.6l20.4,4.9c0,.1,0,.2,0,.4,0,1.6,1.3,2.9,2.9,2.9s2.9-1.3,2.9-2.9-1.3-2.9-2.9-2.9-2.3.8-2.7,1.9l-20.4-4.9c.2-.6.2-1.3.2-1.9,0-4.5-3.7-8.2-8.2-8.2s-5.1,1.3-6.6,3.4l-22.1-15.2c.5-.9.8-1.8.8-2.9s-.2-1.8-.7-2.6l58.1-34.6c.8.9,1.8,1.5,2.9,1.8l-2.3,13.2c-1.5,0-2.7,1.3-2.7,2.8s1.2,2.8,2.8,2.8,2.8-1.2,2.8-2.8-1-2.5-2.2-2.7l2.3-13.2c.2,0,.5,0,.7,0,1.3,0,2.5-.5,3.4-1.2l35.1,55.8c-1.7,1.3-2.8,3.3-2.8,5.6,0,3.8,3.1,6.9,6.9,6.9s6.9-3.1,6.9-6.9-3.1-6.9-6.9-6.9-2.5.4-3.6,1l-35.1-55.8c.7-.6,1.2-1.4,1.4-2.3l46.6,14.1c-.1.5-.2,1-.2,1.6,0,3.6,2.9,6.5,6.5,6.5s4-1,5.1-2.6l27.2,21.2c-.3.4-.4.9-.4,1.5,0,1.4,1.2,2.6,2.6,2.6s2.6-1.2,2.6-2.6-1.2-2.6-2.6-2.6-1.3.3-1.8.7l-27.2-21.2c.6-1,1-2.1,1-3.4,0-3.6-2.9-6.5-6.5-6.5s-5.2,1.8-6.1,4.3l-46.6-14.1c0-.4.1-.8.1-1.2,0-2.4-1.5-4.5-3.6-5.3l19.5-57.5c.9.3,1.8.4,2.8.4s2.5-.2,3.6-.7l7.9,18.1c-1.6,1-2.7,2.7-2.7,4.7,0,3,2.5,5.5,5.5,5.5s5.5-2.5,5.5-5.5-2.5-5.5-5.5-5.5-1.6.2-2.3.5l-7.9-18c2.1-1,3.8-2.8,4.8-4.9l46,19.1c-.3.9-.6,1.9-.6,3,0,3.4,2,6.2,4.9,7.5l-5.2,13.2c-.5-.1-1-.2-1.5-.2-3,0-5.5,2.5-5.5,5.5s2.5,5.5,5.5,5.5,5.5-2.5,5.5-5.5-1.4-4.2-3.3-5.1l5.2-13.2c.9.3,1.8.5,2.8.5,2.2,0,4.2-.8,5.6-2.2l31,29.2c-.7.8-1.1,1.9-1.1,3,0,2,1.3,3.8,3.2,4.4l-2.6,17.9c0,0-.1,0-.2,0-1.7,0-3.2,1.4-3.2,3.1s1.4,3.1,3.2,3.1,3.2-1.4,3.2-3.1-1-2.7-2.3-3l2.5-17.9c.2,0,.5,0,.8,0,2.5,0,4.6-2.1,4.6-4.6s-2.1-4.6-4.6-4.6-2.2.4-3,1.1l-31-29.2c1.4-1.5,2.2-3.5,2.2-5.6s0-1-.2-1.5l31.1-7c.8,2.7,3.3,4.7,6.3,4.7s3.7-.9,5-2.3l27.1,20.7c-.6.8-1,1.8-1,2.9,0,2.7,2.2,4.9,4.9,4.9s4.9-2.2,4.9-4.9-2.2-4.9-4.9-4.9-2.6.6-3.5,1.5l-27.1-20.7c.8-1.1,1.2-2.4,1.2-3.8,0-3.3-2.5-6.1-5.7-6.5l1.2-30.2c1.8-.3,3.1-1.6,3.4-3.4l58.4,2.4h0c0,3.9,3.1,7,6.9,7s6.9-3.1,6.9-6.9-3.1-6.9-6.9-6.9" fill="#646363"/>
          <path d="M407.2,420.8c7.7,0,13.9-6.2,13.9-13.9s-6.2-13.9-13.9-13.9-13.9,6.2-13.9,13.9,6.2,13.9,13.9,13.9" fill="#fff"/>
          <path d="M407.2,420.8c7.7,0,13.9-6.2,13.9-13.9s-6.2-13.9-13.9-13.9-13.9,6.2-13.9,13.9,6.2,13.9,13.9,13.9Z" fill="none" stroke="#646363" stroke-width=".6"/>
          <g opacity=".7">
            <g clip-path="url(#clippath-2)">
              <path d="M407.2,422.9c8.8,0,16-7.2,16-16s-7.2-16-16-16-16,7.2-16,16,7.2,16,16,16" fill="#fff"/>
            </g>
          </g>
          <path d="M407.2,423c8.9,0,16.1-7.2,16.1-16.1s-7.2-16.1-16.1-16.1-16.1,7.2-16.1,16.1,7.2,16.1,16.1,16.1Z" fill="none" stroke="#646363" stroke-width=".6"/>
          <path d="M399.6,398.8c.4,0,.7,0,1,.3h0c-.3.3-.5.7-.6,1.1h0c-.1,0-.3-.1-.4-.1-.4,0-.8.3-.8.8s.1.4.4.7l1.9,1.8h0l1.9-1.8c.2-.2.4-.5.4-.7,0-.4-.4-.8-.8-.8s-.8.4-.8.8v.4l-.6.6-.6-.6v-.4c0-1.1.9-2.1,2.1-2.1h0c1.3,0,2.4,1.3,2,2.6-.1.4-.4.8-.7,1.1h0s-2.6,2.5-2.6,2.5c0,0,0,0,0,0s0,0,0,0l-2.6-2.5h0c-.5-.5-.8-1.1-.8-1.7,0-1.2,1-2.1,2.1-2.1" fill="#e7392c"/>
          <path d="M415,398.8h-10.5c.1.1.2.2.3.3.2.3.4.6.5.9h9.8c.4,0,.7.3.7.7v12.2c0,.4-.3.7-.7.7h-15.6c-.4,0-.7-.3-.7-.7v-9l-.9-.9h0c-.1-.1-.2-.2-.3-.3v10.2c0,1.1.9,2,2,2h15.6c1.1,0,2-.9,2-2v-12.2c0-1.1-.9-2-2-2" fill="#646363"/>
          <path d="M407.8,407.3h0c-.4,0-.6-.4-.6-.8s.4-.9.8-.8h0c.8,0,3,.7,3,.7.4,0,.6.4.6.8s-.3.8-.8.8h0c0,0-.1,0-.1,0l-2.9-.6h0ZM413,407.2c0-1.1-.8-1.9-1.9-2.1l-3.2-.7h0c-.4,0-.6-.4-.6-.8s.4-.8.8-.8,0,0,.1,0l4.3.9.3-1.3s-4.1-1-4.7-1c-1.2,0-2.1,1-2.1,2.1s.2,1,.5,1.4c-.4.4-.7.9-.7,1.5,0,1.1.8,2,1.9,2.1l3.2.7h0c.4,0,.6.4.6.8s-.3.8-.8.8h-.1s0,0-.1,0c-.8-.2-4.2-.9-4.2-.9l-.3,1.3s4.1,1,4.7,1c1.2,0,2.1-1,2.1-2.1s-.2-1-.5-1.4c.4-.4.7-.9.7-1.5" fill="#646363"/>
          <circle cx="407.3" cy="406.9" r="14" fill="none" stroke="#646363" stroke-miterlimit="4" stroke-width=".6"/>
          <path d="M490.7,399.3c7.7,0,13.9-6.2,13.9-13.9s-6.2-13.9-13.9-13.9-13.9,6.2-13.9,13.9,6.2,13.9,13.9,13.9" fill="#fff"/>
          <path d="M490.7,399.3c7.7,0,13.9-6.2,13.9-13.9s-6.2-13.9-13.9-13.9-13.9,6.2-13.9,13.9,6.2,13.9,13.9,13.9Z" fill="none" stroke="#646363" stroke-width=".6"/>
          <g opacity=".7">
            <g clip-path="url(#clippath-3)">
              <path d="M490.7,401.4c8.8,0,16-7.2,16-16s-7.2-16-16-16-16,7.2-16,16,7.2,16,16,16" fill="#fff"/>
            </g>
          </g>
          <path d="M491,399.3c7.7,0,13.9-6.2,13.9-13.9s-6.2-13.9-13.9-13.9-13.9,6.2-13.9,13.9,6.2,13.9,13.9,13.9" fill="#fff"/>
          <path d="M491,399.3c7.7,0,13.9-6.2,13.9-13.9s-6.2-13.9-13.9-13.9-13.9,6.2-13.9,13.9,6.2,13.9,13.9,13.9Z" fill="none" stroke="#646363" stroke-width=".6"/>
          <circle cx="491" cy="385.4" r="16.1" fill="none" stroke="#646363" stroke-miterlimit="4" stroke-width=".6"/>
          <path d="M498.8,377h-10.5c.1.1.2.2.3.3.2.3.4.6.5.9h9.8c.4,0,.7.3.7.7v12.2c0,.4-.3.7-.7.7h-15.6c-.4,0-.7-.3-.7-.7v-9l-.9-.9h0c-.1-.1-.2-.2-.3-.3v10.2c0,1.1.9,2,2,2h15.6c1.1,0,2-.9,2-2v-12.2c0-1.1-.9-2-2-2" fill="#646363"/>
          <path d="M483.3,377c.4,0,.7,0,1,.3h0c-.3.3-.5.7-.6,1.1h0c-.1,0-.3-.1-.4-.1-.4,0-.8.3-.8.8s.1.4.4.7l1.9,1.8h0l1.9-1.8c.2-.2.4-.5.4-.7,0-.4-.4-.8-.8-.8s-.8.4-.8.8v.4l-.6.6-.6-.6v-.4c0-1.1.9-2.1,2.1-2.1h0c1.3,0,2.4,1.3,2,2.6-.1.4-.4.8-.7,1.1h0s-2.6,2.5-2.6,2.5c0,0,0,0,0,0s0,0,0,0l-2.6-2.5h0c-.5-.5-.8-1.1-.8-1.7,0-1.2,1-2.1,2.1-2.1" fill="#e7392c"/>
        </g>
      </g>
      <rect x="485.2" y="384.8" width="1.7" height="1.3" fill="#646363"/>
      <rect x="487.7" y="384.8" width="1.7" height="1.3" fill="#646363"/>
      <rect x="485.2" y="386.7" width="1.7" height="1.3" fill="#646363"/>
      <rect x="487.7" y="386.7" width="1.7" height="1.3" fill="#646363"/>
      <rect x="485.2" y="388.6" width="1.7" height="1.3" fill="#646363"/>
      <rect x="487.7" y="388.6" width="1.7" height="1.3" fill="#646363"/>
      <g clip-path="url(#clippath-4)">
        <g>
          <path d="M490.2,386.1h1.7v-1.3h-1.7v1.3Z" fill="#646363"/>
          <path d="M490.2,388h1.7v-1.3h-1.7v1.3Z" fill="#646363"/>
          <path d="M490.2,389.9h1.7v-1.3h-1.7v1.3Z" fill="#646363"/>
          <path d="M487.2,382.1h9.5c.4,0,.6-.4.6-.7s-.3-.7-.7-.7h-8c.3-.4.5-.8.5-1.3h7.6c1,0,1.8.9,1.8,2s-.8,1.9-1.8,2h-11l1.4-1.3h0Z" fill="#646363"/>
          <path d="M492.7,386.1h1.7v-1.3h-1.7v1.3Z" fill="#646363"/>
          <path d="M492.7,388h1.7v-1.3h-1.7v1.3Z" fill="#646363"/>
          <path d="M492.7,389.9h1.7v-1.3h-1.7v1.3Z" fill="#646363"/>
        </g>
      </g>
      <rect x="495.2" y="384.8" width="1.7" height="1.3" fill="#646363"/>
      <rect x="495.2" y="386.7" width="1.7" height="1.3" fill="#646363"/>
      <rect x="495.2" y="388.6" width="1.7" height="1.3" fill="#646363"/>
      <g clip-path="url(#clippath-5)">
        <g>
          <circle cx="490.8" cy="385.4" r="14" fill="none" stroke="#646363" stroke-miterlimit="4" stroke-width=".6"/>
          <path d="M604.3,393.2c7.7,0,13.9-6.2,13.9-13.9s-6.2-13.9-13.9-13.9-13.9,6.2-13.9,13.9,6.2,13.9,13.9,13.9" fill="#fff"/>
          <path d="M604.3,393.2c7.7,0,13.9-6.2,13.9-13.9s-6.2-13.9-13.9-13.9-13.9,6.2-13.9,13.9,6.2,13.9,13.9,13.9Z" fill="none" stroke="#646363" stroke-width=".6"/>
          <circle cx="604.2" cy="379.3" r="16.1" transform="translate(-77.1 167.8) rotate(-14.9)" fill="none" stroke="#646363" stroke-miterlimit="4" stroke-width=".6"/>
          <path d="M604,393.2c7.7,0,13.9-6.2,13.9-13.9s-6.2-13.9-13.9-13.9-13.9,6.2-13.9,13.9,6.2,13.9,13.9,13.9" fill="#fff"/>
          <path d="M604,393.2c7.7,0,13.9-6.2,13.9-13.9s-6.2-13.9-13.9-13.9-13.9,6.2-13.9,13.9,6.2,13.9,13.9,13.9Z" fill="none" stroke="#646363" stroke-width=".6"/>
          <g opacity=".7">
            <g clip-path="url(#clippath-6)">
              <path d="M604,395.3c8.8,0,16-7.2,16-16s-7.2-16-16-16-16,7.2-16,16,7.2,16,16,16" fill="#fff"/>
            </g>
          </g>
          <circle cx="604.2" cy="379.3" r="16.1" transform="translate(-77.1 167.8) rotate(-14.9)" fill="none" stroke="#646363" stroke-miterlimit="4" stroke-width=".6"/>
          <circle cx="604" cy="379.3" r="14" fill="none" stroke="#646363" stroke-miterlimit="4" stroke-width=".6"/>
          <path d="M612.1,371.5h-4.3c.1.1.2.2.3.3.2.3.4.6.5.9h3.5c.4,0,.7.3.7.7v12.2c0,.4-.3.7-.7.7h-15.6c-.4,0-.7-.3-.7-.7v-12.2c0-.4.3-.7.7-.7h3.6c.1-.5.4-.9.7-1.2,0,0,0,0,0,0h-4.3c-1.1,0-2,.9-2,2v12.2c0,1.1.9,2,2,2h15.6c1.1,0,2-.9,2-2v-12.2c0-1.1-.9-2-2-2" fill="#646363"/>
          <path d="M602.8,371.5c.3,0,.7,0,1,.3h0c-.3.3-.5.7-.6,1.1h0c-.1,0-.3-.1-.4-.1-.4,0-.8.3-.8.8s.1.4.4.7l1.9,1.8h0l1.9-1.8c.2-.2.4-.5.4-.7,0-.4-.4-.8-.8-.8s-.8.4-.8.8v.4l-.7.6-.6-.6v-.4c0-1.1.9-2.1,2.1-2.1h0c1.3,0,2.3,1.3,2,2.6-.1.4-.3.8-.7,1.1h0s-2.6,2.5-2.6,2.5c0,0,0,0,0,0s0,0,0,0l-2.6-2.5h0c-.5-.5-.8-1.1-.8-1.7,0-1.2,1-2.1,2.1-2.1" fill="#e7392c"/>
          <path d="M611.7,384.4v2h-2.9v-2.1h0s.2,0,.2,0c.3.2.7.4,1.2.4s.8-.1,1.2-.4h.3s0,0,0,0ZM608.8,384.4h0M610.2,382.2c.4,0,.7.3.7.7s-.3.7-.7.7-.7-.3-.7-.7.3-.7.7-.7M605,382.9c0,.4-.3.7-.7.7s-.7-.3-.7-.7.3-.7.7-.7.7.3.7.7M605.7,384.4h0M605.7,386.5h-2.9v-2h0s.3,0,.3,0c.3.2.7.4,1.2.4s.8-.1,1.2-.4h.2v2.1h0ZM599,382.9c0,.4-.3.7-.7.7s-.7-.3-.7-.7.3-.7.7-.7.7.3.7.7M599.7,384.4h0M599.7,386.5h-2.9v-2h0s.3,0,.3,0c.3.2.7.4,1.2.4s.8-.1,1.2-.4h.2v2.1h0ZM612.9,387.1v-2.6c0-.1,0-.5-.3-.9-.2-.2-.3-.3-.5-.4,0-.1,0-.2,0-.4,0-.9-.6-1.6-1.3-1.8v-.6h0c0-.9-.8-1.7-1.7-1.7h-.4v-.9c0-.8-.6-1.5-1.4-1.7l-1.3,1.2h.9c.2,0,.5.2.5.4h0c0,0,0,0,0,1h-6.4c0-1,0-.9,0-.9h0c0-.3.2-.5.5-.5h1l-1.3-1.2c-.8.1-1.4.9-1.4,1.7v.9h-.3c-.9,0-1.7.8-1.7,1.7h0v.6c-.8.2-1.3,1-1.3,1.8s0,.2,0,.4c-.2,0-.4.2-.5.4-.3.4-.3.7-.3.9v2.5l2.7.6h2.7v-3.1c0-.1,0-.5-.3-.9-.1-.2-.3-.3-.5-.3,0-.1,0-.3,0-.4,0-.8-.5-1.5-1.2-1.8v-.6c0-.3.2-.5.5-.5h4.2v1.1c-.7.3-1.3,1-1.3,1.8s0,.2,0,.4c-.2,0-.4.2-.5.4-.3.4-.3.7-.3.9v3.1h5.3v-3.1c0-.1,0-.5-.3-.9-.1-.2-.3-.3-.5-.3,0-.1,0-.3,0-.4,0-.9-.6-1.6-1.3-1.8v-1.1h4.2c.3,0,.5.2.5.5v.6c-.7.3-1.2,1-1.2,1.8s0,.3,0,.4c-.2,0-.3.2-.5.3-.3.4-.3.7-.3.9v3.1h2.7l2.7-.5h0Z" fill="#646363"/>
          <path d="M537,448.7c16.4,0,29.7-13.3,29.7-29.7s-13.3-29.7-29.7-29.7-29.7,13.3-29.7,29.7,13.3,29.7,29.7,29.7" fill="#fff"/>
          <circle cx="537" cy="419" r="29.7" transform="translate(-101.7 655.5) rotate(-58.3)" fill="none" stroke="#646363" stroke-miterlimit="4" stroke-width="1.3"/>
          <path d="M537,443c13.2,0,23.9-10.7,23.9-23.9s-10.7-23.9-23.9-23.9-23.9,10.7-23.9,23.9,10.7,23.9,23.9,23.9" fill="#e7392c"/>
          <path d="M544.5,404.7c-6,0-10.8,4.8-10.8,10.8v2.3l3.3,3.1,3.3-3.1v-2.2c0-2.3,1.9-4.1,4.2-4.1s4.2,1.8,4.2,4.1c0,1.1-1,2.6-2,3.6l-9.7,9.1h0l-9.7-9.1c-1.4-1.4-2-2.5-2-3.6,0-3.1,3.6-5.1,6.3-3.5h0c.6-2.2,1.8-4.1,3.3-5.7h0c-7.1-4.2-16.4,1-16.3,9.3,0,3,1.5,5.9,4.3,8.6h0s13.6,12.8,13.6,12.8c.3.2.7.2.9,0l13.7-12.8.2-.2c1.9-1.9,3.2-3.8,3.7-5.8,1.8-6.6-3.6-13.4-10.5-13.3" fill="#fff"/>
          <path d="M460.8,481.6c.2,0,.4,0,.6.2h0c-.2.2-.3.4-.4.6h0c0,0-.1,0-.2,0-.2,0-.5.2-.5.4,0,.1,0,.2.2.4l1,1h0l1-1c.1-.1.2-.3.2-.4,0-.2-.2-.4-.5-.4s-.5.2-.5.4v.2l-.4.3-.4-.3v-.2c0-.6.5-1.2,1.2-1.2h0c.7,0,1.3.7,1.1,1.4,0,.2-.2.4-.4.6h0s-1.5,1.4-1.5,1.4c0,0,0,0,0,0s0,0,0,0l-1.5-1.4h0c-.3-.3-.5-.6-.5-.9,0-.7.6-1.2,1.2-1.2" fill="#e7392c"/>
          <path d="M467.8,484.8h-5.3l-.6.6c0,0-.1.1-.2.1h6.1v-.7h0Z" fill="#fff"/>
          <path d="M467.8,483.4h-4c-.1.2-.2.4-.4.6h0s-.1.1-.1.1h4.5v-.7h0Z" fill="#fff"/>
          <path d="M463.9,482.3h4.4c.2,0,.4.2.4.4v3.2c.3,0,.5.2.7.4v-3.5c0-.6-.5-1.1-1.1-1.1h-4.8c0,0,.1.1.2.2.1.2.2.3.3.5" fill="#fff"/>
          <path d="M466.3,489.9h-5.6c-.2,0-.4-.2-.4-.4v-5l-.5-.5h0c0,0,0-.1-.1-.1v5.7c0,.6.5,1.1,1.1,1.1h7.1c-.6,0-1.1-.3-1.5-.7" fill="#fff"/>
          <path d="M465.8,486.2h-4.6v.7h4.1c.1-.3.3-.5.5-.7" fill="#fff"/>
          <path d="M468,486.4c-1,0-1.8.8-1.8,1.8s.8,1.8,1.8,1.8,1.8-.8,1.8-1.8-.8-1.8-1.8-1.8M468,490.6c-1.4,0-2.5-1.1-2.5-2.5s1.1-2.5,2.5-2.5,2.5,1.1,2.5,2.5-1.1,2.5-2.5,2.5" fill="#fff"/>
          <path d="M468.4,488.6c0,.1,0,.2,0,.2,0,0-.1,0-.2,0s-.2,0-.3-.2c0,0,0-.1,0-.2h.4v-.2c0,0-.4,0-.4,0h0v-.2h.5v-.2c0,0-.5,0-.5,0,0,0,0,0,0-.1,0-.1,0-.2.1-.2s.1,0,.2,0,.1,0,.2,0c0,0,0,.1,0,.2l.5-.2c0-.2-.1-.3-.3-.4-.1,0-.3-.1-.5-.1s-.4,0-.5.1-.3.2-.3.4c0,.1,0,.2,0,.4h-.3v.2h.3v.2h-.3v.2h.3c0,.1,0,.2,0,.3,0,.2.2.3.3.4.1.1.3.1.5.1s.3,0,.4,0,.2-.1.3-.2.1-.2.1-.4h-.5c0-.1,0-.1,0-.1Z" fill="#fff"/>
          <path d="M573.8,439.7h-5.9c0,0,.1.1.2.2.1.2.2.3.3.5h5.4c.2,0,.4.2.4.4v6.8c0,.2-.2.4-.4.4h-8.7c-.2,0-.4-.2-.4-.4v-5l-.5-.5h0c0,0-.1-.1-.2-.2v5.6c0,.6.5,1.1,1.1,1.1h8.7c.6,0,1.1-.5,1.1-1.1v-6.8c0-.6-.5-1.1-1.1-1.1" fill="#fff"/>
          <path d="M565.2,439.7c.2,0,.4,0,.6.2h0c-.2.2-.3.4-.4.6q0,.2,0,0h0c0,0-.2,0-.2,0-.2,0-.5.2-.5.4s0,.2.2.4l1,1h0l1-1c.1-.1.2-.3.2-.4,0-.2-.2-.4-.5-.4s-.5.2-.5.4v.2l-.4.3-.4-.3v-.2c0-.6.5-1.2,1.2-1.2h0c.7,0,1.3.7,1.1,1.4,0,.2-.2.4-.4.6h0s-1.5,1.4-1.5,1.4c0,0,0,0,0,0s0,0,0,0l-1.5-1.4h0c-.3-.3-.5-.6-.5-.9,0-.7.6-1.2,1.2-1.2" fill="#e7392c"/>
          <path d="M566.3,444.7c.3,0,.6.2.9.2-.1.5-.2,1-.2,1.5h-1.3c0-.6.3-1.2.6-1.8M567.9,443.4c-.2.3-.3.5-.5.9-.2,0-.4,0-.6-.1.3-.3.7-.5,1.1-.7M569.1,445.1v1.3h-1.4c0-.5,0-1,.2-1.4.4,0,.8,0,1.2.1M569.1,443.1v1.3c-.3,0-.6,0-1,0,.3-.6.6-1,1-1.2M569.8,445.1c.4,0,.8,0,1.2-.1.1.4.2.9.2,1.4h-1.4v-1.3ZM569.8,443.1c.3.2.7.6,1,1.2-.3,0-.6,0-1,0v-1.3h0ZM572.1,444.1c-.2,0-.4.1-.6.1-.1-.3-.3-.6-.5-.9.4.2.8.4,1.1.7M573.3,446.5h-1.3c0-.5,0-1.1-.2-1.5.3,0,.6-.1.9-.2.3.5.6,1.1.6,1.8M566.1,448.5c-.2-.4-.3-.9-.4-1.4h1.3c0,.5,0,.9.2,1.4h.7c0-.4-.2-.9-.2-1.4h1.4v1.3c-.4,0-.8,0-1.2.1h3.1c-.4,0-.8,0-1.2-.1v-1.3h1.4c0,.5,0,1-.2,1.4h.7c0-.4.2-.9.2-1.4h1.3c0,.5-.2,1-.4,1.4h.8c.2-.5.3-1.1.3-1.7,0-2.5-2-4.5-4.5-4.5s-4.5,2-4.5,4.5.1,1.2.3,1.7h.8Z" fill="#fff"/>
          <path d="M646.4,445c-.5,0-.9.4-.9.9v.2l.3.3.3-.3v-.2c0-.2.2-.4.4-.4s.4.2.4.4,0,.2-.2.3l-.8.8h0l-.8-.8c-.1-.1-.2-.2-.2-.3,0-.3.3-.4.5-.3h0c0-.2.2-.4.3-.5h0c-.6-.4-1.4,0-1.4.8s.1.5.4.7h0l1.2,1.1s0,0,0,0l1.2-1.1h0c.2-.2.3-.4.3-.5.2-.6-.3-1.2-.9-1.1" fill="#e7392c"/>
          <path d="M643.4,447.9h0v1.3h-1.4v-.4h0v-.9h0s0,0,0,0h0c.2.1.3.1.5.1s.4,0,.5-.1h0s0,0,0,0h0s0,0,0,0ZM642.8,446.4c.3,0,.5.2.5.5s-.2.5-.5.5-.5-.2-.5-.5.2-.5.5-.5M643.7,447.3c0-.1,0-.3,0-.4,0-.6-.5-1.1-1.1-1.1s-1,.5-1,1.1,0,.3,0,.4c-.2.1-.3.3-.3.5h0v1.9h2.5v-1.8h0c0-.3-.1-.5-.3-.6" fill="#fff"/>
          <path d="M649.6,444.6h0v1.3h-1.4v-.4h0v-.9h0s0,0,0,0h0c.2.1.3.1.5.1s.4,0,.5-.1h0s0,0,0,0h0s0,0,0,0ZM649,443.1c.3,0,.5.2.5.5s-.2.5-.5.5-.5-.2-.5-.5.2-.5.5-.5M649.9,444c0-.1,0-.3,0-.4,0-.6-.5-1.1-1.1-1.1s-1,.5-1,1.1,0,.3,0,.4c-.2.1-.3.3-.3.5h0v1.9h2.5v-1.8h0c0-.3-.1-.5-.3-.6" fill="#fff"/>
          <path d="M650.2,448h0l-1.2-1.1s0,0,0,0l-1.2,1.1h0,1v.8h0c0,.2-.2.4-.4.4h-4v.6h4c.5,0,.9-.4.9-.9h0v-.8h.9Z" fill="#fff"/>
          <path d="M647.6,443.1c0-.2.3-.4.5-.6h-4.7c-.5,0-.9.4-.9.9h0v.8h-.9l1.2,1.1s0,0,0,0l1.2-1.1h0-.9v-.8h0c0-.2.2-.4.4-.4h4.2,0Z" fill="#fff"/>
        </g>
      </g>
      <g>
        <path d="M102.7,271.9c2.9,0,5-2.4,5.1-8.7,0-.5.3-.7.7-.7h3.6c.4,0,.7,0,.7.7,0,5.7-2.2,9.2-4.6,10.6,3.2,2.2,2.4,7.1,5.6,7.1h.5c.3,0,.4.1.4.7v2.6c0,.4-.2.6-.7.7-.4.1-1,.2-1.9.2-7.1,0-5-9-9.6-9h-1.7v8.1c0,.5-.3.7-.7.7h-3.7c-.5,0-.7-.3-.7-.7v-20.9c0-.5.3-.7.7-.7h3.7c.4,0,.7.3.7.7v8.7h1.8Z" fill="#fff"/>
        <path d="M123.1,283.9c0,.5-.3,1.1-2.1,1.1-2.6,0-4-1.4-4-4.4v-18.3c0-.5.2-.8.7-.8h3.4c.5,0,.7.3.7.8v17.4c0,.7.2,1.1.5,1.2.3.2.7.2.7.8v2.1h0Z" fill="#fff"/>
        <path d="M128.2,266.7c-1.7,0-2.9-1.1-2.9-2.8s1.3-2.9,2.9-2.9,3,1.2,3,2.9-1.3,2.8-3,2.8ZM131.9,283.9c0,.5-.3,1.1-2.1,1.1-2.6,0-4-1.4-4-4.4v-10.5c0-.5.2-.8.7-.8h3.4c.5,0,.7.3.7.8v9.6c0,1.1.5,1.3.9,1.3.3,0,.4.2.4.7v2.1h0Z" fill="#fff"/>
        <path d="M138.9,277.8h0c0,2.5,2.4,3.2,3.5,3.2,1.6,0,2.7-.9,3.3-1.5.2-.2.4-.4.8,0l1.7,1.8c.3.3.2.5.1.7-.7,1-2.7,3-6.5,3s-7.6-3-7.6-7.9,2.4-7.9,7.6-7.9,6.6,2.9,6.6,7.4-.2,1.3-.8,1.3h-8.6ZM143.6,275.3c0-1.5-.8-2.4-2.2-2.4s-2.1.7-2.4,2.4h4.6Z" fill="#fff"/>
        <path d="M151.8,274.4c0-.8-.3-1.1-.7-1.2-.3-.1-.6-.2-.6-.8v-2.1c0-.5.3-1.1,2.1-1.1s2.9.7,3.3,2.1v.2c.4-1.1,1.6-2.4,4.4-2.4s5.5,2.8,5.5,6.1v4.4c0,.8.3,1.1.6,1.2.3.1.6.2.6.8v2.1c0,.5-.3,1.1-2.1,1.1-2.6,0-4-1.4-4-4.4v-4.7c0-1.5-.8-2.4-2.1-2.4s-2.3,1.4-2.3,2.5v8.1c0,.5-.3.7-.7.7h-3.4c-.5,0-.7-.3-.7-.8v-9.6h0Z" fill="#fff"/>
        <path d="M179.9,269.4c.5,0,.7.3.7.7v2.3c0,.5-.3.7-.7.7h-4.3v4.5c0,2.1.7,3.1,2.3,3.1s1.4-.3,1.7-.5c.2-.1.5-.2.7.2l1,2.4c.2.5,0,.8-.2,1-.7.5-2,1.2-3.7,1.2-4.8,0-6.6-2.6-6.6-7.2v-4.6h-1.6c-.4,0-.7-.3-.7-.7v-2.3c0-.5.3-.7.7-.7h1.6v-4.1c0-.5.2-.8.7-.8h3.4c.5,0,.7.3.7.8v4.1h4.3Z" fill="#fff"/>
        <path d="M187.8,277.8h0c0,2.5,2.4,3.2,3.5,3.2,1.6,0,2.7-.9,3.3-1.5.2-.2.4-.4.8,0l1.7,1.8c.3.3.2.5.1.7-.7,1-2.7,3-6.5,3s-7.6-3-7.6-7.9,2.4-7.9,7.6-7.9,6.6,2.9,6.6,7.4-.2,1.3-.8,1.3h-8.6ZM192.5,275.3c0-1.5-.8-2.4-2.2-2.4s-2.1.7-2.4,2.4h4.6Z" fill="#fff"/>
        <path d="M200.7,274.4c0-.8-.3-1.1-.7-1.2-.3-.1-.6-.2-.6-.8v-2.1c0-.5.3-1.1,2.1-1.1s2.9.7,3.3,2.1v.2c.4-1.1,1.6-2.4,4.4-2.4s5.5,2.8,5.5,6.1v4.4c0,.8.3,1.1.6,1.2.3.1.6.2.6.8v2.1c0,.5-.3,1.1-2.1,1.1-2.6,0-4-1.4-4-4.4v-4.7c0-1.5-.8-2.4-2.1-2.4s-2.3,1.4-2.3,2.5v8.1c0,.5-.3.7-.7.7h-3.4c-.5,0-.7-.3-.7-.8v-9.6h0Z" fill="#fff"/>
        <path d="M217.9,270.3c0-.5.3-1.1,2.1-1.1s3,.7,3.4,2.3h0c.4-.8,1.6-2.3,4.5-2.3s6.2,2.4,6.2,7.9-3.4,7.9-6.8,7.9-3.3-1.1-3.4-1.2v8.1c0,.5-.2.7-.7.7h-3.4c-.5,0-.7-.3-.7-.8v-17.4c0-.9-.4-1.1-.8-1.3-.2-.1-.4-.2-.4-.7v-2.1h0ZM224,278.3c0,.8.7,2.4,2.6,2.4s2.8-1.2,2.8-3.6-1.5-3.6-2.8-3.6c-2.1,0-2.6,2.1-2.6,2.3v2.5Z" fill="#fff"/>
        <path d="M236.3,277c0-4.6,2.6-7.9,7.4-7.9s7.3,3.3,7.3,7.9-2.6,7.9-7.3,7.9-7.4-3.3-7.4-7.9ZM246.2,277.1c0-2.2-.7-3.6-2.6-3.6s-2.6,1.4-2.6,3.6.6,3.6,2.6,3.6,2.6-1.4,2.6-3.6Z" fill="#fff"/>
        <path d="M254.3,274.4c0-1.1-.7-1.3-.9-1.3-.3,0-.4-.3-.4-.7v-2.4c0-.6.5-.8,2-.8s3,.8,3.4,2.3v.2c.4-1.1,1.5-2.5,4.5-2.5s1.5.1,2,.4c.4.2.5.4.2,1l-1.4,3.1c-.2.4-.3.4-.6.3-.4-.1-.9-.3-1.8-.3-1.7,0-2.3,1.4-2.3,2.4v8.1c0,.5-.3.7-.7.7h-3.4c-.5,0-.7-.3-.7-.7v-9.6Z" fill="#fff"/>
        <path d="M277.8,269.4c.5,0,.7.3.7.7v2.3c0,.5-.3.7-.7.7h-4.3v4.5c0,2.1.7,3.1,2.3,3.1s1.4-.3,1.7-.5c.2-.1.5-.2.7.2l1,2.4c.2.5,0,.8-.2,1-.7.5-2,1.2-3.7,1.2-4.8,0-6.6-2.6-6.6-7.2v-4.6h-1.6c-.5,0-.7-.3-.7-.7v-2.3c0-.5.3-.7.7-.7h1.6v-4.1c0-.5.2-.8.7-.8h3.4c.5,0,.7.3.7.8v4.1h4.3,0Z" fill="#fff"/>
        <path d="M296,283.8c0,.5-.3,1.1-2.1,1.1s-3.2-.9-3.4-2.3c-.5,1-1.8,2.3-4.7,2.3s-5.1-1.8-5.1-4.2,1.7-4.3,6-4.3h3.1v-1.8c0-1.4-.7-2-2-2s-1.9.6-1.9,1.7.1,1-.7,1h-2.7c-.9,0-1-.8-1-1.8,0-2.6,2.2-4.4,6.5-4.4s6.6,2.2,6.6,5.8v4.8c0,.9.4,1.2.8,1.3.1,0,.5.1.5.7v2.1h0ZM289.9,278.8h-2.6c-1.2,0-1.8.5-1.8,1.3s.7,1.2,1.6,1.2c2.2,0,2.8-1.9,2.8-1.9v-.6h0Z" fill="#fff"/>
        <path d="M304.6,283.9c0,.5-.3,1.1-2.1,1.1-2.6,0-4-1.4-4-4.4v-18.3c0-.5.2-.8.7-.8h3.4c.5,0,.7.3.7.8v17.4c0,.7.2,1.1.5,1.2.3.2.7.2.7.8v2.1h0Z" fill="#fff"/>
      </g>
      <g>
        <path d="M111.3,318.4c0,.3-.2.4-.4.4h-1.5c-.3,0-.4-.1-.4-.4v-8.9h-10.4v8.9c0,.3-.2.4-.4.4h-1.5c-.3,0-.4-.1-.4-.4v-20.2c0-.3.1-.4.4-.4h1.5c.3,0,.4.1.4.4v9.3h10.4v-9.3c0-.3.1-.4.4-.4h1.5c.3,0,.4.1.4.4v20.2Z" fill="#fff"/>
        <path d="M128,318.4c0,.2-.2.5-1,.5-1.3,0-2.2-.7-2.2-2.2v-.5c-.6,1.1-2,2.8-5.1,2.8s-4.6-1.4-4.6-3.7,1.7-3.9,5.6-3.9h3.8v-2.2c0-2.2-1.2-3.1-3.3-3.1s-3.3,1-3.3,2.5,0,.7.2.9c0,.2,0,.3-.4.3h-1.1c-.6,0-.8-.7-.8-1.6,0-2.3,1.9-4.1,5.5-4.1s5.5,1.7,5.5,5.1v6.3c0,.9.2,1.4.9,1.5.2,0,.4.1.4.4v1h0ZM124.5,313h-3.8c-2.1,0-3.3.8-3.3,2.1s1.1,2.1,2.8,2.1c3.4,0,4.3-3.6,4.3-3.6v-.6Z" fill="#fff"/>
        <path d="M131.6,307.5c0-.8-.2-1.3-.9-1.4-.1,0-.3,0-.3-.5v-.8c0-.3.2-.5,1-.5,1.2,0,2.2.8,2.2,2.2v1c.5-1.7,1.9-3.2,4.6-3.2s5.1,2.5,5.1,5.6v5.8c0,.9.2,1.4.9,1.5.1,0,.4.1.4.5v.8c0,.3-.3.5-1.1.5-1.5,0-2.5-.9-2.5-3v-6.1c0-2.1-1-3.7-3.4-3.7s-3.8,2.5-3.8,4.5v7.8c0,.3,0,.4-.4.4h-1.5c-.3,0-.4-.1-.4-.4v-10.9Z" fill="#fff"/>
        <path d="M160.9,318.4c0,.3-.4.5-1,.5-1.2,0-2.2-.7-2.2-2.2v-.5c-.2.3-1.2,2.8-4.7,2.8s-5.8-2.2-5.8-7.4,2.9-7.5,6-7.5,4.2,2,4.3,2.2v-8.9c0-.3.1-.4.4-.4h1.4c.3,0,.4.1.4.4v18.1c0,1,.2,1.5.9,1.6.1,0,.4,0,.4.4v1h0ZM157.4,309.1c0-.4-1-3-4-3s-4.1,1.8-4.1,5.5,1.9,5.5,4.1,5.5c3.3,0,3.9-3.4,4-3.5v-4.5h0Z" fill="#fff"/>
        <path d="M164.8,318.8c-.3,0-.4-.1-.4-.4v-20.9c0-.3.1-.4.4-.4h1.4c.3,0,.4.1.4.4v9.3s1.1-2.6,4.5-2.6,5.8,2.1,5.8,7.3-2.8,7.5-5.9,7.5-4.4-2.2-4.6-2.5v1.9c0,.3-.1.4-.4.4h-1.2ZM166.6,313.9c0,.4.8,3.2,3.9,3.2s4.1-1.8,4.1-5.6-2-5.4-4.1-5.4c-3.1,0-3.9,3.3-3.9,3.3v4.5Z" fill="#fff"/>
        <path d="M193.3,318.4c0,.3-.2.5-1.1.5-1.5,0-2.2-.8-2.2-2.4v-.4c-.7,1.5-2.2,2.8-5,2.8s-4.6-1.7-4.6-5.1v-9.1c0-.3.1-.4.4-.4h1.4c.3,0,.4.1.4.4v8.8c0,2.6,1.3,3.5,3,3.5,2.8,0,4-2.9,4-4.2v-8.1c0-.3.1-.4.4-.4h1.5c.3,0,.4.1.4.4v10.9c0,.7.1,1.3.9,1.5.2,0,.4.1.4.5v.8h0Z" fill="#fff"/>
        <path d="M202.5,304.1c3.4,0,5.2,1.9,5.2,4.4s0,1.6-.7,1.6h-.8c-.5,0-.7-.1-.7-.4s0-.5,0-.8c0-1.7-1.1-2.8-3.1-2.8s-4.2,1.6-4.2,5.5,2.6,5.5,4.5,5.5,3-1,3.5-1.6c.2-.2.4-.4.6-.2l.7.7c.2.2.2.5,0,.6-.5.7-2.1,2.4-5.2,2.4s-6.4-2-6.4-7.4,2.5-7.4,6.4-7.4h0Z" fill="#fff"/>
        <path d="M211.4,297.4c0-.3.1-.4.4-.4h1.4c.3,0,.4.1.4.4v9.7c.5-1.6,2-3,4.4-3,3.7,0,5.1,2.5,5.1,5.6v5.8c0,.9.2,1.4.8,1.5.1,0,.4,0,.4.4v1c0,.3-.3.4-1,.4-1.5,0-2.5-.9-2.5-3v-6.2c0-2-1.1-3.6-3.4-3.6s-3.8,2.5-3.8,4.4v7.9c0,.3-.1.4-.4.4h-1.4c-.3,0-.4-.1-.4-.4v-20.9h0Z" fill="#fff"/>
      </g>
    </g>
  </g>
</svg>