<?xml version="1.0" encoding="utf-8"?>
<!-- Generator: Adobe Illustrator 26.5.0, SVG Export Plug-In . SVG Version: 6.00 Build 0)  -->
<svg version="1.1" id="Ebene_1" xmlns="http://www.w3.org/2000/svg" xmlns:xlink="http://www.w3.org/1999/xlink" x="0px" y="0px"
	 viewBox="0 0 992.1 566.9" style="enable-background:new 0 0 992.1 566.9;" xml:space="preserve">
<style type="text/css">
	.st0{fill:#1D1E1C;}
	.st1{fill:#E5372C;}
</style>
<g>
	<g>
		<path class="st0" d="M524,514.4h44.2v-11.1h-30.1v-13.4h25.8v-10.7h-25.8V469h27.6v-10.9H524L524,514.4L524,514.4z M476.2,468.5
			h11.7c2.5,0,8.4,0.2,8.4,7.5c0,1.8-0.4,7.8-8.5,7.8h-11.7L476.2,468.5L476.2,468.5z M462,458v56.4h14.2v-20.1h8.8l11.3,20.1h15.5
			l-13-22.5c6.2-2.2,11.6-6,11.6-15.6c0-16.1-13.3-18.3-21.6-18.3H462z M433.4,495.2h-14.3l6.9-23.8L433.4,495.2z M454.4,514.4
			L433.6,458h-14.7L398,514.4h15l2.8-9h20.8l2.8,9H454.4z M399.2,458h-14.1l-8.2,38.8L366.4,458h-12.5l-10.2,38.8l-8.3-38.8h-14.1
			l14.3,56.4h14.5l10.2-36.1l10.1,36.1h14.5L399.2,458z M318.4,469.1V458h-43.5v11.1h14.7v45.3h14.2v-45.3H318.4z M227.8,458v56.4
			h14.1v-22.8h26.9v-10.9h-26.9v-11.8h29.2V458H227.8z M174.4,485.8c0-7.6,3.3-17.7,14-17.7c10,0,14.5,8.1,14.5,18.4
			c0,7.9-3.8,17.6-14.2,17.6C178.5,504.1,174.4,494.8,174.4,485.8 M160.5,486c0,15.5,9.4,30.1,28,30.1c18.1,0,28.4-14.4,28.4-29.5
			c0-13.4-8.1-30.4-28.6-30.4C168,456.3,160.5,473.1,160.5,486 M150,467.4c-5.5-5.3-12.9-10.7-24.8-10.7c-14.5,0-22.8,7.7-22.8,18.8
			c0,9.9,8.1,14.5,18,15.9l6.5,0.9c5,0.6,9.8,1.8,9.8,5.7c0,4.7-6.2,6.6-10.4,6.6c-6.1,0-12.5-2.6-16.3-7.1l-10.7,6.8
			c5.8,6.7,12.5,11.4,25.7,11.4c16.1,0,25.6-7.7,25.6-19.6c0-9.7-6.1-14.1-20.8-16.2l-6.2-0.9c-4.8-0.7-7.2-2.2-7.2-5.2
			c0-2.6,2.6-6,8.4-6c6.1,0,10.7,2.8,14.8,7L150,467.4z"/>
	</g>
	<g>
		<path class="st0" d="M791.9,361.5H632.8V58.3c0-2-1.6-3.6-3.6-3.6h-28.1c-2,0-3.6,1.6-3.6,3.6v334.9c0,2,1.6,3.6,3.6,3.6h190.8
			c2,0,3.6-1.6,3.6-3.6v-28.1C795.5,363.1,793.9,361.5,791.9,361.5z"/>
		<path class="st0" d="M564.5,361.6h-175c-8.3,0-15.2-6.8-15.1-15.1c0-3.1,0.8-5.8,2.1-7.5l0.2-0.3L546.1,91.8
			c0.4-0.6,0.6-1.3,0.6-2.1V58.3c0-2-1.6-3.6-3.6-3.6H355.2c-2,0-3.6,1.6-3.6,3.6v28.1c0,2,1.6,3.6,3.6,3.6l149.2,0.1l-156.5,228
			c-7.3,10-8.9,20.9-8.9,28.4c0,27.7,22.6,50.3,50.3,50.3h175.2c2,0,3.6-1.6,3.6-3.6v-28C568.2,363.2,566.5,361.6,564.5,361.6z"/>
		<path class="st0" d="M236.6,256.2c50.9-5.1,90.8-48.3,90.8-100.5c0-55.5-46.3-100.9-101.9-100.9H102.9c-2,0-3.6,1.6-3.6,3.6v77.1
			c0,2,1.6,3.6,3.6,3.6H131c2,0,3.6-1.6,3.6-3.6V90.1h91.8c36.3,0,65.8,29.6,65.6,66c-0.2,36.2-30.1,65.2-66.3,65.2h-76.1
			c-27.8,0-50.3,22.5-50.3,50.3v121.6c0,2,1.6,3.6,3.6,3.6H131c2,0,3.6-1.6,3.6-3.6V271.6c0-8.2,6.7-14.9,14.9-14.9h44.6l95.2,138.6
			c0.7,1,1.8,1.6,3,1.6h34.1c2.9,0,4.7-3.3,3-5.7L236.6,256.2z"/>
	</g>
</g>
<path class="st1" d="M835.4,52.4c-31.7,0-57.5,25.6-57.5,57.1v12l17.6,16.5l17.8-16.7v-11.9c0-12,9.9-21.7,22.1-21.7
	c12.2,0,22.1,9.7,22.1,21.7c0.3,6.1-5.5,13.9-10.8,19l-51.2,48.1h-0.1l-51.2-48.1c-7.2-7.1-10.8-13.3-10.8-19
	c-0.2-16.7,19-27.2,33.3-18.7c0,0,0.1,0,0.1-0.1c3.2-11.6,9.4-22,17.6-30.4v-0.1c-37.5-22.2-86.8,5.7-86.4,49.3
	c-0.2,16,7.9,31.5,22.7,45.5l0.2,0.1l72,67.6c1.4,1.3,3.6,1.3,5,0l72.4-68l1-0.9c10.2-10,16.7-20.2,19.7-30.8
	C900.7,87.8,871.9,52,835.4,52.4z"/>
</svg>
