<?xml version="1.0" encoding="UTF-8"?>
<svg id="Ebene_1" xmlns="http://www.w3.org/2000/svg" xmlns:xlink="http://www.w3.org/1999/xlink" viewBox="0 0 841.89 595.28">
  <defs>
    <style>
      .cls-1 {
        fill: #646363;
      }

      .cls-2 {
        fill: #fff;
      }

      .cls-3, .cls-4, .cls-5 {
        fill: none;
      }

      .cls-4 {
        stroke-width: 1.27px;
      }

      .cls-4, .cls-5 {
        stroke: #646363;
      }

      .cls-6 {
        opacity: .7;
      }

      .cls-7 {
        clip-path: url(#clippath-1);
      }

      .cls-8 {
        fill: #e3e3e3;
      }

      .cls-9 {
        fill: #e7392c;
      }

      .cls-10 {
        clip-path: url(#clippath-2);
      }

      .cls-5 {
        stroke-width: .63px;
      }

      .cls-11 {
        clip-path: url(#clippath);
      }
    </style>
    <clipPath id="clippath">
      <rect class="cls-3" x="382.18" y="382.92" width="49.99" height="40.99"/>
    </clipPath>
    <clipPath id="clippath-1">
      <rect class="cls-3" x="465.68" y="361.42" width="49.99" height="40.99"/>
    </clipPath>
    <clipPath id="clippath-2">
      <rect class="cls-3" x="578.97" y="355.32" width="49.99" height="40.99"/>
    </clipPath>
  </defs>
  <g>
    <path class="cls-2" d="M635.68,140.51c-1.09-1.04-2.55-2.11-4.9-2.11-2.87,0-4.49,1.53-4.49,3.72,0,1.95,1.59,2.87,3.55,3.14l1.28.17c.99.13,1.94.35,1.94,1.14,0,.93-1.23,1.29-2.05,1.29-1.2,0-2.48-.5-3.22-1.4l-2.11,1.34c1.14,1.32,2.48,2.25,5.08,2.25,3.18,0,5.06-1.53,5.06-3.88,0-1.91-1.2-2.79-4.1-3.2l-1.23-.17c-.95-.14-1.42-.43-1.42-1.02,0-.52.52-1.18,1.66-1.18,1.2,0,2.11.55,2.92,1.39l2.05-1.47ZM637.77,144.18c0,3.06,1.86,5.94,5.53,5.94s5.61-2.84,5.61-5.82c0-2.65-1.59-5.99-5.64-5.99s-5.5,3.33-5.5,5.87M640.51,144.15c0-1.5.65-3.5,2.76-3.5,1.97,0,2.85,1.61,2.85,3.63,0,1.56-.74,3.48-2.81,3.48s-2.81-1.83-2.81-3.61M651.04,138.66v11.13h2.78v-4.49h5.31v-2.16h-5.31v-2.33h5.77v-2.14h-8.55ZM668.94,140.85v-2.19h-8.59v2.19h2.9v8.94h2.81v-8.94h2.89ZM684.89,138.66h-2.78l-1.62,7.66-2.08-7.66h-2.48l-2.02,7.66-1.64-7.66h-2.79l2.82,11.13h2.87l2.02-7.13,2,7.13h2.87l2.82-11.13ZM695.79,149.79l-4.1-11.13h-2.9l-4.13,11.13h2.96l.55-1.78h4.1l.55,1.78h2.97ZM691.64,146.01h-2.82l1.37-4.7,1.45,4.7ZM697.29,138.66v11.13h2.81v-3.97h1.73l2.22,3.97h3.06l-2.57-4.45c1.21-.42,2.29-1.18,2.29-3.07,0-3.18-2.62-3.61-4.27-3.61h-5.27ZM700.08,140.73h2.32c.49,0,1.66.03,1.66,1.48,0,.35-.08,1.55-1.67,1.55h-2.3v-3.03ZM709.52,149.79h8.72v-2.19h-5.94v-2.65h5.09v-2.11h-5.09v-2.02h5.46v-2.16h-8.23v11.13Z"/>
    <path class="cls-2" d="M762.41,119.61h-31.41v-59.85c0-.4-.32-.72-.72-.72h-5.55c-.4,0-.72.32-.72.72v66.11c0,.4.32.72.72.72h37.67c.4,0,.72-.32.72-.72v-5.55c0-.4-.32-.72-.72-.72"/>
    <path class="cls-2" d="M717.53,119.63h-34.55c-1.64,0-3-1.34-2.98-2.98,0-.6.16-1.14.41-1.49l.04-.06,33.45-48.73c.08-.12.13-.26.13-.41v-6.2c0-.4-.32-.72-.72-.72h-37.1c-.4,0-.72.32-.72.72v5.55c0,.4.32.72.72.72h29.45s-30.9,45.02-30.9,45.02c-1.45,1.97-1.76,4.13-1.76,5.61,0,5.48,4.46,9.93,9.93,9.93h34.59c.4,0,.72-.32.72-.72v-5.52c0-.4-.32-.72-.72-.72"/>
    <path class="cls-2" d="M652.79,98.81c10.06-1.01,17.93-9.53,17.93-19.85,0-10.96-9.15-19.93-20.11-19.93h-24.22c-.4,0-.72.32-.72.72v15.23c0,.4.32.72.72.72h5.55c.4,0,.72-.32.72-.72v-8.96h18.12c7.17,0,13,5.85,12.96,13.03-.04,7.15-5.95,12.88-13.1,12.88h-15.03c-5.48,0-9.93,4.45-9.93,9.93v24.01c0,.4.32.72.72.72h5.55c.4,0,.72-.32.72-.72v-24.01c0-1.63,1.32-2.95,2.95-2.95h8.78l18.8,27.36c.13.2.36.31.59.31h6.73c.58,0,.92-.65.59-1.13l-18.31-26.65Z"/>
    <path class="cls-9" d="M771,58.59c-6.26,0-11.35,5.06-11.35,11.27v2.38s3.48,3.26,3.48,3.26l3.51-3.29v-2.35c0-2.36,1.96-4.28,4.37-4.28s4.37,1.92,4.37,4.28c.05,1.2-1.08,2.75-2.13,3.74l-10.1,9.49s-.02,0-.02,0l-10.11-9.49c-1.43-1.41-2.12-2.63-2.12-3.74-.03-3.29,3.75-5.37,6.58-3.7,0,0,.02,0,.02-.01.64-2.29,1.85-4.35,3.47-6.01,0,0,0-.02,0-.03-7.41-4.38-17.13,1.13-17.06,9.74-.03,3.15,1.56,6.23,4.49,8.99l.03.02,14.22,13.35c.28.26.71.26.98,0l14.29-13.42.2-.18c2.02-1.98,3.3-3.99,3.89-6.09,1.91-6.95-3.78-14.04-10.99-13.94"/>
    <path class="cls-8" d="M278,475.37c2.22-2.14,5.66-2.22,7.97-.27l34.61-36.28c-1.31-1.38-1.26-3.56.11-4.89,1.38-1.33,3.58-1.3,4.92.09,1.33,1.37,1.29,3.56-.07,4.89l18.68,17.86s.07-.1.12-.14c2.24-2.16,5.81-2.1,7.97.14.25.26.47.55.67.84l23.29-14.22c-1.51-2.74-1.07-6.26,1.29-8.53.2-.2.41-.37.63-.54l-14.03-19.94c-2.08,1.46-4.96,1.24-6.78-.64-2.02-2.09-1.96-5.41.13-7.43,2.09-2.02,5.41-1.96,7.43.13,2.02,2.09,1.96,5.41-.13,7.43-.07.07-.15.11-.22.17l14.04,19.96c1.91-1.24,4.28-1.46,6.36-.68l17.03-39.24c-.84-.41-1.62-.97-2.31-1.68-1.16-1.2-1.88-2.66-2.18-4.19l-3.88.67c.05.81-.22,1.64-.85,2.25-1.14,1.1-2.95,1.07-4.04-.07-1.1-1.14-1.07-2.95.07-4.04,1.14-1.1,2.95-1.07,4.04.07.35.36.57.8.69,1.25l3.89-.67c-.24-1.89.16-3.84,1.2-5.5l-20.63-13.36c-.21.36-.45.71-.76,1.01-1.78,1.72-4.62,1.67-6.34-.11-1.72-1.78-1.67-4.62.11-6.34,1.78-1.72,4.62-1.67,6.34.11,1.28,1.33,1.58,3.24.91,4.84l20.67,13.39c.29-.39.6-.77.96-1.12,2.58-2.5,6.36-2.98,9.42-1.51l8.32-15.46c-.29-.19-.57-.4-.82-.66-1.72-1.78-1.67-4.62.11-6.34,1.78-1.72,4.62-1.67,6.34.11,1.72,1.78,1.67,4.62-.11,6.34-1.38,1.34-3.4,1.59-5.04.81l-8.32,15.45c.68.39,1.32.87,1.9,1.46,2.48,2.57,2.98,6.33,1.52,9.38l46.27,23.88c.21-.35.46-.69.77-1,1.14-1.1,2.68-1.51,4.13-1.29l4.57-16.15c-.82-.31-1.59-.79-2.25-1.47-2.34-2.43-2.27-6.29.15-8.63,2.42-2.34,6.29-2.27,8.63.15,2.34,2.42,2.27,6.29-.15,8.63-1.61,1.56-3.86,2.04-5.87,1.49l-4.55,16.09c.82.22,1.59.64,2.22,1.3.66.68,1.06,1.5,1.24,2.36l56.39-13.29c-.17-1.34.23-2.73,1.18-3.8l-32.22-36.12c-2.43,1.95-5.99,1.76-8.2-.52-2.34-2.43-2.27-6.29.15-8.63,1.74-1.68,4.21-2.11,6.34-1.33l8.35-21.1c-.53-.17-1.03-.46-1.44-.89-1.36-1.41-1.32-3.66.09-5.03,1.41-1.36,3.66-1.32,5.03.09.07.07.12.15.18.23l21.49-15.23c-.55-.88-.44-2.05.34-2.8.89-.86,2.31-.83,3.17.06.86.89.84,2.31-.05,3.17-.87.84-2.24.83-3.1,0l-21.52,15.25c.65,1.11.65,2.48,0,3.59l6.9,4.77c.08-.11.17-.22.27-.31.89-.86,2.31-.84,3.17.05.86.89.83,2.31-.06,3.17-.89.86-2.31.83-3.17-.05-.63-.65-.78-1.58-.47-2.37l-6.95-4.81c-.09.11-.17.22-.27.32-.84.81-1.98,1.12-3.05.94l-8.38,21.17c.65.31,1.26.73,1.79,1.28,2.28,2.36,2.27,6.09.02,8.45l32.21,36.1c1.02-.82,2.27-1.17,3.5-1.06l6.61-43.33c-.68-.07-1.34-.36-1.85-.89-1.16-1.2-1.13-3.12.07-4.29,1.2-1.16,3.12-1.13,4.28.07,1.16,1.2,1.13,3.12-.07,4.29-.53.51-1.2.78-1.88.83l-6.61,43.38c.56.12,1.11.35,1.61.67l64.93-78.49s-.1-.07-.14-.12c-.88-.91-1.32-2.07-1.35-3.24l-10.83-1.2c-.09.55-.35,1.07-.78,1.49-1.07,1.04-2.79,1.01-3.82-.07-1.04-1.07-1.01-2.79.07-3.82,1.07-1.04,2.79-1.01,3.82.07.48.5.73,1.14.75,1.79l10.81,1.2c.1-1.13.57-2.24,1.45-3.09.08-.07.16-.12.24-.19l-16.87-22.76c-2.17,1.5-5.16,1.27-7.06-.69-2.1-2.18-2.04-5.65.14-7.76,2.18-2.1,5.65-2.04,7.76.14,2.1,2.18,2.04,5.65-.14,7.76-.02.02-.04.03-.06.05l16.88,22.78c1.9-1.13,4.38-.86,5.98.79.05.05.08.11.13.16l12.51-11.29c-1.67-2.12-1.52-5.2.47-7.11,2.12-2.05,5.49-1.99,7.54.13,2.05,2.12,1.99,5.49-.13,7.54-2.12,2.04-5.49,1.99-7.53-.13l-12.51,11.29c1.13,1.6,1.17,3.71.15,5.35l60.97,37.17c.42-.62.9-1.21,1.46-1.75,2.22-2.14,5.12-3.14,7.98-3.02l1.45-30.73c-1.35-.08-2.67-.63-3.68-1.67-1.69-1.75-1.98-4.31-.94-6.36l-9.6-4.81c-.12.17-.26.34-.42.49-1.41,1.36-3.66,1.32-5.03-.09-1.36-1.41-1.32-3.66.09-5.03,1.41-1.36,3.66-1.32,5.03.09,1.08,1.12,1.26,2.75.6,4.06l9.59,4.8c.23-.36.49-.71.82-1.02,2.21-2.13,5.73-2.07,7.87.14.57.59.97,1.27,1.22,1.99l4.91-1.35c-.35-.99-.12-2.14.69-2.92,1.11-1.07,2.87-1.04,3.93.07,1.07,1.1,1.04,2.87-.07,3.93-1.1,1.07-2.86,1.04-3.93-.07-.15-.16-.28-.33-.38-.51l-4.99,1.38c.47,1.87-.02,3.92-1.51,5.35-1.02.99-2.32,1.48-3.64,1.54l-1.45,30.76c2.48.23,4.9,1.31,6.77,3.25,4.15,4.3,4.03,11.15-.27,15.29-.71.68-1.49,1.24-2.31,1.69l11.64,21.33c2.97-1.33,6.58-.75,8.97,1.73,3.05,3.16,2.97,8.2-.2,11.25-3.16,3.05-8.2,2.96-11.25-.2-3.05-3.16-2.97-8.2.2-11.25.55-.53,1.15-.95,1.79-1.29l-11.64-21.31c-3.61,1.75-7.97,1.37-11.24-1.11l-21.13,26.84c.07.06.14.12.2.19,2.28,2.36,2.22,6.13-.15,8.41-2.36,2.28-6.13,2.22-8.41-.15-1.1-1.14-1.65-2.61-1.66-4.08l-17.6-1.24c-.15,1.59-.85,3.15-2.09,4.34-1.27,1.23-2.89,1.87-4.52,1.94l.76,10.76c1.28.01,2.55.51,3.51,1.51,1.9,1.96,1.84,5.09-.12,6.99-1.96,1.9-5.09,1.84-6.99-.12-1.9-1.96-1.84-5.1.12-6.99.83-.8,1.87-1.23,2.93-1.34l-.76-10.8c-1.74-.06-3.46-.76-4.76-2.11-.82-.85-1.38-1.85-1.68-2.92l-18.8,4.44c.09.82-.18,1.68-.82,2.3-.46.44-1.04.69-1.63.75-.84.16-1.74-.09-2.38-.75-.64-.66-.86-1.57-.67-2.4.09-.59.35-1.15.81-1.6,1.1-1.07,2.87-1.04,3.93.07.29.3.49.64.62,1.01l18.77-4.6c-.36-2.18.32-4.49,2.03-6.13,2.12-2.05,5.2-2.47,7.73-1.32l3.2-5.7c-.15-.1-.28-.21-.41-.35-1.01-1.04-.98-2.71.06-3.71,1.04-1.01,2.71-.98,3.71.07,1.01,1.04.98,2.71-.06,3.71-.78.75-1.89.92-2.82.54l-3.19,5.68c.58.33,1.13.74,1.62,1.24,1.33,1.38,1.98,3.17,1.95,4.94l17.58,1.24c.11-1.39.71-2.74,1.79-3.79,2.16-2.09,5.5-2.21,7.8-.4l21.11-26.81c-.29-.24-.56-.5-.83-.77-1.67-1.73-2.63-3.86-2.93-6.07l-5.91.4c.02,1.04-.36,2.09-1.17,2.87-1.53,1.48-3.98,1.44-5.46-.1-1.48-1.53-1.44-3.98.09-5.46,1.54-1.48,3.98-1.44,5.46.1.57.58.91,1.3,1.03,2.05l5.89-.4c-.18-2.14.28-4.32,1.37-6.24l-61.04-37.22c-.08.09-.15.19-.24.28-.86.83-1.96,1.26-3.07,1.33l-1.59,18.95c1.35.17,2.66.78,3.67,1.84,1.95,2.02,2.25,5.03.92,7.35l12.19,7.58c.12-.17.25-.34.41-.49,1.23-1.19,3.18-1.15,4.37.08,1.19,1.23,1.15,3.18-.08,4.37-1.23,1.19-3.18,1.15-4.37-.08-.9-.93-1.09-2.29-.6-3.4l-12.21-7.6c-.23.33-.49.64-.78.92-1.57,1.52-3.74,2.03-5.72,1.56l-7.18,24.06c.29.13.57.31.81.56.98,1.01.95,2.63-.06,3.61-1.01.98-2.63.95-3.61-.06-.98-1.01-.95-2.63.06-3.61.63-.61,1.49-.82,2.28-.66l7.17-24.04c-.92-.3-1.77-.82-2.49-1.57-2.37-2.46-2.3-6.37.15-8.74,1.26-1.22,2.9-1.79,4.52-1.73l1.58-18.89c-.87-.04-1.74-.31-2.49-.82l-64.91,78.47c.08.07.17.13.25.21,1.87,1.93,1.81,5.01-.12,6.88-1.14,1.1-2.66,1.51-4.11,1.29l-4.58,22.59c1.23.31,2.39.95,3.33,1.92,2.7,2.79,2.62,7.24-.17,9.94-2.24,2.17-5.56,2.54-8.17,1.15l-9.67,15.23c.08.06.16.12.23.2.95.98.92,2.55-.06,3.5-.98.95-2.55.92-3.5-.06-.95-.98-.92-2.55.06-3.5.77-.74,1.89-.88,2.8-.43l9.66-15.21c-.46-.29-.9-.64-1.3-1.05-2.7-2.79-2.62-7.24.17-9.94,1.68-1.62,3.95-2.23,6.08-1.86l4.58-22.59c-.82-.22-1.6-.64-2.23-1.3-.56-.58-.92-1.26-1.14-1.98l-56.46,13.31c.04.98-.21,1.97-.76,2.83l9.3,6.81c.95-.87,2.43-.84,3.34.1.92.95.89,2.47-.06,3.39-.95.92-2.47.89-3.39-.06-.8-.83-.88-2.1-.25-3.02l-9.26-6.78c-.12.15-.23.31-.38.45-.8.77-1.79,1.19-2.81,1.31l11.57,55.31c1.82-.25,3.72.34,5.09,1.75,2.28,2.36,2.22,6.13-.15,8.41-2.36,2.28-6.13,2.22-8.41-.15-2.28-2.36-2.22-6.13.15-8.41.8-.78,1.77-1.27,2.79-1.51l-11.58-55.37c-.78,0-1.55-.19-2.26-.56l-20.35,36.43c.39.24.77.51,1.1.86,2.13,2.21,2.07,5.73-.14,7.87-1.3,1.25-3.05,1.73-4.71,1.48l-4.14,29.29c.42.09.82.3,1.14.63.86.89.83,2.31-.05,3.17-.89.86-2.31.83-3.17-.06-.86-.89-.84-2.31.05-3.17.42-.4.95-.6,1.49-.62l4.15-29.35c-.97-.25-1.88-.74-2.62-1.51-2.13-2.21-2.07-5.73.14-7.87,1.73-1.67,4.25-1.98,6.29-.99l20.35-36.43c-.28-.19-.54-.4-.78-.65-1.43-1.48-1.72-3.64-.91-5.41l-46.25-23.88c-.39.7-.88,1.35-1.49,1.93-.78.76-1.68,1.32-2.63,1.71l5.88,15.86c1.56-.36,3.26.07,4.45,1.3,1.81,1.87,1.76,4.86-.12,6.66-1.87,1.81-4.86,1.76-6.67-.12-1.81-1.87-1.76-4.86.12-6.67.5-.48,1.08-.82,1.69-1.04l-5.86-15.82c-1.91.64-4,.58-5.86-.2l-17.02,39.22c.77.36,1.49.85,2.11,1.5,2,2.07,2.48,5.04,1.49,7.55l11.11,5.06c.22-.38.47-.74.8-1.06,1.87-1.81,4.86-1.76,6.67.12,1.81,1.87,1.76,4.86-.12,6.66-1.87,1.81-4.86,1.76-6.66-.12-1.36-1.4-1.67-3.43-.95-5.12l-11.07-5.04c-.35.73-.83,1.41-1.45,2-1.34,1.29-3.06,1.95-4.79,1.99l-1.73,36.5c.91.08,1.8.46,2.49,1.17,1.22,1.27,1.41,3.13.62,4.6l12.25,9.53s.07-.09.11-.13c1.07-1.04,2.79-1.01,3.82.07,1.04,1.08,1.01,2.79-.07,3.82-1.07,1.04-2.79,1.01-3.82-.07-.86-.9-.98-2.23-.37-3.25l-12.21-9.5c-.13.17-.26.35-.42.5-1.57,1.51-4.06,1.47-5.57-.1-1.51-1.57-1.47-4.06.1-5.57.71-.69,1.62-1.04,2.54-1.08l1.72-36.5c-1.73-.1-3.42-.81-4.72-2.15-.32-.33-.59-.68-.83-1.05l-23.31,14.23c1.12,2.16.78,4.87-1.06,6.65-1.22,1.18-2.84,1.68-4.41,1.54l-4.39,28.9c.84.14,1.65.54,2.29,1.2,1.6,1.66,1.55,4.3-.1,5.9-1.66,1.6-4.3,1.56-5.9-.1-1.6-1.66-1.55-4.3.1-5.9.85-.82,1.97-1.2,3.07-1.16l4.39-28.9c-1.11-.21-2.18-.74-3.02-1.61-1.99-2.06-2.07-5.24-.33-7.42l-18.76-17.94c-1.24.88-2.91.85-4.12-.08l-34.63,36.3s.03.03.05.04c2.28,2.36,2.22,6.13-.15,8.41-2.36,2.28-6.13,2.22-8.41-.15-2.28-2.36-2.22-6.13.15-8.41"/>
    <path class="cls-1" d="M806.61,279.34c-3.59,0-6.54,2.73-6.9,6.23l-58.41-2.4c-.02-2.22-1.83-4.01-4.05-4.01s-4.05,1.82-4.05,4.05,1.8,4.03,4.02,4.05l-1.2,30.11c-.07,0-.14-.02-.21-.02-3.63,0-6.58,2.94-6.58,6.58,0,.43.05.84.13,1.24l-31.05,6.94c-.96-3.52-4.17-6.11-7.99-6.11-.33,0-.65.02-.96.06l-4.38-28.08c2.92-.46,5.17-2.97,5.17-6.03,0-3.38-2.74-6.12-6.12-6.12s-6.12,2.74-6.12,6.12,2.74,6.12,6.12,6.12c.11,0,.22-.03.33-.03l4.39,28.11c-2.61.51-4.77,2.24-5.89,4.58l-46.06-19.11c.37-1.02.58-2.12.58-3.27,0-1.95-.58-3.76-1.57-5.28l3.8-2.58c.61.72,1.51,1.19,2.54,1.19,1.84,0,3.33-1.49,3.33-3.33s-1.49-3.33-3.33-3.33-3.33,1.49-3.33,3.33c0,.59.16,1.13.43,1.61l-3.81,2.58c-1.33-1.78-3.24-3.09-5.46-3.63l6.48-27.91c.47.14.95.23,1.46.23,2.89,0,5.22-2.34,5.22-5.22s-2.34-5.22-5.22-5.22-5.22,2.34-5.22,5.22c0,2.15,1.3,4,3.16,4.8l-6.49,27.97c-.56-.1-1.13-.16-1.72-.16-4.19,0-7.75,2.65-9.12,6.36l-19.5-6.22c.1-.39.16-.8.16-1.22,0-2.88-2.34-5.22-5.22-5.22s-5.22,2.34-5.22,5.22,2.34,5.22,5.22,5.22c2.24,0,4.14-1.42,4.88-3.4l19.48,6.22c-.26.88-.4,1.8-.4,2.76,0,4.17,2.63,7.72,6.32,9.1l-19.46,57.49c-.47-.12-.95-.21-1.45-.21-1.85,0-3.47.9-4.51,2.26l-16.9-9.84c.44-.93.69-1.96.69-3.05,0-3.93-3.18-7.12-7.12-7.12s-7.11,3.19-7.11,7.12,3.18,7.12,7.11,7.12c2.61,0,4.89-1.41,6.12-3.51l16.85,9.81c-.5.85-.81,1.82-.81,2.88s.33,2.12.87,2.99l-58.05,34.52c-.95-1.26-2.4-2.1-4.07-2.24l-2.23-56.38c3.62-.33,6.45-3.38,6.45-7.08,0-3.93-3.18-7.12-7.11-7.12-2.82,0-5.24,1.64-6.4,4.01l-24.09-10.93c.3-.58.49-1.22.49-1.92,0-2.29-1.86-4.14-4.14-4.14s-4.14,1.86-4.14,4.14c0,.11.02.22.03.33l-30.35,4.62c-.25-1.18-1.3-2.07-2.56-2.07-1.44,0-2.61,1.17-2.61,2.61s1.17,2.61,2.61,2.61,2.55-1.12,2.6-2.51l30.4-4.63c.35,1.46,1.47,2.6,2.9,3.01l-1.92,9.59c-.15-.03-.31-.05-.48-.05-1.44,0-2.61,1.17-2.61,2.61s1.17,2.61,2.61,2.61,2.61-1.17,2.61-2.61c0-1.05-.63-1.96-1.53-2.37l1.93-9.66c.16.02.32.05.49.05,1.36,0,2.56-.67,3.32-1.68l24.17,10.96c-.3.78-.47,1.63-.47,2.52,0,3.83,3.03,6.95,6.83,7.1l2.22,56.36c-1.52.13-2.86.86-3.79,1.95l-40.63-30.99c.51-.61.83-1.39.83-2.25,0-1.95-1.58-3.53-3.53-3.53s-3.53,1.58-3.53,3.53,1.58,3.53,3.53,3.53c.86,0,1.64-.32,2.25-.83l40.68,31.02c-.38.56-.65,1.19-.81,1.86l-118.01-13.24c0-.07.02-.14.02-.22,0-1.47-.58-2.8-1.5-3.81l8.11-9.77c.52.38,1.16.62,1.86.62,1.74,0,3.15-1.41,3.15-3.15s-1.41-3.15-3.15-3.15-3.15,1.41-3.15,3.15c0,.82.32,1.55.82,2.11l-8.1,9.76c-1-.87-2.29-1.42-3.72-1.42-.12,0-.23.03-.35.04l-4.29-32.74c3.04-.5,5.36-3.11,5.36-6.29,0-3.53-2.86-6.4-6.4-6.4s-6.39,2.86-6.39,6.4,2.86,6.39,6.39,6.39c.03,0,.06,0,.09,0l4.29,32.77c-2.51.59-4.38,2.82-4.38,5.51,0,.08.02.16.02.24l-19.63.67c-.32-3.13-2.93-5.59-6.15-5.59-3.43,0-6.22,2.78-6.22,6.21s2.78,6.21,6.22,6.21,6.21-2.78,6.21-6.21l19.63-.67c.35,2.26,2.02,4.07,4.21,4.61l-21.03,80.55c-.85-.18-1.73-.28-2.64-.28-3.6,0-6.84,1.52-9.14,3.94l-26.1-24.59c1.07-1.15,1.73-2.69,1.73-4.38,0-2.83-1.83-5.22-4.36-6.1l4.15-11.81c.24.04.49.07.75.07,2.29,0,4.14-1.85,4.14-4.14s-1.86-4.14-4.14-4.14-4.14,1.86-4.14,4.14c0,1.81,1.17,3.33,2.78,3.9l-4.15,11.79c-.49-.12-.99-.2-1.52-.2-3.58,0-6.48,2.9-6.48,6.49,0,.95.21,1.84.58,2.66l-5.21,2.84c-.51-1.11-1.63-1.89-2.94-1.89-1.79,0-3.24,1.45-3.24,3.24s1.45,3.24,3.24,3.24,3.24-1.45,3.24-3.24c0-.26-.04-.5-.09-.74l5.3-2.89c1.12,1.94,3.2,3.27,5.6,3.27,1.66,0,3.15-.64,4.3-1.66l26.13,24.62c-1.9,2.21-3.05,5.07-3.05,8.21,0,6.96,5.65,12.61,12.61,12.61,1.14,0,2.25-.17,3.3-.45l7.51,27.32c-3.57,1.29-6.13,4.7-6.13,8.72,0,5.12,4.15,9.28,9.28,9.28s9.28-4.15,9.28-9.28-4.15-9.28-9.28-9.28c-.88,0-1.74.13-2.55.36l-7.5-27.29c4.45-1.45,7.79-5.31,8.53-10.03l39.45,5.39c0,.1-.02.21-.02.32,0,3.83,3.1,6.93,6.94,6.93s6.93-3.1,6.93-6.93c0-1.85-.73-3.52-1.91-4.77l13.75-15.29c1.42,1.21,3.26,1.95,5.27,1.95s3.93-.77,5.36-2.04l8.08,9.64c-1.06,1.05-1.73,2.5-1.73,4.11,0,3.18,2.58,5.76,5.76,5.76s5.76-2.58,5.76-5.76-2.58-5.77-5.76-5.77c-1.35,0-2.57.48-3.55,1.25l-8.1-9.67c1.41-1.46,2.28-3.44,2.28-5.63,0-1.38-.35-2.67-.95-3.81l19.37-11.5c.59.76,1.51,1.26,2.55,1.26.75,0,1.43-.26,1.97-.69.83-.55,1.38-1.49,1.38-2.56s-.55-2.01-1.38-2.56c-.55-.42-1.22-.68-1.97-.68-1.79,0-3.24,1.45-3.24,3.24,0,.48.11.93.3,1.35l-19.46,11.34c-1.46-2.11-3.9-3.5-6.67-3.5-3.43,0-6.36,2.14-7.54,5.15l-7.29-2.19c.04-.2.06-.41.06-.62,0-1.69-1.37-3.06-3.06-3.06s-3.06,1.37-3.06,3.06,1.37,3.06,3.06,3.06c1.26,0,2.33-.76,2.8-1.84l7.28,2.18c-.23.74-.35,1.54-.35,2.35,0,2.24.9,4.26,2.37,5.72l-13.74,15.28c-1.22-1.07-2.82-1.73-4.57-1.73-3.51,0-6.4,2.6-6.86,5.98l-39.41-5.39c.04-.43.07-.87.07-1.32,0-2.8-.92-5.37-2.46-7.46l5.28-4.45c.82.89,1.99,1.46,3.3,1.46,2.49,0,4.5-2.02,4.5-4.5s-2.02-4.51-4.5-4.51-4.5,2.02-4.5,4.51c0,.95.3,1.82.8,2.55l-5.26,4.43c-1.58-1.94-3.74-3.39-6.2-4.12l21.05-80.64c.14,0,.28.04.43.04,1.4,0,2.67-.53,3.66-1.37l16.67,14.6c-.99,1.24-1.59,2.81-1.59,4.51,0,3.28,2.19,6.04,5.18,6.91l-4.08,16.22c-.24-.05-.49-.08-.74-.08-1.99,0-3.6,1.61-3.6,3.6s1.61,3.6,3.6,3.6,3.6-1.61,3.6-3.6c0-1.51-.93-2.8-2.26-3.34l4.09-16.26c.45.09.92.14,1.41.14,2.55,0,4.78-1.33,6.06-3.32l25.5,14.36c-.14.35-.22.72-.22,1.12,0,1.64,1.33,2.97,2.97,2.97s2.97-1.33,2.97-2.97-1.33-2.97-2.97-2.97c-1.02,0-1.91.51-2.45,1.29l-25.48-14.35c.52-1,.82-2.13.82-3.33,0-3.98-3.23-7.21-7.21-7.21-2.04,0-3.88.85-5.19,2.21l-16.62-14.56c.7-.74,1.21-1.67,1.42-2.7l117.98,13.23c0,.13-.04.25-.04.37,0,3.13,2.54,5.67,5.67,5.67,1.84,0,3.46-.89,4.5-2.25l22.14,15.23c-.78,1.25-1.23,2.73-1.23,4.31,0,4.53,3.67,8.2,8.2,8.2,3.64,0,6.72-2.37,7.79-5.65l20.44,4.94c-.01.12-.04.23-.04.35,0,1.59,1.29,2.88,2.88,2.88s2.88-1.29,2.88-2.88-1.29-2.88-2.88-2.88c-1.25,0-2.3.8-2.7,1.91l-20.41-4.93c.15-.62.24-1.26.24-1.93,0-4.53-3.67-8.2-8.2-8.2-2.72,0-5.12,1.33-6.61,3.36l-22.14-15.23c.51-.85.82-1.83.82-2.9,0-.93-.25-1.8-.65-2.58l58.12-34.56c.76.86,1.77,1.49,2.92,1.76l-2.28,13.23c-1.51.04-2.72,1.27-2.72,2.78s1.25,2.79,2.79,2.79,2.79-1.25,2.79-2.79c0-1.35-.96-2.47-2.23-2.74l2.27-13.19c.23.03.45.07.68.07,1.29,0,2.47-.45,3.42-1.18l35.09,55.75c-1.72,1.26-2.85,3.29-2.85,5.59,0,3.83,3.11,6.94,6.94,6.94s6.94-3.11,6.94-6.94-3.1-6.93-6.94-6.93c-1.3,0-2.52.37-3.56.99l-35.13-55.81c.66-.63,1.15-1.42,1.44-2.3l46.57,14.07c-.13.52-.23,1.05-.23,1.61,0,3.58,2.9,6.48,6.48,6.48,2.11,0,3.96-1.02,5.14-2.57l27.19,21.21c-.28.41-.44.91-.44,1.45,0,1.44,1.17,2.61,2.61,2.61s2.61-1.17,2.61-2.61-1.17-2.61-2.61-2.61c-.67,0-1.28.26-1.75.68l-27.24-21.25c.61-.99.98-2.14.98-3.39,0-3.58-2.9-6.49-6.49-6.49-2.8,0-5.16,1.78-6.07,4.26l-46.57-14.07c.08-.38.13-.78.13-1.18,0-2.4-1.5-4.45-3.61-5.27l19.45-57.47c.89.27,1.84.42,2.81.42,1.27,0,2.48-.25,3.59-.69l7.92,18.06c-1.6.96-2.68,2.7-2.68,4.7,0,3.04,2.46,5.49,5.49,5.49s5.49-2.46,5.49-5.49-2.46-5.49-5.49-5.49c-.81,0-1.57.18-2.26.49l-7.9-18.02c2.12-1.01,3.82-2.75,4.75-4.91l46.04,19.1c-.35.92-.56,1.92-.56,2.97,0,3.35,2,6.24,4.86,7.54l-5.22,13.24c-.49-.14-1-.24-1.53-.24-3.03,0-5.49,2.46-5.49,5.49s2.46,5.49,5.49,5.49,5.49-2.46,5.49-5.49c0-2.27-1.38-4.23-3.35-5.06l5.2-13.19c.89.32,1.84.51,2.83.51,2.17,0,4.15-.84,5.62-2.21l31,29.21c-.7.81-1.14,1.85-1.14,3,0,2.05,1.35,3.77,3.21,4.36l-2.56,17.91c-.07,0-.13-.02-.2-.02-1.74,0-3.15,1.41-3.15,3.15s1.41,3.15,3.15,3.15,3.15-1.41,3.15-3.15c0-1.45-.99-2.66-2.32-3.03l2.55-17.85c.25.04.5.08.76.08,2.54,0,4.59-2.06,4.59-4.59s-2.06-4.59-4.59-4.59c-1.16,0-2.2.44-3.01,1.15l-31-29.21c1.37-1.48,2.21-3.45,2.21-5.63,0-.53-.05-1.05-.15-1.55l31.07-6.95c.81,2.72,3.29,4.72,6.28,4.72,1.98,0,3.74-.9,4.95-2.28l27.08,20.68c-.59.81-.95,1.79-.95,2.87,0,2.69,2.18,4.86,4.86,4.86s4.86-2.18,4.86-4.86-2.18-4.87-4.86-4.87c-1.38,0-2.62.58-3.51,1.51l-27.08-20.68c.77-1.08,1.23-2.38,1.23-3.8,0-3.34-2.5-6.07-5.73-6.49l1.2-30.23c1.76-.27,3.13-1.65,3.39-3.4l58.43,2.4s0,.05,0,.08c0,3.83,3.1,6.94,6.94,6.94s6.94-3.1,6.94-6.94-3.1-6.94-6.94-6.94"/>
    <path class="cls-2" d="M407.23,420.82c7.68,0,13.91-6.23,13.91-13.91s-6.23-13.91-13.91-13.91-13.91,6.23-13.91,13.91,6.23,13.91,13.91,13.91"/>
    <path class="cls-5" d="M407.23,420.82c7.68,0,13.91-6.23,13.91-13.91s-6.23-13.91-13.91-13.91-13.91,6.23-13.91,13.91,6.23,13.91,13.91,13.91Z"/>
    <g class="cls-6">
      <g class="cls-11">
        <path class="cls-2" d="M407.18,422.92c8.83,0,16-7.16,16-16s-7.16-16-16-16-16,7.16-16,16,7.16,16,16,16"/>
      </g>
    </g>
    <path class="cls-5" d="M407.23,423c8.89,0,16.09-7.21,16.09-16.09s-7.21-16.1-16.09-16.1-16.1,7.21-16.1,16.1,7.21,16.09,16.1,16.09Z"/>
    <path class="cls-9" d="M399.56,398.8c.35,0,.7.09,1.04.28,0,0,0,0,0,0-.3.31-.52.69-.64,1.11,0,0,0,0,0,0s0,0,0,0c-.13-.07-.26-.11-.4-.11-.42,0-.82.33-.82.79,0,.2.13.43.39.69l1.87,1.76h0l1.87-1.75c.19-.18.4-.47.39-.69,0-.44-.36-.79-.81-.79s-.81.35-.81.79v.43l-.65.61-.64-.6v-.44c0-1.15.94-2.08,2.1-2.08h.03c1.32,0,2.35,1.3,2,2.58-.11.39-.35.76-.72,1.13l-.04.03-2.64,2.48s-.06.04-.09.04-.07-.01-.09-.04l-2.63-2.47h0c-.54-.51-.83-1.08-.83-1.66-.01-1.21,1.02-2.09,2.12-2.09"/>
    <path class="cls-1" d="M415.03,398.8h-10.55c.11.11.22.22.31.34.22.28.37.6.47.92h9.76c.4,0,.72.32.72.72v12.25c0,.4-.32.72-.72.72h-15.6c-.4,0-.72-.32-.72-.72v-8.96l-.93-.87h0s-.05-.05-.05-.05c-.1-.1-.19-.19-.28-.29v10.18c0,1.09.89,1.98,1.99,1.98h15.6c1.09,0,1.99-.89,1.99-1.98v-12.25c0-1.09-.89-1.98-1.99-1.98"/>
    <path class="cls-1" d="M407.81,407.33h0c-.36-.09-.62-.41-.62-.79,0-.44.35-.85.79-.82,0,0,.01,0,.02,0,0,0,.02,0,.03,0,.8.09,3.04.67,3.04.67.36.09.62.41.62.79,0,.44-.34.79-.77.81-.01,0-.06,0-.07,0-.07-.01-.1-.02-.1-.02l-2.93-.64ZM412.98,407.18c0-1.08-.82-1.85-1.88-2.1l-3.16-.7h0c-.35-.09-.61-.41-.61-.79,0-.45.37-.82.82-.82.04,0,.08,0,.12.01l4.28.92.27-1.26s-4.07-.97-4.68-.97c-1.16,0-2.11.95-2.11,2.11,0,.53.2,1.02.52,1.39-.42.39-.68.93-.68,1.54,0,1.08.82,1.98,1.87,2.1l3.16.7h0c.35.09.61.41.61.79,0,.43-.34.78-.76.81-.02,0-.06,0-.1,0-.02,0-.06-.01-.11-.02-.78-.16-4.25-.9-4.25-.9l-.27,1.26s4.13.99,4.68.97c1.16-.03,2.11-.95,2.11-2.11,0-.53-.2-1.02-.53-1.39.42-.39.68-.93.68-1.54"/>
    <circle class="cls-5" cx="407.26" cy="406.94" r="13.95" transform="translate(-153.12 274.89) rotate(-31.72)"/>
    <path class="cls-2" d="M490.73,399.32c7.68,0,13.91-6.23,13.91-13.91s-6.23-13.91-13.91-13.91-13.91,6.23-13.91,13.91,6.23,13.91,13.91,13.91"/>
    <path class="cls-5" d="M490.73,399.32c7.68,0,13.91-6.23,13.91-13.91s-6.23-13.91-13.91-13.91-13.91,6.23-13.91,13.91,6.23,13.91,13.91,13.91Z"/>
    <g class="cls-6">
      <g class="cls-7">
        <path class="cls-2" d="M490.68,401.42c8.83,0,16-7.16,16-16s-7.16-16-16-16-16,7.16-16,16,7.16,16,16,16"/>
      </g>
    </g>
    <path class="cls-2" d="M490.98,399.33c7.68,0,13.91-6.23,13.91-13.91s-6.23-13.91-13.91-13.91-13.91,6.23-13.91,13.91,6.23,13.91,13.91,13.91"/>
    <path class="cls-5" d="M490.98,399.33c7.68,0,13.91-6.23,13.91-13.91s-6.23-13.91-13.91-13.91-13.91,6.23-13.91,13.91,6.23,13.91,13.91,13.91Z"/>
    <circle class="cls-5" cx="490.98" cy="385.42" r="16.09" transform="translate(-129.3 315.68) rotate(-31.72)"/>
    <path class="cls-1" d="M498.78,377.02h-10.55c.11.11.22.22.31.34.22.28.37.6.47.92h9.76c.4,0,.72.32.72.72v12.25c0,.4-.32.72-.72.72h-15.6c-.4,0-.72-.32-.72-.72v-8.96l-.93-.87h0s-.05-.05-.05-.05c-.1-.09-.19-.19-.28-.29v10.18c0,1.09.89,1.98,1.99,1.98h15.6c1.09,0,1.99-.89,1.99-1.98v-12.25c0-1.09-.89-1.98-1.99-1.98"/>
    <path class="cls-9" d="M483.31,377.02c.35,0,.71.09,1.04.29,0,0,0,0,0,0-.3.31-.53.69-.64,1.11,0,0,0,0,0,0h0c-.13-.07-.27-.11-.4-.11-.42,0-.82.33-.82.79,0,.21.13.43.39.69l1.87,1.76s0,0,0,0,0,0,0,0l1.87-1.76c.19-.18.4-.47.39-.69,0-.44-.36-.79-.81-.79s-.81.36-.81.79v.44l-.65.61-.64-.6v-.44c0-1.15.94-2.09,2.1-2.09h.03c1.32,0,2.36,1.3,2.01,2.58-.11.39-.35.76-.72,1.13l-.04.04-2.65,2.48s-.06.04-.09.04-.06-.01-.09-.04l-2.63-2.47h0c-.54-.51-.84-1.08-.83-1.67-.01-1.21,1.02-2.09,2.12-2.09"/>
  </g>
  <rect class="cls-1" x="485.16" y="384.81" width="1.73" height="1.32"/>
  <rect class="cls-1" x="487.66" y="384.81" width="1.73" height="1.32"/>
  <rect class="cls-1" x="485.16" y="386.7" width="1.73" height="1.32"/>
  <rect class="cls-1" x="487.66" y="386.7" width="1.73" height="1.32"/>
  <rect class="cls-1" x="485.16" y="388.59" width="1.73" height="1.32"/>
  <rect class="cls-1" x="487.66" y="388.59" width="1.73" height="1.32"/>
  <g>
    <path class="cls-1" d="M490.17,386.13h1.73v-1.32h-1.73v1.32Z"/>
    <path class="cls-1" d="M490.17,388.02h1.73v-1.32h-1.73v1.32Z"/>
    <path class="cls-1" d="M490.17,389.91h1.73v-1.32h-1.73v1.32Z"/>
    <path class="cls-1" d="M487.16,382.15c1.68,0,9.5,0,9.5,0,.36-.04.64-.35.64-.72,0-.39-.31-.71-.7-.72h0s-8.03,0-8.03,0c.28-.4.45-.83.5-1.26h7.65c1.03.08,1.84.94,1.84,1.99s-.79,1.88-1.8,1.98h-10.96s1.36-1.26,1.36-1.26Z"/>
    <path class="cls-1" d="M492.68,386.13h1.73s0-1.31,0-1.32h-1.73v1.32Z"/>
    <path class="cls-1" d="M492.68,388.02h1.73s0-1.31,0-1.32h-1.73v1.32Z"/>
    <path class="cls-1" d="M492.68,389.91h1.73s0-1.31,0-1.32h-1.73v1.32Z"/>
  </g>
  <rect class="cls-1" x="495.2" y="384.81" width="1.73" height="1.32"/>
  <rect class="cls-1" x="495.2" y="386.7" width="1.73" height="1.32"/>
  <rect class="cls-1" x="495.2" y="388.59" width="1.73" height="1.32"/>
  <g>
    <circle class="cls-5" cx="490.77" cy="385.44" r="13.95" transform="translate(-129.34 315.58) rotate(-31.72)"/>
    <path class="cls-2" d="M604.26,393.23c7.68,0,13.91-6.23,13.91-13.91s-6.23-13.91-13.91-13.91-13.91,6.23-13.91,13.91,6.23,13.91,13.91,13.91"/>
    <path class="cls-5" d="M604.26,393.23c7.68,0,13.91-6.23,13.91-13.91s-6.23-13.91-13.91-13.91-13.91,6.23-13.91,13.91,6.23,13.91,13.91,13.91Z"/>
    <circle class="cls-5" cx="604.26" cy="379.32" r="16.09" transform="translate(-77.12 167.8) rotate(-14.87)"/>
    <path class="cls-2" d="M604.01,393.22c7.68,0,13.91-6.23,13.91-13.91s-6.23-13.91-13.91-13.91-13.91,6.23-13.91,13.91,6.23,13.91,13.91,13.91"/>
    <path class="cls-5" d="M604.01,393.22c7.68,0,13.91-6.23,13.91-13.91s-6.23-13.91-13.91-13.91-13.91,6.23-13.91,13.91,6.23,13.91,13.91,13.91Z"/>
    <g class="cls-6">
      <g class="cls-10">
        <path class="cls-2" d="M603.97,395.32c8.83,0,16-7.16,16-16s-7.16-16-16-16-16,7.16-16,16,7.16,16,16,16"/>
      </g>
    </g>
    <circle class="cls-5" cx="604.26" cy="379.32" r="16.09" transform="translate(-77.12 167.8) rotate(-14.87)"/>
    <circle class="cls-5" cx="604.05" cy="379.34" r="13.95" transform="translate(-66.69 622.01) rotate(-52.02)"/>
    <path class="cls-1" d="M612.06,371.51h-4.31c.11.11.21.22.3.33.22.29.38.6.47.93h3.54c.4,0,.72.32.72.72v12.25c0,.4-.32.72-.72.72h-15.6c-.4,0-.72-.32-.72-.72v-12.25c0-.4.32-.72.72-.72h3.57c.13-.45.37-.86.71-1.2.02-.02.05-.04.07-.06h-4.35c-1.1,0-1.99.89-1.99,1.98v12.25c0,1.09.89,1.98,1.99,1.98h15.6c1.09,0,1.99-.89,1.99-1.98v-12.25c0-1.09-.89-1.98-1.99-1.98"/>
    <path class="cls-9" d="M602.84,371.51c.35,0,.7.09,1.03.28,0,0,0,0,0,0-.3.31-.52.69-.64,1.11,0,0,0,0,0,0,0,0,0,0,0,0-.13-.07-.26-.11-.4-.11-.42,0-.82.33-.82.79,0,.2.13.43.39.69l1.87,1.75s0,0,0,0,0,0,0,0l1.86-1.75c.19-.18.4-.47.39-.69,0-.44-.36-.79-.81-.79s-.81.36-.81.79v.43l-.65.61-.64-.6v-.44c0-1.15.94-2.08,2.09-2.08h.03c1.32,0,2.35,1.3,2,2.57-.11.39-.34.76-.72,1.12l-.04.03-2.64,2.48s-.06.04-.09.04-.07-.01-.09-.04l-2.62-2.46h0c-.54-.51-.83-1.08-.83-1.66-.01-1.21,1.02-2.08,2.11-2.08"/>
    <path class="cls-1" d="M611.67,384.44v2.04h-2.86v-2.06s0-.03,0-.04h.24c.32.24.72.39,1.15.39s.83-.15,1.15-.39h.31s.01.02.01.02v.03ZM608.79,384.39s0,0,0,0h0s0,0,0,0M610.2,382.17c.38,0,.69.31.69.69s-.31.69-.69.69-.69-.31-.69-.69.31-.69.69-.69M604.99,382.85c0,.38-.31.69-.69.69s-.69-.31-.69-.69.31-.69.69-.69.69.31.69.69M605.7,384.38h0s0,0,0,0c0,0,0,0-.01,0M605.69,386.48h-2.86v-2.04s0-.03,0-.03c0,0,0-.01,0-.02h.31c.32.24.72.39,1.15.39s.83-.15,1.15-.39h.24s0,.03,0,.04v2.06ZM599.01,382.85c0,.38-.31.69-.69.69s-.69-.31-.69-.69.31-.69.69-.69.69.31.69.69M599.73,384.38h0s0,0,0,0c0,0,0,0,0,0M599.72,386.48h-2.86v-2.04s0-.03,0-.03c0,0,0-.01,0-.02h.31c.32.24.72.39,1.15.39s.83-.15,1.15-.39h.24s0,.03,0,.04v2.06ZM612.89,387.06v-2.61c0-.12,0-.51-.28-.86-.15-.18-.34-.3-.53-.36.02-.12.04-.25.04-.37,0-.86-.57-1.59-1.35-1.83v-.63h0c-.02-.93-.78-1.69-1.72-1.69-.03,0-.06,0-.09,0h-.27v-.94c0-.83-.6-1.53-1.39-1.69l-1.27,1.19c.52,0,.93,0,.94,0,.25,0,.46.19.49.43h0s0,.04,0,.06c0,.01,0-.09,0,.93h-6.4c0-1.02,0-.91,0-.93,0-.02,0-.04,0-.06h0c.03-.24.24-.43.49-.43,0,0,.44,0,.98,0l-1.28-1.2c-.81.14-1.43.85-1.43,1.7v.94h-.25s-.06,0-.09,0c-.94,0-1.7.75-1.72,1.69h0v.63c-.78.24-1.35.97-1.35,1.83,0,.13.01.25.04.37-.19.06-.38.18-.53.36-.28.35-.29.74-.29.86v2.5s2.66.56,2.66.56h2.65v-3.06c0-.12,0-.51-.28-.86-.13-.16-.29-.27-.46-.34.03-.13.04-.26.04-.4,0-.82-.52-1.52-1.25-1.79v-.63c0-.27.22-.49.49-.49.02,0,.46,0,.46,0h0s3.71,0,3.71,0v1.11c-.74.26-1.28.97-1.28,1.8,0,.13.01.25.04.37-.19.06-.38.18-.53.36-.28.35-.29.74-.29.86v3.06h5.31v-3.06c0-.12,0-.51-.28-.86-.13-.16-.29-.27-.46-.34.03-.13.04-.26.04-.4,0-.85-.56-1.57-1.33-1.82v-1.09h3.69s.45,0,.46,0c.27,0,.49.22.5.49v.63c-.73.27-1.25.97-1.25,1.79,0,.14.02.27.04.4-.17.07-.33.18-.46.34-.28.35-.29.74-.29.86v3.06h2.66l2.66-.45Z"/>
    <path class="cls-2" d="M537.02,448.73c16.41,0,29.71-13.3,29.71-29.71s-13.3-29.71-29.71-29.71-29.71,13.3-29.71,29.71,13.3,29.71,29.71,29.71"/>
    <circle class="cls-4" cx="537.02" cy="419.02" r="29.71" transform="translate(-55.61 754.81) rotate(-67.5)"/>
    <path class="cls-9" d="M537.02,442.95c13.22,0,23.93-10.71,23.93-23.93s-10.71-23.93-23.93-23.93-23.93,10.71-23.93,23.93,10.71,23.93,23.93,23.93"/>
    <path class="cls-2" d="M544.54,404.67c-5.98,0-10.84,4.83-10.84,10.76v2.27s3.32,3.11,3.32,3.11l3.35-3.14v-2.24c0-2.26,1.87-4.09,4.17-4.09s4.17,1.84,4.17,4.09c.05,1.15-1.03,2.62-2.03,3.57l-9.65,9.06s-.02,0-.02,0l-9.66-9.06c-1.36-1.35-2.03-2.51-2.03-3.57-.03-3.14,3.58-5.13,6.28-3.53.01,0,.02,0,.02,0,.61-2.19,1.77-4.15,3.32-5.74,0,0,0-.02,0-.03-7.08-4.18-16.36,1.07-16.29,9.3-.03,3.01,1.49,5.94,4.28,8.58l.03.02,13.58,12.75c.26.25.67.25.94,0l13.65-12.81.19-.18c1.93-1.89,3.16-3.81,3.71-5.81,1.82-6.64-3.61-13.4-10.49-13.31"/>
    <path class="cls-9" d="M460.75,481.61c.19,0,.39.05.57.16,0,0,0,0,0,0-.17.17-.29.38-.36.62h0c-.07-.04-.15-.06-.22-.06-.23,0-.46.18-.45.44,0,.11.07.24.22.38l1.04.97h0s0,0,0,0l1.04-.97c.11-.1.22-.26.22-.39,0-.24-.2-.44-.45-.44s-.45.2-.45.44v.24l-.36.34-.36-.34v-.24c0-.64.52-1.16,1.16-1.16h.02c.73,0,1.31.72,1.11,1.43-.06.22-.19.42-.4.63l-.02.02-1.47,1.38s-.03.02-.05.02c-.02,0-.04,0-.05-.02l-1.46-1.37h0c-.3-.29-.46-.6-.46-.93,0-.67.57-1.16,1.18-1.16"/>
    <path class="cls-2" d="M467.81,484.8h-5.29l-.62.58c-.06.06-.14.1-.22.12h6.12v-.71Z"/>
    <path class="cls-2" d="M467.81,483.4h-3.98c-.1.2-.24.4-.43.59h0s0,0,0,0l-.02.02h0s-.1.1-.1.1h4.54v-.71Z"/>
    <path class="cls-2" d="M463.88,482.31h4.38c.22,0,.4.18.4.4v3.17c.26.08.49.2.71.36v-3.53c0-.61-.5-1.11-1.11-1.11h-4.81c.06.06.12.12.17.19.12.16.21.34.26.52"/>
    <path class="cls-2" d="M466.3,489.91h-5.62c-.22,0-.4-.18-.4-.4v-5l-.55-.52h0s-.03-.03-.03-.03c-.04-.04-.08-.08-.12-.12v5.67c0,.61.5,1.11,1.11,1.11h7.11c-.58-.06-1.1-.32-1.48-.71"/>
    <path class="cls-2" d="M465.76,486.21h-4.63v.71h4.13c.13-.26.3-.5.5-.71"/>
    <path class="cls-2" d="M467.99,486.39c-.98,0-1.77.79-1.77,1.77s.79,1.77,1.77,1.77,1.77-.79,1.77-1.77-.79-1.77-1.77-1.77M467.99,490.61c-1.35,0-2.45-1.1-2.45-2.45s1.1-2.45,2.45-2.45,2.45,1.1,2.45,2.45-1.1,2.45-2.45,2.45"/>
    <path class="cls-2" d="M468.44,488.61c0,.11-.04.18-.09.23-.05.05-.13.07-.23.07-.12,0-.21-.06-.28-.19-.03-.05-.05-.12-.06-.19h.37l.07-.24h-.47s0-.07,0-.12c0-.03,0-.05,0-.07h.52l.08-.24h-.58s.02-.07.02-.1c.03-.11.08-.19.14-.25s.13-.08.22-.08.15.02.19.07c.05.05.07.12.08.22l.53-.25c-.05-.19-.13-.33-.26-.42-.13-.09-.31-.13-.55-.13-.21,0-.39.05-.54.15-.15.1-.26.24-.34.42-.05.11-.08.23-.09.36h-.28v.24h.26s0,.05,0,.07c0,.04,0,.08,0,.12h-.26v.24h.29c.02.11.05.22.09.31.08.18.18.33.33.42.14.1.32.15.53.15.15,0,.29-.03.41-.08.12-.05.22-.13.3-.23.08-.1.13-.22.15-.35l-.54-.14Z"/>
    <path class="cls-2" d="M573.82,439.67h-5.86c.06.06.12.12.17.19.12.16.21.33.26.51h5.43c.22,0,.4.18.4.4v6.8c0,.22-.18.4-.4.4h-8.67c-.22,0-.4-.18-.4-.4v-4.98l-.52-.48h0s-.03-.03-.03-.03c-.06-.05-.11-.11-.16-.16v5.65c0,.61.5,1.1,1.1,1.1h8.67c.61,0,1.1-.49,1.1-1.1v-6.8c0-.61-.49-1.1-1.1-1.1"/>
    <path class="cls-9" d="M565.23,439.67c.19,0,.39.05.58.16,0,0,0,0,0,0-.17.17-.29.38-.36.62t0,0h0c-.07-.04-.15-.06-.22-.06-.24,0-.46.18-.46.44,0,.11.07.24.22.39l1.04.98h0l1.04-.98c.11-.1.23-.26.22-.39,0-.24-.2-.44-.45-.44s-.45.2-.45.44v.24l-.36.34-.36-.33v-.25c0-.64.52-1.16,1.17-1.16h.02c.73,0,1.31.72,1.11,1.43-.06.22-.19.42-.4.63l-.02.02-1.47,1.38s-.03.02-.05.02-.04,0-.05-.02l-1.46-1.37h0c-.3-.29-.46-.6-.46-.93,0-.67.57-1.16,1.18-1.16"/>
    <path class="cls-2" d="M566.34,444.69c.3.09.6.16.9.23-.12.47-.19.98-.22,1.53h-1.31c.06-.65.28-1.24.63-1.75M567.91,443.36c-.17.26-.32.55-.45.88-.21-.04-.41-.09-.62-.15.31-.3.67-.55,1.07-.73M569.13,445.14v1.3h-1.39c.02-.51.1-.99.21-1.4.39.05.78.09,1.18.1M569.13,443.15v1.28c-.32-.01-.64-.04-.95-.08.26-.61.6-1.03.95-1.21M569.85,445.14c.4-.01.79-.05,1.18-.1.11.42.18.89.21,1.4h-1.39v-1.3ZM569.85,443.15c.35.18.69.6.95,1.21-.31.04-.63.07-.95.08v-1.28ZM572.14,444.09c-.2.05-.41.1-.62.15-.13-.33-.28-.62-.45-.88.4.18.76.43,1.07.73M573.27,446.45h-1.31c-.02-.54-.1-1.06-.22-1.53.31-.06.61-.14.9-.23.34.51.57,1.11.63,1.75M566.11,448.52c-.21-.42-.35-.88-.4-1.36h1.31c.02.48.08.94.17,1.36h.73c-.1-.41-.17-.87-.19-1.36h1.4v1.26c-.41.01-.81.05-1.21.1h3.12c-.4-.06-.8-.09-1.2-.1v-1.26h1.39c-.02.5-.09.95-.19,1.36h.73c.09-.42.15-.88.17-1.36h1.31c-.04.49-.18.95-.4,1.36h.79c.22-.53.34-1.11.34-1.72,0-2.49-2.02-4.51-4.51-4.51s-4.51,2.02-4.51,4.51c0,.61.12,1.19.34,1.72h.79Z"/>
    <path class="cls-9" d="M646.43,445.01c-.52,0-.94.42-.94.93v.2s.29.27.29.27l.29-.27v-.19c0-.2.16-.35.36-.35s.36.16.36.35c0,.1-.09.23-.18.31l-.84.78h0l-.84-.79c-.12-.12-.18-.22-.18-.31,0-.27.31-.44.54-.31,0,0,0,0,0,0,.05-.19.15-.36.29-.5,0,0,0,0,0,0-.61-.36-1.41.09-1.41.81,0,.26.13.51.37.74h0s1.17,1.1,1.17,1.1c.02.02.06.02.08,0l1.18-1.11h.02c.17-.18.27-.35.32-.52.16-.57-.31-1.16-.91-1.15"/>
    <path class="cls-2" d="M643.44,447.89h0v1.29h-1.36v-.38h0v-.93h0c0-.05.04-.09.09-.09,0,0,0,0,0,0h.04c.16.1.34.15.54.15s.39-.06.54-.15h.04s0,0,0,0c.05,0,.08.04.09.08v.03ZM642.76,446.39c.27,0,.49.22.49.49s-.22.48-.49.48-.48-.22-.48-.48.22-.49.48-.49M643.72,447.32c.06-.13.1-.28.1-.44,0-.58-.47-1.06-1.06-1.06s-1.05.47-1.05,1.06c0,.16.04.31.1.44-.18.12-.29.32-.29.55,0,0,0,.02,0,.03v1.85h2.5v-1.82s0-.04,0-.06c0-.23-.12-.43-.3-.55"/>
    <path class="cls-2" d="M649.64,444.62h0v1.29h-1.36v-.38h0v-.93h0c0-.05.04-.09.09-.09,0,0,0,0,0,0h.04c.16.1.34.15.54.15s.39-.06.54-.15h.04s0,0,0,0c.05,0,.08.04.09.08v.03ZM648.96,443.12c.27,0,.49.22.49.49s-.22.48-.49.48-.48-.22-.48-.48.22-.49.48-.49M649.92,444.05c.06-.13.1-.28.1-.44,0-.58-.47-1.06-1.06-1.06s-1.05.47-1.05,1.06c0,.16.04.31.1.44-.18.12-.29.32-.29.55,0,0,0,.02,0,.03v1.85h2.5v-1.82s0-.04,0-.06c0-.23-.12-.43-.3-.55"/>
    <path class="cls-2" d="M650.2,448.02h0s-1.17-1.1-1.17-1.1c-.02-.02-.06-.02-.08,0l-1.18,1.11h-.02s.95,0,.95,0v.79h0c0,.21-.16.37-.36.37,0,0-.01,0-.02,0h-3.94v.57h3.92s.03,0,.04,0c.51,0,.93-.42.93-.93h0v-.8h.93Z"/>
    <path class="cls-2" d="M647.61,443.13c.1-.24.27-.43.49-.57h-4.63s-.02,0-.04,0c-.51,0-.93.42-.93.93h0v.8h-.93s0,0,0,0l1.17,1.1s.06.02.08,0l1.18-1.11h.02s-.94,0-.94,0v-.79h0c0-.21.16-.37.36-.37,0,0,.01,0,.02,0h4.17Z"/>
    <path class="cls-2" d="M201.96,331.66c0,.4.16.62.59.62h2.86c.41,0,.62-.22.62-.65v-6.8c0-.86.51-2.08,1.94-2.08,1.05,0,1.78.76,1.78,1.97v4.02c0,2.51,1.13,3.67,3.35,3.67,1.43,0,1.81-.43,1.81-.92v-1.81c0-.4-.24-.49-.43-.57-.35-.14-.65-.3-.65-1.11v-3.73c0-2.83-1.32-5.18-4.62-5.18-1.67,0-2.65.57-3.19,1.32v-7.1c0-.43-.22-.65-.62-.65h-2.86c-.43,0-.59.22-.59.62v18.36ZM187.59,325.8c0,4.13,2.62,6.64,6.4,6.64,3.1,0,4.72-1.54,5.4-2.29.22-.27.22-.65-.24-1.11l-1.11-1.16c-.35-.35-.59-.19-.95.08-.46.38-1.27.89-2.51.89-1.46,0-2.97-.76-2.97-3.1,0-2.08.81-3.05,2.4-3.05s1.84.86,1.84,1.65c0,.62.03.78.7.78h2c.86,0,.86-1.08.86-1.65,0-2.38-1.86-4.37-5.4-4.37-4.43,0-6.43,2.73-6.43,6.7M185.76,329.72c0-.46-.22-.54-.43-.62-.38-.14-.62-.4-.62-1.08v-8.1c0-.43-.22-.65-.62-.65h-2.86c-.43,0-.59.22-.59.62v6.51c0,.32-.22,2.4-2.21,2.4-.92,0-1.54-.65-1.54-2.08v-6.8c0-.43-.22-.65-.59-.65h-2.86c-.43,0-.62.22-.62.62v7.86c0,2.7,1.03,4.7,4.13,4.7,2.57,0,3.7-1.19,4.16-2.13v.03c.35,1.4,1.27,2.08,2.89,2.08s1.78-.54,1.78-.92v-1.78ZM161.92,324.69s.3-2,2.16-2c1.11,0,2.38.84,2.38,3.08,0,2.08-1,3.08-2.35,3.08-1.65,0-2.19-1.48-2.19-2.13v-2.02ZM160.78,332.28c.46,0,.59-.27.59-.62v-.65c.49.4,1.62,1.43,3.62,1.43,2.84,0,5.48-1.84,5.48-6.7,0-4.59-2.73-6.64-5.24-6.64s-3.29,1.3-3.32,1.35v-7.13c0-.43-.22-.65-.62-.65h-2.86c-.43,0-.59.22-.59.62v18.36c0,.38.16.62.59.62h2.35ZM155.41,329.69c0-.46-.24-.51-.46-.59-.35-.11-.59-.35-.59-1.11v-14.66c0-.43-.22-.65-.62-.65h-2.86c-.43,0-.59.22-.59.62v6.91c-.03-.05-.65-1.11-2.89-1.11-2.84,0-5.7,1.84-5.7,6.7,0,4.59,2.75,6.64,5.24,6.64s3.46-1.3,3.83-2.02v.08c.3,1.3,1.27,1.92,2.86,1.92s1.78-.54,1.78-.92v-1.81ZM150.28,326.85c-.03.19-.4,2-2.21,2-1.11,0-2.35-.89-2.35-3.1,0-2.05,1.03-3.05,2.35-3.05,1.57,0,2.16,1.35,2.21,2.03v2.13ZM127.19,331.63c0,.43.19.65.62.65h2.86c.38,0,.59-.22.59-.62v-6.83c.05-.86.51-2.08,1.97-2.08,1.08,0,1.78.76,1.78,2.02v3.97c0,2.51,1.13,3.67,3.35,3.67,1.54,0,1.78-.54,1.78-.92v-1.78c0-.49-.27-.54-.51-.65-.32-.11-.54-.35-.54-1.05v-3.73c0-2.83-1.32-5.18-4.64-5.18-2.38,0-3.35,1.05-3.73,2.02v-.19c-.32-1.21-1.3-1.81-2.81-1.81s-1.78.51-1.78.89v1.78c0,.51.24.59.49.68.35.11.57.35.57,1.03v8.13ZM119.42,327.77s-.43,1.59-2.32,1.59c-.76,0-1.32-.38-1.32-1.05s.49-1.08,1.49-1.08h2.16v.54ZM124.58,329.69c0-.46-.35-.54-.43-.57-.3-.11-.65-.38-.65-1.11v-4.02c0-3.05-1.62-4.89-5.59-4.89-3.59,0-5.45,1.51-5.45,3.73,0,.84.11,1.49.86,1.49h2.29c.7,0,.59-.14.59-.81,0-.89.57-1.4,1.57-1.4,1.05,0,1.65.49,1.65,1.7v1.48h-2.65c-3.67,0-5.1,1.32-5.1,3.64,0,1.97,1.57,3.51,4.27,3.51,2.46,0,3.54-1.13,4-1.97.19,1.22,1.3,1.94,2.86,1.94s1.78-.54,1.78-.94v-1.78ZM109.24,314c0-.4-.24-.62-.62-.62h-3.13c-.38,0-.59.22-.59.62v7.56h-6.56v-7.56c0-.4-.22-.62-.59-.62h-3.13c-.4,0-.62.22-.62.62v17.66c0,.4.22.62.62.62h3.13c.38,0,.59-.22.59-.62v-6.59h6.56v6.59c0,.4.22.62.59.62h3.13c.38,0,.62-.22.62-.62v-17.66Z"/>
    <path class="cls-2" d="M205.28,283.25c.05-.29.77-3.5,3.94-3.5,1.92,0,4.18,1.49,4.18,5.47,0,3.7-1.78,5.47-4.18,5.47-2.83,0-3.84-2.45-3.94-3.65v-3.79ZM196.16,278.21c0,.72.34.91.67,1.06.67.24,1.2.58,1.2,1.92v26.16c0,.77.38,1.15,1.1,1.15h5.09c.77,0,1.06-.38,1.06-1.1v-12.19c.14.19,1.39,1.87,5.14,1.87,5.04,0,10.13-3.26,10.13-11.9,0-8.16-4.85-11.81-9.31-11.81s-6.14,2.3-6.82,3.6v-.14c-.58-2.3-2.26-3.41-5.09-3.41s-3.17.96-3.17,1.63v3.17ZM192.85,292.23c0-.82-.38-.96-.77-1.1-.67-.24-1.1-.72-1.1-1.92v-14.4c0-.77-.38-1.15-1.1-1.15h-5.09c-.77,0-1.06.38-1.06,1.1v11.57c0,.58-.38,4.27-3.94,4.27-1.63,0-2.74-1.15-2.74-3.7v-12.1c0-.77-.38-1.15-1.06-1.15h-5.09c-.77,0-1.1.38-1.1,1.1v13.97c0,4.8,1.82,8.35,7.34,8.35,4.56,0,6.58-2.11,7.39-3.79v.05c.62,2.5,2.26,3.7,5.14,3.7s3.17-.96,3.17-1.63v-3.17ZM157.86,273.65v-6.1c0-.72-.38-1.15-1.1-1.15h-5.09c-.77,0-1.06.38-1.06,1.15v6.1h-2.35c-.67,0-1.06.43-1.06,1.1v3.5c0,.67.38,1.1,1.06,1.1h2.35v6.96c0,6.86,2.69,10.75,9.89,10.75,2.59,0,4.56-1.1,5.57-1.78.38-.24.67-.62.34-1.44l-1.44-3.6c-.29-.62-.72-.48-1.06-.29-.53.29-1.44.67-2.59.67-2.35,0-3.46-1.44-3.46-4.61v-6.67h6.48c.72,0,1.1-.43,1.1-1.1v-3.5c0-.67-.38-1.1-1.1-1.1h-6.48ZM130.6,282.53c.48-2.5,1.78-3.55,3.55-3.55,2.21,0,3.36,1.3,3.36,3.55h-6.91ZM143.22,286.32c.91,0,1.15-.34,1.15-1.92,0-6.77-2.93-11.04-9.84-11.04-7.87,0-11.42,4.85-11.42,11.9s4.66,11.81,11.42,11.81c5.76,0,8.74-2.98,9.79-4.46.19-.34.24-.67-.14-1.06l-2.54-2.69c-.48-.43-.86-.19-1.15.1-.82.86-2.45,2.21-4.9,2.21-1.63,0-5.09-1.15-5.18-4.7v-.14h12.82ZM118.79,270.05c.77-.48.62-1.06.43-1.39-1.06-1.78-4.37-5.76-12.43-5.76s-12.34,4.46-12.34,9.65c0,13.1,17.38,7.78,17.38,14.98,0,2.02-1.73,3.31-4.66,3.31-4.7,0-7.63-2.98-8.78-4.37-.43-.58-1.15-.38-1.54,0l-2.98,2.78c-.43.34-.58,1.01-.24,1.49,1.1,1.87,4.85,6.34,13.54,6.34,9.22,0,12.77-4.99,12.77-9.74,0-12.82-17.09-8.45-17.14-14.88.05-1.87,1.73-3.17,4.56-3.12,3.79-.05,5.86,2.06,6.58,3.12.24.34.67.43,1.49-.1l3.36-2.3Z"/>
  </g>
</svg>