<?xml version="1.0" encoding="utf-8"?>
<!-- Generator: Adobe Illustrator 28.1.0, SVG Export Plug-In . SVG Version: 6.00 Build 0)  -->
<svg version="1.1" id="Ebene_1" xmlns="http://www.w3.org/2000/svg" xmlns:xlink="http://www.w3.org/1999/xlink" x="0px" y="0px"
	 viewBox="0 0 39 30" style="enable-background:new 0 0 39 30;" xml:space="preserve">
<style type="text/css">
	.st0{fill:#ffffff;}
</style>
<g>
	<path class="st0" d="M38.3,2.7c-0.9-1.1-2.4-1.3-3.5-0.4C33.9,3,33.6,4.2,34,5.2l-4,3.1c-1.2-1.8-3.3-3.1-5.6-3.1
		c-3.7,0-6.6,3-6.6,6.6v1.4l2,1.9l2.1-1.9v-1.3c0-1.4,1.1-2.5,2.6-2.5s2.6,1.1,2.6,2.5c0,0.7-0.6,1.6-1.2,2.2L20,19.7l0,0l-5.9-5.6
		c-0.8-0.8-1.2-1.5-1.2-2.2c0-1.9,2.2-3.1,3.9-2.2l0,0c0.4-1.3,1.1-2.5,2-3.5l0,0c-3.5-2-7.8-0.4-9.3,2.9L5.3,7.5
		c0.1-1.1-0.5-2.2-1.6-2.6C2.4,4.4,0.9,5.1,0.4,6.3c-0.5,1.3,0.2,2.8,1.4,3.3c1.1,0.4,2.3,0,2.9-0.9l4.2,1.6c-0.1,0.5-0.2,1-0.2,1.6
		c0,1.8,0.9,3.6,2.6,5.3l0,0l2.4,2.3l-5,5.4c-1-0.5-2.2-0.3-3,0.5c-0.9,1-0.9,2.6,0.1,3.6s2.6,0.9,3.6-0.1c0.8-0.8,0.9-2.1,0.3-3
		l5-5.4l4.9,4.6c0.2,0.2,0.4,0.2,0.6,0l8.4-7.9l0.1-0.1c1.2-1.2,1.9-2.3,2.3-3.6c0.4-1.3,0.3-2.7-0.2-3.9L35,6.3
		c0.9,0.7,2.1,0.7,3,0C38.9,5.4,39.1,3.8,38.3,2.7z"/>
	<path class="st0" d="M5.8,14.5c0-0.8-0.7-1.5-1.5-1.5s-1.5,0.7-1.5,1.5s0.7,1.4,1.5,1.4S5.8,15.3,5.8,14.5z"/>
	<circle class="st0" cx="32.6" cy="19.5" r="2.5"/>
	<circle class="st0" cx="28.3" cy="23.2" r="1.6"/>
	<ellipse class="st0" cx="26.9" cy="2.2" rx="1.6" ry="1.6"/>
</g>
</svg>
