<?xml version="1.0" encoding="utf-8"?>
<!-- Generator: Adobe Illustrator 28.2.0, SVG Export Plug-In . SVG Version: 6.00 Build 0)  -->
<svg version="1.1" id="Ebene_1" xmlns="http://www.w3.org/2000/svg" xmlns:xlink="http://www.w3.org/1999/xlink" x="0px" y="0px"
	 viewBox="0 0 1200 900" style="enable-background:new 0 0 1200 900;" xml:space="preserve">
<style type="text/css">
	.st0{fill:#FFFFFF;}
	.st1{fill:#E6382D;}
</style>
<g>
	<g>
		<path class="st0" d="M627.2,719.2h50.1v-12.6h-34.1v-15.2h29.3v-12.1h-29.3v-11.6h31.3v-12.4h-47.3L627.2,719.2L627.2,719.2z
			 M573,667.2h13.3c2.8,0,9.5,0.2,9.5,8.5c0,2-0.5,8.8-9.6,8.8h-13.3v-17.4H573z M556.9,655.3v64H573v-22.8h10l12.8,22.8h17.6
			l-14.7-25.5c7-2.5,13.2-6.8,13.2-17.7c0-18.3-15.1-20.8-24.5-20.8H556.9z M524.5,697.5h-16.2l7.8-27L524.5,697.5z M548.3,719.2
			l-23.6-64H508l-23.7,64h17l3.2-10.2h23.6l3.2,10.2H548.3z M485.7,655.3h-16l-9.3,44l-11.9-44h-14.2l-11.6,44l-9.4-44h-16l16.2,64
			H430l11.6-40.9l11.5,40.9h16.4L485.7,655.3z M394.1,667.9v-12.6h-49.3v12.6h16.7v51.4h16.1v-51.4H394.1z M291.3,655.3v64h16v-25.9
			h30.5V681h-30.5v-13.4h33.1v-12.4H291.3z M230.7,686.8c0-8.6,3.7-20.1,15.9-20.1c11.3,0,16.4,9.2,16.4,20.9c0,9-4.3,20-16.1,20
			C235.4,707.5,230.7,697,230.7,686.8 M215,687c0,17.6,10.7,34.1,31.8,34.1c20.5,0,32.2-16.3,32.2-33.5c0-15.2-9.2-34.5-32.4-34.5
			C223.5,653.3,215,672.4,215,687 M203.1,665.9c-6.2-6-14.6-12.1-28.1-12.1c-16.4,0-25.9,8.7-25.9,21.3c0,11.2,9.2,16.4,20.4,18
			l7.4,1c5.7,0.7,11.1,2,11.1,6.5c0,5.3-7,7.5-11.8,7.5c-6.9,0-14.2-2.9-18.5-8.1l-12.1,7.7c6.6,7.6,14.2,12.9,29.1,12.9
			c18.3,0,29-8.7,29-22.2c0-11-6.9-16-23.6-18.4l-7-1c-5.4-0.8-8.2-2.5-8.2-5.9c0-2.9,2.9-6.8,9.5-6.8c6.9,0,12.1,3.2,16.8,7.9
			L203.1,665.9z"/>
	</g>
	<g>
		<path class="st0" d="M931,545.8H750.6V202c0-2.3-1.8-4.1-4.1-4.1h-31.9c-2.3,0-4.1,1.8-4.1,4.1v379.8c0,2.3,1.8,4.1,4.1,4.1H931
			c2.3,0,4.1-1.8,4.1-4.1v-31.9C935.1,547.6,933.3,545.8,931,545.8z"/>
		<path class="st0" d="M673.1,545.9H474.7c-9.4,0-17.2-7.7-17.1-17.1c0-3.5,0.9-6.6,2.4-8.5l0.2-0.3l192.1-280
			c0.5-0.7,0.7-1.5,0.7-2.4V202c0-2.3-1.8-4.1-4.1-4.1H435.8c-2.3,0-4.1,1.8-4.1,4.1v31.9c0,2.3,1.8,4.1,4.1,4.1L605,238
			L427.5,496.6c-8.3,11.3-10.1,23.7-10.1,32.2c0,31.4,25.6,57,57,57h198.7c2.3,0,4.1-1.8,4.1-4.1V550
			C677.3,547.8,675.4,545.9,673.1,545.9z"/>
		<path class="st0" d="M301.3,426.4c57.7-5.8,103-54.8,103-114c0-62.9-52.5-114.4-115.6-114.4h-139c-2.3,0-4.1,1.8-4.1,4.1v87.4
			c0,2.3,1.8,4.1,4.1,4.1h31.9c2.3,0,4.1-1.8,4.1-4.1V238h104.1c41.2,0,74.6,33.6,74.4,74.8c-0.2,41.1-34.1,73.9-75.2,73.9h-86.3
			c-31.5,0-57,25.5-57,57v137.9c0,2.3,1.8,4.1,4.1,4.1h31.9c2.3,0,4.1-1.8,4.1-4.1V443.9c0-9.3,7.6-16.9,16.9-16.9h50.6l108,157.2
			c0.8,1.1,2,1.8,3.4,1.8h38.7c3.3,0,5.3-3.7,3.4-6.5L301.3,426.4z"/>
	</g>
	<path class="st1" d="M980.4,195.3c-36,0-65.2,29-65.2,64.8v13.6l20,18.7l20.2-18.9v-13.5c0-13.6,11.2-24.6,25.1-24.6
		c13.8,0,25.1,11,25.1,24.6c0.3,6.9-6.2,15.8-12.2,21.5L935.1,336H935l-58.1-54.5c-8.2-8.1-12.2-15.1-12.2-21.5
		c-0.2-18.9,21.5-30.8,37.8-21.2c0,0,0.1,0,0.1-0.1c3.6-13.2,10.7-24.9,20-34.5V204c-42.5-25.2-98.4,6.5-98,55.9
		c-0.2,18.1,9,35.7,25.7,51.6l0.2,0.1l81.7,76.7c1.6,1.5,4.1,1.5,5.7,0l82.1-77.1l1.1-1c11.6-11.3,18.9-22.9,22.3-34.9
		C1054.4,235.4,1021.8,194.8,980.4,195.3z"/>
</g>
</svg>
