<?xml version="1.0" encoding="UTF-8"?>
<svg id="Ebene_1" data-name="Ebene 1" xmlns="http://www.w3.org/2000/svg" viewBox="0 0 141.73 124.65">
  <defs>
    <style>
      .cls-1 {
        fill: #fff;
        stroke-width: 0px;
      }
    </style>
  </defs>
  <path class="cls-1" d="M99.88.03C76.81.03,58.05,18.66,58.05,41.55l.03,8.76,12.78,12.01,12.92-12.11v-8.66c0-8.7,7.22-15.78,16.09-15.78s16.09,7.08,16.09,15.78c.2,4.42-3.97,10.13-7.84,13.79l-37.22,34.96s-.06.02-.09,0l-37.26-34.96c-5.27-5.19-7.83-9.7-7.83-13.78-.12-12.13,13.83-19.79,24.24-13.62.04.02.08,0,.09-.04,2.35-8.44,6.81-16.02,12.79-22.13.03-.03.02-.08-.01-.1C35.53-10.46-.27,9.82,0,41.55c-.12,11.6,5.75,22.94,16.53,33.12l.12.08,52.39,49.18c1.02.96,2.61.96,3.63,0l52.66-49.43.72-.68c7.44-7.29,12.18-14.7,14.32-22.43C147.39,25.78,126.42-.32,99.88.03"/>
</svg>