<?xml version="1.0" encoding="utf-8"?>
<!-- Generator: Adobe Illustrator 28.1.0, SVG Export Plug-In . SVG Version: 6.00 Build 0)  -->
<svg version="1.1" id="Ebene_1" xmlns="http://www.w3.org/2000/svg" xmlns:xlink="http://www.w3.org/1999/xlink" x="0px" y="0px"
	 viewBox="0 0 595.3 841.9" style="enable-background:new 0 0 595.3 841.9;" xml:space="preserve">
<style type="text/css">
	.st0{fill:#1E1E1C;}
	.st1{fill:#E7392C;}
	.st2{fill:#E3E3E3;}
	.st3{fill:#646363;}
	.st4{fill:#FFFFFF;}
	.st5{fill:none;stroke:#646363;stroke-width:0.635;}
	.st6{opacity:0.7;}
	.st7{clip-path:url(#SVGID_00000052100210661315827040000009696249237588380550_);fill:#FFFFFF;}
	.st8{clip-path:url(#SVGID_00000175299623286494951030000015954517905161897097_);fill:#FFFFFF;}
	.st9{clip-path:url(#SVGID_00000092441545009440840970000008822964358026590384_);fill:#FFFFFF;}
	.st10{fill:none;stroke:#646363;stroke-width:1.271;}
</style>
<g>
	<g>
		<path class="st0" d="M388.2,147.8c-1.1-1-2.5-2.1-4.8-2.1c-2.8,0-4.4,1.5-4.4,3.7c0,1.9,1.6,2.8,3.5,3.1l1.3,0.2
			c1,0.1,1.9,0.3,1.9,1.1c0,0.9-1.2,1.3-2,1.3c-1.2,0-2.4-0.5-3.2-1.4l-2.1,1.3c1.1,1.3,2.4,2.2,5,2.2c3.1,0,5-1.5,5-3.8
			c0-1.9-1.2-2.7-4-3.1l-1.2-0.2c-0.9-0.1-1.4-0.4-1.4-1c0-0.5,0.5-1.2,1.6-1.2c1.2,0,2.1,0.5,2.9,1.4L388.2,147.8z M390.3,151.5
			c0,3,1.8,5.8,5.4,5.8c3.5,0,5.5-2.8,5.5-5.7c0-2.6-1.6-5.9-5.5-5.9C391.7,145.7,390.3,149,390.3,151.5 M393,151.4
			c0-1.5,0.6-3.4,2.7-3.4c1.9,0,2.8,1.6,2.8,3.6c0,1.5-0.7,3.4-2.8,3.4C393.8,155,393,153.2,393,151.4 M403.3,146V157h2.7v-4.4h5.2
			v-2.1h-5.2v-2.3h5.7V146H403.3z M420.9,148.2V146h-8.4v2.2h2.9v8.8h2.8v-8.8H420.9z M436.6,146h-2.7l-1.6,7.5l-2-7.5h-2.4l-2,7.5
			l-1.6-7.5h-2.7l2.8,10.9h2.8l2-7l2,7h2.8L436.6,146z M447.3,157l-4-10.9h-2.9l-4.1,10.9h2.9l0.5-1.8h4l0.5,1.8H447.3z
			 M443.2,153.3h-2.8l1.3-4.6L443.2,153.3z M448.8,146V157h2.8v-3.9h1.7l2.2,3.9h3l-2.5-4.4c1.2-0.4,2.2-1.2,2.2-3
			c0-3.1-2.6-3.5-4.2-3.5H448.8z M451.5,148.1h2.3c0.5,0,1.6,0,1.6,1.5c0,0.3-0.1,1.5-1.6,1.5h-2.3V148.1z M460.8,157h8.6v-2.2h-5.8
			v-2.6h5v-2.1h-5v-2h5.4V146h-8.1V157z"/>
		<path class="st0" d="M512.8,127.3h-30.9V68.5c0-0.4-0.3-0.7-0.7-0.7h-5.5c-0.4,0-0.7,0.3-0.7,0.7v65c0,0.4,0.3,0.7,0.7,0.7h37
			c0.4,0,0.7-0.3,0.7-0.7V128C513.5,127.6,513.2,127.3,512.8,127.3"/>
		<path class="st0" d="M468.7,127.3h-34c-1.6,0-2.9-1.3-2.9-2.9c0-0.6,0.2-1.1,0.4-1.5l0-0.1L465.1,75c0.1-0.1,0.1-0.3,0.1-0.4v-6.1
			c0-0.4-0.3-0.7-0.7-0.7h-36.5c-0.4,0-0.7,0.3-0.7,0.7l0,5.5c0,0.4,0.3,0.7,0.7,0.7l28.9,0l-30.4,44.2c-1.4,1.9-1.7,4.1-1.7,5.5
			c0,5.4,4.4,9.8,9.8,9.8h34c0.4,0,0.7-0.3,0.7-0.7V128C469.4,127.6,469.1,127.3,468.7,127.3"/>
		<path class="st0" d="M405,106.9c9.9-1,17.6-9.4,17.6-19.5c0-10.8-9-19.6-19.8-19.6h-23.8c-0.4,0-0.7,0.3-0.7,0.7v15
			c0,0.4,0.3,0.7,0.7,0.7h5.5c0.4,0,0.7-0.3,0.7-0.7v-8.8h17.8c7,0,12.8,5.8,12.7,12.8c0,7-5.8,12.7-12.9,12.7h-14.8
			c-5.4,0-9.8,4.4-9.8,9.8v23.6c0,0.4,0.3,0.7,0.7,0.7h5.5c0.4,0,0.7-0.3,0.7-0.7v-23.6c0-1.6,1.3-2.9,2.9-2.9h8.6l18.5,26.9
			c0.1,0.2,0.4,0.3,0.6,0.3h6.6c0.6,0,0.9-0.6,0.6-1.1L405,106.9z"/>
		<path class="st1" d="M521.2,67.3c-6.2,0-11.2,5-11.2,11.1l0,2.3l3.4,3.2l3.4-3.2v-2.3c0-2.3,1.9-4.2,4.3-4.2
			c2.4,0,4.3,1.9,4.3,4.2c0.1,1.2-1.1,2.7-2.1,3.7l-9.9,9.3c0,0,0,0,0,0l-9.9-9.3c-1.4-1.4-2.1-2.6-2.1-3.7c0-3.2,3.7-5.3,6.5-3.6
			c0,0,0,0,0,0c0.6-2.3,1.8-4.3,3.4-5.9c0,0,0,0,0,0c-7.3-4.3-16.8,1.1-16.8,9.6c0,3.1,1.5,6.1,4.4,8.8l0,0l14,13.1
			c0.3,0.3,0.7,0.3,1,0l14-13.2l0.2-0.2c2-1.9,3.2-3.9,3.8-6C533.9,74.2,528.3,67.2,521.2,67.3"/>
	</g>
	<g>
		<path d="M84.4,444.7c0,0.4-0.2,0.6-0.5,0.6H81c-0.3,0-0.6-0.2-0.6-0.6V429c0-0.4,0.2-0.6,0.6-0.6h9.8c0.3,0,0.6,0.2,0.6,0.6v2
			c0,0.3-0.2,0.5-0.6,0.5h-6.5v4.1h4.8c0.3,0,0.6,0.2,0.6,0.5v1.9c0,0.4-0.2,0.6-0.6,0.6h-4.8V444.7z"/>
		<path d="M97.3,444.7c0,0.4-0.2,0.6-0.5,0.6H94c-0.4,0-0.6-0.2-0.6-0.6V429c0-0.4,0.2-0.6,0.6-0.6h2.8c0.3,0,0.5,0.2,0.5,0.6V444.7
			z"/>
		<path d="M101.1,445.3c-0.4,0-0.6-0.2-0.6-0.6V429c0-0.4,0.2-0.6,0.6-0.6h6.2c3.4,0,5.4,1.3,5.4,4.5c0,2.9-1.8,3.4-2.7,3.4v0
			c1.1,0,3.8,1,3.8,4.1c0,3.5-2.7,4.8-5.8,4.8H101.1z M106.6,435.3c1.6,0,2.2-0.7,2.2-1.9c0-1.2-0.8-1.9-2.5-1.9h-1.8v3.7H106.6z
			 M107,442.2c1.5,0,2.5-0.5,2.5-2.1c0-1.5-1.1-2.1-2.6-2.1h-2.5v4.2H107z"/>
		<path d="M125.4,429c0-0.4,0.2-0.6,0.6-0.6h2.8c0.4,0,0.6,0.2,0.6,0.6v9.3c0,5.4-3,7.1-6.6,7.1c-3.6,0-6.7-1.8-6.7-7.1l0-9.3
			c0-0.3,0.2-0.6,0.6-0.6h2.8c0.4,0,0.6,0.2,0.6,0.6v9.6c0,1.8,0.6,3.4,2.8,3.4s2.7-1.5,2.7-3.4V429z"/>
		<path d="M147.8,445.3c-0.7,0-1-0.3-1.4-1l-5-8.6v9c0,0.4-0.2,0.6-0.5,0.6H138c-0.4,0-0.6-0.2-0.6-0.6V429c0-0.4,0.2-0.6,0.6-0.6
			h2.5c0.8,0,1.1,0.5,1.5,1.1l5,8.9V429c0-0.4,0.2-0.6,0.6-0.6h2.8c0.4,0,0.6,0.2,0.6,0.6v15.7c0,0.4-0.2,0.6-0.6,0.6H147.8z"/>
		<path d="M156.7,440.1L156.7,440.1c0,1.8,1.8,2.4,2.6,2.4c1.2,0,2-0.7,2.4-1.1c0.1-0.1,0.3-0.3,0.6,0l1.3,1.3
			c0.2,0.2,0.2,0.4,0.1,0.5c-0.5,0.7-2,2.2-4.9,2.2c-3.4,0-5.7-2.2-5.7-5.9c0-3.5,1.8-6,5.7-6c3.5,0,4.9,2.1,4.9,5.5
			c0,0.8-0.1,1-0.6,1H156.7z M160.3,438.2c0-1.1-0.6-1.8-1.7-1.8c-0.9,0-1.5,0.5-1.8,1.8H160.3z"/>
		<path d="M173.7,445.3c-0.4,0-0.6-0.4-0.8-0.6l-2-3l-2,3c-0.2,0.3-0.4,0.6-0.8,0.6h-2.6c-0.5,0-0.6-0.3-0.3-0.7l3.7-5.2l-3.6-5.1
			c-0.3-0.4-0.1-0.7,0.3-0.7h2.6c0.4,0,0.6,0.4,0.8,0.7l1.9,2.9l2-2.9c0.2-0.3,0.4-0.7,0.8-0.7h2.6c0.5,0,0.6,0.4,0.4,0.7l-3.6,5.1
			l3.7,5.2c0.2,0.4,0.1,0.7-0.3,0.7H173.7z"/>
		<path d="M186.5,433.7c0.4,0,0.6,0.2,0.6,0.6v1.8c0,0.3-0.2,0.6-0.6,0.6h-3.2v3.3c0,1.6,0.6,2.3,1.7,2.3c0.6,0,1-0.2,1.3-0.3
			c0.2-0.1,0.4-0.2,0.5,0.1l0.7,1.8c0.2,0.4,0,0.6-0.2,0.7c-0.5,0.3-1.5,0.9-2.8,0.9c-3.6,0-4.9-1.9-4.9-5.4v-3.5h-1.2
			c-0.3,0-0.5-0.2-0.5-0.6v-1.8c0-0.3,0.2-0.6,0.5-0.6h1.2v-3c0-0.4,0.1-0.6,0.5-0.6h2.5c0.4,0,0.6,0.2,0.6,0.6v3H186.5z"/>
	</g>
	<g>
		<path d="M94.1,474.7c0,0.4-0.2,0.6-0.6,0.6h-2.8c-0.3,0-0.5-0.2-0.5-0.6v-5.9h-5.8v5.9c0,0.4-0.2,0.6-0.5,0.6H81
			c-0.4,0-0.6-0.2-0.6-0.6V459c0-0.4,0.2-0.6,0.6-0.6h2.8c0.3,0,0.5,0.2,0.5,0.6v6.7h5.8V459c0-0.4,0.2-0.6,0.5-0.6h2.8
			c0.3,0,0.6,0.2,0.6,0.6V474.7z"/>
		<path d="M107.7,474.6c0,0.4-0.2,0.8-1.6,0.8s-2.4-0.6-2.5-1.7c-0.4,0.7-1.4,1.8-3.6,1.8c-2.4,0-3.8-1.4-3.8-3.1
			c0-2.1,1.3-3.2,4.5-3.2h2.4v-1.3c0-1.1-0.5-1.5-1.5-1.5c-0.9,0-1.4,0.5-1.4,1.2c0,0.6,0.1,0.7-0.5,0.7h-2c-0.7,0-0.8-0.6-0.8-1.3
			c0-2,1.7-3.3,4.8-3.3c3.5,0,5,1.6,5,4.3v3.6c0,0.6,0.3,0.9,0.6,1c0.1,0,0.4,0.1,0.4,0.5V474.6z M103.1,470.8h-1.9
			c-0.9,0-1.3,0.4-1.3,1s0.5,0.9,1.2,0.9c1.7,0,2.1-1.4,2.1-1.4V470.8z"/>
		<path d="M110,467.5c0-0.6-0.2-0.8-0.5-0.9c-0.2-0.1-0.4-0.1-0.4-0.6v-1.6c0-0.3,0.2-0.8,1.6-0.8c1.3,0,2.2,0.5,2.5,1.6v0.2
			c0.3-0.9,1.2-1.8,3.3-1.8c3,0,4.1,2.1,4.1,4.6v3.3c0,0.6,0.2,0.8,0.5,0.9c0.2,0.1,0.5,0.1,0.5,0.6v1.6c0,0.3-0.2,0.8-1.6,0.8
			c-2,0-3-1-3-3.3v-3.5c0-1.1-0.6-1.8-1.6-1.8c-1.3,0-1.7,1.1-1.8,1.8v6.1c0,0.4-0.2,0.6-0.5,0.6h-2.5c-0.4,0-0.6-0.2-0.6-0.6V467.5
			z"/>
		<path d="M135.1,474.6c0,0.3-0.2,0.8-1.6,0.8c-1.4,0-2.3-0.6-2.5-1.7v-0.1c-0.3,0.6-1.2,1.8-3.4,1.8c-2.2,0-4.7-1.8-4.7-5.9
			c0-4.3,2.5-6,5.1-6c2,0,2.5,0.9,2.6,1v-6.1c0-0.4,0.1-0.6,0.5-0.6h2.5c0.4,0,0.6,0.2,0.6,0.6v13c0,0.7,0.2,0.9,0.5,1
			c0.2,0.1,0.4,0.1,0.4,0.5V474.6z M130.6,468.6c0-0.6-0.6-1.8-2-1.8c-1.2,0-2.1,0.9-2.1,2.7c0,2,1.1,2.8,2.1,2.8
			c1.6,0,1.9-1.6,2-1.8V468.6z"/>
		<path d="M137.8,475.3c-0.4,0-0.5-0.2-0.5-0.6v-16.3c0-0.4,0.1-0.6,0.5-0.6h2.5c0.4,0,0.6,0.2,0.6,0.6v6.3c0,0,0.8-1.2,3-1.2
			c2.2,0,4.7,1.8,4.7,5.9c0,4.3-2.4,6-4.9,6c-1.8,0-2.8-0.9-3.2-1.3v0.6c0,0.3-0.1,0.6-0.5,0.6H137.8z M140.9,470.3
			c0,0.6,0.5,1.9,1.9,1.9c1.2,0,2.1-0.9,2.1-2.7c0-2-1.1-2.7-2.1-2.7c-1.7,0-1.9,1.8-1.9,1.8V470.3z"/>
		<path d="M162.1,474.6c0,0.3-0.2,0.8-1.6,0.8c-1.4,0-2.3-0.6-2.6-1.8v0c-0.4,0.8-1.4,1.9-3.7,1.9c-2.8,0-3.7-1.8-3.7-4.2v-7
			c0-0.4,0.2-0.6,0.6-0.6h2.5c0.3,0,0.5,0.2,0.5,0.6v6c0,1.3,0.6,1.8,1.4,1.8c1.8,0,2-1.8,2-2.1v-5.8c0-0.4,0.1-0.6,0.5-0.6h2.5
			c0.4,0,0.6,0.2,0.6,0.6v7.2c0,0.6,0.2,0.8,0.6,1c0.2,0.1,0.4,0.1,0.4,0.6V474.6z"/>
		<path d="M169.4,463.6c3.1,0,4.8,1.8,4.8,3.9c0,0.5,0,1.5-0.8,1.5h-1.8c-0.6,0-0.6-0.1-0.6-0.7c0-0.7-0.3-1.5-1.6-1.5
			c-1.4,0-2.1,0.9-2.1,2.7c0,2.1,1.3,2.8,2.6,2.8c1.1,0,1.8-0.5,2.2-0.8c0.3-0.2,0.5-0.4,0.8-0.1l1,1c0.4,0.4,0.4,0.7,0.2,1
			c-0.6,0.7-2,2-4.8,2c-3.4,0-5.7-2.2-5.7-5.9C163.7,466,165.5,463.6,169.4,463.6z"/>
		<path d="M176.5,458.4c0-0.4,0.1-0.6,0.5-0.6h2.5c0.4,0,0.6,0.2,0.6,0.6v6.3c0.5-0.7,1.3-1.2,2.8-1.2c2.9,0,4.1,2.1,4.1,4.6v3.3
			c0,0.7,0.3,0.9,0.6,1c0.2,0.1,0.4,0.1,0.4,0.5v1.6c0,0.4-0.3,0.8-1.6,0.8c-2,0-3-1-3-3.3v-3.6c0-1.1-0.6-1.8-1.6-1.8
			c-1.3,0-1.7,1.1-1.7,1.8v6c0,0.4-0.2,0.6-0.6,0.6H177c-0.4,0-0.5-0.2-0.5-0.6V458.4z"/>
	</g>
	<g>
		<path class="st2" d="M35.3,724.1c2.2-2.1,5.7-2.2,8-0.3l34.6-36.3c-1.3-1.4-1.3-3.6,0.1-4.9c1.4-1.3,3.6-1.3,4.9,0.1
			c1.3,1.4,1.3,3.6-0.1,4.9l18.7,17.9c0,0,0.1-0.1,0.1-0.1c2.2-2.2,5.8-2.1,8,0.1c0.3,0.3,0.5,0.5,0.7,0.8l23.3-14.2
			c-1.5-2.7-1.1-6.3,1.3-8.5c0.2-0.2,0.4-0.4,0.6-0.5l-14-19.9c-2.1,1.5-5,1.2-6.8-0.6c-2-2.1-2-5.4,0.1-7.4c2.1-2,5.4-2,7.4,0.1
			c2,2.1,2,5.4-0.1,7.4c-0.1,0.1-0.1,0.1-0.2,0.2l14,20c1.9-1.2,4.3-1.5,6.4-0.7l17-39.2c-0.8-0.4-1.6-1-2.3-1.7
			c-1.2-1.2-1.9-2.7-2.2-4.2l-3.9,0.7c0.1,0.8-0.2,1.6-0.9,2.2c-1.1,1.1-2.9,1.1-4-0.1c-1.1-1.1-1.1-2.9,0.1-4
			c1.1-1.1,2.9-1.1,4,0.1c0.4,0.4,0.6,0.8,0.7,1.3l3.9-0.7c-0.2-1.9,0.2-3.8,1.2-5.5l-20.6-13.4c-0.2,0.4-0.4,0.7-0.8,1
			c-1.8,1.7-4.6,1.7-6.3-0.1c-1.7-1.8-1.7-4.6,0.1-6.3c1.8-1.7,4.6-1.7,6.3,0.1c1.3,1.3,1.6,3.2,0.9,4.8l20.7,13.4
			c0.3-0.4,0.6-0.8,1-1.1c2.6-2.5,6.4-3,9.4-1.5l8.3-15.5c-0.3-0.2-0.6-0.4-0.8-0.7c-1.7-1.8-1.7-4.6,0.1-6.3
			c1.8-1.7,4.6-1.7,6.3,0.1c1.7,1.8,1.7,4.6-0.1,6.3c-1.4,1.3-3.4,1.6-5,0.8l-8.3,15.4c0.7,0.4,1.3,0.9,1.9,1.5
			c2.5,2.6,3,6.3,1.5,9.4l46.3,23.9c0.2-0.4,0.5-0.7,0.8-1c1.1-1.1,2.7-1.5,4.1-1.3l4.6-16.1c-0.8-0.3-1.6-0.8-2.2-1.5
			c-2.3-2.4-2.3-6.3,0.2-8.6c2.4-2.3,6.3-2.3,8.6,0.2c2.3,2.4,2.3,6.3-0.1,8.6c-1.6,1.6-3.9,2-5.9,1.5l-4.6,16.1
			c0.8,0.2,1.6,0.6,2.2,1.3c0.7,0.7,1.1,1.5,1.2,2.4l56.4-13.3c-0.2-1.3,0.2-2.7,1.2-3.8L251,611.1c-2.4,2-6,1.8-8.2-0.5
			c-2.3-2.4-2.3-6.3,0.1-8.6c1.7-1.7,4.2-2.1,6.3-1.3l8.4-21.1c-0.5-0.2-1-0.5-1.4-0.9c-1.4-1.4-1.3-3.7,0.1-5
			c1.4-1.4,3.7-1.3,5,0.1c0.1,0.1,0.1,0.2,0.2,0.2l21.5-15.2c-0.6-0.9-0.4-2.1,0.3-2.8c0.9-0.9,2.3-0.8,3.2,0.1
			c0.9,0.9,0.8,2.3-0.1,3.2c-0.9,0.8-2.2,0.8-3.1,0l-21.5,15.3c0.7,1.1,0.6,2.5,0,3.6l6.9,4.8c0.1-0.1,0.2-0.2,0.3-0.3
			c0.9-0.9,2.3-0.8,3.2,0.1c0.9,0.9,0.8,2.3-0.1,3.2c-0.9,0.9-2.3,0.8-3.2-0.1c-0.6-0.7-0.8-1.6-0.5-2.4l-6.9-4.8
			c-0.1,0.1-0.2,0.2-0.3,0.3c-0.8,0.8-2,1.1-3.1,0.9l-8.4,21.2c0.7,0.3,1.3,0.7,1.8,1.3c2.3,2.4,2.3,6.1,0,8.4l32.2,36.1
			c1-0.8,2.3-1.2,3.5-1.1l6.6-43.3c-0.7-0.1-1.3-0.4-1.9-0.9c-1.2-1.2-1.1-3.1,0.1-4.3c1.2-1.2,3.1-1.1,4.3,0.1
			c1.2,1.2,1.1,3.1-0.1,4.3c-0.5,0.5-1.2,0.8-1.9,0.8l-6.6,43.4c0.6,0.1,1.1,0.3,1.6,0.7l64.9-78.5c0,0-0.1-0.1-0.1-0.1
			c-0.9-0.9-1.3-2.1-1.3-3.2l-10.8-1.2c-0.1,0.5-0.3,1.1-0.8,1.5c-1.1,1-2.8,1-3.8-0.1c-1-1.1-1-2.8,0.1-3.8c1.1-1,2.8-1,3.8,0.1
			c0.5,0.5,0.7,1.1,0.7,1.8l10.8,1.2c0.1-1.1,0.6-2.2,1.4-3.1c0.1-0.1,0.2-0.1,0.2-0.2l-16.9-22.8c-2.2,1.5-5.2,1.3-7.1-0.7
			c-2.1-2.2-2-5.7,0.1-7.8c2.2-2.1,5.7-2,7.8,0.1c2.1,2.2,2,5.7-0.1,7.8c0,0,0,0-0.1,0l16.9,22.8c1.9-1.1,4.4-0.9,6,0.8
			c0,0,0.1,0.1,0.1,0.2l12.5-11.3c-1.7-2.1-1.5-5.2,0.5-7.1c2.1-2,5.5-2,7.5,0.1c2,2.1,2,5.5-0.1,7.5c-2.1,2-5.5,2-7.5-0.1
			l-12.5,11.3c1.1,1.6,1.2,3.7,0.2,5.4l61,37.2c0.4-0.6,0.9-1.2,1.5-1.7c2.2-2.1,5.1-3.1,8-3l1.5-30.7c-1.3-0.1-2.7-0.6-3.7-1.7
			c-1.7-1.7-2-4.3-0.9-6.4l-9.6-4.8c-0.1,0.2-0.3,0.3-0.4,0.5c-1.4,1.4-3.7,1.3-5-0.1c-1.4-1.4-1.3-3.7,0.1-5c1.4-1.4,3.7-1.3,5,0.1
			c1.1,1.1,1.3,2.8,0.6,4.1l9.6,4.8c0.2-0.4,0.5-0.7,0.8-1c2.2-2.1,5.7-2.1,7.9,0.1c0.6,0.6,1,1.3,1.2,2l4.9-1.4
			c-0.3-1-0.1-2.1,0.7-2.9c1.1-1.1,2.9-1,3.9,0.1c1.1,1.1,1,2.9-0.1,3.9c-1.1,1.1-2.9,1-3.9-0.1c-0.2-0.2-0.3-0.3-0.4-0.5l-5,1.4
			c0.5,1.9,0,3.9-1.5,5.4c-1,1-2.3,1.5-3.6,1.5l-1.5,30.8c2.5,0.2,4.9,1.3,6.8,3.2c4.1,4.3,4,11.1-0.3,15.3
			c-0.7,0.7-1.5,1.2-2.3,1.7l11.6,21.3c3-1.3,6.6-0.8,9,1.7c3.1,3.2,3,8.2-0.2,11.3c-3.2,3.1-8.2,3-11.3-0.2
			c-3.1-3.2-3-8.2,0.2-11.3c0.5-0.5,1.1-1,1.8-1.3l-11.6-21.3c-3.6,1.8-8,1.4-11.2-1.1l-21.1,26.8c0.1,0.1,0.1,0.1,0.2,0.2
			c2.3,2.4,2.2,6.1-0.1,8.4c-2.4,2.3-6.1,2.2-8.4-0.1c-1.1-1.1-1.7-2.6-1.7-4.1l-17.6-1.2c-0.2,1.6-0.8,3.1-2.1,4.3
			c-1.3,1.2-2.9,1.9-4.5,1.9l0.8,10.8c1.3,0,2.6,0.5,3.5,1.5c1.9,2,1.8,5.1-0.1,7c-2,1.9-5.1,1.8-7-0.1c-1.9-2-1.8-5.1,0.1-7
			c0.8-0.8,1.9-1.2,2.9-1.3l-0.8-10.8c-1.7-0.1-3.5-0.8-4.8-2.1c-0.8-0.9-1.4-1.9-1.7-2.9l-18.8,4.4c0.1,0.8-0.2,1.7-0.8,2.3
			c-0.5,0.4-1,0.7-1.6,0.8c-0.8,0.2-1.7-0.1-2.4-0.8c-0.6-0.7-0.9-1.6-0.7-2.4c0.1-0.6,0.3-1.2,0.8-1.6c1.1-1.1,2.9-1,3.9,0.1
			c0.3,0.3,0.5,0.6,0.6,1l18.8-4.6c-0.4-2.2,0.3-4.5,2-6.1c2.1-2,5.2-2.5,7.7-1.3l3.2-5.7c-0.1-0.1-0.3-0.2-0.4-0.3
			c-1-1-1-2.7,0.1-3.7c1-1,2.7-1,3.7,0.1c1,1,1,2.7-0.1,3.7c-0.8,0.7-1.9,0.9-2.8,0.5l-3.2,5.7c0.6,0.3,1.1,0.7,1.6,1.2
			c1.3,1.4,2,3.2,1.9,4.9l17.6,1.2c0.1-1.4,0.7-2.7,1.8-3.8c2.2-2.1,5.5-2.2,7.8-0.4l21.1-26.8c-0.3-0.2-0.6-0.5-0.8-0.8
			c-1.7-1.7-2.6-3.9-2.9-6.1l-5.9,0.4c0,1-0.4,2.1-1.2,2.9c-1.5,1.5-4,1.4-5.5-0.1c-1.5-1.5-1.4-4,0.1-5.5s4-1.4,5.5,0.1
			c0.6,0.6,0.9,1.3,1,2l5.9-0.4c-0.2-2.1,0.3-4.3,1.4-6.2l-61-37.2c-0.1,0.1-0.1,0.2-0.2,0.3c-0.9,0.8-2,1.3-3.1,1.3l-1.6,18.9
			c1.4,0.2,2.7,0.8,3.7,1.8c2,2,2.2,5,0.9,7.4l12.2,7.6c0.1-0.2,0.3-0.3,0.4-0.5c1.2-1.2,3.2-1.2,4.4,0.1c1.2,1.2,1.2,3.2-0.1,4.4
			c-1.2,1.2-3.2,1.2-4.4-0.1c-0.9-0.9-1.1-2.3-0.6-3.4l-12.2-7.6c-0.2,0.3-0.5,0.6-0.8,0.9c-1.6,1.5-3.7,2-5.7,1.6l-7.2,24.1
			c0.3,0.1,0.6,0.3,0.8,0.6c1,1,0.9,2.6-0.1,3.6c-1,1-2.6,1-3.6-0.1c-1-1-1-2.6,0.1-3.6c0.6-0.6,1.5-0.8,2.3-0.7l7.2-24
			c-0.9-0.3-1.8-0.8-2.5-1.6c-2.4-2.5-2.3-6.4,0.2-8.7c1.3-1.2,2.9-1.8,4.5-1.7l1.6-18.9c-0.9,0-1.7-0.3-2.5-0.8l-64.9,78.5
			c0.1,0.1,0.2,0.1,0.2,0.2c1.9,1.9,1.8,5-0.1,6.9c-1.1,1.1-2.7,1.5-4.1,1.3l-4.6,22.6c1.2,0.3,2.4,0.9,3.3,1.9
			c2.7,2.8,2.6,7.2-0.2,9.9c-2.2,2.2-5.6,2.5-8.2,1.2l-9.7,15.2c0.1,0.1,0.2,0.1,0.2,0.2c0.9,1,0.9,2.5-0.1,3.5
			c-1,0.9-2.5,0.9-3.5-0.1c-0.9-1-0.9-2.5,0.1-3.5c0.8-0.7,1.9-0.9,2.8-0.4l9.7-15.2c-0.5-0.3-0.9-0.6-1.3-1
			c-2.7-2.8-2.6-7.2,0.2-9.9c1.7-1.6,3.9-2.2,6.1-1.9l4.6-22.6c-0.8-0.2-1.6-0.6-2.2-1.3c-0.6-0.6-0.9-1.3-1.1-2l-56.5,13.3
			c0,1-0.2,2-0.8,2.8l9.3,6.8c1-0.9,2.4-0.8,3.3,0.1c0.9,1,0.9,2.5-0.1,3.4c-1,0.9-2.5,0.9-3.4-0.1c-0.8-0.8-0.9-2.1-0.3-3l-9.3-6.8
			c-0.1,0.2-0.2,0.3-0.4,0.4c-0.8,0.8-1.8,1.2-2.8,1.3l11.6,55.3c1.8-0.2,3.7,0.3,5.1,1.8c2.3,2.4,2.2,6.1-0.1,8.4
			c-2.4,2.3-6.1,2.2-8.4-0.1c-2.3-2.4-2.2-6.1,0.1-8.4c0.8-0.8,1.8-1.3,2.8-1.5l-11.6-55.4c-0.8,0-1.6-0.2-2.3-0.6L198.3,706
			c0.4,0.2,0.8,0.5,1.1,0.9c2.1,2.2,2.1,5.7-0.1,7.9c-1.3,1.3-3,1.7-4.7,1.5l-4.1,29.3c0.4,0.1,0.8,0.3,1.1,0.6
			c0.9,0.9,0.8,2.3-0.1,3.2c-0.9,0.9-2.3,0.8-3.2-0.1c-0.9-0.9-0.8-2.3,0.1-3.2c0.4-0.4,1-0.6,1.5-0.6l4.1-29.3
			c-1-0.2-1.9-0.7-2.6-1.5c-2.1-2.2-2.1-5.7,0.1-7.9c1.7-1.7,4.2-2,6.3-1l20.4-36.4c-0.3-0.2-0.5-0.4-0.8-0.7
			c-1.4-1.5-1.7-3.6-0.9-5.4l-46.2-23.9c-0.4,0.7-0.9,1.4-1.5,1.9c-0.8,0.8-1.7,1.3-2.6,1.7l5.9,15.9c1.6-0.4,3.3,0.1,4.5,1.3
			c1.8,1.9,1.8,4.9-0.1,6.7c-1.9,1.8-4.9,1.8-6.7-0.1c-1.8-1.9-1.8-4.9,0.1-6.7c0.5-0.5,1.1-0.8,1.7-1l-5.9-15.8
			c-1.9,0.6-4,0.6-5.9-0.2l-17,39.2c0.8,0.4,1.5,0.9,2.1,1.5c2,2.1,2.5,5,1.5,7.6l11.1,5.1c0.2-0.4,0.5-0.7,0.8-1.1
			c1.9-1.8,4.9-1.8,6.7,0.1c1.8,1.9,1.8,4.9-0.1,6.7c-1.9,1.8-4.9,1.8-6.7-0.1c-1.4-1.4-1.7-3.4-0.9-5.1l-11.1-5
			c-0.4,0.7-0.8,1.4-1.4,2c-1.3,1.3-3.1,1.9-4.8,2l-1.7,36.5c0.9,0.1,1.8,0.5,2.5,1.2c1.2,1.3,1.4,3.1,0.6,4.6l12.2,9.5
			c0,0,0.1-0.1,0.1-0.1c1.1-1,2.8-1,3.8,0.1c1,1.1,1,2.8-0.1,3.8c-1.1,1-2.8,1-3.8-0.1c-0.9-0.9-1-2.2-0.4-3.3l-12.2-9.5
			c-0.1,0.2-0.3,0.3-0.4,0.5c-1.6,1.5-4.1,1.5-5.6-0.1c-1.5-1.6-1.5-4.1,0.1-5.6c0.7-0.7,1.6-1,2.5-1.1l1.7-36.5
			c-1.7-0.1-3.4-0.8-4.7-2.2c-0.3-0.3-0.6-0.7-0.8-1l-23.3,14.2c1.1,2.2,0.8,4.9-1.1,6.7c-1.2,1.2-2.8,1.7-4.4,1.5l-4.4,28.9
			c0.8,0.1,1.7,0.5,2.3,1.2c1.6,1.7,1.6,4.3-0.1,5.9c-1.7,1.6-4.3,1.6-5.9-0.1c-1.6-1.7-1.6-4.3,0.1-5.9c0.9-0.8,2-1.2,3.1-1.2
			l4.4-28.9c-1.1-0.2-2.2-0.7-3-1.6c-2-2.1-2.1-5.2-0.3-7.4L82.4,688c-1.2,0.9-2.9,0.8-4.1-0.1l-34.6,36.3c0,0,0,0,0,0
			c2.3,2.4,2.2,6.1-0.1,8.4c-2.4,2.3-6.1,2.2-8.4-0.1C32.8,730.1,32.9,726.4,35.3,724.1"/>
		<path class="st3" d="M563.9,528.1c-3.6,0-6.5,2.7-6.9,6.2l-58.4-2.4c0-2.2-1.8-4-4-4c-2.2,0-4.1,1.8-4.1,4.1c0,2.2,1.8,4,4,4
			l-1.2,30.1c-0.1,0-0.1,0-0.2,0c-3.6,0-6.6,2.9-6.6,6.6c0,0.4,0,0.8,0.1,1.2l-31,6.9c-1-3.5-4.2-6.1-8-6.1c-0.3,0-0.6,0-1,0.1
			l-4.4-28.1c2.9-0.5,5.2-3,5.2-6c0-3.4-2.7-6.1-6.1-6.1c-3.4,0-6.1,2.7-6.1,6.1c0,3.4,2.7,6.1,6.1,6.1c0.1,0,0.2,0,0.3,0l4.4,28.1
			c-2.6,0.5-4.8,2.2-5.9,4.6l-46.1-19.1c0.4-1,0.6-2.1,0.6-3.3c0-1.9-0.6-3.8-1.6-5.3l3.8-2.6c0.6,0.7,1.5,1.2,2.5,1.2
			c1.8,0,3.3-1.5,3.3-3.3c0-1.8-1.5-3.3-3.3-3.3s-3.3,1.5-3.3,3.3c0,0.6,0.2,1.1,0.4,1.6l-3.8,2.6c-1.3-1.8-3.2-3.1-5.5-3.6
			l6.5-27.9c0.5,0.1,0.9,0.2,1.5,0.2c2.9,0,5.2-2.3,5.2-5.2c0-2.9-2.3-5.2-5.2-5.2s-5.2,2.3-5.2,5.2c0,2.2,1.3,4,3.2,4.8l-6.5,28
			c-0.6-0.1-1.1-0.2-1.7-0.2c-4.2,0-7.7,2.7-9.1,6.4l-19.5-6.2c0.1-0.4,0.2-0.8,0.2-1.2c0-2.9-2.3-5.2-5.2-5.2
			c-2.9,0-5.2,2.3-5.2,5.2c0,2.9,2.3,5.2,5.2,5.2c2.2,0,4.1-1.4,4.9-3.4l19.5,6.2c-0.3,0.9-0.4,1.8-0.4,2.8c0,4.2,2.6,7.7,6.3,9.1
			L362,623.7c-0.5-0.1-0.9-0.2-1.5-0.2c-1.8,0-3.5,0.9-4.5,2.3l-16.9-9.8c0.4-0.9,0.7-2,0.7-3c0-3.9-3.2-7.1-7.1-7.1
			c-3.9,0-7.1,3.2-7.1,7.1c0,3.9,3.2,7.1,7.1,7.1c2.6,0,4.9-1.4,6.1-3.5l16.8,9.8c-0.5,0.8-0.8,1.8-0.8,2.9c0,1.1,0.3,2.1,0.9,3
			l-58,34.5c-0.9-1.3-2.4-2.1-4.1-2.2l-2.2-56.4c3.6-0.3,6.5-3.4,6.5-7.1c0-3.9-3.2-7.1-7.1-7.1c-2.8,0-5.2,1.6-6.4,4l-24.1-10.9
			c0.3-0.6,0.5-1.2,0.5-1.9c0-2.3-1.9-4.1-4.1-4.1s-4.1,1.9-4.1,4.1c0,0.1,0,0.2,0,0.3l-30.4,4.6c-0.2-1.2-1.3-2.1-2.6-2.1
			c-1.4,0-2.6,1.2-2.6,2.6s1.2,2.6,2.6,2.6c1.4,0,2.5-1.1,2.6-2.5l30.4-4.6c0.3,1.5,1.5,2.6,2.9,3l-1.9,9.6c-0.2,0-0.3,0-0.5,0
			c-1.4,0-2.6,1.2-2.6,2.6c0,1.4,1.2,2.6,2.6,2.6c1.4,0,2.6-1.2,2.6-2.6c0-1.1-0.6-2-1.5-2.4l1.9-9.7c0.2,0,0.3,0,0.5,0
			c1.4,0,2.6-0.7,3.3-1.7l24.2,11c-0.3,0.8-0.5,1.6-0.5,2.5c0,3.8,3,6.9,6.8,7.1l2.2,56.4c-1.5,0.1-2.9,0.9-3.8,2l-40.6-31
			c0.5-0.6,0.8-1.4,0.8-2.2c0-2-1.6-3.5-3.5-3.5c-2,0-3.5,1.6-3.5,3.5s1.6,3.5,3.5,3.5c0.9,0,1.6-0.3,2.2-0.8l40.7,31
			c-0.4,0.6-0.6,1.2-0.8,1.9l-118-13.2c0-0.1,0-0.1,0-0.2c0-1.5-0.6-2.8-1.5-3.8l8.1-9.8c0.5,0.4,1.2,0.6,1.9,0.6
			c1.7,0,3.2-1.4,3.2-3.2c0-1.7-1.4-3.2-3.2-3.2s-3.2,1.4-3.2,3.2c0,0.8,0.3,1.6,0.8,2.1l-8.1,9.8c-1-0.9-2.3-1.4-3.7-1.4
			c-0.1,0-0.2,0-0.4,0l-4.3-32.7c3-0.5,5.4-3.1,5.4-6.3c0-3.5-2.9-6.4-6.4-6.4c-3.5,0-6.4,2.9-6.4,6.4c0,3.5,2.9,6.4,6.4,6.4
			c0,0,0.1,0,0.1,0l4.3,32.8c-2.5,0.6-4.4,2.8-4.4,5.5c0,0.1,0,0.2,0,0.2l-19.6,0.7c-0.3-3.1-2.9-5.6-6.2-5.6
			c-3.4,0-6.2,2.8-6.2,6.2c0,3.4,2.8,6.2,6.2,6.2c3.4,0,6.2-2.8,6.2-6.2l19.6-0.7c0.4,2.3,2,4.1,4.2,4.6l-21,80.5
			c-0.9-0.2-1.7-0.3-2.6-0.3c-3.6,0-6.8,1.5-9.1,3.9l-26.1-24.6c1.1-1.2,1.7-2.7,1.7-4.4c0-2.8-1.8-5.2-4.4-6.1l4.2-11.8
			c0.2,0,0.5,0.1,0.7,0.1c2.3,0,4.1-1.9,4.1-4.1c0-2.3-1.9-4.1-4.1-4.1s-4.1,1.9-4.1,4.1c0,1.8,1.2,3.3,2.8,3.9l-4.2,11.8
			c-0.5-0.1-1-0.2-1.5-0.2c-3.6,0-6.5,2.9-6.5,6.5c0,0.9,0.2,1.8,0.6,2.7l-5.2,2.8c-0.5-1.1-1.6-1.9-2.9-1.9c-1.8,0-3.2,1.5-3.2,3.2
			s1.5,3.2,3.2,3.2c1.8,0,3.2-1.5,3.2-3.2c0-0.3,0-0.5-0.1-0.7l5.3-2.9c1.1,1.9,3.2,3.3,5.6,3.3c1.7,0,3.2-0.6,4.3-1.7l26.1,24.6
			c-1.9,2.2-3,5.1-3,8.2c0,7,5.6,12.6,12.6,12.6c1.1,0,2.2-0.2,3.3-0.5l7.5,27.3c-3.6,1.3-6.1,4.7-6.1,8.7c0,5.1,4.2,9.3,9.3,9.3
			c5.1,0,9.3-4.2,9.3-9.3c0-5.1-4.2-9.3-9.3-9.3c-0.9,0-1.7,0.1-2.5,0.4l-7.5-27.3c4.4-1.5,7.8-5.3,8.5-10l39.5,5.4
			c0,0.1,0,0.2,0,0.3c0,3.8,3.1,6.9,6.9,6.9c3.8,0,6.9-3.1,6.9-6.9c0-1.8-0.7-3.5-1.9-4.8l13.8-15.3c1.4,1.2,3.3,2,5.3,2
			c2.1,0,3.9-0.8,5.4-2l8.1,9.6c-1.1,1-1.7,2.5-1.7,4.1c0,3.2,2.6,5.8,5.8,5.8c3.2,0,5.8-2.6,5.8-5.8c0-3.2-2.6-5.8-5.8-5.8
			c-1.3,0-2.6,0.5-3.5,1.3l-8.1-9.7c1.4-1.5,2.3-3.4,2.3-5.6c0-1.4-0.3-2.7-1-3.8l19.4-11.5c0.6,0.8,1.5,1.3,2.5,1.3
			c0.7,0,1.4-0.3,2-0.7c0.8-0.5,1.4-1.5,1.4-2.6c0-1.1-0.6-2-1.4-2.6c-0.5-0.4-1.2-0.7-2-0.7c-1.8,0-3.2,1.5-3.2,3.2
			c0,0.5,0.1,0.9,0.3,1.3l-19.5,11.3c-1.5-2.1-3.9-3.5-6.7-3.5c-3.4,0-6.4,2.1-7.5,5.2l-7.3-2.2c0-0.2,0.1-0.4,0.1-0.6
			c0-1.7-1.4-3.1-3.1-3.1c-1.7,0-3.1,1.4-3.1,3.1c0,1.7,1.4,3.1,3.1,3.1c1.3,0,2.3-0.8,2.8-1.8l7.3,2.2c-0.2,0.7-0.4,1.5-0.4,2.4
			c0,2.2,0.9,4.3,2.4,5.7L202.4,756c-1.2-1.1-2.8-1.7-4.6-1.7c-3.5,0-6.4,2.6-6.9,6l-39.4-5.4c0-0.4,0.1-0.9,0.1-1.3
			c0-2.8-0.9-5.4-2.5-7.5l5.3-4.4c0.8,0.9,2,1.5,3.3,1.5c2.5,0,4.5-2,4.5-4.5c0-2.5-2-4.5-4.5-4.5c-2.5,0-4.5,2-4.5,4.5
			c0,0.9,0.3,1.8,0.8,2.6l-5.3,4.4c-1.6-1.9-3.7-3.4-6.2-4.1l21-80.6c0.1,0,0.3,0,0.4,0c1.4,0,2.7-0.5,3.7-1.4l16.7,14.6
			c-1,1.2-1.6,2.8-1.6,4.5c0,3.3,2.2,6,5.2,6.9l-4.1,16.2c-0.2,0-0.5-0.1-0.7-0.1c-2,0-3.6,1.6-3.6,3.6c0,2,1.6,3.6,3.6,3.6
			c2,0,3.6-1.6,3.6-3.6c0-1.5-0.9-2.8-2.3-3.3l4.1-16.3c0.5,0.1,0.9,0.1,1.4,0.1c2.5,0,4.8-1.3,6.1-3.3l25.5,14.4
			c-0.1,0.3-0.2,0.7-0.2,1.1c0,1.6,1.3,3,3,3c1.6,0,3-1.3,3-3c0-1.6-1.3-3-3-3c-1,0-1.9,0.5-2.5,1.3L196.4,682
			c0.5-1,0.8-2.1,0.8-3.3c0-4-3.2-7.2-7.2-7.2c-2,0-3.9,0.9-5.2,2.2l-16.6-14.6c0.7-0.7,1.2-1.7,1.4-2.7l118,13.2c0,0.1,0,0.2,0,0.4
			c0,3.1,2.5,5.7,5.7,5.7c1.8,0,3.5-0.9,4.5-2.2l22.1,15.2c-0.8,1.3-1.2,2.7-1.2,4.3c0,4.5,3.7,8.2,8.2,8.2c3.6,0,6.7-2.4,7.8-5.7
			l20.4,4.9c0,0.1,0,0.2,0,0.4c0,1.6,1.3,2.9,2.9,2.9c1.6,0,2.9-1.3,2.9-2.9c0-1.6-1.3-2.9-2.9-2.9c-1.2,0-2.3,0.8-2.7,1.9
			l-20.4-4.9c0.1-0.6,0.2-1.3,0.2-1.9c0-4.5-3.7-8.2-8.2-8.2c-2.7,0-5.1,1.3-6.6,3.4l-22.1-15.2c0.5-0.9,0.8-1.8,0.8-2.9
			c0-0.9-0.2-1.8-0.6-2.6l58.1-34.6c0.8,0.9,1.8,1.5,2.9,1.8l-2.3,13.2c-1.5,0-2.7,1.3-2.7,2.8c0,1.5,1.3,2.8,2.8,2.8
			c1.5,0,2.8-1.3,2.8-2.8c0-1.3-1-2.5-2.2-2.7l2.3-13.2c0.2,0,0.4,0.1,0.7,0.1c1.3,0,2.5-0.4,3.4-1.2l35.1,55.8
			c-1.7,1.3-2.8,3.3-2.8,5.6c0,3.8,3.1,6.9,6.9,6.9s6.9-3.1,6.9-6.9c0-3.8-3.1-6.9-6.9-6.9c-1.3,0-2.5,0.4-3.6,1l-35.1-55.8
			c0.7-0.6,1.1-1.4,1.4-2.3l46.6,14.1c-0.1,0.5-0.2,1.1-0.2,1.6c0,3.6,2.9,6.5,6.5,6.5c2.1,0,4-1,5.1-2.6l27.2,21.2
			c-0.3,0.4-0.4,0.9-0.4,1.5c0,1.4,1.2,2.6,2.6,2.6c1.4,0,2.6-1.2,2.6-2.6c0-1.4-1.2-2.6-2.6-2.6c-0.7,0-1.3,0.3-1.7,0.7L424.3,650
			c0.6-1,1-2.1,1-3.4c0-3.6-2.9-6.5-6.5-6.5c-2.8,0-5.2,1.8-6.1,4.3l-46.6-14.1c0.1-0.4,0.1-0.8,0.1-1.2c0-2.4-1.5-4.4-3.6-5.3
			l19.4-57.5c0.9,0.3,1.8,0.4,2.8,0.4c1.3,0,2.5-0.2,3.6-0.7l7.9,18.1c-1.6,1-2.7,2.7-2.7,4.7c0,3,2.5,5.5,5.5,5.5
			c3,0,5.5-2.5,5.5-5.5c0-3-2.5-5.5-5.5-5.5c-0.8,0-1.6,0.2-2.3,0.5l-7.9-18c2.1-1,3.8-2.8,4.8-4.9l46,19.1c-0.4,0.9-0.6,1.9-0.6,3
			c0,3.4,2,6.2,4.9,7.5l-5.2,13.2c-0.5-0.1-1-0.2-1.5-0.2c-3,0-5.5,2.5-5.5,5.5c0,3,2.5,5.5,5.5,5.5s5.5-2.5,5.5-5.5
			c0-2.3-1.4-4.2-3.4-5.1l5.2-13.2c0.9,0.3,1.8,0.5,2.8,0.5c2.2,0,4.1-0.8,5.6-2.2l31,29.2c-0.7,0.8-1.1,1.8-1.1,3
			c0,2.1,1.4,3.8,3.2,4.4l-2.6,17.9c-0.1,0-0.1,0-0.2,0c-1.7,0-3.2,1.4-3.2,3.2c0,1.7,1.4,3.2,3.2,3.2c1.7,0,3.2-1.4,3.2-3.2
			c0-1.5-1-2.7-2.3-3l2.6-17.9c0.2,0,0.5,0.1,0.8,0.1c2.5,0,4.6-2.1,4.6-4.6c0-2.5-2.1-4.6-4.6-4.6c-1.2,0-2.2,0.4-3,1.1l-31-29.2
			c1.4-1.5,2.2-3.5,2.2-5.6c0-0.5-0.1-1.1-0.2-1.6l31.1-6.9c0.8,2.7,3.3,4.7,6.3,4.7c2,0,3.7-0.9,4.9-2.3l27.1,20.7
			c-0.6,0.8-1,1.8-1,2.9c0,2.7,2.2,4.9,4.9,4.9c2.7,0,4.9-2.2,4.9-4.9c0-2.7-2.2-4.9-4.9-4.9c-1.4,0-2.6,0.6-3.5,1.5l-27.1-20.7
			c0.8-1.1,1.2-2.4,1.2-3.8c0-3.3-2.5-6.1-5.7-6.5l1.2-30.2c1.8-0.3,3.1-1.6,3.4-3.4l58.4,2.4c0,0,0,0,0,0.1c0,3.8,3.1,6.9,6.9,6.9
			c3.8,0,6.9-3.1,6.9-6.9C570.8,531.2,567.7,528.1,563.9,528.1"/>
		<path class="st4" d="M164.5,669.5c7.7,0,13.9-6.2,13.9-13.9c0-7.7-6.2-13.9-13.9-13.9c-7.7,0-13.9,6.2-13.9,13.9
			C150.6,663.3,156.8,669.5,164.5,669.5"/>
		<path class="st5" d="M164.5,669.5c7.7,0,13.9-6.2,13.9-13.9c0-7.7-6.2-13.9-13.9-13.9c-7.7,0-13.9,6.2-13.9,13.9
			C150.6,663.3,156.8,669.5,164.5,669.5z"/>
		<g class="st6">
			<g>
				<defs>
					<rect id="SVGID_1_" x="139.4" y="632.6" width="50" height="40"/>
				</defs>
				<clipPath id="SVGID_00000076580024784536711880000001601765740163938989_">
					<use xlink:href="#SVGID_1_"  style="overflow:visible;"/>
				</clipPath>
				<path style="clip-path:url(#SVGID_00000076580024784536711880000001601765740163938989_);fill:#FFFFFF;" d="M164.4,671.6
					c8.8,0,16-7.2,16-16c0-8.8-7.2-16-16-16c-8.8,0-16,7.2-16,16C148.4,664.5,155.6,671.6,164.4,671.6"/>
			</g>
		</g>
		<path class="st5" d="M164.5,671.7c8.9,0,16.1-7.2,16.1-16.1c0-8.9-7.2-16.1-16.1-16.1c-8.9,0-16.1,7.2-16.1,16.1
			C148.4,664.5,155.6,671.7,164.5,671.7z"/>
		<path class="st1" d="M156.8,647.5c0.3,0,0.7,0.1,1,0.3c0,0,0,0,0,0c-0.3,0.3-0.5,0.7-0.6,1.1c0,0,0,0,0,0c0,0,0,0,0,0
			c-0.1-0.1-0.3-0.1-0.4-0.1c-0.4,0-0.8,0.3-0.8,0.8c0,0.2,0.1,0.4,0.4,0.7l1.9,1.8c0,0,0,0,0,0c0,0,0,0,0,0l1.9-1.8
			c0.2-0.2,0.4-0.5,0.4-0.7c0-0.4-0.4-0.8-0.8-0.8c-0.4,0-0.8,0.4-0.8,0.8v0.4l-0.6,0.6l-0.6-0.6l0-0.4c0-1.1,0.9-2.1,2.1-2.1
			c0,0,0,0,0,0c1.3,0,2.4,1.3,2,2.6c-0.1,0.4-0.3,0.8-0.7,1.1l0,0l-2.6,2.5c0,0-0.1,0-0.1,0c0,0-0.1,0-0.1,0l-2.6-2.5l0,0
			c-0.5-0.5-0.8-1.1-0.8-1.7C154.7,648.4,155.7,647.5,156.8,647.5"/>
		<path class="st3" d="M172.3,647.5h-10.5c0.1,0.1,0.2,0.2,0.3,0.3c0.2,0.3,0.4,0.6,0.5,0.9h9.8c0.4,0,0.7,0.3,0.7,0.7v12.3
			c0,0.4-0.3,0.7-0.7,0.7h-15.6c-0.4,0-0.7-0.3-0.7-0.7v-9l-0.9-0.9l0,0l-0.1,0c-0.1-0.1-0.2-0.2-0.3-0.3v10.2c0,1.1,0.9,2,2,2h15.6
			c1.1,0,2-0.9,2-2v-12.3C174.3,648.4,173.4,647.5,172.3,647.5"/>
		<path class="st3" d="M165.1,656L165.1,656c-0.4-0.1-0.6-0.4-0.6-0.8c0-0.4,0.4-0.8,0.8-0.8c0,0,0,0,0,0c0,0,0,0,0,0
			c0.8,0.1,3,0.7,3,0.7c0.4,0.1,0.6,0.4,0.6,0.8c0,0.4-0.3,0.8-0.8,0.8c0,0-0.1,0-0.1,0c-0.1,0-0.1,0-0.1,0L165.1,656z M170.2,655.9
			c0-1.1-0.8-1.8-1.9-2.1l-3.2-0.7l0,0c-0.3-0.1-0.6-0.4-0.6-0.8c0-0.5,0.4-0.8,0.8-0.8c0,0,0.1,0,0.1,0l4.3,0.9l0.3-1.3
			c0,0-4.1-1-4.7-1c-1.2,0-2.1,0.9-2.1,2.1c0,0.5,0.2,1,0.5,1.4c-0.4,0.4-0.7,0.9-0.7,1.5c0,1.1,0.8,2,1.9,2.1l3.2,0.7v0
			c0.4,0.1,0.6,0.4,0.6,0.8c0,0.4-0.3,0.8-0.8,0.8c0,0-0.1,0-0.1,0c0,0-0.1,0-0.1,0c-0.8-0.2-4.3-0.9-4.3-0.9l-0.3,1.3
			c0,0,4.1,1,4.7,1c1.2,0,2.1-0.9,2.1-2.1c0-0.5-0.2-1-0.5-1.4C170,657.1,170.2,656.5,170.2,655.9"/>
		<ellipse transform="matrix(0.9732 -0.2298 0.2298 0.9732 -146.237 55.3414)" class="st5" cx="164.5" cy="655.7" rx="14" ry="14"/>
		<path class="st4" d="M248,648c7.7,0,13.9-6.2,13.9-13.9s-6.2-13.9-13.9-13.9c-7.7,0-13.9,6.2-13.9,13.9S240.3,648,248,648"/>
		<path class="st5" d="M248,648c7.7,0,13.9-6.2,13.9-13.9s-6.2-13.9-13.9-13.9c-7.7,0-13.9,6.2-13.9,13.9S240.3,648,248,648z"/>
		<g class="st6">
			<g>
				<defs>
					<rect id="SVGID_00000017493576423416129090000001500317342683775403_" x="223" y="611.1" width="50" height="40"/>
				</defs>
				<clipPath id="SVGID_00000155843991048482983220000014570400965955402431_">
					<use xlink:href="#SVGID_00000017493576423416129090000001500317342683775403_"  style="overflow:visible;"/>
				</clipPath>
				<path style="clip-path:url(#SVGID_00000155843991048482983220000014570400965955402431_);fill:#FFFFFF;" d="M247.9,650.1
					c8.8,0,16-7.2,16-16c0-8.8-7.2-16-16-16c-8.8,0-16,7.2-16,16C232,643,239.1,650.1,247.9,650.1"/>
			</g>
		</g>
		<path class="st4" d="M248.2,648c7.7,0,13.9-6.2,13.9-13.9c0-7.7-6.2-13.9-13.9-13.9c-7.7,0-13.9,6.2-13.9,13.9
			C234.3,641.8,240.6,648,248.2,648"/>
		<path class="st5" d="M248.2,648c7.7,0,13.9-6.2,13.9-13.9c0-7.7-6.2-13.9-13.9-13.9c-7.7,0-13.9,6.2-13.9,13.9
			C234.3,641.8,240.6,648,248.2,648z"/>
		
			<ellipse transform="matrix(0.9732 -0.2298 0.2298 0.9732 -139.053 73.9985)" class="st5" cx="248.2" cy="634.1" rx="16.1" ry="16.1"/>
		<path class="st3" d="M256,625.7h-10.5c0.1,0.1,0.2,0.2,0.3,0.3c0.2,0.3,0.4,0.6,0.5,0.9h9.8c0.4,0,0.7,0.3,0.7,0.7V640
			c0,0.4-0.3,0.7-0.7,0.7h-15.6c-0.4,0-0.7-0.3-0.7-0.7v-9l-0.9-0.9l0,0l-0.1,0c-0.1-0.1-0.2-0.2-0.3-0.3V640c0,1.1,0.9,2,2,2H256
			c1.1,0,2-0.9,2-2v-12.3C258,626.6,257.1,625.7,256,625.7"/>
		<path class="st1" d="M240.6,625.7c0.3,0,0.7,0.1,1,0.3c0,0,0,0,0,0c-0.3,0.3-0.5,0.7-0.6,1.1c0,0,0,0,0,0h0
			c-0.1-0.1-0.3-0.1-0.4-0.1c-0.4,0-0.8,0.3-0.8,0.8c0,0.2,0.1,0.4,0.4,0.7l1.9,1.8c0,0,0,0,0,0c0,0,0,0,0,0l1.9-1.8
			c0.2-0.2,0.4-0.5,0.4-0.7c0-0.4-0.4-0.8-0.8-0.8s-0.8,0.4-0.8,0.8v0.4l-0.6,0.6l-0.6-0.6l0-0.4c0-1.2,0.9-2.1,2.1-2.1c0,0,0,0,0,0
			c1.3,0,2.4,1.3,2,2.6c-0.1,0.4-0.3,0.8-0.7,1.1l0,0l-2.6,2.5c0,0-0.1,0-0.1,0c0,0-0.1,0-0.1,0l-2.6-2.5l0,0
			c-0.5-0.5-0.8-1.1-0.8-1.7C238.4,626.6,239.5,625.7,240.6,625.7"/>
	</g>
	<rect x="242.4" y="633.5" class="st3" width="1.7" height="1.3"/>
	<rect x="244.9" y="633.5" class="st3" width="1.7" height="1.3"/>
	<rect x="242.4" y="635.4" class="st3" width="1.7" height="1.3"/>
	<rect x="244.9" y="635.4" class="st3" width="1.7" height="1.3"/>
	<rect x="242.4" y="637.3" class="st3" width="1.7" height="1.3"/>
	<rect x="244.9" y="637.3" class="st3" width="1.7" height="1.3"/>
	<g>
		<path class="st3" d="M247.4,634.8h1.7c0,0,0-1.3,0-1.3h-1.7V634.8z"/>
		<path class="st3" d="M247.4,636.7h1.7c0,0,0-1.3,0-1.3h-1.7V636.7z"/>
		<path class="st3" d="M247.4,638.6h1.7c0,0,0-1.3,0-1.3h-1.7V638.6z"/>
		<path class="st3" d="M244.4,630.9c1.7,0,9.5,0,9.5,0c0.4,0,0.6-0.3,0.6-0.7c0-0.4-0.3-0.7-0.7-0.7v0h-8c0.3-0.4,0.4-0.8,0.5-1.3
			l7.6,0c1,0.1,1.8,0.9,1.8,2c0,1-0.8,1.9-1.8,2l-11,0L244.4,630.9z"/>
		<path class="st3" d="M250,634.8h1.7c0,0,0-1.3,0-1.3H250V634.8z"/>
		<path class="st3" d="M250,636.7h1.7c0,0,0-1.3,0-1.3H250V636.7z"/>
		<path class="st3" d="M250,638.6h1.7c0,0,0-1.3,0-1.3H250V638.6z"/>
	</g>
	<rect x="252.5" y="633.5" class="st3" width="1.7" height="1.3"/>
	<rect x="252.5" y="635.4" class="st3" width="1.7" height="1.3"/>
	<rect x="252.5" y="637.3" class="st3" width="1.7" height="1.3"/>
	<g>
		<ellipse transform="matrix(0.982 -0.1891 0.1891 0.982 -115.4484 58.3481)" class="st5" cx="248" cy="634.2" rx="14" ry="14"/>
		<path class="st4" d="M361.5,641.9c7.7,0,13.9-6.2,13.9-13.9s-6.2-13.9-13.9-13.9c-7.7,0-13.9,6.2-13.9,13.9
			S353.8,641.9,361.5,641.9"/>
		<path class="st5" d="M361.5,641.9c7.7,0,13.9-6.2,13.9-13.9s-6.2-13.9-13.9-13.9c-7.7,0-13.9,6.2-13.9,13.9
			S353.8,641.9,361.5,641.9z"/>
		
			<ellipse transform="matrix(0.8507 -0.5257 0.5257 0.8507 -276.182 283.8628)" class="st5" cx="361.5" cy="628" rx="16.1" ry="16.1"/>
		<path class="st4" d="M361.3,641.9c7.7,0,13.9-6.2,13.9-13.9c0-7.7-6.2-13.9-13.9-13.9c-7.7,0-13.9,6.2-13.9,13.9
			C347.4,635.7,353.6,641.9,361.3,641.9"/>
		<path class="st5" d="M361.3,641.9c7.7,0,13.9-6.2,13.9-13.9c0-7.7-6.2-13.9-13.9-13.9c-7.7,0-13.9,6.2-13.9,13.9
			C347.4,635.7,353.6,641.9,361.3,641.9z"/>
		<g class="st6">
			<g>
				<defs>
					<rect id="SVGID_00000005241122571689950310000012610377602638364846_" x="336.2" y="605" width="50" height="40"/>
				</defs>
				<clipPath id="SVGID_00000097487402937643783430000015995004783273217937_">
					<use xlink:href="#SVGID_00000005241122571689950310000012610377602638364846_"  style="overflow:visible;"/>
				</clipPath>
				<path style="clip-path:url(#SVGID_00000097487402937643783430000015995004783273217937_);fill:#FFFFFF;" d="M361.2,644
					c8.8,0,16-7.2,16-16c0-8.8-7.2-16-16-16c-8.8,0-16,7.2-16,16C345.2,636.9,352.4,644,361.2,644"/>
			</g>
		</g>
		
			<ellipse transform="matrix(0.8507 -0.5257 0.5257 0.8507 -276.182 283.8628)" class="st5" cx="361.5" cy="628" rx="16.1" ry="16.1"/>
		
			<ellipse transform="matrix(0.8507 -0.5257 0.5257 0.8507 -276.2255 283.7572)" class="st5" cx="361.3" cy="628.1" rx="14" ry="14"/>
		<path class="st3" d="M369.3,620.2H365c0.1,0.1,0.2,0.2,0.3,0.3c0.2,0.3,0.4,0.6,0.5,0.9h3.5c0.4,0,0.7,0.3,0.7,0.7v12.3
			c0,0.4-0.3,0.7-0.7,0.7h-15.6c-0.4,0-0.7-0.3-0.7-0.7v-12.3c0-0.4,0.3-0.7,0.7-0.7h3.6c0.1-0.4,0.4-0.9,0.7-1.2c0,0,0,0,0.1-0.1
			h-4.4c-1.1,0-2,0.9-2,2v12.3c0,1.1,0.9,2,2,2h15.6c1.1,0,2-0.9,2-2v-12.3C371.3,621.1,370.4,620.2,369.3,620.2"/>
		<path class="st1" d="M360.1,620.2c0.3,0,0.7,0.1,1,0.3c0,0,0,0,0,0c-0.3,0.3-0.5,0.7-0.6,1.1c0,0,0,0,0,0c0,0,0,0,0,0
			c-0.1-0.1-0.3-0.1-0.4-0.1c-0.4,0-0.8,0.3-0.8,0.8c0,0.2,0.1,0.4,0.4,0.7l1.9,1.8c0,0,0,0,0,0c0,0,0,0,0,0l1.9-1.8
			c0.2-0.2,0.4-0.5,0.4-0.7c0-0.4-0.4-0.8-0.8-0.8c-0.4,0-0.8,0.4-0.8,0.8v0.4l-0.6,0.6l-0.6-0.6l0-0.4c0-1.1,0.9-2.1,2.1-2.1
			c0,0,0,0,0,0c1.3,0,2.4,1.3,2,2.6c-0.1,0.4-0.3,0.8-0.7,1.1l0,0l-2.6,2.5c0,0-0.1,0-0.1,0c0,0-0.1,0-0.1,0l-2.6-2.5l0,0
			c-0.5-0.5-0.8-1.1-0.8-1.7C358,621.1,359,620.2,360.1,620.2"/>
		<path class="st3" d="M368.9,633.2l0,2h-1.4h0h-1.4l0-2.1c0,0,0,0,0,0h0.2c0.3,0.2,0.7,0.4,1.2,0.4c0.4,0,0.8-0.1,1.1-0.4
			L368.9,633.2C368.9,633.1,368.9,633.1,368.9,633.2L368.9,633.2z M366.1,633.1C366.1,633.1,366.1,633.1,366.1,633.1L366.1,633.1
			C366.1,633.1,366.1,633.1,366.1,633.1 M367.5,630.9c0.4,0,0.7,0.3,0.7,0.7c0,0.4-0.3,0.7-0.7,0.7c-0.4,0-0.7-0.3-0.7-0.7
			C366.8,631.2,367.1,630.9,367.5,630.9 M362.3,631.6c0,0.4-0.3,0.7-0.7,0.7c-0.4,0-0.7-0.3-0.7-0.7c0-0.4,0.3-0.7,0.7-0.7
			C361.9,630.9,362.3,631.2,362.3,631.6 M363,633.1L363,633.1C363,633.1,363,633.1,363,633.1C363,633.1,363,633.1,363,633.1
			 M363,635.2h-1.4h0h-1.4l0-2l0,0c0,0,0,0,0,0h0.3c0.3,0.2,0.7,0.4,1.1,0.4c0.4,0,0.8-0.1,1.1-0.4h0.2c0,0,0,0,0,0L363,635.2z
			 M356.3,631.6c0,0.4-0.3,0.7-0.7,0.7c-0.4,0-0.7-0.3-0.7-0.7c0-0.4,0.3-0.7,0.7-0.7C356,630.9,356.3,631.2,356.3,631.6 M357,633.1
			L357,633.1C357,633.1,357,633.1,357,633.1C357,633.1,357,633.1,357,633.1 M357,635.2h-1.4h0h-1.4l0-2l0,0c0,0,0,0,0,0h0.3
			c0.3,0.2,0.7,0.4,1.1,0.4c0.4,0,0.8-0.1,1.1-0.4h0.2c0,0,0,0,0,0L357,635.2z M370.2,635.8l0-2.6c0-0.1,0-0.5-0.3-0.9
			c-0.1-0.2-0.3-0.3-0.5-0.4c0-0.1,0-0.2,0-0.4c0-0.9-0.6-1.6-1.4-1.8v-0.6h0c0-0.9-0.8-1.7-1.7-1.7c0,0-0.1,0-0.1,0h-0.3v-0.9
			c0-0.8-0.6-1.5-1.4-1.7l-1.3,1.2c0.5,0,0.9,0,0.9,0c0.3,0,0.5,0.2,0.5,0.4v0c0,0,0,0,0,0.1c0,0,0-0.1,0,0.9h-6.4c0-1,0-0.9,0-0.9
			c0,0,0,0,0-0.1v0c0-0.2,0.2-0.4,0.5-0.4c0,0,0.4,0,1,0l-1.3-1.2c-0.8,0.1-1.4,0.8-1.4,1.7v0.9h-0.3c0,0-0.1,0-0.1,0
			c-0.9,0-1.7,0.8-1.7,1.7h0v0.6c-0.8,0.2-1.4,1-1.4,1.8c0,0.1,0,0.3,0,0.4c-0.2,0.1-0.4,0.2-0.5,0.4c-0.3,0.3-0.3,0.7-0.3,0.9
			l0,2.5l2.7,0.6h2.7l0-3.1c0-0.1,0-0.5-0.3-0.9c-0.1-0.2-0.3-0.3-0.5-0.3c0-0.1,0-0.3,0-0.4c0-0.8-0.5-1.5-1.3-1.8v-0.6
			c0-0.3,0.2-0.5,0.5-0.5c0,0,0.5,0,0.5,0v0h3.7v1.1c-0.7,0.3-1.3,1-1.3,1.8c0,0.1,0,0.3,0,0.4c-0.2,0.1-0.4,0.2-0.5,0.4
			c-0.3,0.3-0.3,0.7-0.3,0.9l0,3.1h2.7h2.7l0-3.1c0-0.1,0-0.5-0.3-0.9c-0.1-0.2-0.3-0.3-0.5-0.3c0-0.1,0-0.3,0-0.4
			c0-0.8-0.6-1.6-1.3-1.8v-1.1h3.7v0c0,0,0.4,0,0.5,0c0.3,0,0.5,0.2,0.5,0.5v0.6c-0.7,0.3-1.3,1-1.3,1.8c0,0.1,0,0.3,0,0.4
			c-0.2,0.1-0.3,0.2-0.5,0.3c-0.3,0.3-0.3,0.7-0.3,0.9l0,3.1h2.7L370.2,635.8z"/>
		<path class="st4" d="M294.3,697.4c16.4,0,29.7-13.3,29.7-29.7c0-16.4-13.3-29.7-29.7-29.7c-16.4,0-29.7,13.3-29.7,29.7
			C264.6,684.1,277.9,697.4,294.3,697.4"/>
		
			<ellipse transform="matrix(0.3827 -0.9239 0.9239 0.3827 -435.2286 684.0911)" class="st10" cx="294.3" cy="667.7" rx="29.7" ry="29.7"/>
		<path class="st1" d="M294.3,691.7c13.2,0,23.9-10.7,23.9-23.9s-10.7-23.9-23.9-23.9c-13.2,0-23.9,10.7-23.9,23.9
			S281.1,691.7,294.3,691.7"/>
		<path class="st4" d="M301.8,653.4c-6,0-10.8,4.8-10.8,10.8l0,2.3l3.3,3.1l3.3-3.1v-2.2c0-2.3,1.9-4.1,4.2-4.1
			c2.3,0,4.2,1.8,4.2,4.1c0.1,1.1-1,2.6-2,3.6l-9.6,9.1c0,0,0,0,0,0l-9.7-9.1c-1.4-1.3-2-2.5-2-3.6c0-3.1,3.6-5.1,6.3-3.5
			c0,0,0,0,0,0c0.6-2.2,1.8-4.2,3.3-5.7c0,0,0,0,0,0c-7.1-4.2-16.4,1.1-16.3,9.3c0,3,1.5,5.9,4.3,8.6l0,0l13.6,12.7
			c0.3,0.2,0.7,0.2,0.9,0l13.6-12.8l0.2-0.2c1.9-1.9,3.2-3.8,3.7-5.8C314.1,660.1,308.7,653.3,301.8,653.4"/>
		<path class="st1" d="M218,730.3c0.2,0,0.4,0,0.6,0.2c0,0,0,0,0,0c-0.2,0.2-0.3,0.4-0.4,0.6l0,0c0,0,0,0,0,0
			c-0.1,0-0.1-0.1-0.2-0.1c-0.2,0-0.5,0.2-0.5,0.4c0,0.1,0.1,0.2,0.2,0.4l1,1l0,0l0,0l1-1c0.1-0.1,0.2-0.3,0.2-0.4
			c0-0.2-0.2-0.4-0.4-0.4c-0.2,0-0.4,0.2-0.4,0.4v0.2l-0.4,0.3l-0.4-0.3l0-0.2c0-0.6,0.5-1.2,1.2-1.2c0,0,0,0,0,0
			c0.7,0,1.3,0.7,1.1,1.4c-0.1,0.2-0.2,0.4-0.4,0.6l0,0l-1.5,1.4c0,0,0,0-0.1,0c0,0,0,0-0.1,0l-1.5-1.4l0,0
			c-0.3-0.3-0.5-0.6-0.5-0.9C216.8,730.8,217.4,730.3,218,730.3"/>
		<path class="st4" d="M225.1,733.5h-5.3l-0.6,0.6c-0.1,0.1-0.1,0.1-0.2,0.1h6.1C225.1,734.2,225.1,733.5,225.1,733.5"/>
		<path class="st4" d="M225.1,732.1h-4c-0.1,0.2-0.2,0.4-0.4,0.6l0,0l0,0l0,0l0,0l-0.1,0.1h4.5C225.1,732.8,225.1,732.1,225.1,732.1
			"/>
		<path class="st4" d="M221.1,731h4.4c0.2,0,0.4,0.2,0.4,0.4v3.2c0.3,0.1,0.5,0.2,0.7,0.4v-3.5c0-0.6-0.5-1.1-1.1-1.1h-4.8
			c0.1,0.1,0.1,0.1,0.2,0.2C221,730.7,221.1,730.8,221.1,731"/>
		<path class="st4" d="M223.6,738.6h-5.6c-0.2,0-0.4-0.2-0.4-0.4v-5l-0.6-0.5l0,0l0,0c0,0-0.1-0.1-0.1-0.1v5.7
			c0,0.6,0.5,1.1,1.1,1.1h7.1C224.5,739.3,224,739,223.6,738.6"/>
		<path class="st4" d="M223,734.9h-4.6v0.7h4.1C222.7,735.4,222.8,735.1,223,734.9"/>
		<path class="st4" d="M225.3,735.1c-1,0-1.8,0.8-1.8,1.8c0,1,0.8,1.8,1.8,1.8c1,0,1.8-0.8,1.8-1.8
			C227,735.9,226.2,735.1,225.3,735.1 M225.3,739.3c-1.4,0-2.5-1.1-2.5-2.5c0-1.4,1.1-2.5,2.5-2.5c1.4,0,2.5,1.1,2.5,2.5
			C227.7,738.2,226.6,739.3,225.3,739.3"/>
		<path class="st4" d="M225.7,737.3c0,0.1,0,0.2-0.1,0.2c-0.1,0-0.1,0.1-0.2,0.1c-0.1,0-0.2-0.1-0.3-0.2c0-0.1,0-0.1-0.1-0.2h0.4
			l0.1-0.2H225c0,0,0-0.1,0-0.1c0,0,0,0,0-0.1h0.5l0.1-0.2H225c0,0,0-0.1,0-0.1c0-0.1,0.1-0.2,0.1-0.2c0.1-0.1,0.1-0.1,0.2-0.1
			c0.1,0,0.1,0,0.2,0.1c0,0,0.1,0.1,0.1,0.2l0.5-0.2c0-0.2-0.1-0.3-0.3-0.4c-0.1-0.1-0.3-0.1-0.6-0.1c-0.2,0-0.4,0-0.5,0.1
			c-0.1,0.1-0.3,0.2-0.3,0.4c0,0.1-0.1,0.2-0.1,0.4h-0.3v0.2h0.3c0,0,0,0,0,0.1c0,0,0,0.1,0,0.1h-0.3v0.2h0.3c0,0.1,0,0.2,0.1,0.3
			c0.1,0.2,0.2,0.3,0.3,0.4c0.1,0.1,0.3,0.1,0.5,0.1c0.2,0,0.3,0,0.4-0.1c0.1-0.1,0.2-0.1,0.3-0.2c0.1-0.1,0.1-0.2,0.2-0.4
			L225.7,737.3z"/>
		<path class="st4" d="M331.1,688.4h-5.9c0.1,0.1,0.1,0.1,0.2,0.2c0.1,0.2,0.2,0.3,0.3,0.5h5.4c0.2,0,0.4,0.2,0.4,0.4v6.8
			c0,0.2-0.2,0.4-0.4,0.4h-8.7c-0.2,0-0.4-0.2-0.4-0.4v-5l-0.5-0.5l0,0l0,0c-0.1-0.1-0.1-0.1-0.2-0.2v5.7c0,0.6,0.5,1.1,1.1,1.1h8.7
			c0.6,0,1.1-0.5,1.1-1.1v-6.8C332.2,688.9,331.7,688.4,331.1,688.4"/>
		<path class="st1" d="M322.5,688.4c0.2,0,0.4,0,0.6,0.2c0,0,0,0,0,0c-0.2,0.2-0.3,0.4-0.4,0.6c0,0,0,0,0,0h0
			c-0.1,0-0.1-0.1-0.2-0.1c-0.2,0-0.5,0.2-0.5,0.4c0,0.1,0.1,0.2,0.2,0.4l1,1c0,0,0,0,0,0c0,0,0,0,0,0l1-1c0.1-0.1,0.2-0.3,0.2-0.4
			c0-0.2-0.2-0.4-0.4-0.4c-0.2,0-0.5,0.2-0.5,0.4v0.2l-0.4,0.3l-0.4-0.3v-0.2c0-0.6,0.5-1.2,1.2-1.2c0,0,0,0,0,0
			c0.7,0,1.3,0.7,1.1,1.4c-0.1,0.2-0.2,0.4-0.4,0.6l0,0l-1.5,1.4c0,0,0,0-0.1,0s0,0-0.1,0l-1.5-1.4l0,0c-0.3-0.3-0.5-0.6-0.5-0.9
			C321.3,688.9,321.9,688.4,322.5,688.4"/>
		<path class="st4" d="M323.6,693.4c0.3,0.1,0.6,0.2,0.9,0.2c-0.1,0.5-0.2,1-0.2,1.5H323C323,694.5,323.3,693.9,323.6,693.4
			 M325.2,692.1c-0.2,0.3-0.3,0.5-0.5,0.9c-0.2,0-0.4-0.1-0.6-0.1C324.4,692.5,324.8,692.3,325.2,692.1 M326.4,693.9v1.3H325
			c0-0.5,0.1-1,0.2-1.4C325.6,693.8,326,693.8,326.4,693.9 M326.4,691.9v1.3c-0.3,0-0.6,0-0.9-0.1
			C325.7,692.5,326.1,692,326.4,691.9 M327.1,693.9c0.4,0,0.8,0,1.2-0.1c0.1,0.4,0.2,0.9,0.2,1.4h-1.4V693.9z M327.1,691.9
			c0.3,0.2,0.7,0.6,0.9,1.2c-0.3,0-0.6,0.1-0.9,0.1V691.9z M329.4,692.8c-0.2,0.1-0.4,0.1-0.6,0.1c-0.1-0.3-0.3-0.6-0.4-0.9
			C328.7,692.3,329.1,692.5,329.4,692.8 M330.5,695.2h-1.3c0-0.5-0.1-1.1-0.2-1.5c0.3-0.1,0.6-0.1,0.9-0.2
			C330.3,693.9,330.5,694.5,330.5,695.2 M323.4,697.2c-0.2-0.4-0.4-0.9-0.4-1.4h1.3c0,0.5,0.1,0.9,0.2,1.4h0.7
			c-0.1-0.4-0.2-0.9-0.2-1.4h1.4v1.3c-0.4,0-0.8,0-1.2,0.1h3.1c-0.4-0.1-0.8-0.1-1.2-0.1v-1.3h1.4c0,0.5-0.1,1-0.2,1.4h0.7
			c0.1-0.4,0.2-0.9,0.2-1.4h1.3c0,0.5-0.2,0.9-0.4,1.4h0.8c0.2-0.5,0.3-1.1,0.3-1.7c0-2.5-2-4.5-4.5-4.5c-2.5,0-4.5,2-4.5,4.5
			c0,0.6,0.1,1.2,0.3,1.7H323.4z"/>
		<path class="st1" d="M403.7,693.7c-0.5,0-0.9,0.4-0.9,0.9l0,0.2l0.3,0.3l0.3-0.3v-0.2c0-0.2,0.2-0.4,0.4-0.4
			c0.2,0,0.4,0.2,0.4,0.4c0,0.1-0.1,0.2-0.2,0.3l-0.8,0.8c0,0,0,0,0,0l-0.8-0.8c-0.1-0.1-0.2-0.2-0.2-0.3c0-0.3,0.3-0.4,0.5-0.3
			c0,0,0,0,0,0c0.1-0.2,0.2-0.4,0.3-0.5c0,0,0,0,0,0c-0.6-0.4-1.4,0.1-1.4,0.8c0,0.3,0.1,0.5,0.4,0.7l0,0l1.2,1.1c0,0,0.1,0,0.1,0
			l1.2-1.1l0,0c0.2-0.2,0.3-0.3,0.3-0.5C404.8,694.3,404.3,693.7,403.7,693.7"/>
		<path class="st4" d="M400.7,696.6C400.7,696.6,400.7,696.6,400.7,696.6v0.6v0.7h-1.4v-0.4h0v-0.9h0v0c0,0,0-0.1,0.1-0.1
			c0,0,0,0,0,0h0c0.2,0.1,0.3,0.2,0.5,0.2s0.4-0.1,0.5-0.2h0c0,0,0,0,0,0C400.7,696.5,400.7,696.5,400.7,696.6L400.7,696.6z
			 M400,695.1c0.3,0,0.5,0.2,0.5,0.5c0,0.3-0.2,0.5-0.5,0.5c-0.3,0-0.5-0.2-0.5-0.5C399.5,695.3,399.8,695.1,400,695.1 M401,696
			c0.1-0.1,0.1-0.3,0.1-0.4c0-0.6-0.5-1.1-1.1-1.1s-1.1,0.5-1.1,1.1c0,0.2,0,0.3,0.1,0.4c-0.2,0.1-0.3,0.3-0.3,0.6c0,0,0,0,0,0v1.9
			h2.5v-1.8c0,0,0,0,0-0.1C401.3,696.4,401.2,696.2,401,696"/>
		<path class="st4" d="M406.9,693.3C406.9,693.3,406.9,693.3,406.9,693.3v0.6v0.7h-1.4v-0.4h0v-0.9h0v0c0,0,0-0.1,0.1-0.1
			c0,0,0,0,0,0h0c0.2,0.1,0.3,0.2,0.5,0.2s0.4-0.1,0.5-0.2h0c0,0,0,0,0,0C406.9,693.2,406.9,693.3,406.9,693.3L406.9,693.3z
			 M406.2,691.8c0.3,0,0.5,0.2,0.5,0.5s-0.2,0.5-0.5,0.5c-0.3,0-0.5-0.2-0.5-0.5S406,691.8,406.2,691.8 M407.2,692.8
			c0.1-0.1,0.1-0.3,0.1-0.4c0-0.6-0.5-1.1-1.1-1.1s-1.1,0.5-1.1,1.1c0,0.2,0,0.3,0.1,0.4c-0.2,0.1-0.3,0.3-0.3,0.6c0,0,0,0,0,0v1.9
			h2.5v-1.8c0,0,0,0,0-0.1C407.5,693.1,407.4,692.9,407.2,692.8"/>
		<path class="st4" d="M407.5,696.7L407.5,696.7l-1.2-1.1c0,0-0.1,0-0.1,0l-1.2,1.1l0,0l0.9,0v0.8c0,0,0,0,0,0
			c0,0.2-0.2,0.4-0.4,0.4c0,0,0,0,0,0h-1.3h-2.7v0.6h3.9c0,0,0,0,0,0c0.5,0,0.9-0.4,0.9-0.9h0v-0.8L407.5,696.7z"/>
		<path class="st4" d="M404.9,691.8c0.1-0.2,0.3-0.4,0.5-0.6h-4.6v0c0,0,0,0,0,0c-0.5,0-0.9,0.4-0.9,0.9h0v0.8l-0.9,0l0,0l1.2,1.1
			c0,0,0.1,0,0.1,0l1.2-1.1l0,0l-0.9,0v-0.8c0,0,0,0,0,0c0-0.2,0.2-0.4,0.4-0.4c0,0,0,0,0,0h1.3H404.9z"/>
		<path d="M530.2,783.2v-1.4c0-0.2-0.1-0.3-0.3-0.3h-1.2c-0.2,0-0.2,0.1-0.2,0.3v1.4H528c-0.2,0-0.2,0.1-0.2,0.3v0.8
			c0,0.2,0.1,0.3,0.2,0.3h0.5v1.6c0,1.6,0.6,2.5,2.3,2.5c0.6,0,1-0.3,1.3-0.4c0.1-0.1,0.2-0.1,0.1-0.3l-0.3-0.8
			c-0.1-0.1-0.2-0.1-0.2-0.1c-0.1,0.1-0.3,0.2-0.6,0.2c-0.5,0-0.8-0.3-0.8-1.1v-1.5h1.5c0.2,0,0.3-0.1,0.3-0.3v-0.8
			c0-0.2-0.1-0.3-0.3-0.3H530.2z M525.2,786.6c0,0-0.2,0.6-0.9,0.6c-0.3,0-0.5-0.2-0.5-0.4c0-0.3,0.2-0.4,0.6-0.4h0.9V786.6z
			 M527.3,787.4c0-0.2-0.1-0.2-0.2-0.2c-0.1,0-0.3-0.2-0.3-0.5v-1.6c0-1.2-0.7-2-2.3-2c-1.5,0-2.2,0.6-2.2,1.5c0,0.3,0,0.6,0.4,0.6
			h0.9c0.3,0,0.2-0.1,0.2-0.3c0-0.4,0.2-0.6,0.6-0.6c0.4,0,0.7,0.2,0.7,0.7v0.6h-1.1c-1.5,0-2.1,0.5-2.1,1.5c0,0.8,0.6,1.4,1.7,1.4
			c1,0,1.4-0.5,1.6-0.8c0.1,0.5,0.5,0.8,1.2,0.8c0.6,0,0.7-0.2,0.7-0.4V787.4z M519.4,787.6c0,0.5,0.4,0.9,1,0.9c0.5,0,1-0.4,1-0.9
			c0-0.5-0.4-1-1-1C519.8,786.6,519.4,787,519.4,787.6 M515.3,785.2c0.1-0.6,0.4-0.8,0.8-0.8c0.5,0,0.8,0.3,0.8,0.8H515.3z
			 M518.2,786.1c0.2,0,0.3-0.1,0.3-0.4c0-1.6-0.7-2.5-2.3-2.5c-1.8,0-2.6,1.1-2.6,2.7c0,1.7,1.1,2.7,2.6,2.7c1.3,0,2-0.7,2.2-1
			c0-0.1,0.1-0.2,0-0.2l-0.6-0.6c-0.1-0.1-0.2,0-0.3,0c-0.2,0.2-0.6,0.5-1.1,0.5c-0.4,0-1.2-0.3-1.2-1.1v0H518.2z M509.6,788.2
			c0,0.2,0.1,0.3,0.3,0.3h1.2c0.2,0,0.2-0.1,0.2-0.3v-2.8c0-0.3,0.2-0.8,0.8-0.8c0.3,0,0.5,0.1,0.6,0.1c0.1,0,0.1,0.1,0.2-0.1
			l0.5-1.1c0.1-0.2,0.1-0.3-0.1-0.3c-0.2-0.1-0.5-0.1-0.7-0.1c-1,0-1.4,0.5-1.5,0.9v-0.1c-0.1-0.5-0.5-0.8-1.2-0.8
			c-0.5,0-0.7,0.1-0.7,0.3v0.8c0,0.2,0,0.2,0.1,0.2c0.1,0,0.3,0.1,0.3,0.5V788.2z M506.4,786.6c0,0-0.2,0.6-0.9,0.6
			c-0.3,0-0.5-0.2-0.5-0.4c0-0.3,0.2-0.4,0.6-0.4h0.9V786.6z M508.5,787.4c0-0.2-0.1-0.2-0.2-0.2c-0.1,0-0.3-0.2-0.3-0.5v-1.6
			c0-1.2-0.7-2-2.3-2c-1.5,0-2.2,0.6-2.2,1.5c0,0.3,0,0.6,0.4,0.6h0.9c0.3,0,0.2-0.1,0.2-0.3c0-0.4,0.2-0.6,0.6-0.6
			c0.4,0,0.7,0.2,0.7,0.7v0.6h-1.1c-1.5,0-2.1,0.5-2.1,1.5c0,0.8,0.6,1.4,1.7,1.4c1,0,1.4-0.5,1.6-0.8c0.1,0.5,0.5,0.8,1.2,0.8
			c0.6,0,0.7-0.2,0.7-0.4V787.4z M500.6,788.5c0.4,0,0.6-0.1,0.7-0.6l1.5-4.4c0-0.1,0-0.3-0.2-0.3h-1.3c-0.2,0-0.2,0.1-0.3,0.3
			l-0.8,3.1l-0.8-3.1c0-0.2-0.1-0.3-0.2-0.3h-1.2c-0.2,0-0.2,0.1-0.3,0.3l-1,3.1l-0.8-3.1c0-0.1,0-0.3-0.3-0.3h-1.3
			c-0.2,0-0.2,0.2-0.2,0.3l1.5,4.4c0.2,0.5,0.3,0.6,0.7,0.6h0.7c0.4,0,0.6-0.1,0.7-0.6l0.7-2.2l0.7,2.2c0.1,0.5,0.3,0.6,0.7,0.6
			H500.6z M491.9,783.2v-1.4c0-0.2-0.1-0.3-0.3-0.3h-1.2c-0.2,0-0.2,0.1-0.2,0.3v1.4h-0.5c-0.2,0-0.2,0.1-0.2,0.3v0.8
			c0,0.2,0.1,0.3,0.2,0.3h0.5v1.6c0,1.6,0.6,2.5,2.3,2.5c0.6,0,1-0.3,1.3-0.4c0.1-0.1,0.2-0.1,0.1-0.3l-0.3-0.8
			c-0.1-0.1-0.2-0.1-0.2-0.1c-0.1,0.1-0.3,0.2-0.6,0.2c-0.5,0-0.8-0.3-0.8-1.1v-1.5h1.5c0.2,0,0.3-0.1,0.3-0.3v-0.8
			c0-0.2-0.1-0.3-0.3-0.3H491.9z M485.7,784.5v3.7c0,0.2,0.1,0.3,0.3,0.3h1.2c0.2,0,0.2-0.1,0.2-0.3v-3.7h1.3c0.2,0,0.2-0.1,0.2-0.2
			v-0.8c0-0.2-0.1-0.3-0.2-0.3h-1.3v-0.3c0-0.6,0.2-0.9,0.7-0.9c0.3,0,0.4,0.1,0.5,0.1c0.1,0,0.2,0.1,0.2-0.1l0.4-0.8
			c0.1-0.2,0-0.3-0.1-0.4c-0.2-0.1-0.6-0.3-1.2-0.3c-1.6,0-2.2,1-2.2,2.3v0.4h-0.5c-0.2,0-0.3,0.1-0.3,0.3v0.8
			c0,0.1,0.1,0.2,0.3,0.2H485.7z M481.8,787.1c-0.7,0-0.9-0.5-0.9-1.3c0-0.8,0.2-1.3,0.9-1.3c0.6,0,0.9,0.5,0.9,1.3
			C482.7,786.6,482.5,787.1,481.8,787.1 M481.8,788.5c1.6,0,2.5-1.1,2.5-2.7c0-1.6-0.9-2.7-2.5-2.7c-1.6,0-2.5,1.1-2.5,2.7
			C479.3,787.4,480.2,788.5,481.8,788.5 M478.3,782.3c0.2-0.1,0.1-0.2,0.1-0.3c-0.2-0.4-1-1.3-2.8-1.3c-1.8,0-2.8,1-2.8,2.2
			c0,3,4,1.8,4,3.4c0,0.5-0.4,0.8-1.1,0.8c-1.1,0-1.7-0.7-2-1c-0.1-0.1-0.3-0.1-0.4,0l-0.7,0.6c-0.1,0.1-0.1,0.2-0.1,0.3
			c0.3,0.4,1.1,1.5,3.1,1.5c2.1,0,2.9-1.1,2.9-2.2c0-2.9-3.9-1.9-3.9-3.4c0-0.4,0.4-0.7,1-0.7c0.9,0,1.3,0.5,1.5,0.7
			c0.1,0.1,0.2,0.1,0.3,0L478.3,782.3z M471.8,787.4c0-0.2-0.1-0.2-0.3-0.3c-0.1,0-0.2-0.2-0.2-0.4v-6c0-0.2-0.1-0.3-0.3-0.3H470
			c-0.2,0-0.3,0.1-0.3,0.3v6.3c0,1,0.5,1.5,1.4,1.5c0.6,0,0.7-0.2,0.7-0.4V787.4z M468.5,788.5c0.2,0,0.3-0.1,0.3-0.3v-0.8
			c0-0.2-0.1-0.3-0.3-0.3h-2.2l2-2.2c0.3-0.3,0.4-0.4,0.4-0.8v-0.7c0-0.2-0.1-0.3-0.3-0.3h-4c-0.2,0-0.3,0.1-0.3,0.3v0.8
			c0,0.2,0.1,0.2,0.2,0.2h2.3l-2.2,2.3c-0.2,0.3-0.4,0.4-0.4,0.6v0.8c0,0.2,0.1,0.3,0.2,0.3H468.5z M459.9,788.2
			c0,0.2,0.1,0.3,0.3,0.3h1.2c0.2,0,0.2-0.1,0.2-0.3v-2.8c0-0.3,0.2-0.8,0.8-0.8c0.3,0,0.5,0.1,0.6,0.1c0.1,0,0.1,0.1,0.2-0.1
			l0.5-1.1c0.1-0.2,0.1-0.3-0.1-0.3c-0.2-0.1-0.5-0.1-0.7-0.1c-1,0-1.4,0.5-1.5,0.9v-0.1c-0.1-0.5-0.6-0.8-1.2-0.8
			c-0.5,0-0.7,0.1-0.7,0.3v0.8c0,0.2,0,0.2,0.1,0.2c0.1,0,0.3,0.1,0.3,0.5V788.2z"/>
	</g>
</g>
</svg>
