<?xml version="1.0" encoding="utf-8"?>
<!-- Generator: Adobe Illustrator 27.0.1, SVG Export Plug-In . SVG Version: 6.00 Build 0)  -->
<svg version="1.1" id="Ebene_1" xmlns="http://www.w3.org/2000/svg" xmlns:xlink="http://www.w3.org/1999/xlink" x="0px" y="0px"
	 viewBox="0 0 1251.9 920.3" style="enable-background:new 0 0 1251.9 920.3;" xml:space="preserve">
<style type="text/css">
	.st0{fill:#FFFFFF;}
	.st1{fill:#E6382D;}
</style>
<g>
	<g>
		<path class="st0" d="M653.9,691.1h44.2V680H668v-13.4h25.8v-10.7H668v-10.2h27.6v-10.9h-41.7V691.1z M606.1,645.2h11.7
			c2.5,0,8.4,0.2,8.4,7.5c0,1.8-0.4,7.8-8.5,7.8h-11.7V645.2z M591.9,634.7v56.4h14.2V671h8.8l11.3,20.1h15.5l-13-22.5
			c6.2-2.2,11.6-6,11.6-15.6c0-16.1-13.3-18.3-21.6-18.3H591.9z M563.3,671.9H549l6.9-23.8L563.3,671.9z M584.3,691.1l-20.8-56.4
			h-14.7l-20.9,56.4h15l2.8-9h20.8l2.8,9H584.3z M529.1,634.7h-14.1l-8.2,38.8l-10.5-38.8h-12.5l-10.2,38.8l-8.3-38.8h-14.1
			l14.3,56.4h14.5l10.2-36.1l10.1,36.1h14.5L529.1,634.7z M448.3,645.8v-11.1h-43.5v11.1h14.7v45.3h14.2v-45.3H448.3z M357.7,634.7
			v56.4h14.1v-22.8h26.9v-10.9h-26.9v-11.8H401v-10.9H357.7z M304.3,662.5c0-7.6,3.3-17.7,14-17.7c10,0,14.5,8.1,14.5,18.4
			c0,7.9-3.8,17.6-14.2,17.6C308.4,680.8,304.3,671.5,304.3,662.5 M290.4,662.7c0,15.5,9.4,30.1,28,30.1c18.1,0,28.4-14.4,28.4-29.5
			c0-13.4-8.1-30.4-28.6-30.4C297.9,633,290.4,649.8,290.4,662.7 M279.9,644.1c-5.5-5.3-12.9-10.7-24.8-10.7
			c-14.5,0-22.8,7.7-22.8,18.8c0,9.9,8.1,14.5,18,15.9l6.5,0.9c5,0.6,9.8,1.8,9.8,5.7c0,4.7-6.2,6.6-10.4,6.6
			c-6.1,0-12.5-2.6-16.3-7.1l-10.7,6.8c5.8,6.7,12.5,11.4,25.7,11.4c16.1,0,25.6-7.7,25.6-19.6c0-9.7-6.1-14.1-20.8-16.2l-6.2-0.9
			c-4.8-0.7-7.2-2.2-7.2-5.2c0-2.6,2.6-6,8.4-6c6.1,0,10.7,2.8,14.8,7L279.9,644.1z"/>
	</g>
	<g>
		<path class="st0" d="M921.8,538.2H762.7l0-303.2c0-2-1.6-3.6-3.6-3.6h-28.1c-2,0-3.6,1.6-3.6,3.6l0,334.9c0,2,1.6,3.6,3.6,3.6
			h190.8c2,0,3.6-1.6,3.6-3.6v-28.1C925.4,539.8,923.8,538.2,921.8,538.2z"/>
		<path class="st0" d="M694.4,538.3h-175c-8.3,0-15.2-6.8-15.1-15.1c0-3.1,0.8-5.8,2.1-7.5l0.2-0.3l169.4-246.9
			c0.4-0.6,0.6-1.3,0.6-2.1V235c0-2-1.6-3.6-3.6-3.6l-187.9,0c-2,0-3.6,1.6-3.6,3.6l0,28.1c0,2,1.6,3.6,3.6,3.6l149.2,0.1
			l-156.5,228c-7.3,10-8.9,20.9-8.9,28.4c0,27.7,22.6,50.3,50.3,50.3h175.2c2,0,3.6-1.6,3.6-3.6v-28
			C698.1,539.9,696.4,538.3,694.4,538.3z"/>
		<path class="st0" d="M366.5,432.9c50.9-5.1,90.8-48.3,90.8-100.5c0-55.5-46.3-100.9-101.9-100.9H232.8c-2,0-3.6,1.6-3.6,3.6v77.1
			c0,2,1.6,3.6,3.6,3.6h28.1c2,0,3.6-1.6,3.6-3.6v-45.4h91.8c36.3,0,65.8,29.6,65.6,66c-0.2,36.2-30.1,65.2-66.3,65.2h-76.1
			c-27.8,0-50.3,22.5-50.3,50.3v121.6c0,2,1.6,3.6,3.6,3.6h28.1c2,0,3.6-1.6,3.6-3.6V448.3c0-8.2,6.7-14.9,14.9-14.9H324L419.2,572
			c0.7,1,1.8,1.6,3,1.6h34.1c2.9,0,4.7-3.3,3-5.7L366.5,432.9z"/>
	</g>
	<path class="st1" d="M965.3,229.1c-31.7,0-57.5,25.6-57.5,57.1l0,12l17.6,16.5l17.8-16.7v-11.9c0-12,9.9-21.7,22.1-21.7
		c12.2,0,22.1,9.7,22.1,21.7c0.3,6.1-5.5,13.9-10.8,19l-51.2,48.1c0,0-0.1,0-0.1,0l-51.2-48.1c-7.2-7.1-10.8-13.3-10.8-19
		c-0.2-16.7,19-27.2,33.3-18.7c0,0,0.1,0,0.1-0.1c3.2-11.6,9.4-22,17.6-30.4c0,0,0-0.1,0-0.1c-37.5-22.2-86.8,5.7-86.4,49.3
		c-0.2,16,7.9,31.5,22.7,45.5l0.2,0.1l72,67.6c1.4,1.3,3.6,1.3,5,0l72.4-68l1-0.9c10.2-10,16.7-20.2,19.7-30.8
		C1030.6,264.5,1001.8,228.7,965.3,229.1z"/>
</g>
</svg>
